<?xml version="1.0" encoding="iso-8859-1"?>
<!-- Generator: Adobe Illustrator 19.0.0, SVG Export Plug-In . SVG Version: 6.00 Build 0)  -->
<svg version="1.1" id="Capa_1" xmlns="http://www.w3.org/2000/svg" xmlns:xlink="http://www.w3.org/1999/xlink" x="0px" y="0px"
	 viewBox="0 0 470 470" style="enable-background:new 0 0 470 470;" xml:space="preserve">
<g>
	<path d="M377.5,327.5c0-32.49-10.651-63.089-30.803-88.489c-18.315-23.085-43.604-40.082-71.697-48.306V175h2.5
		c4.143,0,7.5-3.358,7.5-7.5s-3.357-7.5-7.5-7.5H275v-10h2.5c4.143,0,7.5-3.358,7.5-7.5s-3.357-7.5-7.5-7.5h-35V87.5
		c0-4.142-3.357-7.5-7.5-7.5s-7.5,3.358-7.5,7.5V135h-35c-4.143,0-7.5,3.358-7.5,7.5s3.357,7.5,7.5,7.5h2.5v10h-2.5
		c-4.143,0-7.5,3.358-7.5,7.5s3.357,7.5,7.5,7.5h2.5v15.705c-28.093,8.225-53.382,25.221-71.697,48.306
		C103.151,264.411,92.5,295.01,92.5,327.5c0,55.737,32.17,104.093,78.913,127.5h-8.904c-4.143,0-7.5,3.358-7.5,7.5
		s3.357,7.5,7.5,7.5h144.98c4.143,0,7.5-3.358,7.5-7.5s-3.357-7.5-7.5-7.5h-8.904C345.33,431.593,377.5,383.237,377.5,327.5z
		 M260,150v10h-17.5v-10H260z M210,150h17.5v10H210V150z M235,455c-70.304,0-127.5-57.196-127.5-127.5
		c0-58.787,39.806-109.683,96.8-123.771c3.348-0.828,5.7-3.832,5.7-7.281V175h17.5v105h-78.655c-2.915,0-5.566,1.689-6.798,4.331
		c-6.335,13.589-9.547,28.113-9.547,43.169c0,56.519,45.981,102.5,102.5,102.5c21.088,0,41.358-6.382,58.621-18.457
		c16.86-11.793,29.67-28.126,37.046-47.234c1.491-3.864-0.432-8.206-4.297-9.698c-3.865-1.491-8.205,0.433-9.697,4.296
		C303.724,392.458,270.901,415,235,415c-48.248,0-87.5-39.252-87.5-87.5c0-11.262,2.104-22.173,6.262-32.5h162.477
		c4.157,10.327,6.262,21.238,6.262,32.5c0,4.142,3.357,7.5,7.5,7.5s7.5-3.358,7.5-7.5c0-15.056-3.212-29.58-9.547-43.169
		c-1.231-2.642-3.883-4.331-6.798-4.331H242.5V175H260v21.448c0,3.449,2.353,6.453,5.7,7.281
		c56.994,14.088,96.8,64.985,96.8,123.771C362.5,397.804,305.304,455,235,455z"/>
	<path d="M209.961,119.568c3.106-2.74,3.403-7.479,0.664-10.586c-5.239-5.939-8.125-13.569-8.125-21.482
		c0-26.302,22.005-55.949,32.5-68.592c10.496,12.644,32.5,42.29,32.5,68.592c0,7.913-2.886,15.542-8.125,21.482
		c-2.739,3.106-2.442,7.846,0.664,10.586c1.426,1.258,3.195,1.875,4.958,1.875c2.077,0,4.146-0.858,5.628-2.539
		C278.282,110.223,282.5,99.07,282.5,87.5c0-40.37-40.342-83.352-42.06-85.162C239.024,0.845,237.058,0,235,0
		s-4.024,0.845-5.44,2.338C227.842,4.148,187.5,47.13,187.5,87.5c0,11.57,4.218,22.723,11.875,31.405
		C202.115,122.01,206.854,122.309,209.961,119.568z"/>
	<path d="M235,310c-4.143,0-7.5,3.358-7.5,7.5v75c0,4.142,3.357,7.5,7.5,7.5s7.5-3.358,7.5-7.5v-75
		C242.5,313.357,239.143,310,235,310z"/>
</g>
<g>
</g>
<g>
</g>
<g>
</g>
<g>
</g>
<g>
</g>
<g>
</g>
<g>
</g>
<g>
</g>
<g>
</g>
<g>
</g>
<g>
</g>
<g>
</g>
<g>
</g>
<g>
</g>
<g>
</g>
</svg>
