<?xml version="1.0" encoding="iso-8859-1"?>
<!-- Generator: Adobe Illustrator 19.0.0, SVG Export Plug-In . SVG Version: 6.00 Build 0)  -->
<svg version="1.1" id="Capa_1" xmlns="http://www.w3.org/2000/svg" xmlns:xlink="http://www.w3.org/1999/xlink" x="0px" y="0px"
	 viewBox="0 0 415 415" style="enable-background:new 0 0 415 415;" xml:space="preserve">
<g>
	<path d="M367.5,78.756H268V53.744c0-9.649-7.851-17.5-17.5-17.5h-86c-9.649,0-17.5,7.851-17.5,17.5v25.012H47.5
		c-26.191,0-47.5,19.065-47.5,42.5v20c0,4.142,3.357,7.5,7.5,7.5h400c4.143,0,7.5-3.358,7.5-7.5v-20
		C415,97.821,393.691,78.756,367.5,78.756z M162,53.744c0-1.355,1.145-2.5,2.5-2.5h86c1.355,0,2.5,1.145,2.5,2.5v25.012h-91V53.744z
		 M400,133.756H15v-12.5c0-15.164,14.579-27.5,32.5-27.5h320c17.921,0,32.5,12.336,32.5,27.5V133.756z"/>
	<path d="M407.5,163.756c-4.143,0-7.5,3.358-7.5,7.5c0,106.145-86.355,192.5-192.5,192.5S15,277.401,15,171.256
		c0-4.142-3.357-7.5-7.5-7.5s-7.5,3.358-7.5,7.5c0,87.055,53.893,161.749,130.064,192.5H117.5c-4.143,0-7.5,3.358-7.5,7.5
		s3.357,7.5,7.5,7.5h180c4.143,0,7.5-3.358,7.5-7.5s-3.357-7.5-7.5-7.5h-12.564C361.107,333.004,415,258.311,415,171.256
		C415,167.114,411.643,163.756,407.5,163.756z"/>
</g>
<g>
</g>
<g>
</g>
<g>
</g>
<g>
</g>
<g>
</g>
<g>
</g>
<g>
</g>
<g>
</g>
<g>
</g>
<g>
</g>
<g>
</g>
<g>
</g>
<g>
</g>
<g>
</g>
<g>
</g>
</svg>
