<?xml version="1.0" encoding="iso-8859-1"?>
<!-- Generator: Adobe Illustrator 19.0.0, SVG Export Plug-In . SVG Version: 6.00 Build 0)  -->
<svg version="1.1" id="Capa_1" xmlns="http://www.w3.org/2000/svg" xmlns:xlink="http://www.w3.org/1999/xlink" x="0px" y="0px"
	 viewBox="0 0 470 470" style="enable-background:new 0 0 470 470;" xml:space="preserve">
<g>
	<path d="M444.275,225.125h-13.106c-3.537-93.645-72.967-170.702-163.161-186.037l-5.15-32.753C262.285,2.688,259.142,0,255.449,0
		h-40.898c-3.692,0-6.835,2.688-7.409,6.335l-5.15,32.753C111.798,54.424,42.368,131.48,38.831,225.125H25.725
		c-4.142,0-7.5,3.357-7.5,7.5s3.358,7.5,7.5,7.5h13.344L47.287,391.9c0.968,17.879,14.527,32.841,31.611,36.298V462.5
		c0,4.143,3.358,7.5,7.5,7.5h297.203c4.143,0,7.5-3.357,7.5-7.5v-34.301c17.083-3.457,30.642-18.419,31.611-36.298l8.218-151.775
		h13.344c4.143,0,7.5-3.357,7.5-7.5S448.418,225.125,444.275,225.125z M220.964,15h28.072l3.473,22.088
		c-5.771-0.512-11.608-0.79-17.509-0.79s-11.739,0.277-17.509,0.79L220.964,15z M235,51.299c97.47,0,177.211,77.308,181.159,173.826
		H53.841C57.789,128.607,137.53,51.299,235,51.299z M93.898,455v-26.049h282.203V455H93.898z M407.734,391.09
		c-0.671,12.392-11.723,22.861-24.133,22.861H86.398c-12.411,0-23.462-10.47-24.133-22.861l-8.174-150.965h361.818L407.734,391.09z"
		/>
	<path d="M143.609,105.863c-31.939,23.089-53.867,56.916-61.744,95.251c-0.833,4.058,1.78,8.022,5.837,8.856
		c0.51,0.104,1.017,0.155,1.518,0.155c3.486,0,6.61-2.444,7.339-5.992c7.119-34.648,26.95-65.23,55.838-86.114
		c3.357-2.427,4.111-7.115,1.684-10.472C151.653,104.19,146.966,103.438,143.609,105.863z"/>
	<path d="M235,76.299c-22.311,0-43.885,4.633-64.124,13.771c-3.775,1.705-5.454,6.147-3.749,9.922
		c1.252,2.774,3.982,4.416,6.84,4.416c1.032,0,2.081-0.214,3.082-0.666c18.285-8.256,37.782-12.442,57.951-12.442
		c4.143,0,7.5-3.357,7.5-7.5S239.143,76.299,235,76.299z"/>
</g>
<g>
</g>
<g>
</g>
<g>
</g>
<g>
</g>
<g>
</g>
<g>
</g>
<g>
</g>
<g>
</g>
<g>
</g>
<g>
</g>
<g>
</g>
<g>
</g>
<g>
</g>
<g>
</g>
<g>
</g>
</svg>
