<?xml version="1.0" encoding="iso-8859-1"?>
<!-- Generator: Adobe Illustrator 19.0.0, SVG Export Plug-In . SVG Version: 6.00 Build 0)  -->
<svg version="1.1" id="Capa_1" xmlns="http://www.w3.org/2000/svg" xmlns:xlink="http://www.w3.org/1999/xlink" x="0px" y="0px"
	 viewBox="0 0 470.006 470.006" style="enable-background:new 0 0 470.006 470.006;" xml:space="preserve">
<g>
	<path d="M210.414,259.582c-2.93-2.929-7.678-2.929-10.607,0L112.43,346.96c-2.929,2.929-2.929,7.678,0,10.606
		c1.465,1.464,3.385,2.197,5.304,2.197s3.839-0.732,5.304-2.197l87.377-87.377C213.343,267.26,213.343,262.511,210.414,259.582z"/>
	<path d="M470.006,42.49c0-11.352-4.421-22.025-12.448-30.052c-16.57-16.57-43.532-16.57-60.104,0l-77.656,77.656l-6.01-6.01
		c-2.93-2.929-7.678-2.929-10.607,0c-2.929,2.929-2.929,7.678,0,10.606l9.546,9.546L90.543,326.421
		c-9.002,9.001-12.884,21.646-10.596,33.808L1.651,457.802c-2.395,2.984-2.159,7.292,0.546,9.997
		c1.457,1.457,3.377,2.197,5.306,2.197c1.654,0,3.314-0.545,4.692-1.65l97.572-78.296c12.163,2.288,24.806-1.594,33.809-10.595
		L365.76,157.27l9.545,9.545c1.465,1.464,3.385,2.197,5.304,2.197s3.839-0.732,5.304-2.197c2.929-2.929,2.929-7.678,0-10.606
		l-6.01-6.01l77.657-77.657C465.585,64.515,470.006,53.842,470.006,42.49z M132.968,368.847c-6.064,6.066-14.811,8.316-22.828,5.87
		c-2.374-0.724-4.95-0.229-6.884,1.324l-47.081,37.78l37.78-47.081c1.552-1.934,2.048-4.511,1.324-6.883
		c-2.446-8.015-0.197-16.763,5.87-22.829l222.183-222.184l31.82,31.819L132.968,368.847z M446.952,61.935l-77.657,77.656
		l-38.891-38.89l77.655-77.657c10.724-10.721,28.17-10.722,38.892,0C457.674,33.767,457.674,51.213,446.952,61.935z"/>
</g>
<g>
</g>
<g>
</g>
<g>
</g>
<g>
</g>
<g>
</g>
<g>
</g>
<g>
</g>
<g>
</g>
<g>
</g>
<g>
</g>
<g>
</g>
<g>
</g>
<g>
</g>
<g>
</g>
<g>
</g>
</svg>
