<?xml version="1.0" encoding="iso-8859-1"?>
<!-- Generator: Adobe Illustrator 19.0.0, SVG Export Plug-In . SVG Version: 6.00 Build 0)  -->
<svg version="1.1" id="Capa_1" xmlns="http://www.w3.org/2000/svg" xmlns:xlink="http://www.w3.org/1999/xlink" x="0px" y="0px"
	 viewBox="0 0 470 470" style="enable-background:new 0 0 470 470;" xml:space="preserve">
<g>
	<path d="M462.511,137.825l-455-0.65c-1.998,0-3.904,0.789-5.31,2.193C0.792,140.774,0,142.684,0,144.675
		c0,44.276,32.031,82.264,75.17,90.046c19.998,41.902,53.828,76.488,96.773,97.351c1.021,0.496,2.142,0.754,3.277,0.754h174.547
		c1.135,0,2.256-0.258,3.277-0.754c34.528-16.771,63.725-42.766,84.433-75.174C458.754,223.6,470,185.019,470,145.325
		C470,141.187,466.649,137.831,462.511,137.825z M348.026,317.825H176.963c-40.084-19.911-71.456-52.765-89.586-92.415
		c-0.138-0.384-0.307-0.755-0.503-1.109c-7.087-15.765-12.089-32.592-14.722-50.091c-0.616-4.096-4.436-6.92-8.532-6.301
		c-4.096,0.616-6.917,4.436-6.301,8.532c2.127,14.139,5.687,27.867,10.554,41.014c-28.587-9.291-49.508-34.957-52.503-65.269
		l439.489,0.628C452.191,223.551,411.812,286.163,348.026,317.825z"/>
</g>
<g>
</g>
<g>
</g>
<g>
</g>
<g>
</g>
<g>
</g>
<g>
</g>
<g>
</g>
<g>
</g>
<g>
</g>
<g>
</g>
<g>
</g>
<g>
</g>
<g>
</g>
<g>
</g>
<g>
</g>
</svg>
