<?xml version="1.0" encoding="iso-8859-1"?>
<!-- Generator: Adobe Illustrator 19.0.0, SVG Export Plug-In . SVG Version: 6.00 Build 0)  -->
<svg version="1.1" id="Capa_1" xmlns="http://www.w3.org/2000/svg" xmlns:xlink="http://www.w3.org/1999/xlink" x="0px" y="0px"
	 viewBox="0 0 470 470" style="enable-background:new 0 0 470 470;" xml:space="preserve">
<g>
	<path d="M297.5,199.41V15H310c4.142,0,7.5-3.358,7.5-7.5S314.142,0,310,0H160c-4.142,0-7.5,3.358-7.5,7.5s3.358,7.5,7.5,7.5h12.5
		v184.41c-48.759,23.821-80,73.568-80,128.09C92.5,406.075,156.425,470,235,470s142.5-63.925,142.5-142.5
		C377.5,272.978,346.259,223.231,297.5,199.41z M235,455c-70.304,0-127.5-57.196-127.5-127.5c0-50.25,29.659-95.968,75.559-116.471
		c2.702-1.207,4.441-3.889,4.441-6.848V15h95v189.182c0,2.959,1.74,5.641,4.441,6.848c45.9,20.503,75.559,66.22,75.559,116.471
		C362.5,397.804,305.304,455,235,455z"/>
	<path d="M316.238,295c4.158,10.328,6.262,21.239,6.262,32.5c0,4.142,3.358,7.5,7.5,7.5s7.5-3.358,7.5-7.5
		c0-15.055-3.212-29.579-9.547-43.169c-1.232-2.642-3.883-4.331-6.798-4.331H148.845c-2.915,0-5.566,1.689-6.798,4.331
		c-6.335,13.59-9.547,28.114-9.547,43.169c0,56.519,45.981,102.5,102.5,102.5c21.088,0,41.359-6.382,58.621-18.457
		c16.86-11.793,29.67-28.126,37.046-47.234c1.491-3.864-0.432-8.206-4.296-9.698c-3.864-1.491-8.207,0.432-9.698,4.296
		C303.723,392.458,270.901,415,235,415c-48.248,0-87.5-39.252-87.5-87.5c0-11.261,2.104-22.172,6.262-32.5H316.238z"/>
</g>
<g>
</g>
<g>
</g>
<g>
</g>
<g>
</g>
<g>
</g>
<g>
</g>
<g>
</g>
<g>
</g>
<g>
</g>
<g>
</g>
<g>
</g>
<g>
</g>
<g>
</g>
<g>
</g>
<g>
</g>
</svg>
