<?xml version="1.0" encoding="iso-8859-1"?>
<!-- Generator: Adobe Illustrator 19.0.0, SVG Export Plug-In . SVG Version: 6.00 Build 0)  -->
<svg version="1.1" id="Capa_1" xmlns="http://www.w3.org/2000/svg" xmlns:xlink="http://www.w3.org/1999/xlink" x="0px" y="0px"
	 viewBox="0 0 469.991 469.991" style="enable-background:new 0 0 469.991 469.991;" xml:space="preserve">
<g>
	<path d="M430.381,12.27C422.468,4.357,411.948,0,400.759,0s-21.709,4.357-29.622,12.27l-74.375,74.375
		c-7.961,2.214-15.213,6.442-21.087,12.315L123.11,251.525c-0.213,0.213-0.405,0.437-0.587,0.667
		c-0.046,0.058-0.087,0.119-0.131,0.179c-0.137,0.185-0.266,0.374-0.384,0.569c-0.038,0.063-0.076,0.126-0.113,0.191
		c-0.126,0.223-0.241,0.45-0.343,0.682c-0.016,0.036-0.034,0.07-0.049,0.106c-0.118,0.28-0.218,0.565-0.301,0.855
		c-0.008,0.023-13.704,48.64-13.704,48.64l-73.563,73.563c-4.238,4.239-6.572,9.875-6.572,15.869s2.334,11.63,6.572,15.868
		c4.238,4.239,9.874,6.574,15.869,6.574s11.631-2.335,15.87-6.573l73.562-73.563l48.618-13.696c0.313-0.091,0.596-0.191,0.874-0.307
		c0.04-0.017,0.079-0.038,0.119-0.055c0.227-0.1,0.45-0.212,0.668-0.336c0.067-0.038,0.133-0.077,0.199-0.117
		c0.192-0.117,0.378-0.243,0.561-0.379c0.061-0.045,0.124-0.088,0.184-0.135c0.23-0.181,0.454-0.373,0.666-0.585L343.69,166.976
		c5.873-5.874,10.102-13.126,12.315-21.087l16.642-16.642l-11.255,16.149c-0.797,1.144-1.26,2.487-1.336,3.88
		c-0.338,6.206-2.417,12.176-6.014,17.263L230.636,341.129l-45.598,21.729c-1.159,0.553-2.157,1.393-2.898,2.441l-61.178,86.554
		c-2.369,3.351-7.021,4.15-10.374,1.782c-3.351-2.369-4.15-7.023-1.781-10.374l61.179-86.554c2.391-3.383,1.587-8.063-1.796-10.454
		c-3.385-2.39-8.063-1.586-10.454,1.796l-61.179,86.555c-7.141,10.104-4.731,24.137,5.374,31.28
		c3.926,2.774,8.443,4.107,12.921,4.107c7.047-0.001,13.991-3.303,18.359-9.48l60.048-84.955l45.598-21.729
		c1.159-0.553,2.157-1.393,2.898-2.441l124.536-176.189c4.8-6.79,7.741-14.663,8.571-22.895L435.6,65.156
		c0.016-0.022,0.027-0.046,0.043-0.069C446.466,48.822,444.714,26.603,430.381,12.27z M270.674,218.776l-46.801-46.8l10.605-10.605
		l46.801,46.8L270.674,218.776z M249.46,239.99l-46.8-46.801l10.605-10.606l46.801,46.8L249.46,239.99z M228.247,261.203l-46.8-46.8
		l10.606-10.606l46.8,46.801L228.247,261.203z M207.034,282.416l-46.801-46.8l10.606-10.606l46.8,46.8L207.034,282.416z
		 M185.821,303.63l-46.8-46.801l10.605-10.606l46.801,46.8L185.821,303.63z M133.284,321.245c-1.236,0.348-2.362,1.008-3.271,1.915
		l-74.947,74.947c-1.405,1.406-3.274,2.181-5.263,2.181c-1.987,0-3.856-0.774-5.262-2.181c-1.406-1.405-2.18-3.273-2.18-5.262
		s0.773-3.856,2.18-5.262l74.948-74.948c0.907-0.908,1.567-2.034,1.915-3.271l10.756-38.18l39.303,39.304L133.284,321.245z
		 M343.94,136.739c-0.998,0.998-1.693,2.258-2.008,3.634c-1.384,6.059-4.444,11.59-8.85,15.995l-41.195,41.195l-46.801-46.8
		l41.196-41.196c4.405-4.406,9.937-7.466,15.995-8.85c1.376-0.313,2.636-1.01,3.634-2.008l75.833-75.833
		C386.823,17.798,393.576,15,400.759,15s13.936,2.798,19.015,7.877c10.485,10.484,10.485,27.544,0,38.028L343.94,136.739z"/>
</g>
<g>
</g>
<g>
</g>
<g>
</g>
<g>
</g>
<g>
</g>
<g>
</g>
<g>
</g>
<g>
</g>
<g>
</g>
<g>
</g>
<g>
</g>
<g>
</g>
<g>
</g>
<g>
</g>
<g>
</g>
</svg>
