<?xml version="1.0" encoding="iso-8859-1"?>
<!-- Generator: Adobe Illustrator 19.0.0, SVG Export Plug-In . SVG Version: 6.00 Build 0)  -->
<svg version="1.1" id="Capa_1" xmlns="http://www.w3.org/2000/svg" xmlns:xlink="http://www.w3.org/1999/xlink" x="0px" y="0px"
	 viewBox="0 0 470 470" style="enable-background:new 0 0 470 470;" xml:space="preserve">
<path d="M401.535,3.841C400.21,1.469,397.706,0,394.989,0H75.011c-2.717,0-5.222,1.47-6.547,3.841
	c-1.326,2.372-1.265,5.275,0.159,7.589l138.881,225.692V422.5c0,1.989,0.79,3.897,2.197,5.303l40,40
	c1.435,1.435,3.353,2.197,5.305,2.197c0.966,0,1.941-0.187,2.869-0.571c2.803-1.161,4.63-3.896,4.63-6.929V237.123L401.376,11.43
	C402.8,9.116,402.861,6.213,401.535,3.841z M248.617,231.07c-0.727,1.182-1.112,2.542-1.112,3.93v209.394l-25-25V235
	c0-1.388-0.385-2.749-1.112-3.931L88.433,15h293.135L248.617,231.07z"/>
<g>
</g>
<g>
</g>
<g>
</g>
<g>
</g>
<g>
</g>
<g>
</g>
<g>
</g>
<g>
</g>
<g>
</g>
<g>
</g>
<g>
</g>
<g>
</g>
<g>
</g>
<g>
</g>
<g>
</g>
</svg>
