<?xml version="1.0" encoding="iso-8859-1"?>
<!-- Generator: Adobe Illustrator 19.0.0, SVG Export Plug-In . SVG Version: 6.00 Build 0)  -->
<svg version="1.1" id="Capa_1" xmlns="http://www.w3.org/2000/svg" xmlns:xlink="http://www.w3.org/1999/xlink" x="0px" y="0px"
	 viewBox="0 0 498.5 498.5" style="enable-background:new 0 0 498.5 498.5;" xml:space="preserve">
<g>
	<path d="M419.546,488.636l-9.863-39.455c-0.835-3.339-3.835-5.681-7.276-5.681H166.574v-98.696
		c2.739-3.065,4.799-6.745,5.952-10.805h71.337c15.565,18.334,38.758,30,64.636,30s49.071-11.666,64.636-30h6.498
		c4.143,0,7.5-3.357,7.5-7.5c0-2.955-1.713-5.504-4.197-6.726c6.597-12.057,10.354-25.88,10.354-40.565
		c0-31.767-17.822-60.809-45.802-75.311v-35.898h2.5c4.143,0,7.5-3.357,7.5-7.5s-3.357-7.5-7.5-7.5h-2.5v-49.5h3.95
		c4.143,0,7.5-3.357,7.5-7.5s-3.357-7.5-7.5-7.5H265.56c-4.143,0-7.5,3.357-7.5,7.5s3.357,7.5,7.5,7.5h3.951v49.5h-96.986
		c-1.153-4.059-3.212-7.739-5.951-10.804V7.5c0-4.143-3.357-7.5-7.5-7.5h-26c-4.143,0-7.5,3.357-7.5,7.5v134.695
		c-2.739,3.065-4.799,6.745-5.952,10.804H86.074c-4.143,0-7.5,3.357-7.5,7.5s3.357,7.5,7.5,7.5h33.548
		c1.153,4.06,3.213,7.74,5.952,10.804v129.392c-2.739,3.064-4.798,6.744-5.951,10.803H86.074c-4.143,0-7.5,3.357-7.5,7.5
		s3.357,7.5,7.5,7.5h33.549c1.153,4.059,3.212,7.739,5.951,10.803V443.5h-9.5c-3.441,0-6.441,2.342-7.276,5.681l-10,40
		c-0.56,2.241-0.057,4.614,1.365,6.435c1.421,1.82,3.602,2.885,5.911,2.885h306.332c4.162,0,7.52-3.357,7.52-7.5
		C419.926,490.174,419.793,489.379,419.546,488.636z M158.573,160.499c0,6.893-5.607,12.5-12.499,12.5
		c-6.889,0-12.494-5.602-12.5-12.49c0.005-6.907,5.61-12.51,12.5-12.51C152.966,147.999,158.573,153.606,158.573,160.499z
		 M146.074,187.999c1.883,0,3.722-0.191,5.5-0.553v112.107c-1.777-0.362-3.616-0.553-5.499-0.553c-1.883,0-3.723,0.191-5.501,0.554
		V187.446C142.352,187.808,144.191,187.999,146.074,187.999z M133.575,326.499c0-6.893,5.607-12.5,12.5-12.5
		c6.892,0,12.499,5.607,12.499,12.5s-5.607,12.5-12.499,12.5C139.183,338.999,133.575,333.392,133.575,326.499z M308.499,348.999
		c-16.281,0-31.266-5.619-43.151-15h86.302C339.765,343.38,324.78,348.999,308.499,348.999z M336.93,215.452
		c25.125,11.224,41.36,36.249,41.36,63.756c0,14.781-4.632,28.494-12.503,39.791H251.211c-7.87-11.297-12.503-25.01-12.503-39.791
		c0-27.507,16.235-52.532,41.361-63.756c2.702-1.206,4.441-3.889,4.441-6.848v-40.605h47.978v40.605
		C332.488,211.563,334.228,214.246,336.93,215.452z M284.511,103.499h47.978v49.5h-47.978V103.499z M269.511,203.897
		c-27.98,14.503-45.803,43.544-45.803,75.311c0,14.374,3.607,27.917,9.945,39.791h-61.127c-1.153-4.06-3.213-7.74-5.952-10.805
		V178.803c2.739-3.064,4.798-6.744,5.951-10.804h96.986V203.897z M151.574,15v118.552c-1.778-0.362-3.617-0.553-5.5-0.553
		s-3.722,0.191-5.5,0.553V15H151.574z M140.574,353.445c1.778,0.362,3.618,0.554,5.501,0.554c1.883,0,3.722-0.191,5.499-0.553V443.5
		h-11V353.445z M115.68,483.5l6.25-25h274.621l6.25,25H115.68z"/>
	<path d="M259.635,256.307c0,4.143,3.357,7.5,7.5,7.5h82.729c4.143,0,7.5-3.357,7.5-7.5s-3.357-7.5-7.5-7.5h-82.729
		C262.992,248.807,259.635,252.164,259.635,256.307z"/>
</g>
<g>
</g>
<g>
</g>
<g>
</g>
<g>
</g>
<g>
</g>
<g>
</g>
<g>
</g>
<g>
</g>
<g>
</g>
<g>
</g>
<g>
</g>
<g>
</g>
<g>
</g>
<g>
</g>
<g>
</g>
</svg>
