<?xml version="1.0" encoding="iso-8859-1"?>
<!-- Generator: Adobe Illustrator 19.0.0, SVG Export Plug-In . SVG Version: 6.00 Build 0)  -->
<svg version="1.1" id="Capa_1" xmlns="http://www.w3.org/2000/svg" xmlns:xlink="http://www.w3.org/1999/xlink" x="0px" y="0px"
	 viewBox="0 0 470 470" style="enable-background:new 0 0 470 470;" xml:space="preserve">
<g>
	<path d="M423.318,362.021c0-17.108-8.744-32.212-22-41.094V209.235c0-19.793-14.657-40.395-33.368-46.901l-73.578-25.59
		c-0.427-5.611-1.519-11.104-3.265-16.427l53.081-53.018c0.001-0.001,20.255-20.231,20.255-20.231c1.408-1.407,2.2-3.316,2.2-5.307
		s-0.792-3.899-2.2-5.307L330.142,2.193c-2.929-2.924-7.672-2.924-10.601,0l-73.343,73.256c-7.035-2.304-14.366-3.489-21.87-3.489
		c-38.746,0-70.268,31.488-70.268,70.193c0,0.262,0.017,0.521,0.02,0.783l-31.522,13.71c-1.825,0.794-3.26,2.281-3.988,4.133
		c-0.729,1.853-0.691,3.918,0.104,5.742l15.828,36.304c1.23,2.821,3.986,4.505,6.879,4.505c0.999,0,2.014-0.201,2.988-0.624
		l31.567-13.731c6.095,5.794,13.213,10.523,21.072,13.849v34.319c0,4.143,3.358,7.5,7.5,7.5h39.643c4.142,0,7.5-3.357,7.5-7.5
		v-34.319c9.87-4.177,18.579-10.557,25.541-18.502l49.164,29.593c4.823,2.903,9.215,10.668,9.215,16.29v22.135
		c0,4.143,3.358,7.5,7.5,7.5s7.5-3.357,7.5-7.5v-22.135c0-10.957-7.084-23.485-16.479-29.142l-48.242-29.037
		c3.983-7.19,6.74-15.146,7.987-23.588l69.187,24.063c12.627,4.392,23.295,19.382,23.295,32.733v69.569H166.847
		c-4.142,0-7.5,3.357-7.5,7.5s3.358,7.5,7.5,7.5H268.41v91.556h-67.785c-4.142,0-7.5,3.357-7.5,7.5v32.452H83.904
		c-20.524,0-37.222,16.683-37.222,37.188c0,4.143,3.358,7.5,7.5,7.5h339.636c4.142,0,7.5-3.357,7.5-7.5v-59.385
		C414.573,394.233,423.318,379.129,423.318,362.021z M304.58,38.337l23.688,23.66l-45.841,45.787L258.74,84.124L304.58,38.337z
		 M324.842,18.1l23.688,23.66l-9.648,9.637l-23.688-23.66L324.842,18.1z M135.424,167.409l20.571-8.947
		c1.951,8.156,5.319,15.766,9.848,22.546l-20.586,8.955L135.424,167.409z M236.65,233.644h-24.643v-22.398
		c4.004,0.711,8.116,1.103,12.321,1.103c4.205,0,8.318-0.392,12.322-1.103V233.644z M224.328,197.348
		c-30.475,0-55.268-24.76-55.268-55.194c0-30.434,24.793-55.193,55.268-55.193c6.765,0,13.351,1.2,19.598,3.568l32.102,32.064
		c2.369,6.236,3.569,12.81,3.569,19.561C279.597,172.588,254.803,197.348,224.328,197.348z M208.125,400.36h60.285v24.952h-60.285
		V400.36z M386.318,455H62.989c3.086-8.555,11.297-14.688,20.916-14.688h279.914c4.142,0,7.5-3.357,7.5-7.5s-3.358-7.5-7.5-7.5
		H283.41V293.804h102.908v20.367c-3.995-1.042-8.183-1.601-12.5-1.601c-27.294,0-49.5,22.184-49.5,49.45s22.206,49.45,49.5,49.45
		c4.317,0,8.505-0.558,12.5-1.601V455z M390.283,392.288c-0.025,0.013-0.051,0.027-0.076,0.041
		c-4.878,2.641-10.461,4.143-16.39,4.143c-19.023,0-34.5-15.454-34.5-34.45s15.477-34.45,34.5-34.45
		c5.932,0,11.519,1.503,16.4,4.148c0.018,0.01,0.037,0.02,0.055,0.03c10.741,5.844,18.045,17.222,18.045,30.272
		C408.318,375.067,401.018,386.441,390.283,392.288z"/>
</g>
<g>
</g>
<g>
</g>
<g>
</g>
<g>
</g>
<g>
</g>
<g>
</g>
<g>
</g>
<g>
</g>
<g>
</g>
<g>
</g>
<g>
</g>
<g>
</g>
<g>
</g>
<g>
</g>
<g>
</g>
</svg>
