<?xml version="1.0" encoding="iso-8859-1"?>
<!-- Generator: Adobe Illustrator 19.0.0, SVG Export Plug-In . SVG Version: 6.00 Build 0)  -->
<svg version="1.1" id="Capa_1" xmlns="http://www.w3.org/2000/svg" xmlns:xlink="http://www.w3.org/1999/xlink" x="0px" y="0px"
	 viewBox="0 0 470 470" style="enable-background:new 0 0 470 470;" xml:space="preserve">
<g>
	<path d="M213.515,321.359c0-4.143-3.358-7.5-7.5-7.5H77.934c-4.142,0-7.5,3.357-7.5,7.5v28.201c0,4.143,3.358,7.5,7.5,7.5
		s7.5-3.357,7.5-7.5v-20.701h120.581C210.157,328.859,213.515,325.502,213.515,321.359z"/>
	<path d="M462.5,313.859H266.55l138.558-138.558c1.407-1.407,2.197-3.314,2.197-5.304s-0.79-3.896-2.197-5.304l-99.802-99.802
		c-2.929-2.928-7.678-2.928-10.606,0L156.141,203.45V7.5c0-4.143-3.358-7.5-7.5-7.5H7.5C3.358,0,0,3.357,0,7.5v384.565
		c0,4.143,3.358,7.5,7.5,7.5h62.934V462.5c0,4.143,3.358,7.5,7.5,7.5H462.5c4.142,0,7.5-3.357,7.5-7.5V321.359
		C470,317.217,466.642,313.859,462.5,313.859z M83.32,386.765c-0.006-0.007-44.64-44.64-44.64-44.64L153.884,226.92
		c0.039-0.038,0.077-0.076,0.114-0.114l86.95-86.949l89.195,89.196l-86.999,86.999c-0.011,0.011-115.27,115.27-115.27,115.27
		L83.32,386.765z M300.002,80.803l89.195,89.195l-48.447,48.447l-89.195-89.196L300.002,80.803z M141.141,15v68.515H15V15H141.141z
		 M15,98.515h126.141V218.45L22.77,336.821c-1.407,1.407-2.197,3.314-2.197,5.304s0.79,3.896,2.197,5.304l37.137,37.137H15V98.515z
		 M85.434,410.093l37.138,37.138c1.464,1.464,3.384,2.196,5.303,2.196s3.839-0.732,5.303-2.196l118.371-118.371h119.936V455H85.434
		V410.093z M455,455h-68.515V328.859H455V455z"/>
	<path d="M148.641,298.857c4.142,0,7.5-3.357,7.5-7.5v-27.38c0-4.143-3.358-7.5-7.5-7.5s-7.5,3.357-7.5,7.5v27.38
		C141.141,295.5,144.499,298.857,148.641,298.857z"/>
	<path d="M156.141,392.065v-40.707c0-4.143-3.358-7.5-7.5-7.5s-7.5,3.357-7.5,7.5v33.207h-20.699c-4.142,0-7.5,3.357-7.5,7.5
		s3.358,7.5,7.5,7.5h28.199C152.783,399.565,156.141,396.208,156.141,392.065z"/>
</g>
<g>
</g>
<g>
</g>
<g>
</g>
<g>
</g>
<g>
</g>
<g>
</g>
<g>
</g>
<g>
</g>
<g>
</g>
<g>
</g>
<g>
</g>
<g>
</g>
<g>
</g>
<g>
</g>
<g>
</g>
</svg>
