<?xml version="1.0" encoding="iso-8859-1"?>
<!-- Generator: Adobe Illustrator 19.0.0, SVG Export Plug-In . SVG Version: 6.00 Build 0)  -->
<svg version="1.1" id="Capa_1" xmlns="http://www.w3.org/2000/svg" xmlns:xlink="http://www.w3.org/1999/xlink" x="0px" y="0px"
	 viewBox="0 0 470.003 470.003" style="enable-background:new 0 0 470.003 470.003;" xml:space="preserve">
<g>
	<path d="M462.501,259.999c-4.143,0-7.5,3.357-7.5,7.5v36.581c0,4.143,3.357,7.5,7.5,7.5s7.5-3.357,7.5-7.5v-36.581
		C470.001,263.356,466.644,259.999,462.501,259.999z"/>
	<path d="M7.501,259.999c-4.143,0-7.5,3.357-7.5,7.5v36.581c0,4.143,3.357,7.5,7.5,7.5s7.5-3.357,7.5-7.5v-36.581
		C15.001,263.356,11.644,259.999,7.501,259.999z"/>
	<path d="M5.859,244.816c4.043,0.914,8.054-1.634,8.96-5.675l26.858-119.632c6.411-28.559,36.555-52.686,65.824-52.686h255
		c29.27,0,59.413,24.127,65.824,52.686l26.858,119.632c0.782,3.488,3.879,5.859,7.311,5.859c0.544,0,1.097-0.06,1.649-0.185
		c4.042-0.907,6.583-4.919,5.675-8.96l-26.856-119.632c-7.973-35.511-44.067-64.4-80.461-64.4h-255
		c-36.394,0-72.488,28.89-80.461,64.4L0.184,235.856C-0.724,239.897,1.817,243.909,5.859,244.816z"/>
	<path d="M403.933,124.985c-3.896-17.355-23.645-33.161-41.432-33.161h-255c-17.787,0-37.535,15.806-41.433,33.162L43.564,225.23
		c-9.984,11.266-16.063,26.067-16.063,42.268v77.001c0,34.89,28.307,65.387,63.1,67.983l74.95,5.593
		c0.925,0.068,1.876,0.104,2.826,0.104c15.007,0,30.762-8.266,37.462-19.654l12.642-21.491c3.86-6.563,9.882-10.326,16.521-10.326
		s12.66,3.764,16.521,10.326l12.643,21.491c6.699,11.389,22.454,19.654,37.461,19.654c0.951,0,1.901-0.035,2.827-0.104l74.948-5.593
		c34.794-2.597,63.101-33.094,63.101-67.983v-77.001c0-16.201-6.079-31.002-16.063-42.269L403.933,124.985z M80.705,128.272
		c2.386-10.624,15.909-21.448,26.797-21.448h255c10.888,0,24.411,10.824,26.797,21.447l18.516,82.478
		c-8.74-4.504-18.637-7.064-29.128-7.064H91.316c-10.49,0-20.388,2.561-29.128,7.065L80.705,128.272z M427.501,344.499
		c0,27.213-22.078,51-49.217,53.024l-74.948,5.593c-0.556,0.042-1.131,0.063-1.711,0.063c-9.55,0-20.556-5.5-24.532-12.26
		l-12.642-21.491c-6.527-11.097-17.537-17.721-29.45-17.721s-22.923,6.624-29.45,17.721l-12.641,21.491
		c-3.978,6.76-14.983,12.26-24.533,12.26c-0.58,0-1.155-0.021-1.71-0.063l-74.95-5.593c-27.138-2.024-49.216-25.812-49.216-53.024
		v-77.001c0-12.714,4.89-24.304,12.883-33c0.326-0.287,0.626-0.602,0.9-0.943c8.879-9.161,21.298-14.871,35.032-14.871h287.371
		c13.789,0,26.252,5.757,35.138,14.982c0.186,0.223,0.387,0.427,0.597,0.626c8.108,8.719,13.08,20.39,13.08,33.207V344.499z"/>
	<path d="M378.687,233.684H254.69c-3.054,0-5.802,1.852-6.95,4.681c-2.117,5.22-7.117,8.593-12.738,8.593
		s-10.621-3.373-12.738-8.593c-1.148-2.829-3.896-4.681-6.95-4.681h-63.997c-4.143,0-7.5,3.357-7.5,7.5s3.357,7.5,7.5,7.5h26.792
		L74.209,352.582c-1.091-2.583-1.708-5.324-1.708-8.082v-77.001c0-10.374,8.44-18.814,18.814-18.814h30c4.143,0,7.5-3.357,7.5-7.5
		s-3.357-7.5-7.5-7.5h-30c-18.646,0-33.814,15.169-33.814,33.814v77.001c0,19.206,16.181,36.638,35.333,38.066l74.984,5.593
		c0.186,0.014,0.371,0.021,0.558,0.021c3.567,0,7.921-1.85,10.206-3.59c0.775-0.59,1.428-1.325,1.922-2.164l12.118-20.603
		c9.251-15.727,25.094-25.115,42.379-25.115s33.128,9.39,42.379,25.116l12.118,20.603c0.494,0.84,1.148,1.576,1.925,2.167
		c2.285,1.738,6.638,3.586,10.202,3.586c0.315,0,0.315,0,75.543-5.613c19.152-1.429,35.333-18.86,35.333-38.066v-77.001
		C412.501,248.853,397.332,233.684,378.687,233.684z M179.693,354.217l-11.058,18.801c-0.142,0.052-0.278,0.097-0.396,0.13
		l-74.289-5.541c-3.541-0.264-6.98-1.542-10.032-3.519l115.405-115.404h11.45c5.213,8.2,14.252,13.273,24.229,13.273
		s19.016-5.073,24.229-13.273h89.878l-81.948,81.948c-5.039-3.024-10.46-5.328-16.14-6.836l31.786-31.787
		c2.929-2.93,2.929-7.678,0-10.607c-2.93-2.928-7.678-2.928-10.607,0l-40.395,40.395
		C210.411,322.884,191.102,334.823,179.693,354.217z M397.501,344.499c0,11.257-10.223,22.271-21.449,23.107
		c-0.702,0.053-66.853,4.989-74.287,5.541c-0.119-0.033-0.256-0.078-0.397-0.13l-11.058-18.8
		c-3.163-5.376-6.937-10.173-11.189-14.332l91.202-91.202h8.364c10.374,0,18.814,8.44,18.814,18.814V344.499z"/>
</g>
<g>
</g>
<g>
</g>
<g>
</g>
<g>
</g>
<g>
</g>
<g>
</g>
<g>
</g>
<g>
</g>
<g>
</g>
<g>
</g>
<g>
</g>
<g>
</g>
<g>
</g>
<g>
</g>
<g>
</g>
</svg>
