<?xml version="1.0" encoding="iso-8859-1"?>
<!-- Generator: Adobe Illustrator 19.0.0, SVG Export Plug-In . SVG Version: 6.00 Build 0)  -->
<svg version="1.1" id="Capa_1" xmlns="http://www.w3.org/2000/svg" xmlns:xlink="http://www.w3.org/1999/xlink" x="0px" y="0px"
	 viewBox="0 0 470 470" style="enable-background:new 0 0 470 470;" xml:space="preserve">
<g>
	<path d="M235,390c85.467,0,155-69.533,155-155S320.467,80,235,80S80,149.533,80,235S149.533,390,235,390z M235,95
		c77.196,0,140,62.804,140,140s-62.804,140-140,140S95,312.196,95,235S157.804,95,235,95z"/>
	<path d="M235,350c63.411,0,115-51.589,115-115s-51.589-115-115-115s-115,51.589-115,115S171.589,350,235,350z M235,135
		c55.14,0,100,44.859,100,100s-44.86,100-100,100s-100-44.859-100-100S179.86,135,235,135z"/>
	<path d="M401.17,68.83C356.785,24.444,297.771,0,235,0S113.215,24.444,68.83,68.83C24.444,113.216,0,172.229,0,235v227.5
		c0,4.143,3.358,7.5,7.5,7.5h40c4.142,0,7.5-3.357,7.5-7.5V235c0-99.252,80.748-180,180-180s180,80.748,180,180s-80.748,180-180,180
		c-61.259,0-117.787-30.823-151.213-82.451c-2.251-3.479-6.896-4.472-10.372-2.22c-3.477,2.251-4.471,6.895-2.22,10.372
		C107.397,396.617,168.633,430,235,430c107.523,0,195-87.477,195-195S342.523,40,235,40S40,127.477,40,235v220H15V235
		c0-121.309,98.691-220,220-220s220,98.691,220,220s-98.691,220-220,220c-57.063,0-111.154-21.752-152.31-61.25
		c-2.989-2.868-7.736-2.771-10.604,0.218s-2.771,7.736,0.218,10.604C116.267,446.764,174.046,470,235,470
		c62.771,0,121.785-24.444,166.17-68.83c24.033-24.033,42.205-52.359,53.83-83.243V455h-25v-43.509c0-4.143-3.358-7.5-7.5-7.5
		s-7.5,3.357-7.5,7.5V462.5c0,4.143,3.358,7.5,7.5,7.5h40c4.142,0,7.5-3.357,7.5-7.5V235C470,172.229,445.556,113.216,401.17,68.83z
		"/>
</g>
<g>
</g>
<g>
</g>
<g>
</g>
<g>
</g>
<g>
</g>
<g>
</g>
<g>
</g>
<g>
</g>
<g>
</g>
<g>
</g>
<g>
</g>
<g>
</g>
<g>
</g>
<g>
</g>
<g>
</g>
</svg>
