<?xml version="1.0" encoding="iso-8859-1"?>
<!-- Generator: Adobe Illustrator 19.0.0, SVG Export Plug-In . SVG Version: 6.00 Build 0)  -->
<svg version="1.1" id="Capa_1" xmlns="http://www.w3.org/2000/svg" xmlns:xlink="http://www.w3.org/1999/xlink" x="0px" y="0px"
	 viewBox="0 0 470 470" style="enable-background:new 0 0 470 470;" xml:space="preserve">
<g>
	<path d="M400,0H70c-4.143,0-7.5,3.357-7.5,7.5v440c0,12.406,10.094,22.5,22.5,22.5h300c12.406,0,22.5-10.094,22.5-22.5V7.5
		C407.5,3.357,404.143,0,400,0z M385,455H85c-4.136,0-7.5-3.364-7.5-7.5V345H340c4.143,0,7.5-3.357,7.5-7.5s-3.357-7.5-7.5-7.5H77.5
		V15h315v315H370c-4.143,0-7.5,3.357-7.5,7.5s3.357,7.5,7.5,7.5h22.5v102.5C392.5,451.636,389.136,455,385,455z"/>
	<path d="M235,50c-67.547,0-122.5,54.953-122.5,122.5S167.453,295,235,295s122.5-54.953,122.5-122.5S302.547,50,235,50z M235,280
		c-59.275,0-107.5-48.225-107.5-107.5S175.725,65,235,65s107.5,48.225,107.5,107.5S294.275,280,235,280z"/>
	<path d="M235,80c-51.005,0-92.5,41.495-92.5,92.5S183.995,265,235,265c44.85,0,83.134-32.038,91.03-76.18
		c0.729-4.077-1.984-7.974-6.063-8.703c-4.073-0.731-7.974,1.985-8.703,6.063C304.649,223.159,272.575,250,235,250
		c-42.733,0-77.5-34.767-77.5-77.5S192.267,95,235,95c37.575,0,69.649,26.841,76.265,63.82c0.729,4.077,4.627,6.787,8.703,6.063
		c4.078-0.729,6.792-4.626,6.063-8.703C318.134,112.038,279.85,80,235,80z"/>
	<path d="M340,360H130c-4.143,0-7.5,3.357-7.5,7.5v35c0,4.143,3.357,7.5,7.5,7.5h210c4.143,0,7.5-3.357,7.5-7.5v-35
		C347.5,363.357,344.143,360,340,360z M332.5,395h-195v-20h195V395z"/>
	<path d="M340,425h-30c-4.143,0-7.5,3.357-7.5,7.5s3.357,7.5,7.5,7.5h30c4.143,0,7.5-3.357,7.5-7.5S344.143,425,340,425z"/>
	<path d="M280,425h-30c-4.143,0-7.5,3.357-7.5,7.5s3.357,7.5,7.5,7.5h30c4.143,0,7.5-3.357,7.5-7.5S284.143,425,280,425z"/>
	<path d="M220,425h-30c-4.143,0-7.5,3.357-7.5,7.5s3.357,7.5,7.5,7.5h30c4.143,0,7.5-3.357,7.5-7.5S224.143,425,220,425z"/>
	<path d="M160,425h-30c-4.143,0-7.5,3.357-7.5,7.5s3.357,7.5,7.5,7.5h30c4.143,0,7.5-3.357,7.5-7.5S164.143,425,160,425z"/>
</g>
<g>
</g>
<g>
</g>
<g>
</g>
<g>
</g>
<g>
</g>
<g>
</g>
<g>
</g>
<g>
</g>
<g>
</g>
<g>
</g>
<g>
</g>
<g>
</g>
<g>
</g>
<g>
</g>
<g>
</g>
</svg>
