<?xml version="1.0" encoding="iso-8859-1"?>
<!-- Generator: Adobe Illustrator 19.0.0, SVG Export Plug-In . SVG Version: 6.00 Build 0)  -->
<svg version="1.1" id="Capa_1" xmlns="http://www.w3.org/2000/svg" xmlns:xlink="http://www.w3.org/1999/xlink" x="0px" y="0px"
	 viewBox="0 0 470 470" style="enable-background:new 0 0 470 470;" xml:space="preserve">
<g>
	<path d="M315,330h-2.5v-22.5c0-4.142-3.358-7.5-7.5-7.5s-7.5,3.358-7.5,7.5V330h-15v-12.5c0-4.142-3.358-7.5-7.5-7.5h-12.93
		c29.253-45.965,70.43-116.981,70.43-152.5c0-39.456-23.899-74.976-60-90.019V15h2.5c4.142,0,7.5-3.358,7.5-7.5S279.142,0,275,0h-80
		c-4.142,0-7.5,3.358-7.5,7.5s3.358,7.5,7.5,7.5h2.5v52.481c-36.101,15.043-60,50.563-60,90.019
		c0,35.519,41.177,106.535,70.43,152.5H195c-4.142,0-7.5,3.358-7.5,7.5V330H175c-4.142,0-7.5,3.358-7.5,7.5s3.358,7.5,7.5,7.5h12.5
		v12.5c0,4.142,3.358,7.5,7.5,7.5h17.5v67.5c0,1.989,0.79,3.897,2.197,5.303l30,30c1.435,1.435,3.353,2.197,5.305,2.197
		c0.966,0,1.941-0.187,2.869-0.571c2.803-1.161,4.63-3.896,4.63-6.929V365H275c4.142,0,7.5-3.358,7.5-7.5V345h15v22.5
		c0,4.142,3.358,7.5,7.5,7.5s7.5-3.358,7.5-7.5V345h2.5c4.142,0,7.5-3.358,7.5-7.5S319.142,330,315,330z M152.5,157.5
		c0-34.906,22.103-66.171,55-77.8c2.997-1.06,5-3.893,5-7.071V15h45v57.628c0,3.179,2.003,6.012,5,7.071
		c32.897,11.629,55,42.895,55,77.8c0,25.018-26.672,80.494-73.258,152.5h-18.485C179.172,237.994,152.5,182.518,152.5,157.5z
		 M242.5,444.394l-15-15V365h15V444.394z M267.5,350h-65v-25h19.168c0.03,0,26.635,0,26.635,0c0.03,0,19.197,0,19.197,0V350z"/>
	<path d="M265.438,225.54c1.951-3.654,0.571-8.198-3.083-10.148c-3.654-1.952-8.198-0.572-10.148,3.083
		c-5.137,9.62-10.904,19.848-17.207,30.519c-7.092-12.002-13.469-23.374-19.017-33.92c-13.783-26.198-19.486-41.823-21.839-50.073
		h81.72c-1.557,5.47-4.585,14.178-10.466,27.042c-1.722,3.767-0.064,8.217,3.703,9.939c3.765,1.72,8.216,0.063,9.939-3.703
		c12.812-28.026,13.46-38.886,13.46-40.778c0-4.142-3.358-7.5-7.5-7.5H185c-4.142,0-7.5,3.358-7.5,7.5
		c0,2.779,1.215,18.955,25.208,64.558c7.316,13.905,16.024,29.187,25.882,45.421c1.36,2.24,3.791,3.607,6.411,3.607
		s5.051-1.368,6.411-3.607C250.394,252.686,258.478,238.576,265.438,225.54z"/>
</g>
<g>
</g>
<g>
</g>
<g>
</g>
<g>
</g>
<g>
</g>
<g>
</g>
<g>
</g>
<g>
</g>
<g>
</g>
<g>
</g>
<g>
</g>
<g>
</g>
<g>
</g>
<g>
</g>
<g>
</g>
</svg>
