<?xml version="1.0" encoding="iso-8859-1"?>
<!-- Generator: Adobe Illustrator 19.0.0, SVG Export Plug-In . SVG Version: 6.00 Build 0)  -->
<svg version="1.1" id="Capa_1" xmlns="http://www.w3.org/2000/svg" xmlns:xlink="http://www.w3.org/1999/xlink" x="0px" y="0px"
	 viewBox="0 0 470.013 470.013" style="enable-background:new 0 0 470.013 470.013;" xml:space="preserve">
<g>
	<path d="M459.351,10.655c-6.966-6.966-16.472-10.648-27.488-10.648c-16.156,0-33.235,7.813-46.856,21.434
		C369.693,36.754,361.736,57,363.964,74.223L191.705,246.482l-27.758-2.655c-2.227-0.216-4.435,0.579-6.018,2.162L23.415,380.503
		c-0.008,0.008-21.218,21.218-21.218,21.218C0.79,403.128,0,405.036,0,407.025s0.79,3.896,2.197,5.304l55.482,55.481
		c1.464,1.464,3.384,2.196,5.303,2.196s3.839-0.732,5.303-2.196l155.732-155.732c1.583-1.583,2.376-3.79,2.163-6.018l-2.655-27.759
		l172.257-172.257c1.935,0.252,3.921,0.38,5.939,0.38c16.155,0,33.229-7.81,46.845-21.426c11.044-11.044,18.39-24.594,20.685-38.154
		C471.704,32.344,468.188,19.493,459.351,10.655z M454.461,44.342c-1.78,10.517-7.64,21.188-16.501,30.05
		c-10.665,10.665-24.211,17.032-36.238,17.032c-2.367,0-4.633-0.254-6.737-0.753c-2.531-0.603-5.196,0.152-7.036,1.993
		L210.418,270.194c-1.583,1.583-2.376,3.79-2.163,6.018l2.655,27.759L62.982,451.9l-44.875-44.875l10.607-10.607l28.965,28.965
		c1.464,1.464,3.384,2.196,5.303,2.196s3.839-0.732,5.303-2.196c2.929-2.93,2.929-7.678,0-10.607L39.32,385.811l126.716-126.716
		l27.758,2.655c2.23,0.224,4.436-0.579,6.018-2.162L377.341,82.059c1.841-1.841,2.595-4.504,1.994-7.036
		c-3.112-13.106,3.278-29.975,16.279-42.977c10.67-10.67,24.221-17.04,36.25-17.04c4.848,0,11.711,1.085,16.881,6.256
		C454.051,26.569,456.082,34.765,454.461,44.342z"/>
</g>
<g>
</g>
<g>
</g>
<g>
</g>
<g>
</g>
<g>
</g>
<g>
</g>
<g>
</g>
<g>
</g>
<g>
</g>
<g>
</g>
<g>
</g>
<g>
</g>
<g>
</g>
<g>
</g>
<g>
</g>
</svg>
