<?xml version="1.0" encoding="iso-8859-1"?>
<!-- Generator: Adobe Illustrator 19.0.0, SVG Export Plug-In . SVG Version: 6.00 Build 0)  -->
<svg version="1.1" id="Capa_1" xmlns="http://www.w3.org/2000/svg" xmlns:xlink="http://www.w3.org/1999/xlink" x="0px" y="0px"
	 viewBox="0 0 470 470" style="enable-background:new 0 0 470 470;" xml:space="preserve">
<g>
	<path d="M461.985,8.021C456.812,2.849,449.934,0,442.619,0s-14.193,2.849-19.367,8.021c-4.663,4.663-7.289,10.603-7.879,16.705
		c-4.755-1.575-9.782-2.407-14.942-2.407c-12.64,0-24.512,4.911-33.43,13.828L337.51,65.639c-2.929,2.93-2.929,7.678,0,10.607
		l1.728,1.728l-73.046,73.046c-0.025,0.025-117.539,117.539-117.539,117.539c-0.033,0.033-78.378,78.378-78.378,78.378
		c-7.922,7.92-11.8,18.833-10.772,29.842L6.991,429.29c-4.504,4.505-6.984,10.493-6.984,16.862c0,6.37,2.48,12.359,6.984,16.862
		C11.495,467.52,17.484,470,23.854,470c6.369,0,12.357-2.48,16.862-6.984l52.512-52.512c11.004,1.034,21.921-2.851,29.842-10.771
		L392.033,130.77l1.728,1.728c1.465,1.464,3.385,2.196,5.304,2.196s3.839-0.732,5.304-2.196l29.491-29.491
		c8.917-8.918,13.828-20.79,13.828-33.43c0-5.155-0.83-10.177-2.402-14.928c6.309-0.605,12.161-3.354,16.7-7.894
		C472.663,36.075,472.663,18.7,461.985,8.021z M360.331,99.068l-28.574,28.574l-10.486-10.487l28.574-28.574L360.331,99.068z
		 M292.577,166.822l-10.487-10.487l28.574-28.574l10.486,10.487L292.577,166.822z M175.034,284.365l-10.487-10.487l28.574-28.574
		l10.487,10.487L175.034,284.365z M135.853,323.547l-10.487-10.487l28.574-28.574l10.487,10.487L135.853,323.547z M214.214,245.185
		l-10.487-10.487l28.574-28.574l10.487,10.487L214.214,245.185z M253.396,206.004l-10.487-10.487l28.574-28.574l10.487,10.487
		L253.396,206.004z M112.463,389.126c-5.334,5.334-12.941,7.602-20.351,6.066c-2.472-0.515-5.039,0.254-6.826,2.04l-55.177,55.176
		C28.438,454.08,26.217,455,23.853,455c-2.362,0-4.584-0.92-6.256-2.592c-1.671-1.671-2.591-3.893-2.591-6.255
		c0-2.363,0.92-4.585,2.592-6.256l55.176-55.177c1.786-1.787,2.553-4.353,2.04-6.826c-1.536-7.409,0.731-15.017,6.067-20.351
		l33.878-33.878l10.487,10.487l-33.878,33.878c-2.929,2.93-2.929,7.678,0,10.607c1.465,1.464,3.385,2.196,5.304,2.196
		s3.839-0.732,5.304-2.196l268.963-268.963l10.487,10.487L112.463,389.126z M423.252,92.398l-24.188,24.188l-1.718-1.718
		c-0.02-0.019-21.085-21.085-21.085-21.085c-0.039-0.039-21.104-21.104-21.104-21.104c-0.019-0.019-1.738-1.738-1.738-1.738
		l24.188-24.188c6.084-6.085,14.189-9.436,22.822-9.436s16.738,3.351,22.822,9.436c6.084,6.083,9.435,14.188,9.435,22.821
		S429.337,86.314,423.252,92.398z M451.378,36.147c-2.339,2.34-5.45,3.629-8.759,3.629c-3.31,0-6.42-1.289-8.76-3.628
		c-4.83-4.831-4.83-12.69-0.001-17.52c2.341-2.34,5.451-3.629,8.761-3.629c3.309,0,6.42,1.289,8.759,3.629
		C456.208,23.458,456.208,31.317,451.378,36.147z"/>
</g>
<g>
</g>
<g>
</g>
<g>
</g>
<g>
</g>
<g>
</g>
<g>
</g>
<g>
</g>
<g>
</g>
<g>
</g>
<g>
</g>
<g>
</g>
<g>
</g>
<g>
</g>
<g>
</g>
<g>
</g>
</svg>
