<?xml version="1.0" encoding="iso-8859-1"?>
<!-- Generator: Adobe Illustrator 19.0.0, SVG Export Plug-In . SVG Version: 6.00 Build 0)  -->
<svg version="1.1" id="Capa_1" xmlns="http://www.w3.org/2000/svg" xmlns:xlink="http://www.w3.org/1999/xlink" x="0px" y="0px"
	 viewBox="0 0 470 470" style="enable-background:new 0 0 470 470;" xml:space="preserve">
<g>
	<path d="M451.256,51.47l-78.53-32.528c-3.826-1.584-8.214,0.232-9.799,4.059c-1.585,3.827,0.232,8.214,4.059,9.799l2.312,0.958
		l-51.062,123.375c-9.774-5.61-20.066-10.207-30.735-13.726V15h2.5c4.142,0,7.5-3.358,7.5-7.5S294.142,0,290,0H180
		c-4.142,0-7.5,3.358-7.5,7.5s3.358,7.5,7.5,7.5h2.5v128.406c-10.67,3.519-20.951,8.105-30.704,13.697L100.705,33.757l2.31-0.957
		c3.827-1.585,5.644-5.973,4.059-9.799s-5.972-5.644-9.799-4.059L18.744,51.47c-3.827,1.585-5.644,5.973-4.059,9.799
		c1.196,2.888,3.989,4.632,6.932,4.632c0.957,0,1.929-0.184,2.867-0.573l2.31-0.957L90.4,217.929
		c-14.993,25.588-22.9,54.744-22.9,84.571C67.5,394.86,142.64,470,235,470s167.5-75.14,167.5-167.5
		c0-29.837-7.906-58.994-22.898-84.576l63.604-153.553l2.31,0.957c0.938,0.389,1.911,0.573,2.867,0.573
		c2.943,0,5.736-1.744,6.932-4.632C456.9,57.442,455.083,53.055,451.256,51.47z M429.348,58.631l-65.051,157.047
		c-0.922,2.227-0.718,4.761,0.548,6.812c14.821,23.995,22.655,51.662,22.655,80.01c0,84.089-68.411,152.5-152.5,152.5
		S82.5,386.589,82.5,302.5c0-28.338,7.835-56.004,22.658-80.006c1.266-2.05,1.47-4.584,0.548-6.811L40.652,58.631l46.194-19.134
		l54.443,131.437c0.852,2.057,2.573,3.628,4.699,4.291c0.73,0.228,1.482,0.339,2.23,0.339c1.43,0,2.847-0.409,4.074-1.203
		c12.34-7.982,25.735-14.118,39.813-18.237c3.197-0.935,5.394-3.867,5.394-7.198V15h75v133.926c0,3.331,2.197,6.263,5.395,7.198
		c14.064,4.114,27.47,10.261,39.845,18.269c1.869,1.21,4.178,1.527,6.306,0.864c2.125-0.662,3.848-2.235,4.699-4.292l54.412-131.468
		l12.087,5.007L429.348,58.631z"/>
	<path d="M348.14,255H121.86c-3.175,0-6.007,2-7.068,4.993c-4.839,13.64-7.292,27.942-7.292,42.507
		c0,70.304,57.196,127.5,127.5,127.5c58.15,0,108.92-39.322,123.465-95.624c1.036-4.011-1.375-8.102-5.386-9.138
		c-4.011-1.036-8.102,1.375-9.138,5.386C331.108,380.303,286.31,415,235,415c-62.033,0-112.5-50.467-112.5-112.5
		c0-11.085,1.609-21.994,4.789-32.5h215.423c3.179,10.506,4.789,21.415,4.789,32.5c0,4.142,3.358,7.5,7.5,7.5s7.5-3.358,7.5-7.5
		c0-14.565-2.453-28.867-7.292-42.507C354.146,257,351.315,255,348.14,255z"/>
</g>
<g>
</g>
<g>
</g>
<g>
</g>
<g>
</g>
<g>
</g>
<g>
</g>
<g>
</g>
<g>
</g>
<g>
</g>
<g>
</g>
<g>
</g>
<g>
</g>
<g>
</g>
<g>
</g>
<g>
</g>
</svg>
