<?xml version="1.0" encoding="iso-8859-1"?>
<!-- Generator: Adobe Illustrator 19.0.0, SVG Export Plug-In . SVG Version: 6.00 Build 0)  -->
<svg version="1.1" id="Capa_1" xmlns="http://www.w3.org/2000/svg" xmlns:xlink="http://www.w3.org/1999/xlink" x="0px" y="0px"
	 viewBox="0 0 470 470" style="enable-background:new 0 0 470 470;" xml:space="preserve">
<g>
	<path d="M395.083,201.185c-20.445-26.874-49.006-47.233-80.89-57.776V15h2.5c4.142,0,7.5-3.358,7.5-7.5s-3.358-7.5-7.5-7.5h-110
		c-4.142,0-7.5,3.358-7.5,7.5s3.358,7.5,7.5,7.5h2.5v128.406c-10.67,3.519-20.951,8.105-30.704,13.697L127.398,33.757l2.31-0.957
		c3.827-1.585,5.644-5.973,4.059-9.799s-5.972-5.644-9.799-4.059L54.682,47.641c-0.01,0.004-9.244,3.829-9.244,3.829
		c-3.827,1.585-5.644,5.973-4.059,9.799c1.196,2.888,3.989,4.632,6.932,4.632c0.957,0,1.929-0.184,2.867-0.573l2.31-0.957
		l63.606,153.557c-14.993,25.588-22.9,54.744-22.9,84.571c0,92.36,75.14,167.5,167.5,167.5s167.5-75.14,167.5-167.5
		C429.194,265.551,417.399,230.517,395.083,201.185z M261.694,455c-84.089,0-152.5-68.411-152.5-152.5
		c0-28.338,7.835-56.004,22.658-80.006c1.266-2.05,1.47-4.584,0.548-6.811L67.346,58.631l46.194-19.134l54.443,131.437
		c0.852,2.057,2.573,3.628,4.699,4.291c0.73,0.228,1.482,0.339,2.23,0.339c1.43,0,2.847-0.409,4.074-1.203
		c12.34-7.982,25.735-14.118,39.813-18.237c3.197-0.935,5.394-3.867,5.394-7.198V15h75v133.926c0,3.331,2.197,6.263,5.394,7.198
		c64.534,18.879,109.606,79.071,109.606,146.375C414.194,386.589,345.783,455,261.694,455z"/>
	<path d="M369.405,270c3.179,10.506,4.789,21.415,4.789,32.5c0,4.142,3.358,7.5,7.5,7.5s7.5-3.358,7.5-7.5
		c0-14.565-2.453-28.866-7.292-42.507C380.841,257,378.01,255,374.834,255h-226.28c-3.175,0-6.007,2-7.068,4.993
		c-4.839,13.64-7.292,27.942-7.292,42.507c0,70.304,57.196,127.5,127.5,127.5c58.15,0,108.92-39.322,123.465-95.624
		c1.036-4.011-1.375-8.102-5.386-9.138c-4.013-1.036-8.102,1.375-9.138,5.386C357.802,380.303,313.004,415,261.694,415
		c-62.033,0-112.5-50.467-112.5-112.5c0-11.085,1.609-21.994,4.789-32.5H369.405z"/>
</g>
<g>
</g>
<g>
</g>
<g>
</g>
<g>
</g>
<g>
</g>
<g>
</g>
<g>
</g>
<g>
</g>
<g>
</g>
<g>
</g>
<g>
</g>
<g>
</g>
<g>
</g>
<g>
</g>
<g>
</g>
</svg>
