<?xml version="1.0" encoding="iso-8859-1"?>
<!-- Generator: Adobe Illustrator 19.0.0, SVG Export Plug-In . SVG Version: 6.00 Build 0)  -->
<svg version="1.1" id="Capa_1" xmlns="http://www.w3.org/2000/svg" xmlns:xlink="http://www.w3.org/1999/xlink" x="0px" y="0px"
	 viewBox="0 0 470 470" style="enable-background:new 0 0 470 470;" xml:space="preserve">
<g>
	<path d="M462.5,140.625H7.5c-4.142,0-7.5,3.358-7.5,7.5c0,34.183,27.174,79.757,69.229,116.107
		C97.375,288.561,156.34,329.375,235,329.375s137.625-40.814,165.771-65.143C442.826,227.882,470,182.308,470,148.125
		C470,143.983,466.642,140.625,462.5,140.625z M390.962,252.884c-26.569,22.965-82.161,61.491-155.962,61.491
		s-129.393-38.526-155.962-61.491C43.872,222.489,19.3,184.511,15.51,155.625H454.49C450.7,184.511,426.128,222.489,390.962,252.884
		z"/>
	<path d="M380.735,225.608c1.903,0,3.809-0.721,5.27-2.164c10.068-9.945,18.843-20.415,26.08-31.119
		c2.32-3.431,1.419-8.094-2.013-10.414c-3.432-2.32-8.094-1.419-10.414,2.013c-6.686,9.889-14.826,19.595-24.194,28.848
		c-2.947,2.911-2.976,7.66-0.065,10.606C376.866,224.864,378.799,225.608,380.735,225.608z"/>
	<path d="M235,289.375c55.692,0,100.083-24.807,127.516-45.618c3.3-2.503,3.946-7.208,1.442-10.508
		c-2.503-3.3-7.209-3.946-10.508-1.442c-25.599,19.419-66.928,42.568-118.45,42.568c-4.142,0-7.5,3.358-7.5,7.5
		S230.858,289.375,235,289.375z"/>
</g>
<g>
</g>
<g>
</g>
<g>
</g>
<g>
</g>
<g>
</g>
<g>
</g>
<g>
</g>
<g>
</g>
<g>
</g>
<g>
</g>
<g>
</g>
<g>
</g>
<g>
</g>
<g>
</g>
<g>
</g>
</svg>
