<?xml version="1.0" encoding="utf-8"?>
<!-- Generator: Adobe Illustrator 19.0.0, SVG Export Plug-In . SVG Version: 6.00 Build 0)  -->
<svg version="1.1" xmlns="http://www.w3.org/2000/svg" xmlns:xlink="http://www.w3.org/1999/xlink" x="0px" y="0px"
	 viewBox="0 0 960 560" style="enable-background:new 0 0 960 560;" xml:space="preserve">
<style type="text/css">
	.st0{fill:#39B54A;}
	.st1{opacity:0.1;}
	.st2{fill:#29ABE2;}
	.st3{fill:#FF1D25;}
	.st4{fill:#FF931E;}
	.st5{fill:#42210B;}
	.st6{opacity:0.2;}
	.st7{opacity:0.48;}
	.st8{fill:none;}
	.st9{fill:#0071BC;}
	.st10{fill:#2E3192;}
</style>
<g id="Fondo">
	<g id="XMLID_63_">
		<g id="XMLID_426_">
			<path id="XMLID_3_" class="st0" d="M376,507.9c5-13.6,12.9-25.7,23.5-35.6c0.9-0.8,0.3-2.1-0.7-2.5c-15.3-5.9-23.1,14.5-36,17.5
				c0.6,0.7,1.1,1.5,1.7,2.2c4.6-10.1,9.3-20.1,13.9-30.2c0.4-0.8,0.2-1.5-0.5-2.1c-3.4-2.4-7.4-2.4-10.8,0
				c-1.6,1.1-0.1,3.7,1.5,2.6c2.6-1.8,5.2-1.8,7.7,0c-0.2-0.7-0.4-1.4-0.5-2.1c-4.6,10.1-9.3,20.1-13.9,30.2
				c-0.5,1.2,0.3,2.5,1.7,2.2c12.2-2.9,20.7-22.8,34.4-17.5c-0.2-0.8-0.4-1.7-0.7-2.5c-10.9,10.3-19.1,22.9-24.2,37
				C372.4,509,375.3,509.7,376,507.9L376,507.9z"/>
		</g>
	</g>
	<g id="XMLID_448_">
		<g id="XMLID_461_">
			<path id="XMLID_1_" class="st0" d="M354.3,428.5c14.7-17.1,35.9-29.8,40.2-53.7c2.2-12.1-6.7-20.1-18.5-18.5
				c-11.1,1.6-21.7,4.5-32.1,8.8c5.6,7.3,11.3,14.7,16.9,22c4-5.4,8-10.8,12-16.3c4.8-6.5,1.1-16.7-5.4-20.5
				c-7.6-4.5-15.7-1.2-20.5,5.4c-4,5.4-8,10.8-12,16.3c-7.4,10.1,5.1,26.9,16.9,22c10.3-4.3,21-7.2,32.1-8.8
				c-6.2-6.2-12.3-12.3-18.5-18.5c-0.4,2.3-1,4.5-1.7,6.7c0.9-2.8-0.5,0.9-0.7,1.4c-0.5,1-1.1,2-1.7,2.9c-0.6,1-1.2,1.9-1.9,2.8
				c1.5-2.2-0.3,0.3-0.6,0.7c-1.6,1.9-3.4,3.8-5.2,5.6c-6.8,6.9-14.3,13-20.7,20.4c-5.3,6.1-6,15.2,0,21.2
				C338.5,433.9,349,434.6,354.3,428.5L354.3,428.5z"/>
		</g>
	</g>
	<g id="XMLID_449_">
		<g id="XMLID_547_">
			<path id="XMLID_69_" class="st0" d="M383.1,430.1c-12.1,15.6-25.2,27.1-41.6,36.6c-5.7,3.3-8.6,10.6-6.9,16.9
				c1.8,6.7,7.8,10.5,14.5,11c16.3,1.3,33-1,48.4-6.5c-4.9-8.4-9.7-16.7-14.6-25.1c-9.6,8.2-19.4,15.4-30.4,22.4
				c-12.6,8-7.5,27.4,7.6,28c16.6,0.6,33.3,0.6,50,0.6c-2.5-0.7-5-1.4-7.6-2c-3.3-4-4.4-5.2-3.4-3.4c0-5,0-10.1,0-15.1
				c-1.5,3,1.7-2.6,3.2-1.8c0,0-5.2,0.5-0.7,0.3c-2.9,0.1-5.7,0-8.6,0c-7.8-0.2-15.4,7-15,15c0.4,8.3,6.6,14.8,15,15
				c7.8,0.2,15.9,0.3,22.8-3.8c10.6-6.2,15.2-20.2,5.5-29.4c-7.7-7.4-22.6-4.7-32.5-4.8c-9.6-0.1-19.2-0.2-28.8-0.6
				c2.5,9.3,5,18.6,7.6,28c12.8-8.1,24.9-17.2,36.4-27.1c11.2-9.6-0.7-30.1-14.6-25.1c-13.9,5-25.8,6.6-40.4,5.4
				c2.5,9.3,5,18.6,7.6,28c18.3-10.6,34.7-24.6,47.7-41.3c5-6.4,6.2-15,0-21.2C399.1,424.9,388.1,423.6,383.1,430.1L383.1,430.1z"/>
		</g>
	</g>
	<g id="XMLID_441_">
		<g id="XMLID_555_">
			<path id="XMLID_71_" class="st0" d="M355.3,474.2c15.7-7.6,30.4-17.2,45.6-25.6c7.1-3.9,9.4-13.7,5.4-20.5
				c-4.2-7.1-13.4-9.3-20.5-5.4c-15.3,8.4-29.9,18-45.6,25.6c-7.3,3.5-9.2,13.9-5.4,20.5C339.1,476.3,348,477.7,355.3,474.2
				L355.3,474.2z"/>
		</g>
	</g>
	<g id="XMLID_296_">
		<g id="XMLID_501_">
			<path id="XMLID_72_" class="st0" d="M369.2,441.8c6.5-8.4,13-14.3,21.1-19.2c6.3-3.9,9.2-11.9,6.1-18.7
				c-3.2-7.3-10.1-9.9-17.7-8.7c-14,2.2-28.5,14-30,28.6c0,0.3-0.3,4.2-0.2,2.6c0.2-1.6-0.4,2.2-0.5,2.5c-0.3,1.5-0.7,3-1.1,4.4
				c-0.2,0.5-1.7,4.4-0.6,2c-1,2.2-2.2,4.4-3.7,6.4c1.5-2-1.4,1.4-1.4,1.5c-0.4,0.4-3.5,2.9-1.6,1.5c-6.5,4.8-9.8,13-5.4,20.5
				c3.8,6.5,13.9,10.2,20.5,5.4c15.6-11.4,22.7-27.9,23.9-46.8c-0.7,2.5-1.4,5-2,7.6c0.3-0.7,3-4.8,1.4-3.1c0.4-0.4,3.4-2.9,1.4-1.5
				c0.1-0.1,4.1-2.3,1.6-1.2c1.7-0.8,3.7-1.1,5.6-1.4c-3.9-9.1-7.7-18.3-11.6-27.4c-10.4,6.3-19.7,14.3-27.1,23.9
				c-5,6.4-6.2,15,0,21.2C353.1,446.9,364.2,448.2,369.2,441.8L369.2,441.8z"/>
		</g>
	</g>
	<g id="XMLID_88_" class="st1">
		<g id="XMLID_440_">
			<path id="XMLID_4_" class="st2" d="M280.5,244.5c17.2-13.4,33.4-28,48.6-43.6c-8.5-3.5-17.1-7.1-25.6-10.6c-0.2,1.8-0.2,2,0,0.6
				c-0.2,1-0.4,2-0.6,3c-0.3,1.5-0.7,3-1.2,4.5c-1.3,4.2-1.2,3.9-3.4,7.7c-2.1,3.8-2.7,4.6-4.9,7c-1,1.1-2.1,2.2-3.2,3.3
				c-0.8,0.7-1.5,1.4-2.3,2c1-0.7,0.8-0.6-0.6,0.5c-9,6.5-10.3,19.7,0,25.9c14.9,9,34.4-1.4,47.8-8.9c13.2-7.4,25.4-17.1,35.6-28.3
				c5.3-5.8,6.2-15.5,0-21.2c-7.7-7.1-18.9-10.5-29-6.5c-6,2.4-11.3,7.4-11,14.5c0.3,6.2,4.4,13.2,11,14.5c6.8,1.3,13.7,2,20.6,1.4
				c3.7-0.3,7.3-0.8,10.9-1.6c1.4-0.3,2.8-0.7,4.3-1.1c8.3-2.2-8.2,2.5-9.6-7.5c0-2.7,0-5.3,0-8c-0.3,1.6-0.3,1.7,0.2,0.2
				c1-1.2,0.8-1-0.7,0.7c-1.3,1.4-2.6,2.9-3.8,4.3c-3,3.3-6,6.7-8.9,10c-4,4.5-5.6,10.6-3.1,16.4c2.2,4.9,7.8,10,13.7,9.2
				c15.4-1.9,29.9-6.7,42.4-16.1c-7.3-5.6-14.7-11.3-22-16.9c0.7-1.8-0.5,0.9-0.8,1.5c-0.5,0.9-1,1.9-1.5,2.8
				c-1,1.8-3.1,4.9-3.7,5.7c-0.4,0.5-2.9,3.2-4.1,4.4c-0.8,0.7-1.6,1.4-2.3,2.2c-3.3,3.1,1.7-1.1-1.9,1.6c-6.5,4.8-9.8,13-5.4,20.5
				c3.8,6.4,13.9,10.2,20.5,5.4c13-9.5,22-21.2,28.1-36c4.9-11.7-11.9-24.5-22-16.9c-4.2,3.1-9.9,6.6-13.9,8.3
				c-0.9,0.4-4.8,1.7-6.8,2.2c-1.3,0.4-2.7,0.7-4,1c-0.4,0.1-4.8,0.8-2.5,0.5c3.5,8.5,7.1,17.1,10.6,25.6
				c10.3-11.5,32-29.9,15.9-45.8c-7.1-7-16.1-5.5-24.8-3.4c-3.6,0.9-4.4,1-8.2,1.2c-3.5,0.1-7-0.1-9.1-0.6c0,9.6,0,19.3,0,28.9
				c0.9-0.4,1.7-0.7,2.7-0.9c-0.6,0.3-1.2,0.4-1.8,0.2c-1.1-0.2-0.8-0.1,0.8,0.3c-0.7-0.1-1.3-0.4-1.9-0.8c0-7.1,0-14.1,0-21.2
				c-8.2,9-15.4,15.2-25.2,21.1c-4.9,3-10,5.7-15.3,7.9c1.7-0.7-1.2,0.5-1.7,0.7c-1.3,0.5-2.6,1-3.9,1.4c-0.2,0.1-4.3,1.3-4.3,1.2
				c0-0.6,3.1,0.1,3.3,0.3c0,8.6,0,17.3,0,25.9c18.2-13.1,29.1-32.1,31-54.5c1.1-13.2-17-19.4-25.6-10.6
				c-15.2,15.6-31.4,30.2-48.6,43.6c-6.4,5-5.2,16,0,21.2C265.6,250.8,274.1,249.5,280.5,244.5L280.5,244.5z"/>
		</g>
	</g>
	<g id="XMLID_298_" class="st1">
		<g id="XMLID_541_">
			<path id="XMLID_73_" class="st3" d="M580,298.9c-0.2-3.2-0.3-6.4-0.5-9.7c-7.5,4.3-15,8.6-22.6,13c0.7,0.3,1.3,0.7,2,1.1
				c-1-0.8-2-1.6-3-2.3c0.6,0.5,1.1,1,1.6,1.6c-0.8-1-1.6-2-2.3-3c0.6,0.8,1,1.5,1.4,2.4c-0.5-1.2-1-2.4-1.5-3.6
				c0.2,0.5,0.4,1.1,0.5,1.6c2.1,7.6,10.8,13,18.5,10.5c7.8-2.5,12.7-10.3,10.5-18.5c-0.9-3.4-2.5-6.4-4.7-9.1
				c-2.1-2.7-4.6-5.2-7.8-6.5c-2.3-1.4-4.9-2-7.6-2c-2.7,0-5.2,0.7-7.6,2c-4.4,2.6-7.7,7.8-7.4,13c0.2,3.2,0.3,6.4,0.5,9.7
				c0.2,4,1.5,7.7,4.4,10.6c2.6,2.6,6.9,4.6,10.6,4.4c3.9-0.2,7.9-1.4,10.6-4.4C578.3,306.6,580.2,302.8,580,298.9L580,298.9z"/>
		</g>
	</g>
	<g id="XMLID_70_" class="st1">
		<g id="XMLID_535_">
			<path id="XMLID_74_" class="st3" d="M680.7,293.3c10.1-8.7,20.3-17.5,30.4-26.2c5.6-4.8,5.5-14.2,1.2-19.7
				c-4.2-5.3-13.3-8.4-19.4-3.9c-39.8,29.6-83.9,53.1-130.5,69.2c6.3,4.8,12.7,9.6,19,14.5c-0.1-1.4-0.1-2.8-0.2-4.1
				c-0.4-7.8-6.6-15.4-15-15c-7.8,0.3-15.4,6.6-15,15c0.1,1.4,0.1,2.8,0.2,4.1c0.5,9.1,9.3,17.8,19,14.5
				c49.3-16.9,95.8-41.1,137.7-72.2c-6.1-7.9-12.1-15.7-18.2-23.6c-10.1,8.7-20.3,17.5-30.4,26.2c-6.1,5.3-5.4,15.8,0,21.2
				C665.6,299.4,674.6,298.6,680.7,293.3L680.7,293.3z"/>
		</g>
	</g>
	<g id="XMLID_447_" class="st1">
		<g id="XMLID_526_">
			<path id="XMLID_75_" class="st3" d="M691.5,280.1c-38,19.4-70,51.8-111.4,62.3c4.9,8.4,9.7,16.7,14.6,25.1
				c2.2-1.9,4.3-3.8,6.5-5.6c0.8-0.6,1.6-1.3,2.4-1.9c1.1-1-2.7,1.9,0,0c0.6-0.4,1.4-0.8,2-1.4c0.3-0.2,0.6-0.3,0.8-0.5
				c-1.9,1-3.9,1.6-6.1,1.6c-2.5-0.7-5-1.4-7.6-2c0.1,0,0.1,0.1,0.2,0.1c-1.8-6.8-3.6-13.7-5.4-20.5c-1.8,2.4-5.6,4.5-7.5,5.1
				c4.9,8.4,9.7,16.7,14.6,25.1c-1.1,0.8-1.3,0.9-0.4,0.4c-2.5,0.7-5,1.4-7.6,2c0.1,0,0.2,0,0.3,0c-5-5-10-10-15-15
				c0,0.1,0,0.1,0,0.2c0.7-2.5,1.4-5,2-7.6c1.4-2.6,3.4-4.3,6.1-5.1c4.9,8.4,9.7,16.7,14.6,25.1c4.8-4.1,9.5-8.2,14.3-12.3
				c6.1-5.3,5.4-15.8,0-21.2c-6.1-6.1-15.1-5.3-21.2,0c-4.8,4.1-9.5,8.2-14.3,12.3c-11.4,9.8,0.7,29.4,14.6,25.1
				c7.8-2.5,13.3-8,13.9-16.4c0.6-7.5-7.4-15.8-15-15c-6.1,0.7-9,2.6-13.5,6.3c-11.6,9.5,0.9,29.8,14.6,25.1
				c10.8-3.7,18.6-10,25.4-18.9c5.1-6.7,0.7-16.5-5.4-20.5c-12.3-8-26.1,7-34.6,14.4c-11.8,10.2,0.8,28.6,14.6,25.1
				c45-11.5,78.1-44.8,118.6-65.4c7.2-3.7,9.3-13.8,5.4-20.5C707.7,278.1,698.7,276.4,691.5,280.1L691.5,280.1z"/>
		</g>
	</g>
	<g id="XMLID_445_" class="st1">
		<g id="XMLID_520_">
			<path id="XMLID_76_" class="st3" d="M751.1,292c-32.7,18.7-63.1,41.7-88.8,69.4c-4.8,5.2-5.4,12-2.3,18.2
				c7.2,14.4,25.1,11.5,35.9,3.4c8.7-6.5,19.9-12.7,30.3-18.4c14.5-8.1,4.8-33.1-11.6-27.4c-4.3,1.5-9.1,3.5-12.4,6.8
				c-6.1,6.1-5.2,15,0,21.2c0,0,0,0,0,0c3.3,4,9.8,5.2,14.6,3.9c3.3-0.9,6.4-2.9,9.4-4.5c14.8-8.3,4.9-32.1-11.6-27.4
				c-6.3,1.8-12.5,3.7-18.3,6.9c-12.7,7.1-7.4,28.6,7.6,28c8.4-0.4,15-3.6,22.3-7.4c15.2-8,4.7-31.8-11.6-27.4
				c-8.1,2.2-16.2,3.4-21.5,10.5c-7.3,9.8,2.8,22,13,22.6c6,0.3,15-2.9,20.1-5.7c15.1-8.1,4.7-31.8-11.6-27.4
				c-33.6,9.1-66.6,17.6-101.4,16.1c1.3,9.8,2.7,19.6,4,29.5c-0.3,0.1-4.9,0.5-2.2,0.4c2.9-0.1,3,2.9-5.7-1.9c2.5-9.3,5-18.6,7.6-28
				c-1.2,0.1-2.5,0-3.7-0.1c2.5,9.3,5,18.6,7.6,28c2.4-1.2,4.8-2.4,7.2-3.6c1.7-0.8,3.5-1.6,5.2-2.5c2.3-1.1-2.7,0.9-1.2,0.5
				c2-0.6,2.1-0.1-2.3,0c-2.5-0.7-5-1.4-7.6-2c0,0,0.1,0,0.1,0.1c-2.3-5.6-4.6-11.3-6.9-16.9c6.5-6.8,8-9.2,4.8-7
				c-0.6,0.3-1.1,0.7-1.7,1c-0.9,0.5-1.8,0.9-2.8,1.4c-0.7,0.3-1.5,0.7-2.2,1c-1,0.4-0.6,0.3,1.1-0.5c-1.9,0.4-2.3,0.6-1.3,0.6
				c2.5,9.3,5,18.6,7.6,28c42.4-22.6,81.4-51.8,115.3-86c5.7-5.8,5.7-15.5,0-21.2c-5.7-5.7-15.5-5.8-21.2,0
				c-32.4,32.7-68.4,59.5-109.2,81.3c-12.7,6.8-7.4,29.1,7.6,28c9.4-0.7,29.3-7.1,31.1-18.5c1.1-7.3-1-12.6-6.9-16.9
				c-9.1-6.6-23.4,3.2-31.7,7.5c-5.8,3.1-8.6,10.8-6.9,16.9c1.8,6.5,7.8,10.7,14.5,11c1.2,0.1,2.5,0.2,3.7,0.1
				c6.4-0.7,12.9-4.1,14.5-11c1.4-6.4-0.9-13.7-6.9-16.9c-4.4-2.4-10.3-2.9-15.2-1.6c-7.2,1.9-11.7,9.2-10.7,16.5
				c1,7.5,7.2,12.7,14.7,13c37.2,1.6,73.7-7.5,109.4-17.1c-3.9-9.1-7.7-18.3-11.6-27.4c1.9-1,3.8-1.4,0.8-0.4
				c-1.3,0.4-2.7,0.8-4,1.2c-1.2,0.3-2.4,0.6-3.5,0.9c-2.5,0.7-2.5-0.3,1.8-0.1c4.3,7.5,8.6,15,13,22.6c0,0,0,0,0,0
				c-1.8,1.8-3.6,3.6-5.4,5.4c-6.3,2.9-2,1-0.1,0.4c3-0.9,6-1.7,9.1-2.5c-3.9-9.1-7.7-18.3-11.6-27.4c-1.9,1-3.7,2-5.6,3
				c-2,1,1.9-0.5-0.3,0.1c-0.6,0.2-3.4,0.4-1.2,0.3c2.5,9.3,5,18.6,7.6,28c3-1.7,7.1-2.7,11.1-3.9c-3.9-9.1-7.7-18.3-11.6-27.4
				c-1.2,0.7-2.6,1.3-3.8,2.1c-2.3,1.5,2.5-0.9,1.6-0.6c4.9,1.3,9.7,2.6,14.6,3.9c0,0,0,0,0,0c0,7.1,0,14.1,0,21.2
				c-1.6,1.6-3.9,2.4-1,1c0.4-0.2,1-0.4,1.3-0.7c1.2-0.9-3.5,1.3-1.1,0.5c-3.9-9.1-7.7-18.3-11.6-27.4c-6.9,3.9-13.7,7.9-20.5,12
				c-4,2.4-7.7,4.9-11.5,7.7c1.3-1-2.1,1.3-2.4,1.5c1.2-0.3,1-0.2-0.8,0.3c4,0.4,4.6,0.1,2-0.7c3,2.3,6,4.6,9,6.9
				c-0.3-0.7-0.7-1.3-1-2c-0.8,6.1-1.6,12.1-2.3,18.2c24.6-26.4,51.4-46.8,82.7-64.7c7-4,9.4-13.6,5.4-20.5
				C767.5,290.4,758.2,288,751.1,292L751.1,292z"/>
		</g>
	</g>
	<g id="XMLID_467_" class="st1">
		<g id="XMLID_488_">
			<path id="XMLID_77_" class="st3" d="M664.3,381.3c30.8-24.3,66.2-45.2,101.6-63.5c7.2-3.7,9.3-13.8,5.4-20.5
				c-4.3-7.3-13.3-9.1-20.5-5.4c-37.9,19.6-74.2,41.7-107.7,68.2c-6.4,5-5.3,16,0,21.2C649.3,387.5,657.9,386.3,664.3,381.3
				L664.3,381.3z"/>
		</g>
	</g>
	<g id="XMLID_450_" class="st1">
		<g id="XMLID_567_">
			<path id="XMLID_78_" class="st3" d="M609.3,231.9c3.4-7.6,5.4-14.8,5.9-23.2c0.5-7.8-7.2-15.3-15-15c-8.5,0.4-14.5,6.6-15,15
				c0,0.7-0.1,1.4-0.2,2.1c0.1-0.6,0.2-1.2,0.3-1.9c0.2,1-0.5,2.7-0.7,3.7c-0.3,1-0.6,2.1-0.9,3.1c-0.3,0.9-1.9,4.6-0.2,0.9
				c-1.7,3.8-2.7,7.4-1.5,11.6c1,3.5,3.6,7.3,6.9,9C595.3,240.7,605.9,239.5,609.3,231.9L609.3,231.9z"/>
		</g>
	</g>
	<g id="XMLID_446_" class="st1">
		<g id="XMLID_561_">
			<path id="XMLID_79_" class="st3" d="M634.9,236.8c6.3-3.8,12.6-7.7,18.5-12.1c9.4-6.9,22.2-17.9,14.2-30.9
				c-4.2-6.9-13.4-9.5-20.5-5.4c-6.9,4-9.6,13.6-5.4,20.5c-2.4-3.8-1.4-10.3-0.3-12.6c-0.9,1.8,2.4-2.1,1.1-1.4
				c-1.1,0.5-2.2,2.2-3.1,3c-0.6,0.5-1.2,0.9-1.8,1.5c-1.3,1.2,2.6-1.8,0.3-0.3c-1.5,1.1-3.1,2.2-4.6,3.3c-4.4,3-8.9,5.8-13.5,8.5
				c-7,4.1-9.5,13.5-5.4,20.5C618.5,238.4,627.9,241,634.9,236.8L634.9,236.8z"/>
		</g>
	</g>
	<g id="XMLID_172_" class="st1">
		<g id="XMLID_540_">
			<path id="XMLID_80_" class="st3" d="M620.1,265.4c-0.7-2.6-0.9-1.7-0.4,2.8c-0.7,1.2-0.7,1.4-0.2,0.4c0.3-0.4,2.4-3.7,1.7-2.7
				c-0.7,0.9,1.9-2.2,2.2-2.6c1.6-1.9,3.1-3.9,4.6-5.9c4.8-6.3,9.3-12.8,14-19.3c4.6-6.4,1.2-17-5.4-20.5c-5-2.7-10.1-4.1-15.8-3.7
				c-7.8,0.5-15.4,6.6-15,15c0.3,7.7,6.6,15.5,15,15c3.5-0.2,1.3,0,0.6-0.3c-1.8-6.8-3.6-13.7-5.4-20.5
				c-5.2,7.1-10.2,14.6-15.5,21.1c-6.9,8.3-13.3,18.1-9.4,29.4c2.6,7.7,10.3,12.7,18.5,10.5C617.1,281.8,622.7,273.1,620.1,265.4
				L620.1,265.4z"/>
		</g>
	</g>
	<g id="XMLID_438_" class="st1">
		<g id="XMLID_470_">
			<path id="XMLID_81_" class="st3" d="M622.4,303c2.6-3.1,5.2-6.1,7.9-9.1c2.7-3,4.4-6.5,4.4-10.6c0-3.7-1.6-8.1-4.4-10.6
				c-2.9-2.6-6.6-4.6-10.6-4.4c-3.8,0.2-8,1.4-10.6,4.4c-2.7,3-5.3,6.1-7.9,9.1c-2.6,3.1-4.4,6.4-4.4,10.6c0,3.7,1.6,8.1,4.4,10.6
				c2.9,2.6,6.6,4.6,10.6,4.4C615.6,307.2,619.9,306,622.4,303L622.4,303z"/>
		</g>
	</g>
	<g id="XMLID_468_" class="st1">
		<g id="XMLID_514_">
			<path id="XMLID_82_" class="st4" d="M613.7,328.3c17.7-14.1,35.2-28.5,52.5-43.2c8.1-6.9,4-18.2-3-23.6c-1.9-1.5-3.9-2.9-5.8-4.4
				c-6.5-4.9-16.8-1-20.5,5.4c-4.5,7.7-1.1,15.6,5.4,20.5c1.9,1.5,3.9,2.9,5.8,4.4c-1-7.9-2-15.7-3-23.6
				c-17.3,14.7-34.8,29.1-52.5,43.2c-6.3,5.1-5.3,15.9,0,21.2C598.8,334.5,607.3,333.3,613.7,328.3L613.7,328.3z"/>
		</g>
	</g>
	<g id="XMLID_466_" class="st1">
		<g id="XMLID_508_">
			<path id="XMLID_83_" class="st4" d="M609.4,331.7c1.1-0.9,2.2-1.7,3.2-2.6c1.5-1.4,2.5-3,3.1-4.8c0.9-1.8,1.4-3.7,1.3-5.8
				c0.1-2.1-0.4-4-1.3-5.8c-0.6-1.9-1.6-3.5-3.1-4.8c-1-0.8-2-1.6-3-2.3c-2.3-1.4-4.9-2-7.6-2c-1.3,0.2-2.7,0.4-4,0.5
				c-2.5,0.7-4.7,2-6.6,3.9c-1.1,0.9-2.2,1.7-3.2,2.6c-1.5,1.4-2.5,3-3.1,4.8c-0.9,1.8-1.4,3.7-1.3,5.8c-0.1,2.1,0.4,4,1.3,5.8
				c0.6,1.9,1.6,3.5,3.1,4.8c1,0.8,2,1.6,3,2.3c2.3,1.4,4.9,2,7.6,2c1.3-0.2,2.7-0.4,4-0.5C605.3,334.8,607.5,333.5,609.4,331.7
				L609.4,331.7z"/>
		</g>
	</g>
	<g id="XMLID_464_" class="st1">
		<g id="XMLID_481_">
			<path id="XMLID_84_" class="st4" d="M652.5,382.1c18.2-8.1,35.6-17.9,52-29.3c6.6-4.6,9.7-13.1,5.4-20.5
				c-4.3-7.4-13.3-9-20.5-5.4c-9.7,4.9-19.1,8.6-29.9,11.7c-4.7,1.4-9.4,2.9-14.2,4.1c-4.1,1.1,0.7,0.3-1.5,0.3
				c-1.2,0-2.3-0.1-3.4,0c-1.8,0.1-3.6,0.4-5.3,0.8c-0.7,0.2-1.3,0.4-2,0.5c-2.7,0.6-0.8,0.8,5.6,0.8c2.5,4.3,5,8.6,7.4,13
				c-0.1,1.4-0.5,2.1-1,3.4c-0.6,1.5,1.5-1.2-0.5,0.4c1.8-1.4,3.8-2.7,5.7-3.9c5.4-3.4,11-6.6,16.5-9.8c11.1-6.2,22.4-12.1,33.6-18
				c12.6-6.6,23.7-18.7,17.3-33.9c-5.8-13.9-21.4-15.9-34.5-13.5c-8,1.4-12.5,11.2-10.5,18.5c2.3,8.4,10.4,11.9,18.5,10.5
				c1.8-0.3,0.8,0.1-0.3,0c0.8,0.1,1.7-0.1,2.6-0.1c1.7,0,1.2,0.2-0.2-0.1c2.6,0.6,0,0-0.8-0.6c-1.4-1-3-5.1-2.9-6.8
				c0.1-1,0.6-1.7,0.9-2.6c0.4-1.2-1.2,0.5-0.3,0.1c1.3-0.6-1.5,0.8-1.7,0.9c-9.2,5.1-18.7,9.7-28,14.8c-9.2,5-18.5,10-27.2,15.8
				c-9.4,6.3-16.5,13.1-17.4,25c-0.4,5.1,3.1,10.5,7.4,13c5,2.8,10,3.6,15.6,2.6c1.3-0.2,2.7-0.7,4-0.9c-2.2,0.3-0.5,0.3,0.8,0.3
				c7.1,0,13.8-2.6,20.5-4.6c13.9-4.1,27.3-9,40.3-15.6c-5-8.6-10.1-17.3-15.1-25.9c-16.4,11.4-33.8,21.2-52,29.3
				c-7.4,3.3-9.2,14.1-5.4,20.5C636.4,384.4,645,385.5,652.5,382.1L652.5,382.1z"/>
		</g>
	</g>
	<g id="XMLID_459_" class="st1">
		<g id="XMLID_474_">
			<path id="XMLID_5_" class="st5" d="M186.9,240.8c-8.1,21.9-16.9,43.6-24.3,65.7c-4.7,14,3.6,25.9,17.3,29.4c4.7,1.2,9.4,2,14.1,3
				c2.1,0.5,4.2,1,6.2,1.6c1,0.3,2,0.6,3,0.9c0.1,0,4.4,1.8,2.2,0.8c4.6,2.1,6.2,3.4,8.9,6.2c0.7,0.7,3.5,4.3,1.8,2
				c1.3,1.8,2.5,3.6,3.8,5.4c5.3,7.8,10.5,15.4,18.3,21c3.6,2.6,8.1,4.9,12.5,5.7c4.2,0.7,0.3,3.3-4.5-6c0.8,1.5,0.4,1.5,0.2,0.4
				c0.6,3,0.6,6.2,0.8,9.2c0.5,10.9-0.4,20.6-2.4,30.6c-5,24.6-14.9,47.5-24.9,70.1c-3.3,7.4-2.1,16.1,5.4,20.5
				c6.4,3.7,17.2,2.1,20.5-5.4c9.5-21.4,19.1-42.9,25.2-65.6c3.1-11.6,5.2-23.6,6.1-35.6c0.7-10.5,1.2-23.3-2.4-33.3
				c-2.7-7.5-8.5-11.6-15.9-13.8c-0.8-0.2-1.7-0.5-2.5-0.7c0.7,0.2,2.4,1.5,0.2,0c-0.7-0.4-1.4-0.8-2.1-1.3c2.8,1.7-0.1-0.1-0.7-0.8
				c-0.7-0.7-1.4-1.5-2.1-2.3c-0.3-0.3-2-2.4-0.8-0.9c1.4,1.7-1.2-1.6-1.1-1.6c-0.5-0.7-1-1.4-1.5-2.1c-2.6-3.8-5.1-7.6-7.9-11.3
				c-6.7-8.8-14.9-14.8-25.2-18.9c-8.9-3.6-18.8-5.5-28.2-7.2c-1.5-0.3-1.2-1.1,0.1,0.1c2.9,2.5,4.3,5.3,4.2,8.6
				c-0.1,1,0.1,0.7,0.5-0.9c1.3-2.9,2.3-6.1,3.4-9.1c2.3-6.1,4.5-12.2,6.8-18.3c4.7-12.8,9.5-25.6,14.2-38.3
				c2.7-7.4-3-16.8-10.5-18.5C196.9,228.3,189.8,232.9,186.9,240.8L186.9,240.8z"/>
		</g>
	</g>
	<g id="XMLID_293_">
		<g id="XMLID_427_">
			<path id="XMLID_6_" class="st0" d="M346.1,365.3c0.3-3.1,0.6-6.2,0.9-9.3c0.9-9.4-10.4-17.5-19-14.5c-0.4,0.1-0.8,0.3-1.2,0.4
				c2.7,0,5.3,0,8,0c4.6,4.5,5.8,5.1,3.6,1.9c-0.3-0.6-0.7-1.1-1-1.7c-1.2-1.9-2.4-3.9-3.6-5.8c-2.3-3.6-4.5-7.2-6.8-10.8
				c-4.3-6.9-13.4-9.6-20.5-5.4c-6.8,4-9.7,13.6-5.4,20.5c3.8,6.1,7.6,12.3,11.5,18.3c5.1,8,13.3,15,23.5,11.4
				c-6.3-4.8-12.7-9.6-19-14.5c-0.3,3.1-0.6,6.2-0.9,9.3c-0.7,7.8,7.4,15.3,15,15C339.9,379.9,345.3,373.7,346.1,365.3L346.1,365.3z
				"/>
		</g>
	</g>
	<g id="XMLID_442_">
		<g id="XMLID_421_">
			<path id="XMLID_7_" class="st0" d="M389.8,352.7c-0.3-0.8-0.6-1.6-0.8-2.4c-0.3-1.5-0.4-1.6-0.1-0.5c0.1,1,0.2,1,0.1,0.1
				c-0.4-0.1,0.6-3.3,0-1.1c-0.5,2.1,0.6-1.6,0.6-1.6c-0.4,1.3-0.7,1.5,0.1,0.2c0.8-1.3,0.8-0.8-0.1,0c0.3-0.3,2.9-2.4,1.3-1.3
				c-1.6,1.1,1.7-0.7,1.7-0.7c7.3-3.5,9.2-14,5.4-20.5c-4.4-7.5-13.2-8.9-20.5-5.4c-14.5,6.9-22.4,26.1-16.5,41.1
				c2.9,7.3,10.2,13.2,18.5,10.5C386.4,368.9,392.9,360.5,389.8,352.7L389.8,352.7z"/>
		</g>
	</g>
	<g id="XMLID_444_" class="st1">
		<g id="XMLID_415_">
			<path id="XMLID_8_" class="st5" d="M687.6,278.4c29-16.9,57.9-33.9,86.9-50.8c17.2-10.1,38.7-18.9,44.9-39.7
				c4.1-13.8-0.5-28-9.8-38.5c-6.5-7.3-15.4-11.7-24.4-15.1c-6-2.2-12.6-3-19-3.9c-8.8-1.2-17.5-2.4-26.4-3
				c-13.6-1-27.3-0.9-40.9,0.2c-29.7,2.4-59.1,8.3-86.9,19c-33,12.7-62.7,30-89.9,52.5c-5.6,4.6-8.8,14.2-8.8,21.2
				c0,7.4,3.3,16.1,8.8,21.2c5.7,5.2,13.2,9.1,21.2,8.8c8.5-0.4,14.6-3.6,21.2-8.8c2.2-1.7,4.4-3.4,6.6-5.2c0.9-0.7,5-3.9,1-0.8
				c-4.2,3.2,0.4-0.3,1-0.8c4.3-3.3,8.5-6.5,12.8-9.7c8.9-6.6,17.8-13.1,27-19.2c18.1-12.2,37-23.2,57.1-31.7c-2.4,1-4.8,2-7.2,3
				c16.8-7,34.3-12.2,52.3-14.7c-2.7,0.4-5.3,0.7-8,1.1c2.8-0.4,5.5-0.7,8.3-0.9c-5-18.6-10.1-37.3-15.1-55.9
				c-33.1,21.6-63.8,47.2-90.5,76.4c-10.2,11.1-11.7,27.3-2.3,39.4c9.5,12.3,25.1,14.4,38.7,7.7c29.7-14.6,58.2-31.4,85.3-50.4
				c14.9-10.5,29.4-21.5,43.4-33.1c14.5-12,26.2-26.1,32.2-44.2c7.4-22.4-15.7-42.2-36.9-36.9c-14.3,3.6-28.8,6.2-43.4,8.2
				c2.7-0.4,5.3-0.7,8-1.1c-72,9.6-145.9,3.9-216.9,21.7c-21.1,5.3-41.7,13.1-61.1,23.1c-13.3,6.8-17.8,24.5-12.3,37.5
				c5.7,13.4,21,21.7,35.4,17.4c66.4-19.8,130.5-47.9,189.8-83.6c12.9-7.7,18.1-23.7,12.3-37.5C676.5,38,661.2,29.7,646.7,34
				c-30.5,9-61.2,17.8-92.8,22c2.7-0.4,5.3-0.7,8-1.1c-20,2.6-40.2,3.2-60.3,0.6c2.7,0.4,5.3,0.7,8,1.1c-9.7-1.4-19.2-3.5-28.5-6.5
				c7,12.3,14,24.6,21,36.9c1.9-4.5,3.7-9,5.6-13.5c2.8-6.7,0.4-17.2-3-23.1c-3.6-6.2-10.8-12.2-17.9-13.8c-7.7-1.7-16.3-1.4-23.1,3
				c-7,4.5-10.6,10.3-13.8,17.9c-1.9,4.5-3.7,9-5.6,13.5c-2.7,6.4-0.6,17.5,3,23.1c4.3,6.7,10.2,11.3,17.9,13.8
				c65.3,20.7,134.2,2.7,197.6-16.1c-7.7-18.3-15.4-36.6-23.1-54.8c-32.2,19.4-65.8,36.5-100.5,51.2c2.4-1,4.8-2,7.2-3
				c-26.9,11.3-54.3,21.1-82.2,29.5c7.7,18.3,15.4,36.6,23.1,54.8c5-2.6,10.1-4.9,15.2-7.2c-2.4,1-4.8,2-7.2,3
				c25.7-10.8,53-17,80.6-20.7c-2.7,0.4-5.3,0.7-8,1.1c72.6-9.5,146.8-4.1,218.3-22.1c-12.3-12.3-24.6-24.6-36.9-36.9
				c-0.5,1.5-1,2.9-1.6,4.4c1-2.4,2-4.8,3-7.2c-1.4,3.1-3.2,5.9-5.1,8.7c-1.3,1.9-0.6,0.9,2.3-3c-0.7,0.8-1.4,1.6-2.1,2.4
				c-1.1,1.2-2.2,2.3-3.3,3.4c-4.6,4.6-9.7,8.7-14.7,12.8c-1.7,1.3-3.3,2.6-5,4c-0.8,0.6-6,4.7-2,1.6c4.2-3.3-2,1.5-2.8,2.1
				c-1.5,1.1-2.9,2.2-4.4,3.3c-6.1,4.5-12.3,8.9-18.5,13.2C670,149.6,643.5,165,616,178.5c12.1,15.7,24.2,31.4,36.4,47.1
				c12.3-13.4,25.4-26.2,39.3-38c3.6-3.1,7.2-6,10.9-9c1.4-1.1,2.8-2.2,4.2-3.3c-7.3,5.9-0.7,0.5,0.9-0.7c7.5-5.6,15.3-11,23.1-16.1
				c10.8-7,18-20.9,13.8-33.9c-1.6-4.9-4.2-9.4-7.7-13.2c-4.6-5.1-14.3-9.4-21.2-8.8c-37.7,3.4-72.8,15.9-105.7,34.5
				c-31.2,17.7-59.6,39.9-87.8,61.9c14.1,14.1,28.3,28.3,42.4,42.4c1.2-1,2.5-2.1,3.7-3.1c0.8-0.7,1.7-1.3,2.5-2
				c-1.2,0.9-2.4,1.8-3.5,2.7c2.5-2,5.2-3.9,7.8-5.7c5.5-3.9,11.1-7.5,16.8-11c11.3-6.8,23-12.7,35.1-17.8c-2.4,1-4.8,2-7.2,3
				c23.3-9.7,47.7-16.3,72.8-19.7c-2.7,0.4-5.3,0.7-8,1.1c24-3.1,48.2-3.2,72.1,0c-2.7-0.4-5.3-0.7-8-1.1c7.3,1,14.9,1.9,21.8,4.6
				c-2.4-1-4.8-2-7.2-3c1.2,0.5,2.4,1.1,3.6,1.8c1.2,0.7,4.5,3.2,0.2-0.2c-2.1-1.8-2.7-2.1-1.6-1.2c0.5,0.4,0.9,0.8,1.3,1.3
				c-1,0.2-4.6-7.5-2.3-2.3c-1-2.4-2-4.8-3-7.2c0.3,0.7,0.4,1.4,0.5,2.1c-0.4-2.7-0.7-5.3-1.1-8c0.1,0.7,0.1,1.5,0,2.2
				c0.4-2.7,0.7-5.3,1.1-8c-0.1,0.8-0.3,1.5-0.6,2.3c1-2.4,2-4.8,3-7.2c-1.6,3.5,2.2-2.3,2.5-2.7c-3.2,3.6,4.8-3,2.4-1.6
				c-2.2,1.2-4.2,2.6-6.4,3.8c-4.8,2.8-9.7,5.6-14.5,8.5c-10.2,6-20.4,12-30.7,17.9c-20.2,11.8-40.3,23.6-60.5,35.4
				c-13.5,7.9-19.5,27.4-10.8,41C655.4,281.2,673.1,286.8,687.6,278.4L687.6,278.4z"/>
		</g>
	</g>
	<g id="XMLID_451_" class="st6">
		<g id="XMLID_403_">
			<path id="XMLID_9_" class="st5" d="M350.2,301.5c9.7-2.8,18-9.4,22.3-18.7c3.8-8.3-3.9-16.3-12.3-12.3c-5.4,2.6-10.9,5-16.4,7.3
				c-2.7,1.1-5.4,2.2-8.1,3.2c-1.4,0.5-3.3,0.5-2.1,1.3c1.1,1.1,2.2,2.2,3.2,3.2c0.1,0.2,0.1,0.3,0.2,0.5c-5,2.9-10,5.8-15,8.8
				c8.4,7.3,19.2,10.1,30,7.1c11.1-3.1,6.4-20.5-4.8-17.4c-4.4,1.2-9,0.6-12.5-2.5c-6.7-5.8-17.3-0.3-15,8.8
				c2.4,9.7,13,10.5,20.9,7.6c9.8-3.6,19.4-7.9,28.8-12.4c-4.1-4.1-8.2-8.2-12.3-12.3c-2.4,5.2-6,8.8-11.5,10.4
				C334.3,287.4,339,304.7,350.2,301.5L350.2,301.5z"/>
		</g>
	</g>
	<g id="XMLID_572_" class="st6">
		<g id="XMLID_397_">
			<path id="XMLID_10_" class="st5" d="M466.5,333.7c16.5-22.8,33.4-45.2,50.7-67.4c3-3.8,3.7-9,0-12.7c-3.1-3.1-9.7-3.9-12.7,0
				c-18.3,23.4-36.1,47-53.6,71c-2.9,3.9-0.7,10,3.2,12.3C458.7,339.6,463.6,337.7,466.5,333.7L466.5,333.7z"/>
		</g>
	</g>
	<g id="XMLID_578_" class="st6">
		<g id="XMLID_385_">
			<path id="XMLID_11_" class="st5" d="M394,298.8c12.9,2.2,25.3,0.5,37.1-5.4c10.4-5.1,1.3-20.7-9.1-15.5
				c-7.1,3.5-15.3,4.9-23.2,3.5c-4.8-0.8-9.7,1.3-11.1,6.3C386.5,292,389.2,298,394,298.8L394,298.8z"/>
		</g>
	</g>
	<g id="XMLID_579_" class="st6">
		<g id="XMLID_378_">
			<path id="XMLID_12_" class="st5" d="M277.6,508.8c2-15.4,1.7-30.6-0.5-45.9c-0.7-4.8-6.8-7.5-11.1-6.3c-5.2,1.4-7,6.2-6.3,11.1
				c1.9,13.6,1.7,27.5-0.1,41.1c-0.6,4.8,4.6,9,9,9C274,517.8,277,513.6,277.6,508.8L277.6,508.8z"/>
		</g>
	</g>
	<g id="XMLID_585_" class="st6">
		<g id="XMLID_368_">
			<path id="XMLID_13_" class="st5" d="M444.9,513.6c0.6-12.2,1.3-24.4,1.9-36.7c0.6-11.6-17.4-11.5-18,0
				c-0.6,12.2-1.3,24.4-1.9,36.7C426.3,525.2,444.3,525.2,444.9,513.6L444.9,513.6z"/>
		</g>
	</g>
	<g id="XMLID_586_" class="st1">
		<g id="XMLID_360_">
			<path id="XMLID_14_" class="st2" d="M644.5,518.8c14.4-6.6,28.3-14.2,41.5-23c5.6-3.7,6-11.9,0-15.5c-9.8-5.9-21.6-5.2-32.1-1.4
				c-10.2,3.7-19.8,11.1-30.9,11.4c1.5,5.6,3,11.2,4.5,16.8c18.4-11.9,36.8-23.8,55.2-35.7c6.7-4.3,5.2-13.9-2.1-16.4
				c-14.7-5.1-29.9,1.4-41.8,9.9c-10.3,7.3-20.8,18.2-34.3,18c2.1,5.1,4.2,10.2,6.4,15.4c20.6-17.8,41.1-35.7,61.7-53.5
				c6.7-5.8-0.4-17.9-8.8-15c-15.5,5.2-30.2,12.4-43.7,21.6c4.4,3.4,8.8,6.8,13.2,10.2c2.1-9,7.1-15.7,14.8-20.7
				c4.3-2.8,8.2-6.3,9.4-11.6c1.4-6-1.2-11.6-6.3-15c1.1,4.1,2.2,8.2,3.2,12.3c1.5-2.2,3-4.5,4.5-6.7c6.5-9.7-9.1-18.7-15.5-9.1
				c-1.5,2.2-3,4.5-4.5,6.7c-2.8,4.2-0.6,9.8,3.2,12.3c-0.1,0-0.2,0-0.2,0.1c-0.8-1.3-1.5-2.6-2.3-4c0.5,1.8,0.8,1.3,0.6-1.4
				c-0.2,0.1-0.5,0.3-0.7,0.4c-1.2,0-3.8,2.5-4.7,3.2c-3,2.2-5.8,4.7-8.2,7.5c-5.2,6.1-8.9,13.3-10.7,21.1
				c-1.7,7.1,6.4,14.8,13.2,10.2c12.3-8.3,25.4-15,39.4-19.8c-2.9-5-5.8-10-8.8-15c-20.6,17.8-41.1,35.7-61.7,53.5
				c-6.1,5.3-1,15.3,6.4,15.4c14.2,0.2,26-7.4,36.9-15.6c9.6-7.2,21.7-17.4,34.5-12.9c-0.7-5.5-1.4-11-2.1-16.4
				c-18.4,11.9-36.8,23.8-55.2,35.7c-7.2,4.6-4.8,17.1,4.5,16.8c11.1-0.4,20.5-5.1,30.3-9.8c7.1-3.3,16.2-7.1,23.6-2.7
				c0-5.2,0-10.4,0-15.5c-13.2,8.8-27.1,16.4-41.5,23c-4.4,2-5.5,8.4-3.2,12.3C634.9,520.2,640.1,520.9,644.5,518.8L644.5,518.8z"/>
		</g>
	</g>
	<g id="XMLID_15_" class="st7">
		<g id="XMLID_199_">
			<path id="XMLID_220_" class="st5" d="M297.4,124.2c5.4-5,10.9-9.8,16.7-14.3c1.8-1.4,4.9-3.7,7.2-5.3c1.2-0.9,2.5-1.7,3.8-2.6
				c0.7-0.5,5.3-2.9,2.9-2.3c-3.9-0.5-7.7-1-11.6-1.5c0.3,0.2,0.7,0.3,1,0.5c-1.8-1.8-3.6-3.6-5.4-5.4c0.2,0.3,0.4,0.6,0.5,1
				c-0.5-3.9-1-7.7-1.5-11.6c0.5-2.9-2.8,3.7-0.9,1.3c-0.8,1-1.6,1.9-2.5,2.8c-1.7,1.7-3.6,3.3-5.4,4.9c-5.3,4.5-9.4,10.1-13,16
				c-5.7,9.1-13.3,18.5-15.9,29.1c-1.8,7.2,1.7,14.9,8.7,17.7c7.4,3,14.2,0.1,18.7-6.1c8.6-11.6,19.4-23.7,30.1-34.7
				c5.6-5.7,11.2-11.3,16.9-16.8c3-2.9,5.9-5.8,8.9-8.7c1.2-1.2,2.5-2.5,3.7-3.7c0.6-0.6,5.3-4.2,2.4-2.6c-2.5,0.7-5,1.4-7.6,2
				c0.3,0,0.6,0,0.9,0.1c-2.5-0.7-5-1.4-7.6-2c0.2,0.1,0.5,0.3,0.7,0.4c-1.8-1.8-3.6-3.6-5.4-5.4c0.2,0.2,0.3,0.5,0.5,0.7
				c-0.7-2.5-1.4-5-2-7.6c0,0.3,0,0.6,0.1,0.8c0.7-2.5,1.4-5,2-7.6c1.8-3.2,0.4-0.5-0.4,0.3c-0.8,0.9-1.6,1.9-2.4,2.8
				c-2.2,2.7-4.3,5.5-6.4,8.3c-3.4,4.6-6.7,9.3-9.9,14.1c-3.1,4.5-6.1,9.1-9.2,13.6c-1.3,1.9-2.6,3.8-4,5.7
				c-0.6,0.8-1.1,1.7-1.7,2.4c3.5-3.8-0.1,0-0.5,0.4c-14.1,16.7-29,32.6-42.5,49.8c-4.6,5.9-6.2,13.4-1.2,19.7
				c4.9,6.1,12.4,7.2,19.4,3.9c4.1-2,8.3-4.2,11.6-7.6c6-6.1,6.1-15.9,0.1-22c-9.2-9.5-22.9-2.1-29.9,6c-11.3,13,2.6,31.1,18.2,23.6
				c13.6-6.6,24.9-17,35.5-27.6c6.7-6.7,13.6-13.1,15.7-22.7c0.2-1.1,0.4-2.2,0.5-3.3c0.2-1.7,0.5-3.3,0.7-5
				c0.1-0.6-0.8,4.5-0.2,1.8c0.2-1.1,0.5-2.1,0.7-3.2c0.1-0.7,1-2.6-0.2,0.1c-1.6,3.7,0.2-0.1,0.2-0.1c-0.1-0.3,0.7-0.7,0.6-0.9
				c0.1,0.2-2.3,2.5-1.4,1.9c0.4-0.3,1-1,1.3-1.4c1.7-1.9-1.5,0.9-0.8,0.5c1-0.5,1.9-1.2,2.8-1.8c0.8-0.5,1.8-0.8,2.6-1.3
				c1.3-0.9-1,0.4-1.1,0.4c0.5-0.2,1.1-0.4,1.6-0.6c3-1.1,6-2,9.1-2.9c8.1-2.1,16.3-3,23.3-8c3.4-2.4,6.5-5.1,9.5-7.9
				c1.4-1.3,2.8-2.7,4.2-4c0.5-0.4,1.2-0.9,1.6-1.4c0.7-0.9-0.6,0.2-1.7,0.5c-2.7,0-5.3,0-8,0c0.3,0.1,0.6,0.2,0.9,0.3
				c-2.2-1.3-4.4-2.6-6.6-3.9c0.2,0.3,0.4,0.5,0.7,0.8c-1.3-2.2-2.6-4.4-3.9-6.6c0.5,1.3,0.9,2.6,1.2,3.9c-0.5-2.5-0.2,0.2-0.2,1.4
				c0.1-3.3-0.8,2-0.3,0.7c0.6-1.5-0.3,0.5-0.4,0.7c-0.5,0.8-0.9,1.6-1.5,2.3c1.5-1.9-0.7,0.5-1.4,1c0.9-0.6,1-0.9,0-0.3
				c1.5-0.9,3-1.1,0.7-0.3c-1,0.3-1.9,0.7-2.9,1c-8.3,2.6-16.9,4.2-25,7.5c-11.2,4.5-22,13-18.6,26.6c1.6,6.6,6.7,11.4,12,15.2
				c8.3,5.9,17.5,4.9,25.8-0.2c7.7-4.8,14.9-10.6,21.6-16.8c3.1-2.8,6.3-5.6,8.9-9c1.3-1.7,2.5-3.6,3.9-5.3c-0.4,0.4-1.1,1,0,0.2
				c2.1-1.5-3.1,1.6,1.3-0.7c-2.5,0.7-5,1.4-7.6,2c0.4,0,0.9,0,1.3,0c-2.5-0.7-5-1.4-7.6-2c-0.6-0.4-1.1-0.8-1.7-1.2
				c-1.3-2.2-2.6-4.4-3.9-6.6c0.6,1.5,1.3,2.1,1,0.4c-0.2-1.1-0.9,2.6-1.4,3.9c-0.4,1-0.8,2.1-1.2,3.1c1.2-2.8-0.6,1.3-0.7,1.5
				c-1,2.1-2.2,4.3-3.6,6.1c1.8-2.2-1.3,1-1.4,1.1c1.8-1.6-1.1,0.5-1.7,0.8c-7.2,3.8-9.3,13.8-5.4,20.5c4.2,7.3,13.3,9.2,20.5,5.4
				c9.8-5.2,15.7-14.5,19.9-24.4c0.6-1.4,1.2-2.9,1.8-4.3c1.1-2.9-0.7,1.9,0.9-2.3c1.3-3.5,2.1-7,2.1-10.8
				c-0.1-8.1-4.1-16.7-11.9-19.8c-8.1-3.2-16.3,0.3-22.1,6.2c-2.1,2.1-3.9,4.7-5.6,7.1c-2.6,3.8,2-1.4-0.3,0.3c-1.1,0.9-2.1,2-3.1,3
				c-3.8,3.6-7.7,7.2-11.8,10.5c-0.6,0.4-3.8,2.8-5.4,3.8c-1,0.6-1.9,1.2-2.9,1.8c-0.7,0.4-1.5,0.9-2.2,1.3c-1.3,0.8-1,0.5,1-0.7
				c2.7,0,5.3,0,8,0c-2.9-0.4-0.5-0.1,0.3,0.6c-0.2-0.2-2.1-1.6-2-1.9c0.5,0.6,0.9,1.2,1.4,1.8c-0.6-1-0.5-0.7,0.1,0.7
				c0.9,3.3,0.7-2.9,0.8,3.7c0,0.7-1.8,6.2-1.2,5.2c-0.5,0.8-2,3.4-3.2,3.3c1.2,0.1,2.7-2.4,4-2.2c-1.6-0.3-2.9,1-0.3,0.2
				c0.6-0.2,1.2-0.4,1.8-0.6c1.9-0.6,3.9-1.2,5.8-1.8c3.7-1,7.4-2,11.1-3c10.5-3,19.3-7,25.7-16.4c7.4-10.8,9.6-29.4-0.4-39.5
				c-8.4-8.5-18.9-3.8-26.5,2.6c-2,1.7-3.9,3.5-5.8,5.4c-0.9,0.8-1.7,1.7-2.6,2.5c-0.7,0.6-1.4,1.3-2.2,1.9c1.2-0.9,1.1-0.8-0.3,0.2
				c0.1-0.1-3.8,2-1.8,1.2c1.9-0.8-2.2,0.5-2.1,0.5c-3.2,0.8-6.4,1.3-9.6,2.1c-5.8,1.5-11.4,3.4-16.9,5.8c-7.1,3.2-13.6,8-17.5,14.9
				c-1.4,2.5-2.5,5.3-3.1,8.2c-0.2,0.9-0.3,1.8-0.5,2.7c-0.3,1.7-0.5,3.3-0.7,5c-0.3,2.2,0.7-4.3,0.3-2c-0.2,1.1-0.3,2.2-0.6,3.3
				c-0.1,0.4-0.3,0.8-0.4,1.3c-0.7,3.1,1.8-2.7,0.5-1.1c-0.2,0.3-0.4,0.7-0.6,1c-1.9,2.8,2.4-2,0.5-0.5c-2,1.6-3.8,3.9-5.6,5.7
				c-10.4,10.5-18.7,19-31.7,25.3c6.1,7.9,12.1,15.7,18.2,23.6c0.6-0.8,1.3-1.4,2-2.2c1.1-1.2,2.3-0.9-0.3,0.1
				c0.5-0.2,0.9-0.6,1.4-0.8c1-0.5,0.8-0.4-0.7,0.2c-2.5,1.3-5.3,1.5-8.3,0.5c-2.2-1.3-4.4-2.6-6.6-3.9c0,0,0.1,0.1,0.1,0.1
				c-1.3-2.2-2.6-4.4-3.9-6.6c0,0.1,0,0.1,0,0.2c0-2.7,0-5.3,0-8c0.8-3.2,2.5-5.6,5.2-7.2c-0.5,0.4-1.1,0.8-1.7,1.1
				c-1.7,1.1-3.6,2-5.4,2.9c6.1,7.9,12.1,15.7,18.2,23.6c18.6-23.6,40.2-44.8,57.1-69.8c4.5-6.7,9-13.5,13.8-20.1
				c0.5-0.8,3.4-4.6,1.8-2.4c1-1.3,2.1-2.7,3.2-3.9c4-4.7,7.9-8.7,7.9-15.3c-0.1-8.1-6.2-15.2-14.2-16.3c-7.6-1-12.6,2.9-17.8,7.9
				c-7,6.9-14.1,13.8-21.1,20.7c-16,15.8-31,32.2-44.3,50.3c9.1,3.9,18.3,7.7,27.4,11.6c0.2-0.7,0.5-1.5,0.7-2.2
				c-0.7,3.3-0.6,1.3,0.2-0.1c1.1-2.2,2.3-4.3,3.6-6.4c2.3-3.9,4.8-7.7,7.3-11.5c1.3-2,2.5-4.1,3.9-6.1c1-1.5-1,0.9,0.8-1
				c0.8-0.9,1.6-1.7,2.5-2.6c3.1-3,6.6-5.5,9.4-8.8c6-7,12.5-15.6,8.7-25.3c-1.9-4.9-6.1-8.7-11.2-10.1c-5.9-1.6-11,0.6-15.8,3.8
				c-12.7,8.5-24.8,18-36.1,28.4c-6,5.5-5.6,15.6,0,21.2C282.2,130.2,291.5,129.7,297.4,124.2L297.4,124.2z"/>
		</g>
	</g>
</g>
<g id="Lineas">
	<g id="XMLID_919_">
		<path id="XMLID_351_" d="M212,216c0,0-0.2,0.4-0.6,1.2c-0.4,0.8-0.9,2-1.7,3.4c-0.7,1.5-1.6,3.3-2.7,5.3c-1.1,2-2.3,4.3-3.7,6.7
			c-2.8,4.9-6.2,10.5-9.9,16.4c-3.7,5.9-7.7,12.2-11.6,18.5c-1,1.6-2,3.1-2.9,4.7c-1,1.6-1.9,3.1-2.9,4.7c-1.9,3.1-3.7,6.2-5.5,9.2
			c-1.7,3-3.4,5.9-4.9,8.7c-0.8,1.4-1.5,2.7-2.2,4.1c-0.7,1.3-1.4,2.6-2,3.8c-1.3,2.4-2.5,4.7-3.5,6.8c-0.5,1-1,2-1.4,2.8
			c-0.4,0.9-0.8,1.7-1.2,2.4c-0.7,1.5-1.3,2.6-1.7,3.4c-0.4,0.8-0.6,1.2-0.6,1.2s0.1-0.5,0.3-1.3c0.2-0.9,0.5-2.1,0.9-3.7
			c0.2-0.8,0.4-1.7,0.6-2.7c0.3-1,0.6-2,0.9-3.1c0.3-1.1,0.7-2.3,1.1-3.5c0.4-1.2,0.9-2.5,1.3-3.8c0.5-1.3,1-2.7,1.5-4.1
			c0.6-1.4,1.2-2.9,1.8-4.4c1.2-3,2.8-6.1,4.3-9.2c0.8-1.6,1.6-3.2,2.5-4.8c0.8-1.6,1.7-3.2,2.7-4.8c0.9-1.6,1.8-3.2,2.8-4.8
			c1-1.6,2-3.2,2.9-4.8c2-3.2,4-6.3,6.1-9.4c2.1-3.1,4.1-6,6.2-8.9c4.1-5.7,8-10.9,11.4-15.4c1.7-2.2,3.3-4.2,4.7-6
			c1.4-1.8,2.6-3.4,3.6-4.7c1-1.3,1.8-2.3,2.4-3C211.7,216.4,212,216,212,216z"/>
	</g>
	<g id="XMLID_916_">
		<path id="XMLID_348_" d="M153,319.5c0,0,0.4,0,1.2,0.1c0.4,0,0.9,0.1,1.5,0.1c0.6,0.1,1.3,0,2,0.2c0.8,0.1,1.6,0.3,2.5,0.5
			c0.5,0.1,0.9,0.2,1.4,0.3c0.5,0.1,1,0.3,1.5,0.4c1,0.3,2.1,0.6,3.3,0.9c1.1,0.4,2.3,0.8,3.5,1.3c0.6,0.2,1.2,0.5,1.9,0.7
			c0.6,0.3,1.3,0.5,1.9,0.8c1.3,0.5,2.6,1.1,4,1.7c2.7,1.3,5.5,2.6,8.4,4.1c2.9,1.5,5.8,3,8.7,4.7c2.9,1.6,5.9,3.3,8.9,5
			c3,1.7,5.9,3.4,8.8,5c2.9,1.7,5.8,3.3,8.5,4.9c5.5,3.1,10.7,6.1,15.2,8.6c2.2,1.2,4.3,2.4,6.1,3.4c1.8,1,3.4,1.9,4.7,2.6
			c1.3,0.7,2.3,1.3,3,1.7c0.7,0.4,1.1,0.6,1.1,0.6s-0.4-0.1-1.2-0.3c-0.8-0.2-1.9-0.5-3.4-0.9c-1.4-0.4-3.2-0.9-5.2-1.6
			c-2-0.7-4.2-1.5-6.6-2.4c-2.4-0.9-5-2-7.7-3.1c-2.7-1.2-5.5-2.5-8.5-3.9c-1.4-0.7-2.9-1.5-4.4-2.2c-1.5-0.7-3-1.5-4.5-2.3
			c-3-1.6-6-3.2-9-4.9c-3-1.7-5.9-3.4-8.8-5.1c-2.9-1.7-5.7-3.4-8.4-5.1c-2.7-1.6-5.4-3.2-7.9-4.7c-1.2-0.8-2.5-1.4-3.7-2.1
			c-0.6-0.3-1.2-0.7-1.7-1c-0.6-0.3-1.1-0.6-1.7-0.9c-1.1-0.6-2.2-1.2-3.2-1.7c-1-0.5-2-1-2.9-1.4c-0.5-0.2-0.9-0.5-1.3-0.7
			c-0.4-0.2-0.9-0.4-1.3-0.5c-0.8-0.3-1.6-0.7-2.2-1c-1.4-0.5-2.5-0.9-3.3-1.1C153.4,319.6,153,319.5,153,319.5z"/>
	</g>
	<g id="XMLID_913_">
		<path id="XMLID_346_" d="M251,367c0,0,0,0,0-0.1c0.1,0,0,0.2,0,0.3c0,0.3,0,0.7,0,1.3c0,1.1,0,2.7-0.1,4.8
			c-0.1,2.1-0.2,4.6-0.4,7.5c-0.2,2.9-0.4,6.1-0.7,9.7c-0.3,3.5-0.6,7.4-1,11.4c-0.4,4.1-0.8,8.3-1.4,12.7c-0.6,4.4-1.1,9-1.8,13.6
			c-0.7,4.6-1.5,9.3-2.2,14c-0.8,4.7-1.7,9.3-2.7,13.9c-0.9,4.6-2,9.1-3.1,13.4c-1,4.3-2.2,8.5-3.4,12.4c-1.2,3.9-2.4,7.6-3.7,11
			c-1.3,3.4-2.6,6.4-4,9c-1.3,2.6-2.7,4.8-4.1,6.5c-1.3,1.7-2.7,2.7-3.7,3.2c-0.5,0.3-1,0.3-1.2,0.4c-0.3,0-0.4,0-0.4,0
			s0.1,0,0.4-0.1c0.3-0.1,0.6-0.3,1.1-0.6c0.9-0.6,1.9-1.8,2.9-3.6c1-1.7,2-4,2.9-6.7c1-2.7,1.9-5.8,2.8-9.1c0.9-3.4,1.8-7.1,2.7-11
			c0.9-3.9,1.7-8.1,2.6-12.4c0.9-4.3,1.7-8.8,2.5-13.4c0.8-4.6,1.7-9.2,2.5-13.8c0.9-4.6,1.7-9.3,2.4-13.9c0.8-4.6,1.6-9.1,2.3-13.4
			c0.7-4.4,1.5-8.6,2.2-12.6c0.7-4,1.4-7.8,2-11.3c0.6-3.5,1.2-6.7,1.8-9.5c0.5-2.8,1-5.3,1.4-7.3c0.4-2,0.8-3.6,1-4.7
			c0.1-0.5,0.2-1,0.3-1.2c0-0.1,0-0.3,0.1-0.3C251,367,251,367,251,367z"/>
	</g>
	<g id="XMLID_910_">
		<path id="XMLID_343_" class="st8" d="M269,309"/>
	</g>
	<g id="XMLID_907_">
		<path id="XMLID_339_" class="st8" d="M264,243"/>
	</g>
	<g id="XMLID_904_">
		<path id="XMLID_337_" d="M454,330c0,0,0.2,3.1,0.7,8.5c0.2,2.7,0.5,5.9,0.8,9.7c0.3,3.7,0.7,7.9,1.1,12.5c0.5,4.6,1,9.6,1.5,14.8
			c0.6,5.2,1.3,10.8,1.9,16.5c0.7,5.7,1.6,11.6,2.4,17.6c0.9,6,1.8,12,3,18c1.1,6,2.2,12,3.5,17.9c1.3,5.9,2.6,11.6,4.1,17.2
			c1.5,5.5,3.1,10.8,4.8,15.7c1.7,4.9,3.6,9.5,5.5,13.6c2,4.1,4.1,7.7,6.3,10.6c2.2,2.9,4.5,5.2,6.7,6.6c2.2,1.5,4.2,2.2,5.6,2.5
			c0.7,0.2,1.2,0.2,1.6,0.3c0.4,0,0.6,0.1,0.6,0.1s-0.2,0-0.6,0c-0.4,0-0.9,0.1-1.7,0c-1.4-0.1-3.6-0.5-6.1-1.8
			c-2.5-1.2-5.2-3.3-7.8-6.2c-1.3-1.4-2.6-3-3.9-4.7c-1.3-1.7-2.5-3.7-3.7-5.7c-1.2-2-2.3-4.2-3.5-6.5c-1.1-2.3-2.2-4.7-3.2-7.2
			c-2.1-5-4-10.3-5.7-15.9c-1.7-5.6-3.3-11.4-4.7-17.3c-1.4-5.9-2.6-12-3.7-18.1c-1.1-6.1-2-12.2-2.8-18.3c-0.8-6-1.4-12-1.9-17.8
			c-0.5-5.8-0.9-11.4-1.1-16.7c-0.3-5.3-0.4-10.3-0.5-15c-0.1-4.6,0-8.9,0-12.7c0-3.8,0.2-7,0.3-9.7c0.1-2.7,0.3-4.8,0.4-6.3
			C453.9,330.8,454,330,454,330z"/>
	</g>
	<g id="XMLID_901_">
		<path id="XMLID_335_" d="M454.1,342c0,0,0.2-0.4,0.5-1.1c0.4-0.7,0.9-1.8,1.6-3.2c0.7-1.4,1.5-3,2.5-4.9c1-1.9,2.2-4,3.5-6.2
			c1.3-2.3,2.8-4.7,4.4-7.2c1.6-2.5,3.4-5.1,5.2-7.8c0.9-1.4,1.9-2.7,2.9-4.1c1-1.4,2-2.8,3-4.1c2.1-2.7,4.2-5.5,6.5-8.2
			c2.2-2.7,4.5-5.3,6.8-7.9c1.1-1.3,2.3-2.5,3.5-3.8c1.2-1.2,2.3-2.5,3.4-3.6c1.2-1.2,2.3-2.3,3.4-3.4c1.1-1.1,2.3-2.2,3.3-3.2
			c2.2-2.1,4.3-3.9,6.3-5.7c2-1.7,3.9-3.2,5.5-4.5c1.6-1.3,3.2-2.4,4.4-3.3c1.2-0.9,2.2-1.6,2.9-2c0.7-0.5,1-0.7,1-0.7
			s-1.1,1.3-3.2,3.6c-2,2.3-4.9,5.5-8.3,9.5c-1.7,2-3.5,4.1-5.5,6.3c-1,1.1-2,2.3-3,3.4c-1,1.2-2,2.4-3.1,3.6
			c-2.1,2.5-4.2,5-6.4,7.6c-2.2,2.6-4.4,5.2-6.6,7.9c-2.2,2.6-4.4,5.3-6.5,7.9c-2.1,2.6-4.2,5.2-6.3,7.7c-4,5.1-7.8,9.8-11.1,13.8
			c-1.6,2-3.1,3.9-4.4,5.5c-1.3,1.7-2.5,3.1-3.4,4.3c-0.9,1.2-1.7,2.1-2.3,2.7C454.4,341.7,454.1,342,454.1,342z"/>
	</g>
	<g id="XMLID_898_">
		<path id="XMLID_332_" d="M525,257c0,0-0.3-0.3-1-0.9c-0.6-0.6-1.6-1.5-2.8-2.7c-0.6-0.6-1.3-1.2-2-1.8c-0.8-0.6-1.5-1.4-2.4-2.1
			c-0.4-0.4-0.9-0.8-1.4-1.1c-0.5-0.4-1-0.7-1.5-1.1c-1-0.8-2-1.7-3.2-2.4c-1.1-0.8-2.3-1.6-3.6-2.5c-1.3-0.8-2.6-1.6-4-2.4
			c-1.3-0.9-2.8-1.6-4.3-2.4c-0.7-0.4-1.5-0.8-2.2-1.2c-0.8-0.4-1.5-0.8-2.3-1.2c-3.1-1.7-6.3-3.2-9.6-4.9c-3.3-1.7-6.7-3.3-10.1-5
			c-3.4-1.7-6.7-3.4-10-5.2c-3.3-1.8-6.5-3.5-9.6-5.3c-1.5-0.9-3.1-1.8-4.5-2.6c-1.5-0.9-2.9-1.8-4.3-2.6c-1.4-0.9-2.7-1.7-4-2.5
			c-1.3-0.8-2.5-1.7-3.7-2.5c-2.4-1.6-4.5-3.1-6.4-4.4c-1.9-1.4-3.5-2.6-4.8-3.6c-1.3-1-2.3-1.8-3-2.4c-0.7-0.6-1.1-0.9-1.1-0.9
			s0.4,0.2,1.2,0.6c0.8,0.4,2,0.9,3.5,1.7c3,1.5,7.2,3.6,12.3,6.1c2.5,1.3,5.3,2.6,8.2,4.1c1.4,0.7,2.9,1.5,4.4,2.2
			c1.5,0.7,3.1,1.5,4.7,2.3c6.3,3.1,13.1,6.5,19.8,9.9c3.4,1.7,6.7,3.4,10,5.2c1.7,0.9,3.3,1.8,4.9,2.7c1.6,0.9,3.2,1.8,4.7,2.8
			c1.5,0.9,3,1.8,4.5,2.8c0.7,0.5,1.4,1,2.1,1.4c0.4,0.2,0.7,0.5,1,0.7c0.3,0.3,0.7,0.5,1,0.8c1.3,1,2.6,2,3.8,3c1.2,1,2.3,2,3.4,3
			c1.1,0.9,2,2,2.9,2.9c0.5,0.5,0.9,0.9,1.3,1.4c0.4,0.4,0.8,0.9,1.2,1.4c0.7,0.9,1.4,1.8,2.1,2.6c0.6,0.8,1.2,1.5,1.6,2.2
			c0.9,1.4,1.6,2.5,2.1,3.2C524.7,256.6,525,257,525,257z"/>
	</g>
	<g id="XMLID_895_">
		<path id="XMLID_330_" d="M440,257c0,0-0.2-0.1-0.7-0.3c-0.5-0.2-1.1-0.6-2-1c-0.2-0.1-0.4-0.3-0.7-0.4c-0.1-0.1-0.2-0.2-0.4-0.3
			c-0.1-0.1-0.1-0.1-0.2-0.2c-0.1-0.1-0.1-0.1-0.2-0.3l0-0.1c0-0.1,0-0.2,0-0.3c0-0.1,0-0.2,0.1-0.3c0-0.1,0.1-0.3,0.3-0.4
			c0.4-0.2,0.4-0.2,0.5-0.2c0.1,0,0.2,0,0.2,0c0.3,0,0.3,0.1,0.4,0.1l0.3,0.1c0.2,0.1,0.3,0.1,0.5,0.2c0.3,0.1,0.6,0.2,0.9,0.3
			c1.3,0.5,2.6,1.1,4.1,1.7c0.7,0.3,1.5,0.6,2.3,0.9c0.4,0.1,0.8,0.3,1.1,0.4c0.2,0.1,0.4,0.1,0.5,0.1c0.1,0,0.1,0,0.1,0
			c0,0-0.1,0-0.2,0c0,0-0.2,0-0.4,0c0,0-0.2,0-0.4,0.1c-0.2,0.1-0.2,0.1-0.5,0.3c-0.4,0.3-0.7,0.8-0.8,1.2c0,0.2-0.1,0.3-0.1,0.4
			c0,0.1,0,0.1,0,0.2l0,0.1c0.1,0.3,0.1,0.4,0.1,0.5c0,0.1,0,0.1,0,0l-0.3-0.3c-0.3-0.3-0.6-0.6-1-0.9c-0.7-0.6-1.5-1.2-2.2-1.8
			c-1.5-1.2-3.2-2.5-4.8-3.9c-1.6-1.3-3.3-2.7-4.9-4c-1.6-1.4-3.3-2.8-4.9-4.1c-1.6-1.4-3.2-2.8-4.7-4.1c-3-2.7-5.7-5.3-8-7.6
			c-2.3-2.3-4.1-4.3-5.4-5.8c-0.6-0.7-1.1-1.3-1.4-1.7c-0.3-0.4-0.5-0.6-0.5-0.6s0.2,0.1,0.7,0.3c0.5,0.2,1.1,0.6,2,1
			c1.7,0.9,4.1,2.2,6.8,4c2.8,1.7,5.9,3.8,9.2,6.2c1.6,1.2,3.3,2.4,5,3.7c1.7,1.3,3.4,2.7,5,4c1.6,1.4,3.3,2.8,4.9,4.2
			c1.6,1.4,3.1,2.9,4.6,4.3c0.7,0.7,1.4,1.5,2.1,2.3c0.3,0.4,0.7,0.8,1,1.2c0.2,0.2,0.4,0.5,0.6,0.8c0.1,0.2,0.2,0.3,0.4,0.6
			c0.1,0.2,0.2,0.3,0.2,0.8l0,0.1c0,0.1,0,0.2,0,0.3c0,0.2,0,0.3-0.1,0.5c-0.1,0.5-0.4,1-0.9,1.4c-0.3,0.2-0.4,0.2-0.6,0.3
			c-0.2,0.1-0.4,0.1-0.5,0.1c-0.2,0-0.5,0-0.6,0c-0.3,0-0.4,0-0.6-0.1c-0.3-0.1-0.4-0.1-0.6-0.2c-0.3-0.1-0.6-0.3-0.8-0.4
			c-0.5-0.3-0.9-0.5-1.2-0.8c-0.8-0.5-1.5-1-2.1-1.5c-1.3-1-2.5-1.9-3.5-2.7c-0.3-0.2-0.5-0.4-0.7-0.6c-0.1-0.1-0.2-0.2-0.3-0.3
			l-0.1-0.1c0,0-0.1-0.1,0,0c0,0,0.1,0,0.2,0c0.1,0,0.1,0,0.4-0.2c0.1-0.1,0.2-0.2,0.3-0.3c0-0.1,0.1-0.2,0.1-0.3c0-0.1,0-0.2,0-0.3
			l0,0c-0.1-0.2-0.1-0.1-0.1-0.1c0,0,0,0.1,0.1,0.1c0.1,0.1,0.1,0.2,0.2,0.3c0.2,0.2,0.3,0.4,0.5,0.6C439.3,256.1,440,257,440,257z"
			/>
	</g>
	<g id="XMLID_892_">
		<path id="XMLID_328_" d="M288,309c0,0,0.7,0.5,2.1,1.5c0.7,0.5,1.5,1.1,2.5,1.9c1,0.7,2.1,1.6,3.3,2.7c2.4,2,5.3,4.7,8.3,8
			c3,3.3,6.2,7.2,9.3,11.8c3.1,4.5,6.1,9.7,8.8,15.4c2.7,5.7,5.3,11.8,7.5,18.3c2.2,6.5,4.2,13.3,5.8,20.3c1.6,7,3,14.2,4.1,21.3
			c1.1,7.2,2.1,14.4,2.8,21.5c0.8,7.1,1.4,14.1,2,20.8c0.6,6.7,1.2,13.2,1.7,19.4c0.6,6.1,1.2,11.9,1.9,17.3
			c0.8,5.3,1.6,10.2,2.7,14.4c1.1,4.2,2.3,7.8,3.6,10.6c1.3,2.8,2.7,4.9,3.8,6.1c0.5,0.7,1,1.1,1.3,1.4c0.3,0.3,0.5,0.5,0.5,0.5
			s-0.2-0.1-0.5-0.4c-0.3-0.3-0.9-0.6-1.5-1.2c-1.3-1.1-3-3-4.6-5.8c-1.7-2.7-3.3-6.3-4.8-10.5c-1.5-4.2-2.7-9.1-3.9-14.4
			c-1.1-5.3-2.1-11.2-3-17.3c-0.9-6.2-1.7-12.7-2.5-19.4c-0.8-6.7-1.7-13.6-2.5-20.7c-0.9-7-1.8-14.1-3-21.2
			c-1.1-7.1-2.4-14.1-3.9-21c-1.5-6.9-3.2-13.6-5.1-20c-2-6.4-4.1-12.5-6.5-18.1c-2.4-5.6-5-10.8-7.7-15.4
			c-2.7-4.6-5.4-8.7-8.1-12.1c-2.7-3.4-5.1-6.3-7.3-8.6c-1.1-1.2-2.1-2.1-3-3c-0.9-0.9-1.6-1.6-2.3-2.1C288.7,309.6,288,309,288,309
			z"/>
	</g>
	<g id="XMLID_889_">
		<path id="XMLID_326_" d="M389,317c0,0,0.2,3.4,0.6,9.4c0.2,3,0.5,6.6,0.7,10.8c0.3,4.2,0.7,8.9,1,14c0.4,5.1,0.9,10.7,1.4,16.5
			c0.5,5.9,1.2,12,1.8,18.4c0.6,6.4,1.5,13,2.3,19.6c0.8,6.7,1.8,13.4,2.9,20.2c1,6.7,2.2,13.5,3.5,20.1c1.3,6.6,2.6,13.1,4.2,19.2
			c1.6,6.2,3.1,12.1,4.9,17.7c1.8,5.6,3.7,10.7,5.7,15.4c2,4.6,4.2,8.8,6.5,12.2c2.3,3.4,4.7,6.1,7,7.9c1.1,0.9,2.3,1.6,3.3,2.1
			c0.5,0.2,1,0.5,1.5,0.6c0.5,0.1,0.9,0.3,1.3,0.4c0.4,0.1,0.7,0.2,1,0.2c0.3,0.1,0.6,0.1,0.8,0.1c0.4,0.1,0.6,0.1,0.6,0.1
			s-0.2,0-0.6,0c-0.2,0-0.5,0-0.8,0c-0.3,0-0.7-0.1-1.1-0.1c-1.6-0.2-4-0.8-6.6-2.5c-2.6-1.6-5.5-4.2-8.1-7.5
			c-1.3-1.7-2.7-3.5-4-5.5c-1.3-2-2.5-4.2-3.8-6.5c-2.4-4.6-4.7-9.8-6.8-15.4c-2.1-5.6-4.1-11.6-5.8-17.8
			c-1.7-6.3-3.4-12.8-4.8-19.4c-1.4-6.7-2.6-13.5-3.7-20.3c-1-6.8-1.9-13.7-2.7-20.4c-0.8-6.7-1.3-13.4-1.8-19.9
			c-0.5-6.4-0.8-12.7-1-18.6c-0.2-5.9-0.3-11.5-0.4-16.7c-0.1-5.2,0-9.9,0.1-14.1c0.1-4.2,0.2-7.8,0.4-10.9c0.1-3,0.3-5.4,0.4-7
			C388.9,317.9,389,317,389,317z"/>
	</g>
	<g id="XMLID_886_">
		<path id="XMLID_323_" d="M288,309c0,0,0-0.1-0.1-0.2c-0.1-0.1-0.2-0.1-0.5-0.2c-0.4-0.1-1.1-0.2-2-0.2c-1.8-0.1-4.3,0-7.4,0
			c-3.1,0-6.6,0-10.5,0c-1.9,0-3.9-0.1-5.9-0.2c-2-0.1-4-0.2-6.1-0.3c-2-0.1-4.1-0.2-6.1-0.4c-2-0.1-4-0.3-5.9-0.5
			c-3.8-0.4-7.4-0.8-10.4-1.2c-3.1-0.4-5.6-0.9-7.4-1.2c-0.9-0.2-1.6-0.3-2.1-0.4c-0.5-0.1-0.7-0.2-0.7-0.2s0.3-0.1,0.7-0.2
			c0.5-0.1,1.2-0.3,2.1-0.4c1.8-0.3,4.4-0.7,7.5-1c3.1-0.3,6.7-0.6,10.6-0.6c1.9,0,3.9-0.1,6,0c2,0,4.1,0.1,6.1,0.2
			c2.1,0.1,4.1,0.3,6.1,0.4c2,0.2,4,0.4,5.9,0.7c3.8,0.5,7.4,1.2,10.5,1.9c3,0.7,5.6,1.5,7.3,2.3c0.9,0.4,1.5,0.8,1.9,1.1
			c0.2,0.2,0.3,0.3,0.4,0.5C288,308.9,288,309,288,309z"/>
	</g>
	<g id="XMLID_883_">
		<path id="XMLID_321_" d="M223,307c0,0,0-0.2,0.1-0.7c0.1-0.5,0.2-1.1,0.4-2c0.2-0.8,0.4-1.9,0.6-3c0.2-1.2,0.5-2.4,0.8-3.8
			c0.3-1.4,0.6-2.9,1-4.5c0.3-1.6,0.7-3.3,1.1-5.1c0.4-1.8,0.8-3.6,1.2-5.4c0.4-1.8,0.9-3.7,1.3-5.6c0.5-1.9,0.9-3.7,1.4-5.6
			c0.5-1.8,1-3.6,1.5-5.4c1-3.5,2.1-6.7,3.3-9.5c0.6-1.4,1.1-2.6,1.7-3.7c0.5-1.1,1.2-2,1.6-2.7c0.1-0.2,0.2-0.4,0.3-0.5
			c0.1-0.2,0.2-0.3,0.4-0.4c0.2-0.3,0.4-0.5,0.6-0.7c0.3-0.3,0.5-0.5,0.5-0.5s-0.1,0.2-0.2,0.7c-0.1,0.5-0.3,1.1-0.5,1.9
			c-0.2,0.8-0.4,1.8-0.5,3c-0.2,1.1-0.4,2.5-0.6,3.9c-0.2,1.4-0.4,3-0.6,4.6c-0.2,1.6-0.5,3.4-0.8,5.1c-0.3,1.8-0.6,3.6-1,5.5
			c-0.4,1.9-0.8,3.8-1.2,5.7c-0.5,1.9-0.9,3.8-1.5,5.6c-0.5,1.8-1.1,3.7-1.7,5.4c-0.6,1.7-1.3,3.4-1.9,5c-0.7,1.6-1.4,3-2,4.3
			c-0.7,1.3-1.3,2.5-1.9,3.6c-0.6,1.1-1.2,1.9-1.7,2.6c-0.5,0.7-0.9,1.3-1.1,1.6C223.1,306.8,223,307,223,307z"/>
	</g>
	<g id="XMLID_880_">
		<path id="XMLID_319_" d="M288,309c0,0,0.1,0.1,0.1,0.4c0.1,0.3,0.2,0.7,0.4,1.1c0.2,0.5,0.3,1.1,0.3,1.9c0,0.4,0.1,0.8,0.1,1.2
			c0,0.4-0.1,0.8-0.1,1.3c0,0.9-0.3,1.9-0.6,2.9c-0.1,0.5-0.4,1-0.6,1.5c-0.2,0.5-0.4,1.1-0.7,1.6c-0.3,0.5-0.6,1-0.9,1.5
			c-0.4,0.5-0.7,1-1.1,1.5c-0.4,0.5-0.8,0.9-1.3,1.4c-0.4,0.4-0.9,0.9-1.4,1.3c-0.5,0.4-1,0.8-1.5,1.1c-0.5,0.3-1.1,0.6-1.6,1
			c-0.5,0.3-1.1,0.5-1.6,0.8c-0.5,0.2-1.1,0.5-1.6,0.6c-0.6,0.2-1.1,0.3-1.6,0.5c-0.5,0.1-1.1,0.2-1.6,0.3c-1,0.2-2,0.2-2.9,0.2
			c-0.9,0-1.7-0.1-2.4-0.2c-0.7-0.1-1.3-0.3-1.8-0.4c-0.5-0.1-0.9-0.3-1.2-0.4c-0.3-0.1-0.4-0.2-0.4-0.2s0.1-0.1,0.4-0.2
			c0.3-0.1,0.6-0.3,1.1-0.5c0.5-0.2,1-0.4,1.6-0.7c0.6-0.3,1.3-0.5,2-0.9c0.7-0.4,1.5-0.7,2.3-1.1c0.4-0.2,0.8-0.4,1.2-0.6
			c0.4-0.3,0.8-0.5,1.2-0.7c0.8-0.5,1.6-1,2.4-1.5c0.4-0.3,0.8-0.6,1.2-0.8c0.4-0.3,0.7-0.6,1.1-0.9c0.4-0.3,0.8-0.6,1.1-0.9
			c0.3-0.3,0.8-0.6,1.1-1c0.3-0.3,0.7-0.7,1-1c0.3-0.3,0.6-0.7,0.9-1c0.3-0.3,0.6-0.7,0.8-1c0.3-0.4,0.6-0.7,0.8-1
			c0.5-0.7,1-1.4,1.3-2.1c0.2-0.3,0.4-0.7,0.6-1c0.2-0.3,0.3-0.6,0.5-0.9c0.3-0.6,0.6-1.1,0.8-1.6c0.2-0.5,0.4-0.8,0.5-1.1
			C287.9,309.1,288,309,288,309z"/>
	</g>
	<g id="XMLID_877_">
		<path id="XMLID_316_" d="M264,330c0,0,0.3,0.2,0.8,0.5c0.5,0.3,1.3,0.8,2.3,1.5c1,0.6,2.2,1.3,3.5,2.2c1.4,0.8,2.9,1.8,4.6,2.9
			c3.3,2.1,7.2,4.6,11.3,7.3c2,1.4,4.2,2.8,6.3,4.3c2.1,1.5,4.3,3,6.4,4.5c2.1,1.6,4.2,3.1,6.3,4.7c2.1,1.6,4.1,3.2,6,4.7
			c1.9,1.6,3.8,3.1,5.5,4.6c1.7,1.5,3.3,3,4.7,4.3c1.5,1.4,2.7,2.7,3.9,3.8c1.1,1.1,2.1,2.2,2.9,3.1c0.8,0.9,1.4,1.6,1.8,2
			c0.4,0.5,0.6,0.7,0.6,0.7s-0.3-0.2-0.8-0.5c-0.5-0.3-1.3-0.8-2.3-1.4c-1-0.6-2.2-1.4-3.6-2.2c-1.4-0.9-2.9-1.8-4.6-2.9
			c-3.3-2.1-7.2-4.6-11.2-7.4c-2-1.4-4.1-2.8-6.2-4.3c-2.1-1.5-4.2-3-6.4-4.6c-2.1-1.6-4.2-3.1-6.3-4.7c-2.1-1.6-4.1-3.1-6-4.7
			c-3.9-3.1-7.4-6.2-10.3-8.9c-1.5-1.4-2.7-2.7-3.9-3.8c-1.1-1.2-2.1-2.2-2.9-3.1c-0.8-0.9-1.3-1.6-1.7-2.1
			C264.2,330.3,264,330,264,330z"/>
	</g>
	<g id="XMLID_874_">
		<path id="XMLID_314_" d="M330.8,381.3c0,0,0,0.2,0.1,0.5c0,0.4,0,1-0.4,1.6c-0.3,0.6-0.8,1.4-1.5,2c-0.7,0.7-1.6,1.3-2.5,2
			c-1.9,1.2-4.4,2.3-7,3.2c-2.6,0.9-5.5,1.5-8.4,1.9c-1.4,0.2-2.9,0.4-4.3,0.4c-1.4,0.1-2.8,0.1-4.2,0.1c-2.7,0-5.2-0.2-7.4-0.5
			c-4.3-0.6-7.2-1.6-7.2-1.6s0.2-0.1,0.5-0.2c0.3-0.1,0.8-0.3,1.4-0.4c1.2-0.4,3-0.8,5.1-1.3c2.1-0.5,4.5-0.9,7.1-1.3
			c1.3-0.2,2.6-0.4,4-0.6c1.4-0.2,2.7-0.4,4.1-0.6c2.7-0.4,5.5-0.8,8-1.1c2.5-0.4,4.9-0.7,6.9-1.2c1-0.2,1.9-0.5,2.6-0.7
			c0.8-0.3,1.4-0.5,1.9-0.9c0.5-0.3,0.8-0.6,1-0.9C330.7,381.5,330.8,381.3,330.8,381.3z"/>
	</g>
	<g id="XMLID_871_">
		<path id="XMLID_311_" d="M288,391c0,0,0.4,0.4,1.1,1.2c0.7,0.8,1.8,1.9,3.1,3.4c1.3,1.5,2.9,3.3,4.5,5.5c0.8,1.1,1.7,2.2,2.7,3.4
			c0.9,1.2,1.9,2.5,2.9,3.9c1.9,2.8,4,5.8,6.1,9.1c2.1,3.3,4.2,6.8,6.2,10.5c2.1,3.7,4.1,7.5,6.1,11.5c2,3.9,3.9,8,5.8,12.1
			c1.8,4.1,3.6,8.2,5.3,12.3c1.7,4.1,3.3,8.1,4.8,12c1.5,3.9,3,7.7,4.4,11.3c1.4,3.6,2.7,7,3.9,10c1.2,3.1,2.4,5.9,3.5,8.4
			c1.1,2.5,2.2,4.5,3.2,6.2c1,1.6,1.9,2.9,2.5,3.7c0.7,0.8,1.1,1.2,1.1,1.2s-0.5-0.3-1.3-1c-0.8-0.7-2-1.7-3.3-3.3
			c-1.3-1.5-2.7-3.5-4.2-5.8c-1.5-2.3-3.1-5-4.7-8c-3.2-6-6.6-13.1-10-20.7c-3.4-7.6-7.1-15.7-10.7-23.9c-1.8-4.1-3.7-8.1-5.5-12
			c-0.9-2-1.9-3.9-2.8-5.9c-0.9-1.9-1.9-3.8-2.8-5.7c-1.9-3.7-3.7-7.3-5.5-10.7c-1.8-3.4-3.5-6.5-5.1-9.5c-0.8-1.5-1.6-2.8-2.3-4.2
			c-0.8-1.3-1.5-2.6-2.2-3.7c-1.4-2.3-2.6-4.4-3.6-6C289.2,392.9,288,391,288,391z"/>
	</g>
	<g id="XMLID_868_">
		<path id="XMLID_307_" d="M380.1,310.6c0,0,0.1,0.2,0.3,0.4c0.2,0.2,0.7,0.4,1.3,0.5c1.2,0.3,3.1,0.4,5.3,0.6
			c2.2,0.1,4.8,0.3,7.6,0.5c1.4,0.1,2.8,0.2,4.3,0.3c1.5,0.1,2.9,0.3,4.4,0.4c1.5,0.2,3,0.3,4.4,0.5c1.5,0.2,2.9,0.4,4.3,0.6
			c2.8,0.4,5.4,0.9,7.6,1.3c2.2,0.5,4.1,0.9,5.4,1.3c1.3,0.4,2.1,0.6,2.1,0.6s-0.2,0.1-0.5,0.2c-0.4,0.1-0.9,0.3-1.5,0.4
			c-1.3,0.3-3.2,0.7-5.5,1c-2.3,0.3-5,0.5-7.8,0.5c-1.4,0-2.9,0-4.4-0.1c-1.5-0.1-3-0.2-4.5-0.3c-1.5-0.2-3-0.3-4.5-0.6
			c-1.5-0.2-2.9-0.5-4.4-0.8c-2.8-0.6-5.4-1.4-7.6-2.3c-2.2-0.9-4-1.9-5-2.9c-0.6-0.5-0.9-1-1-1.4
			C380,310.7,380.1,310.6,380.1,310.6z"/>
	</g>
	<g id="XMLID_865_">
		<path id="XMLID_304_" d="M427,317c0,0,0,0.2-0.1,0.6c-0.1,0.4-0.2,1-0.4,1.7c-0.2,0.7-0.4,1.6-0.7,2.7c-0.3,1-0.6,2.1-1,3.4
			c-0.8,2.5-1.8,5.3-2.9,8.3c-0.6,1.5-1.2,3-1.8,4.6c-0.6,1.6-1.3,3.1-2,4.7c-0.7,1.5-1.4,3.1-2.1,4.6c-0.7,1.5-1.5,3-2.2,4.4
			c-0.7,1.4-1.5,2.8-2.2,4.1c-0.7,1.3-1.4,2.5-2,3.6c-1.3,2.2-2.4,4.1-3.2,5.4c-0.4,0.7-0.7,1.2-0.9,1.5c-0.2,0.4-0.3,0.5-0.3,0.5
			s0-0.2,0-0.6c0-0.4,0-1,0.1-1.8c0.1-0.8,0.2-1.7,0.4-2.8c0.2-1.1,0.4-2.2,0.7-3.5c0.6-2.5,1.5-5.5,2.5-8.5
			c0.5-1.5,1.1-3.1,1.8-4.7c0.6-1.6,1.3-3.1,2-4.7c0.7-1.6,1.4-3.1,2.2-4.6c0.8-1.5,1.5-3,2.3-4.4c1.6-2.8,3.2-5.4,4.6-7.5
			c1.5-2.1,2.8-3.9,3.8-5.1c0.5-0.6,0.9-1,1.2-1.4C426.9,317.2,427,317,427,317z"/>
	</g>
	<g id="XMLID_862_">
		<path id="XMLID_300_" d="M405,367c0,0,0.1,0.2,0.3,0.3c0.2,0.1,0.5,0.2,1,0.3c0.9,0.2,2.3,0.2,3.9,0.2c1.6,0,3.6,0,5.6,0.1
			c2.1,0.1,4.3,0.2,6.5,0.4c1.1,0.1,2.2,0.2,3.3,0.3c1.1,0.1,2.2,0.3,3.2,0.4c2.1,0.3,4,0.7,5.7,1.1c1.7,0.4,3.1,0.8,4,1.2
			c0.5,0.2,0.9,0.3,1.1,0.4c0.3,0.1,0.4,0.2,0.4,0.2s-0.1,0.1-0.4,0.2c-0.3,0.1-0.7,0.3-1.1,0.4c-1,0.3-2.4,0.7-4.1,1.1
			c-1.7,0.3-3.7,0.6-5.9,0.7c-1.1,0.1-2.2,0.1-3.3,0.1c-1.1,0-2.3-0.1-3.4-0.2c-1.1-0.1-2.3-0.2-3.4-0.4c-1.1-0.2-2.2-0.4-3.3-0.7
			c-2.1-0.5-4.1-1.2-5.7-2c-1.6-0.8-3-1.7-3.7-2.5c-0.4-0.4-0.6-0.9-0.7-1.2c0-0.2,0-0.3,0-0.3C405,367,405,367,405,367z"/>
	</g>
	<g id="XMLID_859_">
		<path id="XMLID_279_" d="M440,372c0,0-0.5,2.2-1.3,6c-0.8,3.8-2,9.3-3.3,15.8c-1.3,6.5-2.7,14.2-4,22.4c-0.6,4.1-1.3,8.4-1.8,12.7
			c-0.6,4.3-1.1,8.7-1.5,13.1c-0.5,4.4-0.8,8.8-1.2,13.2c-0.3,4.3-0.6,8.6-0.7,12.8c-0.4,8.3-0.4,16.1-0.3,22.7
			c0.1,6.7,0.4,12.2,0.7,16.1c0.2,1.9,0.3,3.5,0.5,4.5c0.1,0.5,0.2,1,0.3,1.1c0.1-0.2,0.1-0.4,0.1-0.3c0,0,0,0,0,0.1
			c0,0.1,0.1,0.2-0.1,0.3c-0.2,0-0.2-0.1-0.2-0.2c0-0.1-0.1-0.2-0.1-0.3c-0.1-0.2-0.2-0.4-0.3-0.7c-0.4-1-0.9-2.5-1.3-4.4
			c-1-3.8-2.1-9.4-3-16.1c-0.9-6.7-1.4-14.6-1.5-23c0-4.2,0-8.6,0.2-13c0.2-4.4,0.6-8.9,1-13.4c0.5-4.5,1-9,1.7-13.3
			c0.7-4.4,1.5-8.7,2.4-12.8c1.8-8.3,3.8-15.9,5.9-22.3c2.1-6.4,4.1-11.7,5.6-15.3C439,374,440,372,440,372z"/>
	</g>
	<g id="XMLID_856_">
		<path id="XMLID_272_" d="M288,307c0,0,2.6,0.9,7,2.7c1.1,0.4,2.4,0.8,3.7,1.3c1.4,0.5,2.8,1,4.4,1.5c1.6,0.5,3.3,1,5,1.6
			c1.8,0.5,3.7,1,5.6,1.5c2,0.5,4,0.9,6.1,1.4c2.1,0.4,4.3,0.8,6.6,1.2c1.1,0.1,2.3,0.3,3.5,0.4c0.6,0.1,1.2,0.1,1.8,0.2
			c0.6,0,1.2,0.1,1.8,0.1c1.2,0.1,2.4,0.1,3.6,0.2c1.2,0,2.4,0,3.7,0c4.9-0.1,10-0.5,15-1.7c5-1.2,9.8-3,14.3-5.6
			c4.5-2.6,8.4-5.8,11.9-9.6c3.4-3.8,6.2-8,8.4-12.4c1.2-2.2,2-4.5,2.9-6.6c0.4-1.1,0.8-2.2,1.2-3.3c0.2-0.6,0.4-1.1,0.6-1.6
			c0.2-0.6,0.3-1.1,0.5-1.7c0.3-1.1,0.6-2.2,0.9-3.3c0.2-1.1,0.5-2.2,0.7-3.2c0.5-2.1,0.8-4.2,1.1-6.2c0.4-2,0.5-3.9,0.7-5.8
			c0.3-1.8,0.3-3.6,0.4-5.2c0.1-0.8,0.1-1.6,0.2-2.4c0-0.8,0-1.5,0.1-2.2c0-1.4,0.1-2.8,0.1-3.9c0-4.8,0-7.5,0-7.5s0.1,0.7,0.3,1.9
			c0.2,1.3,0.6,3.1,0.9,5.5c0.2,2.4,0.7,5.3,0.8,8.6c0.2,3.4,0.2,7.2,0,11.3c-0.2,2.1-0.2,4.3-0.6,6.5c-0.2,1.1-0.3,2.3-0.5,3.4
			c-0.2,1.1-0.5,2.3-0.7,3.5c-0.1,0.6-0.2,1.2-0.4,1.8c-0.1,0.6-0.3,1.2-0.5,1.8c-0.3,1.2-0.7,2.4-1,3.6c-0.8,2.4-1.7,4.9-2.8,7.3
			c-0.3,0.6-0.5,1.2-0.8,1.8c-0.3,0.6-0.6,1.2-0.9,1.8c-0.3,0.6-0.7,1.2-1,1.8c-0.3,0.6-0.7,1.2-1,1.8c-0.8,1.2-1.5,2.3-2.3,3.5
			c-0.9,1.1-1.8,2.2-2.6,3.3c-3.7,4.3-8.2,8.1-13.2,11c-5,2.9-10.5,4.9-16,6.1c-1.4,0.3-2.8,0.5-4.1,0.8c-1.4,0.2-2.8,0.3-4.1,0.4
			c-1.4,0.2-2.7,0.1-4.1,0.2c-1.3,0-2.7,0.1-4,0c-1.3-0.1-2.6-0.1-3.9-0.2c-1.3-0.1-2.6-0.3-3.8-0.4c-0.6-0.1-1.3-0.2-1.9-0.2
			c-0.6-0.1-1.2-0.2-1.8-0.3c-1.2-0.2-2.4-0.4-3.6-0.7c-2.3-0.5-4.6-1.1-6.8-1.7c-2.1-0.7-4.2-1.3-6.2-2c-1.9-0.7-3.8-1.4-5.6-2.1
			c-1.7-0.8-3.4-1.5-4.9-2.2c-1.5-0.7-2.9-1.4-4.2-2c-1.3-0.7-2.5-1.3-3.5-1.8c-2.1-1.2-3.7-2.1-4.8-2.8
			C288.6,307.3,288,307,288,307z"/>
	</g>
	<g id="XMLID_853_">
		<path id="XMLID_261_" d="M276,269.5c0,0-0.1,0.1-0.4,0.3c-0.2,0.2-0.6,0.5-1,0.8c-0.4,0.4-1,0.7-1.8,1c-0.8,0.4-1.7,0.6-2.7,0.8
			c-0.5,0.1-1,0.1-1.6,0.2c-0.6,0-1.2,0.1-1.7,0c-0.6-0.1-1.2-0.2-1.8-0.2c-0.6-0.1-1.2-0.3-1.8-0.5c-0.3-0.1-0.6-0.2-0.9-0.3
			c-0.3-0.1-0.6-0.3-0.9-0.4c-0.6-0.3-1.2-0.5-1.8-0.9c-0.6-0.3-1.1-0.7-1.7-1c-0.5-0.4-1.1-0.8-1.6-1.2c-0.5-0.4-1-0.8-1.5-1.3
			c-0.5-0.4-1-0.9-1.4-1.3c-0.9-0.9-1.7-1.9-2.4-2.8c-0.7-0.9-1.3-1.9-1.9-2.9c-0.6-0.9-1-1.9-1.4-2.7c-0.4-0.9-0.7-1.7-0.9-2.4
			c-0.3-0.7-0.4-1.4-0.6-1.9c-0.1-0.5-0.2-1-0.3-1.3c0-0.3-0.1-0.5-0.1-0.5s0.1,0.1,0.4,0.3c0.2,0.2,0.6,0.5,1,0.8
			c0.4,0.4,0.9,0.8,1.5,1.3c0.5,0.5,1.2,1.1,1.8,1.7c0.7,0.6,1.3,1.3,2.1,1.9c0.7,0.7,1.5,1.4,2.3,2.1c0.4,0.3,0.8,0.8,1.2,1.1
			c0.4,0.4,0.8,0.7,1.2,1.1c0.4,0.4,0.9,0.7,1.3,1.1c0.4,0.4,0.8,0.7,1.3,1c0.4,0.3,0.8,0.7,1.3,1c0.4,0.3,0.9,0.6,1.3,0.9
			c0.4,0.3,0.9,0.5,1.3,0.8c0.4,0.3,0.9,0.5,1.3,0.8c0.4,0.2,0.9,0.5,1.3,0.7c0.4,0.2,0.9,0.4,1.3,0.6c0.4,0.2,0.8,0.3,1.2,0.4
			c0.4,0.1,0.8,0.3,1.2,0.4c0.8,0.2,1.6,0.4,2.2,0.4c0.7,0.1,1.3,0.2,1.9,0.1c0.5,0,1,0,1.3,0C275.8,269.5,276,269.5,276,269.5z"/>
	</g>
	<g id="XMLID_850_">
		<path id="XMLID_251_" d="M288,307c0,0-0.2-0.1-0.5-0.2c-0.3-0.1-0.9-0.3-1.5-0.6c-1.3-0.6-3-1.5-5-2.7c-1-0.6-2-1.3-3.1-2.1
			c-1.1-0.8-2.2-1.7-3.3-2.7c-1.1-1-2.2-2-3.3-3.1c-1.1-1.1-2.1-2.3-3.1-3.5c-1-1.3-1.9-2.5-2.8-3.9c-0.4-0.7-0.8-1.3-1.2-2
			c-0.4-0.7-0.7-1.4-1.1-2c-1.3-2.7-2.2-5.5-2.5-8c-0.1-1.3-0.1-2.5,0.1-3.6c0.2-1.1,0.7-2,1.4-2.6c0.7-0.6,1.4-0.6,1.7-0.6
			c0.4,0.1,0.6,0.1,0.6,0.1s-0.2,0.1-0.5,0.2c-0.3,0.2-0.7,0.5-0.9,1c-0.4,1,0.1,2.6,1,4.5c0.4,0.9,1,2,1.6,3
			c0.6,1.1,1.4,2.1,2.1,3.2c0.8,1.1,1.6,2.2,2.5,3.4c0.9,1.1,1.7,2.3,2.7,3.4c0.9,1.2,1.8,2.3,2.8,3.4c0.9,1.1,1.9,2.2,2.7,3.3
			c1.8,2.2,3.5,4.2,4.9,5.9c0.7,0.9,1.4,1.7,2,2.4c0.6,0.7,1.1,1.4,1.5,1.9c0.4,0.5,0.7,1,1,1.3C287.9,306.8,288,307,288,307z"/>
	</g>
	<g id="XMLID_847_">
		<path id="XMLID_244_" d="M223,243c0,0,0.1,0.2,0.2,0.4c0.1,0.3,0.4,0.6,0.8,0.9c0.8,0.6,2.1,1,3.9,1.3c1.7,0.3,3.8,0.5,6.1,0.8
			c2.3,0.2,4.7,0.5,7.1,0.7c1.2,0.1,2.5,0.3,3.7,0.4c1.2,0.1,2.4,0.3,3.6,0.5c2.3,0.4,4.5,0.8,6.4,1.2c1.9,0.4,3.4,0.9,4.5,1.2
			c1.1,0.3,1.7,0.6,1.7,0.6s-0.2,0.1-0.5,0.2c-0.3,0.1-0.7,0.3-1.3,0.4c-1.1,0.3-2.7,0.7-4.6,1.1c-1.9,0.3-4.2,0.6-6.6,0.7
			c-1.2,0-2.5,0.1-3.7,0c-1.3,0-2.6-0.1-3.8-0.3c-1.3-0.2-2.6-0.3-3.8-0.6c-1.3-0.2-2.5-0.5-3.7-0.9c-2.4-0.7-4.6-1.6-6.4-2.8
			c-0.9-0.6-1.7-1.2-2.3-1.9c-0.6-0.6-1-1.4-1.3-2c-0.2-0.6-0.2-1.2-0.2-1.5C223,243.2,223,243,223,243z"/>
	</g>
	<g id="XMLID_844_">
		<path id="XMLID_241_" d="M261,251c0,0,0-0.1-0.1-0.4c-0.1-0.2-0.2-0.6-0.3-1c-0.2-0.8-0.5-2-0.7-3.5c-0.2-1.4-0.3-3.1-0.3-4.8
			c0-0.9,0-1.8,0.1-2.7c0.1-0.9,0.2-1.8,0.3-2.8c0.1-0.9,0.3-1.8,0.4-2.7c0.2-0.9,0.4-1.8,0.6-2.6c0.4-1.7,1-3.3,1.5-4.6
			c0.1-0.3,0.3-0.6,0.4-1l0.1-0.2l0.1-0.1l0,0l0,0c1.2,0.1-2.6-0.3,2.6,0.3c0,0.1,0,0,0,0l0,0.1c-0.1,0.1-0.1,0.3-0.2,0.4
			c-0.3,0.5-0.5,1-0.7,1.4c-0.2,0.4-0.4,0.7-0.5,0.9c-0.1,0.2-0.2,0.3-0.2,0.3s0-0.1-0.1-0.4c-0.1-0.2-0.2-0.6-0.3-1
			c-0.1-0.4-0.3-0.9-0.4-1.5c0-0.1-0.1-0.3-0.1-0.5l0-0.1c0,0,0,0,0,0c5.3,0.6,1.5,0.2,2.6,0.3l0,0l0,0l0,0.1l0,0.2
			c0,0.3,0.1,0.7,0.2,1c0.2,1.4,0.3,3.1,0.3,4.8c0,0.9,0,1.8-0.1,2.7c-0.1,0.9-0.2,1.8-0.3,2.8c-0.1,0.9-0.3,1.8-0.5,2.7
			c-0.2,0.9-0.4,1.8-0.6,2.6c-0.4,1.7-1,3.3-1.5,4.6c-0.5,1.3-1.1,2.4-1.6,3.2c-0.2,0.4-0.4,0.7-0.5,0.9
			C261.1,250.9,261,251,261,251z"/>
	</g>
	<g id="XMLID_841_">
		<path id="XMLID_237_" d="M264,228c0,0-0.1-0.2-0.2-0.6c-0.1-0.2-0.2-0.4-0.4-0.5c-0.2-0.2-0.4-0.4-0.7-0.6
			c-0.5-0.4-1.3-0.8-2.3-1.1c-0.9-0.4-2-0.7-3.2-1c-1.2-0.3-2.5-0.6-3.9-0.9c-1.4-0.3-2.9-0.5-4.4-0.8c-3.1-0.5-6.4-1-9.8-1.5
			c-3.4-0.5-6.7-1-9.8-1.5c-1.6-0.3-3.1-0.5-4.6-0.8c-1.5-0.3-2.8-0.5-4.1-0.7c-2.5-0.5-4.7-0.9-6.2-1.3c-0.8-0.2-1.3-0.3-1.7-0.4
			c-0.4-0.1-0.6-0.2-0.6-0.2s0.2-0.1,0.6-0.2c0.4-0.1,1-0.3,1.8-0.4c1.5-0.3,3.7-0.7,6.3-1c2.6-0.3,5.7-0.4,9-0.3
			c1.6,0,3.3,0.1,5.1,0.3c1.7,0.1,3.5,0.4,5.2,0.6c1.7,0.3,3.5,0.6,5.2,1c1.7,0.4,3.4,0.8,5,1.3c3.2,1,6.1,2.2,8.5,3.7
			c1.2,0.7,2.2,1.4,3.1,2.2c0.9,0.8,1.5,1.6,1.9,2.3c0.4,0.7,0.5,1.5,0.6,1.9C264,227.8,264,228,264,228z"/>
	</g>
	<g id="XMLID_838_">
		<path id="XMLID_234_" class="st9" d="M251,216c0,0,0.4-0.4,1.1-1.3c0.7-0.8,1.8-2.1,3.1-3.6c0.7-0.8,1.4-1.6,2.3-2.6
			c0.4-0.5,0.9-0.9,1.4-1.4c0.5-0.5,1-0.9,1.5-1.4c1.1-1,2.2-2.1,3.4-3.2c0.6-0.6,1.2-1.1,1.8-1.7c0.7-0.5,1.3-1.1,2-1.6
			c2.8-2.2,5.7-4.8,9.2-6.9c1.7-1.1,3.5-2.3,5.3-3.5c1.9-1.1,3.8-2.1,5.8-3.2c1-0.5,2-1.1,3-1.6c1-0.5,2.1-1,3.1-1.4
			c2.1-1,4.2-2,6.4-2.8c4.4-1.6,8.9-3.3,13.6-4.5c4.6-1.4,9.3-2.2,14-3.1c4.7-0.6,9.3-1.2,13.8-1.4c4.5-0.4,8.8-0.1,12.9,0
			c2,0.1,4,0.3,6,0.5c1.9,0.2,3.8,0.4,5.5,0.7c3.5,0.6,6.8,1.1,9.5,1.9c2.8,0.7,5.3,1.3,7.2,2c2,0.7,3.5,1.2,4.5,1.6
			c1,0.4,1.6,0.6,1.6,0.6s-0.6-0.1-1.7-0.3c-1.1-0.2-2.7-0.4-4.7-0.8c-0.5-0.1-1-0.2-1.6-0.3c-0.6-0.1-1.2-0.1-1.8-0.2
			c-1.2-0.1-2.6-0.3-4-0.4c-2.8-0.4-6-0.5-9.5-0.7c-1.7-0.2-3.5-0.1-5.4-0.1c-1.9,0-3.8-0.1-5.8,0c-4,0.2-8.1,0.3-12.4,0.8
			c-2.1,0.2-4.3,0.4-6.5,0.8c-2.2,0.4-4.4,0.7-6.6,1.1c-4.4,1-9,1.8-13.3,3.2c-4.5,1.1-8.8,2.7-13.1,4.1c-2.1,0.9-4.2,1.7-6.2,2.5
			c-1,0.4-2.1,0.8-3.1,1.2c-1,0.5-2,1-2.9,1.4c-1.9,0.9-3.9,1.9-5.7,2.8c-1.8,1-3.6,2-5.3,3c-0.9,0.5-1.7,1-2.6,1.4
			c-0.9,0.5-1.6,1-2.4,1.5c-1.6,1-3.1,2-4.6,2.9c-0.7,0.5-1.5,0.9-2.2,1.4c-0.7,0.5-1.3,1-2,1.4c-1.3,0.9-2.5,1.8-3.7,2.6
			c-1.1,0.8-2.3,1.6-3.2,2.4c-1,0.8-1.8,1.5-2.6,2.2c-1.6,1.3-2.9,2.3-3.7,3C251.5,215.6,251,216,251,216z"/>
	</g>
	<g id="XMLID_835_">
		<path id="XMLID_232_" class="st9" d="M389,178c0,0,0.3,0,0.8-0.1c0.3,0,0.6-0.1,1-0.1c0.4-0.1,0.8-0.1,1.3-0.1c0.5,0,1.1,0,1.7,0
			c0.6,0,1.3,0.2,2,0.3c0.4,0,0.7,0.1,1.1,0.2c0.4,0.1,0.8,0.2,1.2,0.3c0.8,0.2,1.6,0.7,2.4,1.1c1.6,1,3.3,2.2,4.7,3.8
			c1.4,1.6,2.6,3.5,3.5,5.6c1,2.1,1.7,4.3,2.1,6.6c0.5,2.3,0.8,4.6,1,6.9c0.3,4.6,0,9.2-0.6,13.5c-0.3,2.1-0.7,4.1-1.1,6
			c-0.4,1.9-0.9,3.7-1.3,5.3c-0.9,3.3-1.9,5.9-2.7,7.8c-0.7,1.8-1.3,2.9-1.3,2.9s0-0.3,0-0.8c0-0.5,0-1.3,0.1-2.3
			c0.1-2,0.2-4.8,0.4-8.1c0.1-1.7,0.2-3.4,0.3-5.3c0.1-1.9,0.2-3.9,0.2-5.9c0-1,0-2.1,0.1-3.1c0-1,0-2.1,0-3.2
			c0-2.1-0.1-4.3-0.2-6.4c-0.1-2.1-0.3-4.2-0.7-6.2c-0.1-1-0.4-2-0.6-3c-0.3-0.9-0.5-1.9-0.8-2.8c-0.6-1.8-1.3-3.4-2.2-4.9
			c-0.8-1.5-2-2.6-3-3.7c-0.6-0.4-1.1-0.9-1.7-1.3c-0.6-0.3-1.1-0.8-1.7-1c-0.6-0.3-1.1-0.5-1.6-0.8c-0.5-0.2-1-0.4-1.5-0.5
			c-0.9-0.3-1.7-0.4-2.2-0.6C389.3,178.1,389,178,389,178z"/>
	</g>
	<g id="XMLID_832_">
		<path id="XMLID_229_" class="st8" d="M366,243"/>
	</g>
	<g id="XMLID_829_">
		<path id="XMLID_226_" class="st8" d="M417.6,239"/>
	</g>
	<g id="XMLID_826_">
		<path id="XMLID_224_" class="st9" d="M405,238c0,0,0.1,0.2,0,0.7c-0.1,0.4-0.5,1.1-1.2,1.6c-1.3,1.1-3.6,2-6.2,2.6
			c-2.7,0.6-5.9,0.8-9.3,0.7c-1.7-0.1-3.4-0.2-5.2-0.5c-1.8-0.3-3.5-0.6-5.3-1.1c-1.7-0.5-3.5-1-5.2-1.7c-1.7-0.7-3.3-1.4-4.8-2.3
			c-3-1.7-5.6-3.6-7.5-5.6c-1.9-1.9-3.2-3.9-4-5.2c-0.4-0.7-0.6-1.3-0.8-1.6c-0.2-0.4-0.2-0.6-0.2-0.6s0.2,0.1,0.5,0.4
			c0.3,0.3,0.8,0.6,1.4,1.1c1.2,0.9,3,2.1,5.2,3.3c2.2,1.2,4.8,2.4,7.7,3.5c1.4,0.6,2.9,1.1,4.5,1.6c1.5,0.5,3.1,1,4.7,1.4
			c1.6,0.4,3.2,0.8,4.8,1.2c1.6,0.3,3.2,0.7,4.7,0.9c3.1,0.5,6,0.9,8.5,1.1c2.5,0.2,4.6,0.2,6-0.2c0.7-0.2,1.2-0.4,1.4-0.7
			C404.9,238.2,405,237.9,405,238z"/>
	</g>
	<g id="XMLID_823_">
		<path id="XMLID_222_" class="st10" d="M355.1,225.1c0,0-0.1,0.1-0.2,0.4c-0.1,0.2-0.3,0.6-0.5,1c-0.4,0.9-1.1,2.1-2,3.4
			c-0.9,1.4-2,2.9-3.3,4.4c-0.6,0.8-1.3,1.5-2,2.3c-0.7,0.8-1.5,1.5-2.2,2.2c-0.8,0.7-1.5,1.4-2.3,2.1c-0.8,0.7-1.6,1.3-2.4,1.9
			c-1.6,1.2-3.1,2.2-4.5,3c-1.4,0.8-2.6,1.4-3.6,1.8c-0.4,0.2-0.8,0.3-1.1,0.4c-0.3,0.1-0.4,0.1-0.4,0.1s0.1-0.1,0.2-0.4
			c0.1-0.2,0.3-0.6,0.5-1c0.4-0.9,1.1-2.1,2-3.4c0.9-1.4,2-2.9,3.3-4.4c0.6-0.8,1.3-1.5,2-2.3c0.7-0.8,1.5-1.5,2.2-2.2
			c0.8-0.7,1.5-1.4,2.3-2.1c0.8-0.7,1.6-1.3,2.4-1.9c1.6-1.2,3.1-2.2,4.5-3c1.4-0.8,2.6-1.4,3.5-1.8c0.4-0.2,0.8-0.3,1.1-0.4
			C355,225.2,355.1,225.1,355.1,225.1z"/>
	</g>
	<g id="XMLID_820_">
		<path id="XMLID_219_" class="st8" d="M297.4,257"/>
	</g>
	<g id="XMLID_817_">
		<path id="XMLID_216_" class="st8" d="M345.5,247"/>
	</g>
	<g id="XMLID_814_">
		<path id="XMLID_214_" class="st9" d="M330.8,247.9c0,0,0,0.1-0.1,0.2c-0.1,0.1-0.2,0.3-0.4,0.5c-0.4,0.4-1,0.9-1.9,1.4
			c-1.7,1.1-4.3,2.3-7.5,3.4c-3.2,1.1-7.1,2.1-11.3,2.7c-2.1,0.3-4.3,0.6-6.5,0.8c-2.2,0.2-4.5,0.2-6.8,0.2c-2.3,0-4.6-0.2-6.8-0.4
			c-2.2-0.2-4.4-0.6-6.6-1.1c-4.2-1-8.1-2.5-11.1-4.4c-1.5-0.9-2.8-1.9-3.8-2.9c-1.1-1-1.8-1.9-2.5-2.7c-0.6-0.8-1-1.5-1.3-2
			c-0.2-0.5-0.4-0.7-0.4-0.7s0.2,0.2,0.6,0.5c0.4,0.3,1,0.8,1.8,1.3c1.6,1.1,4,2.3,7,3.3c3,1,6.6,1.8,10.5,2.3c2,0.3,4,0.4,6.1,0.6
			c2.1,0.1,4.2,0.2,6.4,0.2c8.6,0.1,17.2-0.5,23.7-1.2c3.3-0.3,6-0.7,7.8-1.1c0.9-0.2,1.7-0.4,2.1-0.6
			C330.5,248.1,330.8,247.9,330.8,247.9z"/>
	</g>
	<g id="XMLID_811_">
		<path id="XMLID_212_" d="M366.9,263.1c0,0,0.2,0.3,0.5,0.8c0.3,0.6,0.8,1.4,1.4,2.4c0.6,1,1.2,2.4,1.9,3.9c0.4,0.8,0.6,1.6,1,2.5
			c0.2,0.5,0.3,0.9,0.5,1.4c0.1,0.5,0.3,1,0.4,1.5c0.3,1,0.6,2.1,0.8,3.2c0.2,1.1,0.4,2.3,0.4,3.6c0.2,2.5,0,5.2-0.7,8
			c-0.2,0.7-0.4,1.4-0.6,2.1c-0.3,0.7-0.6,1.4-0.9,2c-0.3,0.7-0.8,1.3-1.1,2c-0.4,0.7-0.9,1.3-1.4,1.8c-2,2.4-4.6,4.3-7.3,5.6
			c-2.8,1.3-5.7,2.1-8.6,2.4l-1.1,0.1l-1.1,0.1c-0.7,0-1.4,0.1-2.1,0.1c-0.7,0-1.4,0-2.1-0.1c-0.7-0.1-1.4-0.1-2-0.2
			c-2.7-0.3-5.2-0.9-7.6-1.7c-2.3-0.7-4.5-1.7-6.3-2.6c-0.9-0.5-1.8-1-2.6-1.5c-0.8-0.5-1.5-1.1-2.2-1.5c-0.7-0.5-1.3-1-1.9-1.5
			c-0.6-0.5-1-1-1.5-1.4c-0.9-0.8-1.5-1.6-1.9-2c-0.4-0.5-0.6-0.8-0.6-0.8s0.3,0.2,0.9,0.5c0.6,0.3,1.3,0.8,2.4,1.3
			c0.5,0.3,1.1,0.6,1.7,0.9c0.7,0.3,1.3,0.6,2.1,1c0.8,0.3,1.6,0.6,2.4,0.9c0.9,0.3,1.7,0.6,2.7,0.9c1.9,0.5,3.9,1.1,6.1,1.5
			c2.2,0.4,4.5,0.6,6.9,0.7c2.4,0.1,4.8-0.1,7.2-0.5c2.4-0.4,4.8-1,6.9-2.1c2.1-1,4-2.4,5.5-4c1.5-1.7,2.7-3.6,3.4-5.7
			c0.7-2.1,1.2-4.3,1.3-6.5c0-0.5,0.1-1.1,0.1-1.6c0-0.5,0-1.1,0-1.6c0-1-0.1-2-0.2-3c0-0.5-0.1-1-0.1-1.4c-0.1-0.5-0.1-0.9-0.2-1.4
			c-0.1-0.9-0.2-1.8-0.4-2.6c-0.4-1.6-0.6-3-0.9-4.2c-0.3-1.2-0.5-2.1-0.6-2.7C367,263.4,366.9,263.1,366.9,263.1z"/>
	</g>
	<g id="XMLID_808_">
		<path id="XMLID_210_" d="M320,293.5c0,0-0.1-0.3-0.2-0.8c-0.1-0.5-0.3-1.2-0.4-2.1c-0.1-0.9-0.2-2.1-0.2-3.4c0-0.7,0-1.4,0-2.1
			c0-0.8,0.1-1.5,0.2-2.4c0.2-1.6,0.6-3.4,1.2-5.2c0.6-1.8,1.5-3.7,2.6-5.6c1.1-1.8,2.5-3.6,4.2-5.2c1.6-1.6,3.5-3,5.5-4.1
			c2-1.1,4.1-2.1,6.3-2.7c1.1-0.3,2.1-0.6,3.2-0.8c1.1-0.2,2.1-0.4,3.2-0.5c2.1-0.2,4.1-0.2,6-0.1c1.9,0.1,3.6,0.4,5.2,0.7
			c1.6,0.3,3,0.7,4.3,1.2c1.3,0.4,2.3,0.9,3.2,1.2c0.9,0.4,1.5,0.7,2,0.9c0.4,0.2,0.7,0.4,0.7,0.4s-1.1,0-2.9-0.1
			c-0.9,0-2-0.1-3.3-0.1c-1.3,0-2.7,0-4.2,0c-0.8,0-1.5,0-2.4,0.1c-0.8,0.1-1.6,0.1-2.5,0.2c-1.7,0.2-3.5,0.4-5.3,0.8
			c-1.8,0.4-3.6,0.9-5.3,1.5c-1.8,0.6-3.5,1.4-5.1,2.3c-1.6,0.9-3.2,2-4.5,3.2c-1.4,1.2-2.6,2.5-3.7,3.9c-1.1,1.4-2,2.9-2.8,4.3
			c-0.8,1.5-1.5,2.9-2,4.3c-0.3,0.7-0.5,1.4-0.7,2c-0.2,0.7-0.4,1.3-0.6,1.9c-0.4,1.2-0.6,2.3-0.9,3.1c-0.2,0.9-0.4,1.6-0.5,2.1
			C320.1,293.2,320,293.5,320,293.5z"/>
	</g>
	<g id="XMLID_805_">
		<path id="XMLID_207_" d="M324,275.8c0,0,0.2,0,0.5,0.1c0.3,0,0.9,0.1,1.5,0.2c0.6,0.1,1.4,0.1,2.2,0.1c0.4,0,0.9,0,1.4-0.1
			c0.5,0,1-0.1,1.5-0.1c1-0.1,2.1-0.3,3.3-0.6c1.2-0.2,2.4-0.5,3.6-0.9c0.6-0.2,1.2-0.4,1.9-0.6c0.6-0.2,1.3-0.4,1.9-0.6
			c1.3-0.5,2.6-0.9,3.9-1.4c1.3-0.5,2.6-1,3.9-1.5c1.3-0.5,2.6-1,3.8-1.5c2.5-1,4.8-2,6.8-2.8c2-0.8,3.7-1.6,4.9-2.1
			c0.6-0.3,1.1-0.5,1.4-0.7c0.3-0.2,0.5-0.3,0.5-0.3s-0.1,0.2-0.2,0.5c-0.2,0.3-0.4,0.8-0.8,1.3c-0.8,1.1-2,2.6-3.7,4.1
			c-1.7,1.5-3.8,3.2-6.2,4.6c-1.2,0.7-2.5,1.5-3.8,2.1c-1.3,0.7-2.8,1.3-4.2,1.8c-2.9,1.1-5.9,1.8-8.8,2.1c-1.5,0.2-2.9,0.2-4.2,0.2
			c-0.7,0-1.3-0.1-2-0.2c-0.6-0.1-1.3-0.2-1.8-0.3c-0.6-0.2-1.1-0.3-1.7-0.4c-0.5-0.2-1-0.4-1.4-0.5c-0.9-0.4-1.6-0.8-2.2-1.2
			c-0.6-0.4-0.9-0.7-1.2-1C324.1,276,324,275.8,324,275.8z"/>
	</g>
	<g id="XMLID_802_">
		<path id="XMLID_205_" d="M380.1,177.1c0,0-0.1-0.1-0.2-0.3c-0.1-0.2-0.3-0.4-0.4-0.7c-0.3-0.6-0.8-1.5-1.3-2.5
			c-0.2-0.5-0.5-1.1-0.7-1.6c-0.2-0.6-0.5-1.2-0.7-1.8c-0.2-0.6-0.4-1.2-0.6-1.9c-0.2-0.6-0.4-1.3-0.6-1.9c-0.2-0.6-0.4-1.2-0.5-1.9
			c-0.2-0.6-0.4-1.2-0.5-1.8c-0.2-0.5-0.3-1.1-0.5-1.6c-0.1-0.5-0.3-1-0.5-1.4c-0.2-0.4-0.3-0.8-0.5-1.1c-0.2-0.4-0.4-0.6-0.6-0.9
			c-0.2-0.2-0.4-0.4-0.6-0.5c-0.2-0.1-0.2-0.2-0.2-0.2s0.1-0.1,0.3-0.1c0.2-0.1,0.5-0.2,0.9-0.3c0.4,0,0.9-0.1,1.5,0
			c0.6,0.1,1.2,0.3,1.8,0.7c0.6,0.3,1.2,0.8,1.7,1.3c0.6,0.5,1,1.1,1.5,1.8c0.4,0.7,0.9,1.4,1.2,2.1c0.4,0.7,0.6,1.5,0.9,2.3
			c0.2,0.8,0.4,1.6,0.5,2.3c0.1,0.8,0.2,1.5,0.2,2.3c0,0.7,0,1.5-0.1,2.1c-0.1,0.7-0.2,1.3-0.3,1.9c-0.2,0.6-0.3,1.1-0.5,1.6
			c-0.2,0.5-0.4,0.8-0.5,1.2c-0.1,0.3-0.3,0.6-0.4,0.8C380.2,177,380.1,177.1,380.1,177.1z"/>
	</g>
	<g id="XMLID_116_">
		<path id="XMLID_109_" d="M375.9,153.9l3.1-3.6l3.1-3.7c2-2.5,3.9-5,5.8-7.5c0.9-1.3,1.8-2.6,2.7-3.9c0.9-1.3,1.7-2.7,2.5-4
			c0.8-1.4,1.6-2.7,2.3-4.1c0.7-1.4,1.4-2.8,2-4.2l0.9-2.1l0.8-2.2l0.7-2.2l0.6-2.2l0.5-2.2l0.3-2.2c0.1-0.7,0.2-1.5,0.2-2.2
			c0-0.7,0.1-1.5,0.1-2.2c0-1.5-0.1-3-0.3-4.4c-0.2-1.5-0.5-2.9-0.9-4.3c-0.4-1.4-0.9-2.8-1.5-4.2c-0.3-0.7-0.6-1.4-0.9-2l-1.1-2
			l0.1,0.2c-1.7-2.4-3.6-4.5-5.8-6.4c-2.2-1.9-4.6-3.6-7.1-5c-5.1-2.8-10.9-4.4-16.7-4.9c-0.7,0-1.5-0.2-2.2-0.2l-1.1,0l-0.5,0
			l-0.3,0c0,0,0.2,0,0.1,0l0,0l-0.1,0l-0.1,0l-4.7,0.2c-0.8,0-1.6,0-2.3,0.1l-2.2,0.2c-1.5,0.2-3,0.2-4.5,0.5c-3,0.5-6,0.9-8.9,1.7
			c-3,0.6-5.9,1.5-8.8,2.4c-1.5,0.4-2.9,1-4.3,1.5l-2.2,0.8c-0.7,0.3-1.4,0.6-2.1,0.9l-4.2,1.8l-4.2,2c-0.7,0.3-1.4,0.6-2.1,1
			l-2,1.1c-1.3,0.7-2.7,1.4-4,2.2c-2.6,1.6-5.3,3.1-7.9,4.8c-2.6,1.6-5.1,3.5-7.7,5.3c-1.3,0.9-2.5,1.9-3.7,2.8
			c-1.2,0.9-2.5,1.9-3.7,2.9l-3.6,2.9c-1.2,1-2.4,2-3.6,3c-2.4,2-4.7,4.1-7,6.2l3.1-3.6l1.6-1.8l1.6-1.7c1.1-1.1,2.1-2.3,3.3-3.4
			l3.4-3.3c1.1-1.1,2.3-2.1,3.5-3.2c1.2-1,2.3-2.1,3.5-3.1c2.4-2,4.9-4,7.4-5.9c2.5-1.9,5.1-3.7,7.8-5.5c1.3-0.9,2.7-1.7,4.1-2.5
			l2-1.2c0.7-0.4,1.4-0.8,2.1-1.1l4.2-2.3l4.3-2c0.7-0.3,1.4-0.7,2.2-1l2.2-0.9c1.5-0.6,3-1.2,4.5-1.7c3-1,6.1-2.1,9.2-2.8
			c3.1-0.9,6.3-1.4,9.4-2c1.6-0.3,3.2-0.4,4.9-0.6l2.4-0.3c0.8-0.1,1.6-0.1,2.4-0.1l4.7-0.2l0.4,0l0.3,0l0.6,0l1.2,0
			c0.8,0,1.7,0.1,2.5,0.2c6.6,0.6,13.1,2.5,19,5.8c2.9,1.6,5.7,3.6,8.1,5.8c2.5,2.3,4.6,4.9,6.5,7.7l0.1,0.1l0,0l1.1,2.3
			c0.4,0.8,0.7,1.6,1,2.4c0.6,1.6,1.1,3.2,1.6,4.9c0.4,1.7,0.7,3.4,0.9,5.1c0.2,1.7,0.2,3.4,0.1,5.1c0,0.8-0.1,1.7-0.2,2.5
			c-0.1,0.8-0.2,1.7-0.3,2.5l-0.5,2.5l-0.6,2.4l-0.8,2.4l-0.9,2.3c-0.3,0.8-0.7,1.5-1,2.3c-0.4,0.7-0.7,1.5-1.1,2.2
			c-0.8,1.5-1.6,2.9-2.4,4.3c-0.9,1.4-1.7,2.8-2.7,4.1c-0.9,1.3-1.9,2.6-2.9,3.9c-1,1.3-2,2.5-3.1,3.7c-1.1,1.2-2.1,2.4-3.2,3.6
			c-1.1,1.2-2.2,2.3-3.4,3.4C380.7,149.7,378.3,151.8,375.9,153.9z"/>
	</g>
	<g id="XMLID_126_">
		<path id="XMLID_103_" d="M217,213c0,0-0.1-0.2-0.2-0.5c-0.1-0.3-0.3-0.8-0.4-1.4c-0.4-1.2-0.8-2.8-1.2-4.9c-0.4-2-0.7-4.4-1-6.9
			c-0.1-1.3-0.2-2.6-0.3-3.9c-0.1-1.3-0.1-2.7-0.1-4c0-1.3,0-2.7,0.1-4c0-1.3,0.1-2.6,0.2-3.9c0.2-2.5,0.5-4.9,0.9-6.9
			c0.4-2,0.8-3.7,1.1-4.9c0.1-0.6,0.3-1.1,0.4-1.4c0.1-0.3,0.2-0.5,0.2-0.5s0.1,0.2,0.2,0.5c0.1,0.3,0.3,0.8,0.4,1.4
			c0.4,1.2,0.8,2.8,1.2,4.9c0.4,2,0.7,4.4,1,6.9c0.1,1.3,0.2,2.6,0.3,3.9c0.1,1.3,0.1,2.7,0.1,4c0,1.3,0,2.7-0.1,4
			c0,1.3-0.1,2.6-0.2,3.9c-0.2,2.5-0.5,4.9-0.9,6.9c-0.4,2-0.8,3.7-1.1,4.9c-0.1,0.6-0.3,1.1-0.4,1.4C217.1,212.8,217,213,217,213z"
			/>
	</g>
	<g id="XMLID_784_">
		<path id="XMLID_193_" d="M400.4,175.6c0,0,0-0.1-0.1-0.3c0-0.1-0.1-0.2-0.1-0.4c-0.1-0.1-0.1-0.3-0.1-0.5c0-0.4,0-1.1,0.2-1.6
			c0.1-0.6,0.5-1.2,0.8-1.9c0.4-0.6,0.9-1.2,1.5-1.8c0.3-0.3,0.6-0.6,0.9-0.8c0.3-0.3,0.7-0.5,1-0.7c0.7-0.4,1.5-0.9,2.3-1.2
			c0.8-0.4,1.6-0.6,2.4-0.9c0.8-0.2,1.7-0.4,2.5-0.5c0.8-0.1,1.6-0.2,2.4-0.2c1.6,0,3.1,0.2,4.3,0.5c0.6,0.2,1.2,0.3,1.7,0.5
			c0.5,0.2,0.9,0.4,1.3,0.5c0.4,0.1,0.6,0.3,0.8,0.4c0.2,0.1,0.3,0.2,0.3,0.2s-0.1,0.1-0.3,0.2c-0.2,0.1-0.5,0.3-0.8,0.4
			c-0.7,0.3-1.6,0.8-2.8,1.3c-0.6,0.2-1.2,0.5-1.8,0.7c-0.6,0.2-1.3,0.5-2,0.7c-0.7,0.2-1.4,0.4-2.1,0.6c-0.7,0.2-1.4,0.4-2.1,0.6
			c-0.7,0.2-1.4,0.4-2.1,0.5c-0.3,0.1-0.7,0.2-1,0.3c-0.3,0.1-0.6,0.2-1,0.3c-0.6,0.2-1.3,0.3-1.8,0.5c-0.6,0.2-1.1,0.4-1.6,0.5
			c-0.4,0.2-0.9,0.4-1.3,0.6c-0.4,0.2-0.7,0.4-0.9,0.6c-0.3,0.2-0.4,0.5-0.6,0.7C400.4,175.5,400.4,175.6,400.4,175.6z"/>
	</g>
	<g id="XMLID_781_">
		<path id="XMLID_191_" d="M422.5,167.4c0,0,0.1,0.1,0.2,0.2c0.1,0.1,0.3,0.3,0.4,0.6c0.2,0.2,0.4,0.6,0.6,0.9
			c0.2,0.3,0.5,0.7,0.7,1c0.3,0.4,0.5,0.8,0.7,1.2c0.3,0.4,0.5,0.8,0.7,1.2c0.3,0.4,0.5,0.9,0.7,1.3c0.2,0.4,0.5,0.8,0.7,1.3
			c0.2,0.4,0.4,0.8,0.6,1.2c0.1,0.2,0.2,0.4,0.3,0.6c0.1,0.2,0.2,0.4,0.3,0.6c0.2,0.3,0.4,0.7,0.6,1.1c0.2,0.4,0.4,0.7,0.6,1
			c0.2,0.3,0.4,0.6,0.7,0.9c0.2,0.2,0.4,0.5,0.7,0.7c0.2,0.2,0.4,0.4,0.5,0.5c0.1,0.1,0.2,0.2,0.2,0.2s-0.1,0.1-0.2,0.2
			c-0.1,0.1-0.4,0.2-0.7,0.4c-0.3,0.1-0.7,0.2-1.1,0.3c-0.5,0.1-1,0.1-1.6,0c-0.6-0.1-1.2-0.2-1.8-0.5c-0.6-0.2-1.2-0.6-1.8-1
			c-0.5-0.4-1.1-0.9-1.5-1.5c-0.5-0.5-0.8-1.2-1.2-1.8c-0.3-0.6-0.6-1.3-0.8-1.9c-0.2-0.6-0.3-1.3-0.4-1.9c-0.1-0.6-0.1-1.2,0-1.8
			c0.1-0.6,0.2-1.1,0.3-1.6c0.1-0.5,0.3-1,0.4-1.4c0.1-0.4,0.4-0.7,0.5-1c0.1-0.3,0.3-0.5,0.4-0.6
			C422.4,167.5,422.5,167.4,422.5,167.4z"/>
	</g>
	<g id="XMLID_778_">
		<path id="XMLID_189_" d="M431.7,181.6c0,0,0.1,0.1,0.2,0.3c0.1,0.2,0.2,0.5,0.4,0.8c0.1,0.2,0.2,0.4,0.2,0.6
			c0.1,0.2,0.1,0.5,0.2,0.7c0.1,0.5,0.2,1.2,0.2,1.9c0,0.3,0,0.7,0,1.1c0,0.4-0.1,0.7-0.1,1.1c-0.1,0.8-0.3,1.6-0.6,2.4
			c-0.1,0.4-0.3,0.8-0.5,1.2l-0.3,0.6c-0.1,0.2-0.2,0.4-0.4,0.6c-0.3,0.4-0.5,0.8-0.8,1.2l-0.9,1.1c-0.7,0.6-1.3,1.3-2.1,1.8
			c-0.7,0.6-1.6,1-2.3,1.3c-0.8,0.3-1.6,0.6-2.4,0.7c-0.4,0.1-0.8,0.1-1.1,0.2c-0.4,0-0.7,0-1.1,0c-0.3,0-0.7,0-1,0
			c-0.3-0.1-0.6-0.1-0.9-0.2c-0.5-0.1-1-0.3-1.4-0.4c-0.4-0.1-0.7-0.3-0.8-0.4c-0.2-0.1-0.3-0.2-0.3-0.2s0.1-0.1,0.3-0.2
			c0.2-0.1,0.4-0.3,0.8-0.5c0.3-0.2,0.7-0.4,1.1-0.7c0.4-0.3,0.9-0.5,1.3-0.9c0.5-0.3,0.9-0.7,1.4-1c0.2-0.2,0.5-0.4,0.7-0.6
			c0.2-0.2,0.5-0.4,0.7-0.6c0.2-0.2,0.5-0.4,0.7-0.6c0.2-0.2,0.4-0.4,0.7-0.7c0.2-0.2,0.5-0.4,0.7-0.7c0.2-0.2,0.5-0.4,0.7-0.7
			c0.4-0.5,0.9-0.9,1.3-1.4c0.4-0.5,0.8-1,1.2-1.5c0.3-0.5,0.8-1,1.1-1.5c0.4-0.5,0.7-1,1-1.5c0.3-0.5,0.6-0.9,0.8-1.3
			c0.1-0.2,0.3-0.4,0.4-0.6c0.1-0.2,0.2-0.4,0.3-0.6c0.2-0.3,0.4-0.6,0.5-0.8C431.6,181.7,431.7,181.6,431.7,181.6z"/>
	</g>
	<g id="XMLID_775_">
		<path id="XMLID_187_" d="M408,172.9c0,0-0.1-0.2-0.2-0.5c-0.1-0.3-0.3-0.7-0.5-1.3c-0.1-0.3-0.2-0.6-0.3-0.9
			c-0.2-0.3-0.3-0.6-0.5-1c-0.2-0.3-0.3-0.7-0.5-1.1c-0.2-0.4-0.4-0.8-0.6-1.2c-0.4-0.8-1-1.6-1.5-2.5c-0.2-0.4-0.6-0.8-0.9-1.3
			c-0.3-0.4-0.6-0.9-1-1.3c-0.4-0.4-0.7-0.8-1-1.3c-0.4-0.4-0.8-0.8-1.2-1.2c-0.4-0.4-0.8-0.8-1.2-1.2c-0.4-0.4-0.8-0.8-1.3-1.1
			c-0.4-0.4-0.9-0.8-1.3-1.1c-0.5-0.3-0.9-0.7-1.4-1c-0.9-0.6-1.9-1.3-2.9-1.8c-0.5-0.3-1-0.5-1.4-0.8c-0.5-0.3-1-0.5-1.4-0.7
			c-0.9-0.5-1.8-0.9-2.7-1.3c-0.8-0.4-1.7-0.7-2.4-1c-0.7-0.3-1.4-0.6-1.9-0.7c-0.5-0.2-1-0.4-1.3-0.5c-0.3-0.1-0.5-0.2-0.5-0.2
			s0.2-0.1,0.5-0.2c0.3-0.1,0.8-0.2,1.3-0.4c0.3-0.1,0.6-0.1,1-0.2c0.4-0.1,0.7-0.1,1.2-0.1c0.8-0.1,1.8-0.2,2.8-0.1
			c1,0,2.2,0.1,3.4,0.4c0.6,0.1,1.2,0.2,1.8,0.4c0.6,0.2,1.2,0.4,1.9,0.6c0.6,0.2,1.2,0.5,1.9,0.8c0.6,0.3,1.3,0.6,1.9,1
			c0.6,0.4,1.2,0.7,1.8,1.1c0.6,0.4,1.1,0.9,1.7,1.3c0.6,0.4,1.1,1,1.6,1.5c0.5,0.5,1,1,1.4,1.6c0.4,0.6,0.9,1.1,1.3,1.7
			c0.4,0.6,0.7,1.2,1,1.8c0.3,0.6,0.6,1.2,0.8,1.8c0.2,0.6,0.5,1.2,0.7,1.8c0.3,1.2,0.6,2.3,0.7,3.4c0,0.5,0.1,1,0.1,1.5
			c0,0.5,0,1-0.1,1.4c0,0.4,0,0.8-0.1,1.2c0,0.4-0.1,0.7-0.2,1c-0.1,0.6-0.3,1-0.3,1.3C408.1,172.7,408,172.9,408,172.9z"/>
	</g>
	<g id="XMLID_772_">
		<path id="XMLID_185_" d="M320,215c0,0,0.1,0.2,0.3,0.5c0.2,0.4,0.6,0.8,0.9,1.5c0.2,0.3,0.4,0.7,0.6,1.2c0.2,0.4,0.4,0.9,0.6,1.4
			c0.4,1,0.8,2.2,1.1,3.4c0.3,1.3,0.6,2.7,0.8,4.3c0.2,1.5,0.2,3.2,0.1,5c-0.1,1.8-0.4,3.6-1.2,5.5c-0.2,0.5-0.4,1-0.7,1.4
			c-0.2,0.5-0.6,1-0.9,1.4c-0.3,0.5-0.8,0.9-1.2,1.4c-0.5,0.4-1,0.8-1.7,1.1c-0.3,0.1-0.6,0.3-0.9,0.4c-0.3,0.1-0.7,0.2-1,0.3
			c-0.7,0.2-1.3,0.2-2,0.2c-0.7,0-1.2-0.2-1.8-0.3c-0.6-0.1-1.1-0.4-1.6-0.5c-1-0.4-1.9-0.9-2.6-1.5c-0.8-0.5-1.5-1.1-2.1-1.7
			c-0.6-0.6-1.2-1.2-1.8-1.8c-0.5-0.6-1-1.2-1.5-1.8c-0.9-1.2-1.7-2.4-2.4-3.6c-0.7-1.1-1.2-2.2-1.7-3.1c-0.5-0.9-0.8-1.8-1.1-2.5
			c-0.3-0.7-0.5-1.3-0.6-1.7c-0.1-0.4-0.2-0.6-0.2-0.6s0.2,0.1,0.5,0.4c0.3,0.3,0.8,0.6,1.3,1.2c1.1,1,2.7,2.4,4.6,4.2
			c0.9,0.9,1.9,1.7,3,2.6c0.5,0.4,1.1,0.9,1.6,1.3c0.6,0.4,1.1,0.9,1.7,1.3c1.2,0.8,2.4,1.5,3.5,1.9c0.3,0.1,0.6,0.2,0.8,0.2
			c0.2,0,0.5,0.1,0.7,0.1c0.2,0,0.4,0,0.5-0.1c0.1,0,0.2,0,0.2-0.1c0.1,0,0.1-0.1,0.2-0.1c0.6-0.2,1.3-1.1,1.8-2.3
			c0.5-1.2,1-2.5,1.3-3.9c0.6-2.8,0.8-5.7,0.9-8.1c0-1.2,0-2.4,0-3.4c0-1,0-1.9-0.1-2.7c0-0.8-0.1-1.4-0.1-1.8
			C320,215.2,320,215,320,215z"/>
	</g>
	<g id="XMLID_769_">
		<path id="XMLID_183_" d="M297.4,224.8c0,0,0-0.2-0.1-0.5c-0.1-0.3-0.2-0.8-0.2-1.3c0-0.6-0.2-1.3-0.2-2.1c0-0.8,0-1.8,0.1-2.8
			c0.1-1,0.3-2.1,0.6-3.3c0.3-1.1,0.7-2.4,1.2-3.6c0.3-0.6,0.6-1.2,0.9-1.8c0.3-0.6,0.7-1.2,1.1-1.8c0.8-1.2,1.8-2.3,3-3.3
			c1.2-1,2.7-1.9,4.4-2.3c1.7-0.5,3.7-0.4,5.3,0.3c1.6,0.7,2.8,1.7,3.7,2.8c0.4,0.5,0.8,1.1,1.1,1.6c0.3,0.5,0.5,1,0.7,1.6
			c0.2,0.5,0.4,1,0.5,1.4c0.1,0.5,0.2,0.9,0.3,1.3c0.1,0.8,0.2,1.6,0.2,2.1c0,0.6,0,1.1,0,1.4c0,0.3,0,0.5,0,0.5s-0.1-0.1-0.3-0.4
			c-0.2-0.3-0.5-0.6-0.8-1.1c-0.3-0.4-0.8-1-1.2-1.6c-0.5-0.6-1-1.3-1.6-1.9c-0.6-0.6-1.3-1.3-2-1.8c-0.7-0.5-1.5-0.8-2.1-0.9
			c-0.7-0.1-1.3,0-2,0.2c-0.7,0.3-1.5,0.7-2.2,1.4c-0.8,0.6-1.5,1.4-2.2,2.2c-0.7,0.8-1.4,1.7-2,2.6c-0.6,0.9-1.2,1.8-1.7,2.7
			c-0.5,0.9-1,1.8-1.4,2.6c-0.4,0.8-0.8,1.6-1.2,2.3c-0.4,0.7-0.7,1.3-0.9,1.8C297.7,224.2,297.4,224.8,297.4,224.8z"/>
	</g>
	<g id="XMLID_766_">
		<path id="XMLID_176_" d="M382,206c0,0,0.1,0.2,0.3,0.5c0.2,0.4,0.6,0.8,0.9,1.5c0.2,0.3,0.4,0.7,0.6,1.2c0.2,0.4,0.4,0.9,0.6,1.4
			c0.4,1,0.8,2.2,1.1,3.4c0.3,1.3,0.6,2.7,0.8,4.3c0.2,1.5,0.2,3.2,0.1,5c-0.1,1.8-0.4,3.6-1.2,5.5c-0.2,0.5-0.4,1-0.7,1.4
			c-0.2,0.5-0.6,1-0.9,1.4c-0.3,0.5-0.8,0.9-1.2,1.4c-0.5,0.4-1,0.8-1.7,1.1c-0.3,0.1-0.6,0.3-0.9,0.4c-0.3,0.1-0.7,0.2-1,0.3
			c-0.7,0.2-1.3,0.2-2,0.2c-0.7,0-1.2-0.2-1.8-0.3c-0.6-0.1-1.1-0.4-1.6-0.5c-1-0.4-1.9-0.9-2.6-1.5c-0.8-0.5-1.5-1.1-2.1-1.7
			c-0.6-0.6-1.2-1.2-1.8-1.8c-0.5-0.6-1-1.2-1.5-1.8c-0.9-1.2-1.7-2.4-2.4-3.6c-0.7-1.1-1.2-2.2-1.7-3.1c-0.5-0.9-0.8-1.8-1.1-2.5
			c-0.3-0.7-0.5-1.3-0.6-1.7c-0.1-0.4-0.2-0.6-0.2-0.6s0.2,0.1,0.5,0.4c0.3,0.3,0.8,0.6,1.3,1.2c1.1,1,2.7,2.4,4.6,4.2
			c0.9,0.9,1.9,1.7,3,2.6c0.5,0.4,1.1,0.9,1.6,1.3c0.6,0.4,1.1,0.9,1.7,1.3c1.2,0.8,2.4,1.5,3.5,1.9c0.3,0.1,0.6,0.2,0.8,0.2
			c0.2,0,0.5,0.1,0.7,0.1c0.2,0,0.4,0,0.5-0.1c0.1,0,0.2,0,0.2-0.1c0.1,0,0.1-0.1,0.2-0.1c0.6-0.2,1.3-1.1,1.8-2.3
			c0.5-1.2,1-2.5,1.3-3.9c0.6-2.8,0.8-5.7,0.9-8.1c0-1.2,0-2.4,0-3.4c0-1,0-1.9-0.1-2.7c0-0.8-0.1-1.4-0.1-1.8
			C382,206.2,382,206,382,206z"/>
	</g>
	<g id="XMLID_763_">
		<path id="XMLID_163_" d="M359.4,215.8c0,0,0-0.2-0.1-0.5c-0.1-0.3-0.2-0.8-0.2-1.3c0-0.6-0.2-1.3-0.2-2.1c0-0.8,0-1.8,0.1-2.8
			c0.1-1,0.3-2.1,0.6-3.3c0.3-1.1,0.7-2.4,1.2-3.6c0.3-0.6,0.6-1.2,0.9-1.8c0.3-0.6,0.7-1.2,1.1-1.8c0.8-1.2,1.8-2.3,3-3.3
			c1.2-1,2.7-1.9,4.4-2.3c1.7-0.5,3.7-0.4,5.3,0.3c1.6,0.7,2.8,1.7,3.7,2.8c0.4,0.5,0.8,1.1,1.1,1.6c0.3,0.5,0.5,1,0.7,1.6
			c0.2,0.5,0.4,1,0.5,1.4c0.1,0.5,0.2,0.9,0.3,1.3c0.1,0.8,0.2,1.6,0.2,2.1c0,0.6,0,1.1,0,1.4c0,0.3,0,0.5,0,0.5s-0.1-0.1-0.3-0.4
			c-0.2-0.3-0.5-0.6-0.8-1.1c-0.3-0.4-0.8-1-1.2-1.6c-0.5-0.6-1-1.3-1.6-1.9c-0.6-0.6-1.3-1.3-2-1.8c-0.7-0.5-1.5-0.8-2.1-0.9
			c-0.7-0.1-1.3,0-2,0.2c-0.7,0.3-1.5,0.7-2.2,1.4c-0.8,0.6-1.5,1.4-2.2,2.2c-0.7,0.8-1.4,1.7-2,2.6c-0.6,0.9-1.2,1.8-1.7,2.7
			c-0.5,0.9-1,1.8-1.4,2.6c-0.4,0.8-0.8,1.6-1.2,2.3c-0.4,0.7-0.7,1.3-0.9,1.8C359.7,215.2,359.4,215.8,359.4,215.8z"/>
	</g>
	<g id="XMLID_756_">
		<g id="XMLID_177_">
			<path id="XMLID_17_" d="M316.5,232.3c-1.9-0.5-4-1.1-5.4-2.7c-1-1.1-1.8-3.5,0-4.3c1.3-0.5,2.9,0.3,3.5,1.5
				c1.1,1.8,0.3,4.2-0.6,5.8c1.9,0.5,3.7,1,5.6,1.5c-0.6-5.9-4.4-10.7-10.2-12.4c-1.6-0.5-3.2,0.6-3.7,2.1c-0.9,2.9-0.5,6,1,8.7
				c1.3,2.3,4.2,5.1,7,5c3-0.1,4.2-3.7,3.6-6.2c-0.4-1.6-1.5-2.6-2.6-3.8c-1-1.1-0.4-1-1.4-0.6c1.4,0.4,2.7,0.7,4.1,1.1
				c-0.6-1.1-1.3-2.1-1.9-3.2c-0.5-0.8-1.6-1.6-2.6-1.5c-3.3,0.3-5.7,2.9-5.2,6.4c0.6,3.9,4.5,7.6,6.7,10.6c0.9,1.2,2.7,2.1,4.1,1.1
				c2.6-1.8,3.8-4.6,2.9-7.6c-1-3.2-5.9-2.6-5.9,0.8c0-0.7-0.4-0.6-1.3-1.3c-0.6-0.5-1.2-1.1-1.8-1.7c-0.7-0.8-2.9-3.2-1.3-4.2
				c3.2-2.1,0.2-7.3-3-5.2c-5.9,3.9-3,10.7,1.2,14.7c2,2,4.6,3.9,7.6,3.3c2.7-0.5,4.7-2.7,4.7-5.5c-2,0.3-3.9,0.5-5.9,0.8
				c0.2,0.3,0.2,0.6-0.1,0.9c1.4,0.4,2.7,0.7,4.1,1.1c-1.1-1.5-2.3-3-3.4-4.6c-0.9-1.2-1.8-3.5-3.3-3.4c-0.9-0.5-1.7-1-2.6-1.5
				c0.6,1.1,1.3,2.1,1.9,3.2c0.9,1.5,2.6,1.7,4.1,1.1c5.4-2.4,4.1-11.5-2.1-11.6c-2.9,0-5.6,2.2-6.2,4.9c-0.4,1.5,0,3.1,0.8,4.4
				c0.4,0.6,0.8,1.1,1.3,1.5c0.3,0.3,0.6,0.6,0.9,0.9c0.4,0.8,0.6,0.8,0.6,0c1-0.3,1.9-0.5,2.9-0.8c-2.6-0.9-3.8-3.6-3-6.2
				c-1.2,0.7-2.5,1.4-3.7,2.1c3,0.9,5.4,3.4,5.8,6.6c0.3,2.8,4,4.3,5.6,1.5c2.2-3.9,2.8-8.8,0.1-12.6c-2.3-3.3-6.8-4.7-10.5-3.3
				c-4.2,1.6-5.6,6.3-4.3,10.3c1.5,4.6,6,6.8,10.4,8C318.6,239,320.2,233.2,316.5,232.3L316.5,232.3z"/>
		</g>
	</g>
	<g id="XMLID_749_">
		<g id="XMLID_170_">
			<path id="XMLID_18_" d="M313.8,230.8c5.8,0,5.8-9,0-9C308,221.8,308,230.8,313.8,230.8L313.8,230.8z"/>
		</g>
	</g>
	<g id="XMLID_742_">
		<g id="XMLID_164_">
			<path id="XMLID_19_" d="M379.4,228.2c-2.5-1.5-3.2-4.5-3.5-7.2c-0.1-1.1-0.5-3.4,0.7-3.6c2-0.3,1.7,4.1,1.6,5
				c1.2-0.7,2.5-1.4,3.7-2.1c-1.9-0.6-3.2-1.9-3.8-3.8c-0.8-2.7-5.2-3-5.8,0c-0.9,4.5-3.1,18.1,5.4,16.8c2.8-0.4,4.9-3,5.2-5.7
				c0.2-1.7-0.3-3.3-1-4.8c-0.8-1.7-3.1-3.9-2.8-5.9c-1.9,0-3.9,0-5.8,0c1.3,3.8,1.9,7.6,1.7,11.7c-0.2,3.5,4.9,4,5.9,0.8
				c1-3.4,1.6-6.9,1.7-10.5c0.1-3.9-5.9-3.9-6,0c-0.1,3.1-0.6,6-1.5,8.9c2,0.3,3.9,0.5,5.9,0.8c0.2-4.5-0.4-9-1.9-13.3
				c-0.9-2.5-5.3-3.2-5.8,0c-0.6,4,1.2,6.2,2.9,9.6c0.3,0.7,0.5,2,1,2.3c0.6,0.4,0.1-1.4,0.1-1.8c-0.1-2.5,0.2-4.9,0.7-7.4
				c-1.9,0-3.9,0-5.8,0c1.2,4,4,6.8,7.9,8c1.4,0.4,3.5-0.5,3.7-2.1c0.5-4,0.4-8.8-3.4-11.3c-2.9-1.9-6.9-1.9-9.2,0.9
				c-2.3,2.9-1.8,7.2-1.1,10.6c0.8,3.8,2.6,7.1,6,9.1C379.7,235.3,382.7,230.1,379.4,228.2L379.4,228.2z"/>
		</g>
	</g>
	<g id="XMLID_735_">
		<g id="XMLID_158_">
			<path id="XMLID_20_" d="M377.2,227c11.6,0,11.6-18,0-18C365.6,209,365.6,227,377.2,227L377.2,227z"/>
		</g>
	</g>
	<g id="XMLID_728_">
		<g id="XMLID_152_">
			<path id="XMLID_21_" d="M377.2,219.3c3.9,0,3.9-6,0-6C373.3,213.3,373.3,219.3,377.2,219.3L377.2,219.3z"/>
		</g>
	</g>
	<g id="XMLID_721_">
		<g id="XMLID_146_">
			<path id="XMLID_22_" d="M358.8,255.8c4.2-4.7,10.4-8.7,11.3-15.4c0.7-5.1-1.4-10-6.4-11.8c-3.6-1.3-5.2,4.5-1.6,5.8
				c3.5,1.2,2.2,6.3,0.7,8.5c-2.2,3.3-5.6,5.7-8.2,8.6C352,254.4,356.3,258.7,358.8,255.8L358.8,255.8z"/>
		</g>
	</g>
	<g id="XMLID_714_">
		<g id="XMLID_131_">
			<path id="XMLID_23_" d="M284.8,211.4c1.9-9.4,10.6-14.6,18.3-19.1c3.3-1.9,0.3-7.1-3-5.2c-9,5.2-18.8,11.7-21,22.6
				C278.2,213.5,284,215.2,284.8,211.4L284.8,211.4z"/>
		</g>
	</g>
	<g id="XMLID_707_">
		<g id="XMLID_120_">
			<path id="XMLID_24_" d="M379.6,190.2c-7.3-2.6-14.2-6-20.8-10c-3.3-2-6.3,3.2-3,5.2c7.1,4.3,14.5,7.8,22.3,10.6
				C381.6,197.4,383.2,191.6,379.6,190.2L379.6,190.2z"/>
		</g>
	</g>
	<g id="XMLID_704_">
		<path id="XMLID_108_" d="M312.9,315.5c0,0,0.2,0.4,0.7,1.2c0.5,0.8,1.2,1.9,2,3.3c0.9,1.4,2,3.1,3.3,5c1.3,1.9,2.9,4,4.6,6.2
			c3.5,4.4,7.9,9.3,13.1,13.8c2.6,2.2,5.5,4.3,8.5,6c3.1,1.7,6.3,3.1,9.6,3.6c3.3,0.6,6.5,0.2,9.2-1.3c2.7-1.4,5-3.8,6.7-6.6
			c1.7-2.8,3-5.8,4-8.8c1-3,1.8-5.9,2.3-8.7c0.6-2.8,1.1-5.3,1.4-7.6c0.3-2.3,0.6-4.3,0.8-6c0.4-3.3,0.7-5.2,0.7-5.2
			s0.1,0.5,0.2,1.4c0.1,0.9,0.3,2.2,0.4,3.9c0.1,1.7,0.3,3.7,0.3,6.1c0,2.4,0,5-0.3,7.9c-0.2,2.9-0.7,6.1-1.4,9.4
			c-0.8,3.3-1.9,6.8-3.8,10.3c-0.9,1.7-2.1,3.4-3.5,4.9c-1.4,1.6-3.1,3-5,4c-1.9,1.1-4.1,1.9-6.3,2.2c-2.2,0.3-4.5,0.3-6.6-0.1
			c-4.3-0.7-8.1-2.4-11.6-4.5c-1.7-1-3.3-2.2-4.8-3.4c-1.5-1.2-3-2.4-4.3-3.7c-5.4-5.2-9.4-10.7-12.4-15.8c-3-5-4.9-9.5-6.1-12.6
			c-0.6-1.6-1-2.8-1.3-3.7C313.1,316,312.9,315.5,312.9,315.5z"/>
	</g>
	<g id="XMLID_701_">
		<path id="XMLID_105_" d="M259,512c0,0,0.1-0.1,0.4-0.4c0.2-0.2,0.7-0.6,1.1-1.1c0.2-0.2,0.4-0.5,0.6-0.8c0.2-0.3,0.4-0.6,0.6-0.9
			c0.2-0.4,0.4-0.7,0.6-1.1c0.1-0.4,0.3-0.8,0.4-1.3c0.1-0.5,0.3-0.9,0.3-1.4c0.1-0.5,0.2-1,0.2-1.5c0.1-1.1,0.1-2.2,0-3.4
			c0-1.2-0.2-2.5-0.3-3.8c-0.2-1.3-0.4-2.6-0.6-4c-0.2-1.3-0.5-2.7-0.7-4c-0.3-1.3-0.5-2.7-0.8-4c-0.5-2.6-0.9-5.1-1.2-7.2
			c-0.3-2.2-0.4-4-0.4-5.3c0-0.7,0-1.2,0.1-1.5c0-0.4,0.1-0.5,0.1-0.5s0.4,0.7,1,1.8c0.3,0.6,0.7,1.2,1.2,2c0.4,0.8,0.9,1.7,1.4,2.6
			c1,1.9,2.1,4.3,3,6.9c0.5,1.3,0.9,2.7,1.3,4.1c0.4,1.4,0.7,2.9,1,4.4c0.2,1.5,0.4,3,0.5,4.5c0,0.8,0.1,1.5,0,2.3
			c0,0.8-0.1,1.5-0.2,2.2c-0.2,1.5-0.5,2.9-1,4.2c-0.5,1.3-1.1,2.5-1.9,3.5c-0.4,0.5-0.8,0.9-1.2,1.4c-0.4,0.4-0.8,0.7-1.2,1
			c-0.4,0.3-0.8,0.5-1.2,0.7c-0.4,0.2-0.8,0.3-1.1,0.4c-0.6,0.3-1.2,0.2-1.5,0.3C259.2,512,259,512,259,512z"/>
	</g>
	<g id="XMLID_698_">
		<path id="XMLID_102_" class="st8" d="M313,495.5"/>
	</g>
	<g id="XMLID_695_">
		<path id="XMLID_99_" class="st8" d="M268,495.5"/>
	</g>
	<g id="XMLID_692_">
		<path id="XMLID_92_" d="M259.3,469.7c0,0,0-0.1,0-0.2c0-0.1,0-0.3,0-0.5c0.1-0.5,0.5-1.1,1.1-1.6c0.6-0.5,1.4-1.1,2.4-1.7
			c1-0.5,2.1-1.1,3.4-1.6c2.5-1,5.5-1.8,8.7-2.5c1.6-0.3,3.3-0.6,5-0.9c1.7-0.3,3.4-0.4,5.2-0.6c1.7-0.1,3.5-0.3,5.2-0.3
			c1.7-0.1,3.4-0.1,5,0c3.3,0.1,6.3,0.3,8.9,0.6c5.2,0.6,8.7,1.6,8.7,1.6s-0.2,0.1-0.6,0.2c-0.4,0.1-1,0.3-1.7,0.4
			c-1.5,0.4-3.6,0.8-6.2,1.2c-2.6,0.4-5.6,0.9-8.7,1.2c-1.6,0.2-3.2,0.4-4.9,0.5c-1.7,0.2-3.4,0.3-5.1,0.5c-3.4,0.3-6.8,0.5-10,0.7
			c-3.2,0.2-6.1,0.4-8.7,0.6c-1.3,0.1-2.4,0.2-3.4,0.4c-1,0.1-1.9,0.3-2.6,0.5c-0.7,0.2-1.2,0.5-1.4,0.7c-0.1,0.1-0.2,0.3-0.3,0.4
			C259.4,469.6,259.3,469.7,259.3,469.7z"/>
	</g>
	<g id="XMLID_689_">
		<path id="XMLID_66_" d="M313,462.2c0,0,0.1,0.2,0.2,0.4c0.1,0.3,0.3,0.7,0.4,1.3c0.4,1.1,0.8,2.6,1.2,4.5c0.4,1.8,0.9,4,1.3,6.2
			c0.2,1.1,0.4,2.3,0.6,3.5c0.2,1.2,0.4,2.4,0.5,3.6c0.3,2.4,0.7,4.8,1,7c0.2,1.1,0.3,2.2,0.5,3.2c0.1,1,0.3,2,0.5,2.8
			c0.2,0.9,0.4,1.6,0.6,2.3c0.2,0.7,0.4,1.2,0.7,1.6c0.3,0.4,0.5,0.7,0.8,0.9c0.3,0.1,0.4,0.2,0.4,0.2s-0.1,0.1-0.5,0.1
			c-0.3,0-0.9,0-1.4-0.3c-0.6-0.3-1.3-0.7-1.9-1.3c-0.6-0.6-1.2-1.3-1.8-2.2c-1.1-1.7-2.1-3.8-2.9-6.2c-0.4-1.2-0.7-2.4-1-3.6
			c-0.3-1.2-0.5-2.5-0.7-3.8c-0.2-1.3-0.3-2.5-0.4-3.8c-0.1-1.3-0.1-2.5-0.1-3.7c0-2.4,0.2-4.6,0.5-6.5
			C312,464.6,313,462.2,313,462.2z"/>
	</g>
	<g id="XMLID_686_">
		<path id="XMLID_60_" d="M431,462.5c0,0,0.1-0.1,0.4-0.2c0.2-0.1,0.6-0.3,1.1-0.4c0.9-0.3,2.3-0.8,3.9-1.1c1.6-0.4,3.5-0.7,5.4-0.9
			c1-0.1,2-0.2,3.1-0.3c1-0.1,2.1-0.1,3.2-0.1c1.1,0,2.1,0,3.2,0.1c1,0,2.1,0.1,3.1,0.2c2,0.2,3.9,0.5,5.4,0.9
			c1.6,0.4,2.9,0.8,3.9,1.1c0.5,0.2,0.8,0.3,1.1,0.4c0.2,0.1,0.4,0.2,0.4,0.2s-0.1,0.1-0.4,0.2c-0.2,0.1-0.6,0.3-1.1,0.4
			c-0.9,0.3-2.3,0.8-3.9,1.1c-1.6,0.4-3.5,0.7-5.4,0.9c-1,0.1-2,0.2-3.1,0.2c-1,0.1-2.1,0.1-3.2,0.1c-1.1,0-2.1,0-3.2-0.1
			c-1-0.1-2.1-0.1-3.1-0.3c-2-0.2-3.9-0.5-5.4-0.9c-1.6-0.4-2.9-0.8-3.9-1.1c-0.5-0.2-0.8-0.3-1.1-0.4
			C431.1,462.6,431,462.5,431,462.5z"/>
	</g>
	<g id="XMLID_683_">
		<path id="XMLID_57_" d="M465,462.5c0,0,0,0.3-0.1,0.7c0,0.5-0.1,1.2-0.2,2.1c0,0.9-0.1,1.9-0.1,3.1c0,1.2,0.1,2.6,0.2,4
			c0.1,1.5,0.3,3,0.6,4.6c0.3,1.6,0.7,3.3,1.2,5.1c0.5,1.7,1.1,3.5,1.7,5.3c0.7,1.8,1.4,3.5,2.2,5.3c0.8,1.8,1.7,3.5,2.6,5.1
			c0.9,1.7,1.9,3.3,2.9,4.8c2,3.1,4,5.8,5.9,8c1,1.1,1.9,2.1,2.8,2.9c0.4,0.4,0.9,0.7,1.3,1.1c0.4,0.3,0.8,0.6,1.1,0.8
			c0.7,0.4,1.3,0.8,1.8,0.9c0.5,0.1,0.7,0.2,0.7,0.2s-0.2,0.1-0.7,0.1c-0.5,0-1.3,0.1-2.2-0.1c-0.5-0.1-1-0.2-1.5-0.4
			c-0.5-0.2-1.1-0.4-1.7-0.7c-1.2-0.5-2.5-1.3-3.8-2.2c-1.3-0.9-2.7-2-4-3.3c-1.3-1.2-2.6-2.7-3.9-4.2c-0.6-0.8-1.3-1.6-1.8-2.4
			c-0.6-0.8-1.2-1.7-1.7-2.6c-1.1-1.8-2.1-3.6-3-5.6c-0.9-1.9-1.6-3.9-2.3-5.9c-0.3-1-0.6-2-0.8-3c-0.2-1-0.4-2-0.6-3
			c-0.3-2-0.4-3.9-0.4-5.8c0-0.9,0.1-1.8,0.1-2.7c0.1-0.9,0.2-1.7,0.3-2.5c0.3-1.6,0.6-3,1-4.2c0.3-1.2,0.9-2.3,1.2-3.1
			c0.4-0.8,0.8-1.4,1-1.8C464.9,462.7,465,462.5,465,462.5z"/>
	</g>
	<g id="XMLID_680_">
		<path id="XMLID_55_" d="M431,462.5c0,0,0,0.9,0,2.4c0,1.5,0.1,3.6,0.2,6.1c0.2,2.5,0.4,5.4,0.7,8.4c0.2,1.5,0.3,3.1,0.5,4.7
			c0.2,1.6,0.4,3.3,0.6,4.9c0.8,6.6,1.6,13.2,1.9,18.4c0.1,1.3,0.1,2.5,0.1,3.5c0,0.5,0,1,0,1.5c0,0.2,0,0.5-0.1,0.7
			c0,0.1,0,0.2,0,0.4l0,0.2c0,0,0,0.1-0.1,0.2l0,0.1l0,0c0,0,0,0.1-0.1,0.1c-0.1,0.1-0.3,0.3-0.5,0.3c-0.2,0-0.4-0.1-0.4-0.1
			c-0.1-0.1-0.2-0.2-0.2-0.2c-0.1-0.1-0.1-0.2-0.2-0.3c-0.1-0.2-0.1-0.3-0.2-0.5c-0.1-0.3-0.1-0.5-0.2-0.7c-0.1-0.4-0.1-0.6-0.1-0.6
			s0.2,0.2,0.4,0.5c0.1,0.2,0.3,0.3,0.5,0.5c0.1,0.1,0.2,0.2,0.3,0.3c0.1,0.1,0.1,0.1,0.2,0.1c0,0,0,0,0,0l0,0c0,0-0.1,0-0.1,0
			c-0.1,0-0.1,0-0.2,0c-0.1,0-0.3,0.1-0.3,0.2c0,0,0,0.1,0,0.1l0,0l0,0c0,0,0,0,0,0l0-0.1c0-0.1-0.1-0.2-0.1-0.2
			c-0.1-0.2-0.1-0.4-0.2-0.6c-0.2-0.4-0.3-0.9-0.5-1.3c-0.4-1-0.8-2.1-1.3-3.3c-0.9-2.4-1.8-5.3-2.6-8.4c-0.4-1.6-0.8-3.2-1.1-4.9
			c-0.3-1.7-0.6-3.4-0.8-5.1c-0.2-1.7-0.4-3.4-0.4-5.2c-0.1-1.7-0.1-3.4,0-5c0.1-3.3,0.5-6.3,1.1-8.9c0.6-2.6,1.4-4.7,2.1-6.1
			c0.3-0.7,0.6-1.2,0.8-1.6C430.9,462.7,431,462.5,431,462.5z"/>
	</g>
	<g id="XMLID_677_">
		<path id="XMLID_53_" d="M380.1,177.1c0,0,0.1,0.2,0.4,0.6c0.2,0.4,0.7,1,1.1,1.7c1,1.4,2.4,3.4,4,6c0.8,1.3,1.6,2.7,2.4,4.2
			c0.8,1.5,1.6,3.1,2.4,4.8c0.8,1.7,1.5,3.5,2.2,5.3c0.7,1.8,1.3,3.7,2,5.6c0.6,1.9,1.2,3.8,1.6,5.7c0.5,1.9,0.9,3.8,1.3,5.6
			c0.4,1.8,0.7,3.6,0.9,5.3c0.2,1.7,0.4,3.3,0.6,4.8c0.2,1.5,0.3,2.8,0.3,4.1c0.1,1.2,0.1,2.3,0.1,3.2c0,0.9,0,1.6,0,2
			c0,0.5,0,0.7,0,0.7s-0.1-0.2-0.3-0.7c-0.2-0.4-0.5-1.1-0.8-1.9c-0.3-0.8-0.8-1.8-1.2-2.9c-0.4-1.1-0.9-2.4-1.4-3.8
			c-0.5-1.4-1-2.9-1.6-4.5c-0.6-1.6-1.1-3.3-1.7-5c-0.6-1.7-1.2-3.5-1.7-5.3c-0.6-1.8-1.2-3.7-1.8-5.5c-2.4-7.4-4.7-14.8-6.5-20.3
			c-0.9-2.8-1.6-5.2-2-6.9c-0.2-0.9-0.3-1.6-0.3-2C380.1,177.4,380.1,177.1,380.1,177.1z"/>
	</g>
	<g id="XMLID_674_">
		<path id="XMLID_51_" d="M446.9,259.3c0,0,0,0.3,0,0.8c0,0.5-0.1,1.2-0.3,2.1c-0.2,0.9-0.5,2-1.1,3.2c-0.5,1.2-1.2,2.5-2.1,3.9
			c-0.9,1.3-1.9,2.8-3.1,4.1c-1.2,1.4-2.6,2.8-4.1,4.1c-1.5,1.3-3.1,2.6-4.8,3.8c-1.7,1.2-3.5,2.3-5.3,3.4c-1.8,1-3.7,2-5.6,2.9
			c-1.9,0.9-3.8,1.6-5.6,2.3c-1.8,0.7-3.7,1.2-5.4,1.7c-1.7,0.5-3.4,0.8-4.9,1.1c-1.5,0.3-3,0.5-4.2,0.6c-1.3,0.2-2.4,0.2-3.3,0.2
			c-0.9,0.1-1.6,0-2.1,0c-0.5,0-0.8,0-0.8,0s0.9-0.5,2.6-1.2c1.6-0.7,4-1.8,6.8-3c2.8-1.2,6-2.7,9.3-4.4c1.7-0.8,3.4-1.7,5.1-2.6
			c1.7-0.9,3.5-1.8,5.2-2.8c1.7-1,3.4-2,5.1-3c0.8-0.5,1.6-1,2.4-1.6c0.8-0.5,1.6-1,2.3-1.6c1.5-1,2.9-2.1,4.2-3.2
			c1.3-1,2.5-2.1,3.6-3.1c1.1-1,2-2,2.8-2.9c0.8-0.9,1.4-1.8,1.9-2.5c0.5-0.7,0.9-1.3,1.1-1.8C446.7,259.5,446.9,259.3,446.9,259.3z
			"/>
	</g>
	<g id="XMLID_671_">
		<path id="XMLID_49_" d="M634,383.5c0,0,0.5,0.6,1.6,1.8c1,1.2,2.4,3,3.6,5.7c1.2,2.6,2.3,6.1,2.5,10.2c0.2,4.1-0.3,8.8-1.5,13.6
			c-1.2,4.9-3.2,9.9-5.6,15.1c-2.4,5.2-5.3,10.4-8.4,15.7c-3.2,5.3-6.5,10.7-10,16.1c-3.5,5.4-7,10.9-10.2,16.5
			c-3.2,5.6-6.3,11.3-8,17.1c-0.9,2.9-1.4,5.8-1.3,8.6c0,0.7,0.2,1.3,0.3,2c0.1,0.7,0.4,1.3,0.5,1.9c0.5,1.2,1.1,2.3,2,3.3
			c1.7,2,4.1,3.4,6.6,4.6c0.6,0.3,1.3,0.5,1.9,0.8c0.7,0.2,1.3,0.4,2,0.7l1,0.3l1,0.3c0.7,0.2,1.3,0.3,2,0.5
			c5.3,1.2,10.6,1.8,15.4,2.1c2.4,0.2,4.8,0.2,7,0.4c2.2,0,4.3,0.1,6.3,0.1c2,0,3.8,0,5.6,0c1.7,0,3.3,0,4.7-0.1
			c2.9,0,5.1-0.1,6.6-0.1c1.5,0,2.4-0.1,2.4-0.1s-0.8,0.1-2.3,0.3c-1.5,0.2-3.7,0.6-6.6,0.9c-1.4,0.2-3,0.3-4.7,0.5
			c-1.7,0.1-3.6,0.3-5.6,0.5c-2,0.1-4.1,0.2-6.4,0.4c-1.1,0-2.3,0-3.5,0.1c-1.2,0-2.4,0-3.6,0c-5,0-10.4-0.3-16.1-1.3
			c-0.7-0.2-1.4-0.3-2.1-0.5l-1.1-0.2l-1.1-0.3c-0.7-0.2-1.5-0.4-2.2-0.6c-0.7-0.3-1.5-0.5-2.2-0.8c-2.9-1.2-5.8-2.9-8.2-5.5
			c-1.2-1.3-2.2-2.8-2.9-4.5c-0.3-0.8-0.6-1.7-0.8-2.6c-0.2-0.9-0.4-1.8-0.4-2.7c-0.3-3.6,0.3-7,1.3-10.3c2-6.5,5.1-12.5,8.3-18.2
			c3.3-5.7,6.9-11.2,10.4-16.6c3.5-5.4,7.1-10.6,10.3-15.8c3.2-5.2,6.3-10.2,8.8-15.1c2.5-4.9,4.7-9.7,6.2-14.3
			c1.5-4.6,2.3-8.9,2.4-12.8c0.1-3.9-0.5-7.3-1.5-9.9c-0.2-0.7-0.5-1.3-0.7-1.9c-0.3-0.6-0.4-1.1-0.7-1.6c-0.5-0.9-0.9-1.8-1.4-2.4
			C634.5,384.2,634,383.5,634,383.5z"/>
	</g>
	<g id="XMLID_668_">
		<path id="XMLID_47_" d="M661.9,520.7c0,0,3-0.1,8.3-0.3c1.3-0.1,2.8-0.1,4.4-0.2c1.6-0.1,3.3-0.2,5.2-0.3
			c3.7-0.2,7.8-0.6,12.3-1.2c4.4-0.6,9.3-1.4,14-3c2.3-0.8,4.6-1.9,6.4-3.4c1.7-1.6,2.8-3.5,2.9-5.8c0.2-2.3-0.5-4.9-1.4-7.5
			c-1-2.6-2.2-5.2-3.6-7.8c-2.7-5.2-5.9-10.3-9-15.5c-3.1-5.2-6.1-10.5-9-15.8c-2.9-5.3-5.4-10.6-7.7-15.9
			c-2.3-5.3-4.2-10.5-5.8-15.5c-1.6-5-2.7-9.9-3.5-14.4c-0.8-4.5-1.3-8.7-1.6-12.4c-0.2-1.9-0.2-3.6-0.2-5.2c0-1.6,0-3.1,0-4.4
			c0.1-2.7,0.2-4.8,0.4-6.2c0.1-1.4,0.2-2.2,0.2-2.2s0,0.8,0.1,2.2c0,0.7,0,1.6,0.1,2.6c0.1,1,0.1,2.2,0.2,3.5
			c0.1,1.3,0.3,2.8,0.4,4.4c0.2,1.6,0.4,3.3,0.7,5.1c0.1,0.9,0.3,1.8,0.5,2.8c0.2,1,0.4,1.9,0.6,2.9c0.2,1,0.4,2,0.7,3.1
			c0.2,1.1,0.5,2.1,0.8,3.2c1.1,4.4,2.5,9,4.3,13.9c1.8,4.8,3.9,9.8,6.2,14.9c1.2,2.5,2.5,5.1,3.8,7.7c1.4,2.6,2.7,5.1,4.2,7.7
			c2.9,5.2,5.9,10.4,9,15.6c3.1,5.2,6.2,10.5,9,15.9c1.4,2.7,2.7,5.5,3.7,8.4c0.5,1.5,0.9,3,1.2,4.5c0.3,1.6,0.4,3.2,0.3,4.9
			c-0.1,1.7-0.7,3.4-1.5,4.9c-0.8,1.5-2,2.7-3.2,3.7c-2.5,1.9-5.2,3-7.8,3.8c-5.2,1.6-10.3,2-14.8,2.3c-4.6,0.3-8.8,0.3-12.5,0.2
			c-1.9,0-3.6-0.1-5.2-0.2c-1.6-0.1-3.1-0.1-4.4-0.2c-2.7-0.1-4.7-0.3-6.2-0.5C662.6,520.8,661.9,520.7,661.9,520.7z"/>
	</g>
	<g id="XMLID_665_">
		<path id="XMLID_42_" class="st8" d="M633.7,383.3"/>
	</g>
	<g id="XMLID_662_">
		<path id="XMLID_40_" d="M634,383.5c0,0,0.6-0.2,1.7-0.5c1.1-0.3,2.7-0.6,4.5-0.9c1.9-0.3,4.1-0.6,6.4-0.8c1.2-0.1,2.4-0.2,3.6-0.2
			c1.2-0.1,2.5-0.1,3.7-0.1c1.3,0,2.5,0,3.7,0.1c1.2,0,2.4,0.1,3.6,0.2c2.3,0.2,4.5,0.5,6.4,0.8c1.9,0.3,3.4,0.7,4.5,1
			c1.1,0.3,1.7,0.5,1.7,0.5s-0.6,0.2-1.7,0.5c-1.1,0.3-2.7,0.6-4.5,1c-1.9,0.3-4.1,0.6-6.4,0.8c-1.2,0.1-2.4,0.2-3.6,0.2
			c-1.2,0.1-2.5,0.1-3.7,0.1c-1.3,0-2.5,0-3.7-0.1c-1.2,0-2.4-0.1-3.6-0.2c-2.3-0.2-4.5-0.5-6.4-0.8c-1.9-0.3-3.4-0.7-4.5-0.9
			C634.6,383.7,634,383.5,634,383.5z"/>
	</g>
	<g id="XMLID_659_">
		<path id="XMLID_33_" class="st8" d="M661.9,383.3"/>
	</g>
	<g id="XMLID_656_">
		<path id="XMLID_30_" class="st8" d="M633.7,357.3"/>
	</g>
	<g id="XMLID_653_">
		<path id="XMLID_28_" class="st3" d="M643.7,383.3c0,0-0.7,0.1-2,0.3c-1.3,0.2-3.3,0.6-5.8,0.8c-2.5,0.3-5.6,0.6-9.1,0.6
			c-3.5,0.1-7.6,0-11.9-0.6c-4.4-0.5-9.1-1.5-13.9-3.2c-4.8-1.7-9.8-4.1-14.3-7.5c-4.5-3.4-8.7-7.6-11.9-12.6
			c-3.3-4.9-5.8-10.4-7.7-16c-1.8-5.7-3-11.5-3.8-17.2c-0.8-5.7-0.9-11.4-0.9-16.9c0-5.5,0.4-10.8,0.9-15.7c0.5-5,1.2-9.6,1.9-13.9
			c0.7-4.3,1.5-8.2,2.3-11.6c0.7-3.4,1.5-6.4,1.9-8.9c0.1-0.6,0.2-1.2,0.3-1.7c0-0.1,0-0.3,0-0.4c0-0.1,0-0.1,0-0.1c0,0,0,0,0.1,0.1
			c0.3,0,0.1,0,0.1,0.1c-0.1,0.1-0.2,0.2-0.2,0.2c-0.6,0.7-1,1.5-1.4,2c-0.7,1.2-1.1,1.8-1.1,1.8s0.3-0.7,0.8-1.9
			c0.3-0.6,0.6-1.4,1.1-2.3c0.1-0.1,0.1-0.2,0.2-0.3c0.1-0.1,0.1-0.1,0.2-0.2c0-0.1,0.3-0.2,0.5-0.1c0.1,0.1,0.2,0.1,0.2,0.2
			c0,0.1,0.1,0.1,0.1,0.2c0,0.1,0.1,0.2,0.1,0.3c0,0.2,0,0.3,0,0.5c0,0.6,0,1.2-0.1,1.8c-0.2,2.5-0.6,5.6-1,9.1
			c-0.4,3.5-0.9,7.4-1.3,11.7c-0.4,4.3-0.8,8.9-1,13.8c-0.3,4.9-0.3,10.1-0.2,15.4c0.1,5.3,0.6,10.8,1.3,16.3c0.8,5.5,2,11,3.7,16.3
			c1.7,5.3,4,10.4,7,14.9c3,4.5,6.5,8.6,10.6,11.8c4,3.2,8.4,5.7,12.9,7.5c4.4,1.8,8.9,3,13,3.8c8.4,1.6,15.6,1.8,20.6,1.8
			c2.5,0,4.5,0,5.8-0.1C642.9,383.3,643.7,383.3,643.7,383.3z"/>
	</g>
	<g id="XMLID_650_">
		<path id="XMLID_26_" class="st3" d="M674,383.5c0,0,2-0.2,5.4-0.4c1.7-0.1,3.8-0.4,6.1-0.7c0.6-0.1,1.2-0.1,1.8-0.2
			c0.6-0.1,1.3-0.2,1.9-0.4c1.3-0.3,2.7-0.4,4.1-0.8c1.4-0.4,2.8-0.7,4.3-1.1c1.4-0.5,2.9-1,4.5-1.5c2.9-1.3,6-2.8,8.7-4.9l1-0.8
			c0.3-0.3,0.6-0.6,0.9-0.9c0.6-0.6,1.3-1.2,1.8-1.8c0.5-0.7,1.1-1.4,1.6-2c0.5-0.7,1-1.5,1.5-2.2c1.8-3.1,3.2-6.5,4.1-10.1
			c0.9-3.6,1.4-7.4,1.9-11.1c0.4-3.8,0.6-7.5,0.8-11.2c0.2-3.7,0.4-7.2,0.7-10.6c0.3-3.4,0.7-6.6,1.3-9.6c0.3-1.5,0.6-2.9,1-4.2
			c0.5-1.3,0.8-2.6,1.3-3.7c0.9-2.3,2-4.2,3-5.6c0.5-0.7,1-1.3,1.4-1.9c0.5-0.5,0.9-0.9,1.2-1.2c0.7-0.6,1-1,1-1s-0.3,0.4-0.8,1.2
			c-0.3,0.4-0.6,0.8-0.9,1.4c-0.3,0.6-0.6,1.3-1,2c-0.7,1.5-1.4,3.4-2,5.7c-0.3,1.1-0.5,2.4-0.7,3.6c-0.2,1.3-0.4,2.7-0.5,4.1
			c-0.1,1.4-0.2,2.9-0.3,4.5c-0.1,1.6-0.1,3.2-0.1,4.8c0,3.4,0,6.9,0,10.6c0,3.7-0.1,7.5-0.4,11.5c-0.3,3.9-0.8,8-1.8,11.9
			c-1.1,4-2.6,7.9-4.8,11.4c-2.2,3.6-5.2,6.5-8.4,8.8c-0.4,0.3-0.8,0.6-1.2,0.8c-0.4,0.3-0.8,0.6-1.2,0.8c-0.9,0.4-1.7,0.9-2.5,1.3
			c-0.8,0.5-1.7,0.7-2.5,1.1c-0.8,0.3-1.7,0.6-2.5,0.9c-1.7,0.4-3.3,0.9-4.9,1.3c-1.6,0.2-3.2,0.5-4.7,0.7c-1.5,0.2-2.9,0.2-4.3,0.3
			c-0.7,0-1.3,0.1-2,0.1c-0.6,0-1.3,0-1.9,0c-2.4,0-4.5,0-6.2-0.2C676,383.7,674,383.5,674,383.5z"/>
	</g>
	<g id="XMLID_647_">
		<path id="XMLID_16_" class="st3" d="M735.3,295.5c0,0-0.2,0.1-0.7,0.3c-0.4,0.2-1.1,0.5-1.9,0.8c-0.8,0.4-1.7,0.8-2.8,1.4
			c-0.3,0.1-0.5,0.3-0.8,0.4c-0.3,0.2-0.5,0.3-0.8,0.5c-0.3,0.2-0.6,0.4-0.9,0.5c-0.3,0.2-0.6,0.4-0.9,0.6c-1.2,0.8-2.3,1.9-3.4,3
			c-1.1,1.2-2.2,2.5-3.2,3.9c-1,1.5-1.9,3.1-2.8,4.7c-0.9,1.7-1.7,3.5-2.5,5.3c-0.8,1.8-1.7,3.6-2.5,5.4c-0.9,1.8-1.8,3.6-2.8,5.3
			c-1,1.7-2,3.3-3.1,4.7c-1.1,1.4-2.2,2.7-3.3,3.8c-0.5,0.6-1.1,1.1-1.6,1.5c-0.5,0.5-1.1,0.9-1.6,1.3c-1,0.8-1.9,1.4-2.7,1.9
			c-0.8,0.5-1.4,0.8-1.8,1c-0.4,0.2-0.7,0.3-0.7,0.3s0.2-0.2,0.5-0.6c0.3-0.4,0.8-0.9,1.4-1.5c0.6-0.7,1.2-1.5,2-2.5
			c0.4-0.5,0.8-1,1.1-1.6c0.4-0.6,0.8-1.1,1.2-1.7c0.4-0.6,0.8-1.2,1.2-1.9c0.4-0.7,0.8-1.4,1.2-2.1c0.8-1.5,1.6-3,2.3-4.7
			c0.8-1.7,1.5-3.4,2.3-5.2c0.8-1.8,1.6-3.7,2.4-5.5c0.9-1.8,1.8-3.7,2.8-5.5c1-1.8,2.2-3.5,3.5-5.1c1.3-1.5,2.7-2.9,4.2-4.1
			c1.5-1.1,3-2,4.5-2.7c0.4-0.2,0.7-0.3,1.1-0.5c0.4-0.1,0.7-0.2,1.1-0.4c0.3-0.1,0.7-0.2,1-0.3c0.3-0.1,0.6-0.2,1-0.2
			c1.2-0.4,2.3-0.5,3.2-0.6c0.9-0.1,1.6-0.1,2.1-0.2C735.1,295.5,735.3,295.5,735.3,295.5z"/>
	</g>
	<g id="XMLID_644_">
		<path id="XMLID_34_" class="st3" d="M694.7,342.4c0,0,1.1-2,3-5.4c0.5-0.9,1-1.8,1.6-2.8c0.6-1,1.2-2.2,1.8-3.4
			c0.6-1.2,1.3-2.5,2-3.8c0.7-1.4,1.4-2.8,2.2-4.3c0.4-0.7,0.8-1.5,1.2-2.3c0.4-0.8,0.7-1.6,1.1-2.4c0.7-1.6,1.6-3.3,2.3-5
			c0.7-1.8,1.5-3.5,2.2-5.4c0.6-1.9,1.4-3.8,2.1-5.7c1.2-3.9,2.5-8,3.1-12.2c0.5-2.1,0.6-4.2,0.8-6.3c0.1-2.1,0.2-4.3,0-6.4
			c-0.2-4.2-1.1-8.4-2.5-12.3c-1.4-3.9-3.4-7.6-5.7-10.9c-2.3-3.4-4.8-6.5-7.3-9.3c-2.5-2.9-5-5.5-7.2-8.1c-1.1-1.2-2.2-2.5-3.2-3.6
			c-1-1.2-1.9-2.3-2.8-3.4c-1.7-2.1-3.2-4.1-4.3-5.7c-0.5-0.8-1-1.6-1.4-2.2c-0.4-0.7-0.7-1.2-1-1.7c-0.5-0.9-0.8-1.4-0.8-1.4
			s0.4,0.4,1,1.2c0.3,0.4,0.7,0.9,1.2,1.5c0.5,0.6,1.1,1.2,1.7,1.9c1.3,1.4,3,3.1,4.9,5c1.9,1.9,4.2,4,6.7,6.3
			c2.5,2.3,5.2,4.7,7.9,7.5c2.7,2.8,5.6,5.8,8.1,9.3c2.6,3.5,4.9,7.4,6.6,11.8c1.7,4.3,2.7,9,2.9,13.8c0.2,2.4,0,4.7-0.1,7
			c-0.3,2.3-0.5,4.6-1,6.8c-0.8,4.5-2.3,8.7-3.7,12.8c-0.8,2-1.6,3.9-2.4,5.8c-0.9,1.9-1.8,3.6-2.7,5.4c-0.4,0.9-0.9,1.7-1.4,2.5
			c-0.5,0.8-0.9,1.6-1.4,2.4c-0.5,0.8-0.9,1.6-1.3,2.3c-0.5,0.7-0.9,1.5-1.4,2.2c-0.9,1.4-1.8,2.8-2.6,4.1c-0.9,1.3-1.7,2.5-2.5,3.6
			c-0.8,1.1-1.5,2.2-2.2,3.1c-0.7,1-1.4,1.8-2,2.6C696.1,340.6,694.7,342.4,694.7,342.4z"/>
	</g>
	<g id="XMLID_641_">
		<path id="XMLID_36_" class="st3" d="M678,220.3c0,0,0.9,1.2,2.4,3.3c0.7,1.1,1.6,2.4,2.5,3.9c0.9,1.6,2,3.3,2.9,5.3
			c1,2,2,4.2,2.9,6.6c0.9,2.4,1.8,5,2.5,7.7c0.3,1.4,0.7,2.8,0.9,4.2c0.1,0.7,0.3,1.4,0.4,2.2c0.1,0.7,0.2,1.5,0.3,2.2
			c0.3,3,0.5,6,0.2,9.1c-0.2,3.1-0.6,6.1-1.5,9.1c-0.8,2.9-2,5.8-3.5,8.3c-1.5,2.5-3.3,4.8-5.3,6.6c-2,1.8-4.1,3.3-6.2,4.3
			c-0.5,0.3-1,0.5-1.5,0.7c-0.5,0.2-1,0.4-1.5,0.6c-1,0.3-1.9,0.6-2.9,0.8c-0.9,0.2-1.7,0.4-2.6,0.4c-0.8,0.1-1.5,0.2-2.2,0.1
			c-0.7,0-1.2,0-1.7,0c-0.5,0-0.9-0.1-1.3-0.1c-0.7-0.1-1.1-0.1-1.1-0.1s0.4-0.1,1-0.2c0.3-0.1,0.8-0.1,1.2-0.2
			c0.5-0.1,1-0.2,1.7-0.4c0.6-0.1,1.3-0.3,2-0.6c0.7-0.2,1.5-0.5,2.3-0.8c0.8-0.3,1.6-0.8,2.5-1.2c0.4-0.2,0.8-0.5,1.3-0.7
			c0.4-0.2,0.9-0.5,1.3-0.8c1.7-1.1,3.4-2.7,4.9-4.4c1.5-1.8,2.9-3.8,4.1-6.1c1.1-2.3,2-4.8,2.7-7.4c0.7-2.6,1-5.4,1.2-8.1
			c0.2-2.8,0.1-5.6-0.1-8.3c-0.2-2.8-0.6-5.5-1.1-8.1c-0.5-2.6-1.1-5.1-1.7-7.5c-0.7-2.4-1.3-4.6-2-6.7c-0.3-1-0.7-2-1-2.9
			c-0.3-0.9-0.6-1.8-0.9-2.7c-0.6-1.7-1.2-3.1-1.7-4.3C678.5,221.7,678,220.3,678,220.3z"/>
	</g>
	<g id="XMLID_638_">
		<path id="XMLID_38_" class="st3" d="M661.9,295.5c0,0,0.3-0.4,0.9-1.3c0.3-0.4,0.6-0.9,1-1.6c0.4-0.6,0.8-1.3,1.3-2.1
			c0.9-1.6,1.9-3.7,2.6-6.1c0.8-2.4,1.3-5.3,1.4-8.3c0.1-3.1-0.3-6.4-1.2-9.8c-0.9-3.4-2.3-6.9-4.1-10.3c-1.8-3.5-4-6.9-6.5-10.2
			c-2.5-3.3-5.2-6.5-8.1-9.6c-2.9-3.1-5.9-6-9-8.9c-3.1-2.8-6.2-5.5-9.3-8c-3.1-2.5-6.2-4.8-9.1-7c-3-2.1-5.8-4.1-8.5-5.8
			c-2.7-1.7-5.2-3.3-7.5-4.6c-2.3-1.3-4.3-2.4-5.9-3.3c-1.7-0.9-3-1.5-3.9-1.9c-0.9-0.4-1.4-0.6-1.4-0.6s0.5,0.1,1.5,0.4
			c1,0.3,2.4,0.7,4.2,1.3c3.6,1.2,8.7,3.2,14.4,6.3c2.9,1.5,6,3.2,9.2,5.2c3.2,2,6.5,4.2,9.8,6.6c3.3,2.4,6.6,5.1,9.9,7.9
			c3.2,2.8,6.4,5.9,9.4,9.1c3,3.2,5.8,6.6,8.3,10.2c1.3,1.8,2.5,3.6,3.5,5.4c1.1,1.8,2.1,3.7,3,5.6c1.8,3.8,3.1,7.7,3.8,11.5
			c0.3,1.9,0.6,3.8,0.7,5.6c0,1.8,0,3.6-0.2,5.3c-0.4,3.4-1.3,6.3-2.5,8.8c-1.1,2.5-2.4,4.4-3.6,6c-0.3,0.4-0.6,0.7-0.8,1.1
			c-0.3,0.3-0.5,0.6-0.8,0.9c-0.5,0.6-0.9,1-1.3,1.4C662.3,295.1,661.9,295.5,661.9,295.5z"/>
	</g>
	<g id="XMLID_635_">
		<path id="XMLID_44_" class="st8" d="M643.5,304"/>
	</g>
	<g id="XMLID_622_">
		<path id="XMLID_59_" class="st8" d="M594.5,196"/>
	</g>
	<g id="XMLID_607_">
		<path id="XMLID_62_" class="st3" d="M628.1,290.2c0,0-0.1,0.3-0.4,0.9c-0.3,0.6-0.6,1.5-1.2,2.6c-0.6,1.1-1.3,2.4-2.2,3.9
			c-0.4,0.7-1,1.5-1.5,2.3c-0.5,0.8-1.2,1.6-1.9,2.4c-1.5,1.6-3.2,3.3-5.5,4.7c-0.6,0.3-1.2,0.6-1.8,0.9c-0.7,0.3-1.3,0.5-2,0.7
			c-0.7,0.1-1.4,0.3-2.2,0.4c-0.7,0-1.5,0.1-2.3,0c-3.1-0.2-6-1.4-8.5-2.9c-2.6-1.5-4.8-3.5-6.9-5.5c-2-2.1-4-4.2-5.7-6.4
			c-1.8-2.2-3.4-4.4-4.9-6.6c-1.5-2.2-2.9-4.3-4.1-6.4c-1.3-2-2.4-4-3.4-5.9c-2.1-3.7-3.6-6.8-4.7-9c-1.1-2.2-1.6-3.5-1.6-3.5
			s0.9,1.1,2.5,3c0.8,1,1.7,2.1,2.8,3.4c1.1,1.3,2.3,2.8,3.5,4.5c2.6,3.3,5.5,7.1,8.7,11.2c0.8,1,1.6,2,2.5,3c0.8,1,1.7,2,2.6,3.1
			c1.8,2,3.6,4,5.5,5.9c1.9,1.9,3.9,3.6,6,4.9c2.1,1.4,4.2,2.3,6.4,2.7c2.1,0.3,4.3,0,6.2-0.9c1.9-0.8,3.7-2.1,5.2-3.4
			c0.8-0.7,1.5-1.3,2.1-2c0.7-0.6,1.3-1.3,1.9-1.9c1.1-1.2,2.1-2.3,2.9-3.3c0.8-0.9,1.4-1.7,1.8-2.2
			C627.8,290.5,628.1,290.2,628.1,290.2z"/>
	</g>
	<g id="XMLID_592_">
		<path id="XMLID_68_" class="st3" d="M628.1,290.2c0,0-0.4-1.7-1.1-4.8c-0.7-3-1.6-7.4-2.8-12.6c-0.6-2.6-1.2-5.4-1.9-8.4
			c-0.7-3-1.4-6.1-2.2-9.3c-0.8-3.2-1.7-6.5-2.6-9.9c-0.9-3.3-1.9-6.7-3-10.1c-1-3.4-2.2-6.7-3.4-9.9c-1.2-3.2-2.5-6.4-3.9-9.3
			c-1.4-3-2.8-5.8-4.4-8.3c-0.8-1.3-1.6-2.5-2.4-3.6c-0.8-1.1-1.6-2.2-2.5-3.2c-1.7-1.9-3.4-3.6-5.1-4.7c-0.9-0.5-1.7-1-2.5-1.2
			c-0.2-0.1-0.4-0.1-0.6-0.1c-0.2,0-0.3,0-0.3,0c0,0,0,0,0.1-0.1c0-0.1,0.1-0.1,0-0.2c0-0.1,0-0.1,0-0.1c0,0,0,0,0,0
			c0,0.1,0.2,0.2,0.3,0.3c1.2,0.7,2.5,0.9,3.3,1.1c0.8,0.1,1.3,0.2,1.3,0.2s-0.1,0-0.3,0c-0.2,0-0.5,0.1-1,0.1c-0.4,0-0.9,0-1.6,0
			c-0.6,0-1.3-0.1-2.2-0.4c-0.2-0.1-0.4-0.2-0.7-0.4c-0.1-0.1-0.1-0.1-0.2-0.2c-0.1-0.1-0.1-0.2-0.1-0.4c-0.1-0.4,0.2-0.7,0.4-0.8
			c0.4-0.2,0.7-0.3,1-0.3c0.3,0,0.6,0,0.8,0c1.1,0.1,2.1,0.5,3.2,0.9c2.1,1,4.2,2.5,6.3,4.4c2.1,1.9,4,4.2,5.9,6.7
			c1.8,2.6,3.6,5.4,5.2,8.4c1.6,3,3.1,6.2,4.4,9.5c1.4,3.3,2.6,6.7,3.6,10.2c1.1,3.4,2.1,6.9,2.9,10.4c0.8,3.4,1.6,6.8,2.2,10.2
			c0.7,3.3,1.1,6.5,1.6,9.6c0.5,3,0.8,5.9,1.1,8.6c0.3,2.7,0.5,5.1,0.6,7.3c0.2,2.2,0.2,4.1,0.3,5.6
			C628,288.4,628.1,290.2,628.1,290.2z"/>
	</g>
	<g id="XMLID_89_">
		<g id="XMLID_113_">
			<path id="XMLID_122_" d="M256.9,218.5c0-7.5,4.5-14,5.1-21.4c0.7-8.1-1.6-16.3-3.1-24.2c-0.4-1.9-3.3-1.1-2.9,0.8
				c1.6,8.4,4.4,17.6,2.6,26.2c-1.3,6.4-4.7,12-4.7,18.7C253.9,220.5,256.9,220.5,256.9,218.5L256.9,218.5z"/>
		</g>
	</g>
	<g id="XMLID_85_">
		<g id="XMLID_130_">
			<path d="M257.2,173.9c1.2-3.7,5.7-4.9,8.2-7.6c1.5-1.6,2.4-3.7,3.9-5.3c1.5-1.6,3.4-2.8,5.3-4c3.9-2.5,11.3-6.8,9.2-12.7
				c-2.3-6.2-10.4-4-14.9-2.3c-7.5,2.9-14,7.5-19.4,13.4c-1.3,1.4,0.8,3.6,2.1,2.1c4.4-4.8,9.5-8.7,15.4-11.5
				c1.8-0.9,3.8-1.7,5.8-2.2c3.6-1,3.9-1.6,5.4,2.5c1.4,3.8,1.2,3.7-1.6,5.7c-1.1,0.8-2.4,1.6-3.5,2.3c-1.7,1.1-3.4,2.1-4.9,3.5
				c-2.3,2.1-3.5,5.1-5.8,7.1c-3.1,2.7-6.7,3.9-8.1,8.1C253.7,174.9,256.6,175.7,257.2,173.9L257.2,173.9z"/>
		</g>
	</g>
	<g id="XMLID_86_">
		<g id="XMLID_141_">
			<path d="M277,140.3c-2.9-2.6-5-4.8-9-5.4c-4.2-0.6-8.6,0.6-12.5,2c-8.7,3.1-16.2,8.7-21.8,16c-1.2,1.5,0.9,3.6,2.1,2.1
				c4.4-5.7,10-10.4,16.5-13.6c3.1-1.5,6.5-2.7,9.9-3.3c5.6-1,8.6,0.6,12.6,4.3C276.3,143.7,278.4,141.6,277,140.3L277,140.3z"/>
		</g>
	</g>
	<g id="XMLID_87_">
		<g id="XMLID_162_">
			<path d="M269,137.6c1.1-2.2,2.1-4.5,3.2-6.7c0.5-1-0.1-2.2-1.3-2.3c-17.8-0.8-35.1,6-47.7,18.6c-1.4,1.4,0.8,3.5,2.1,2.1
				c12-12.2,28.5-18.6,45.6-17.8c-0.4-0.8-0.9-1.5-1.3-2.3c-1.1,2.2-2.1,4.5-3.2,6.7C265.6,137.8,268.2,139.3,269,137.6L269,137.6z"
				/>
		</g>
	</g>
	<g id="XMLID_90_">
		<g id="XMLID_197_">
			<path d="M247,130.2c-6.3,0.3-12.6,1.2-18.7,3c-4.5,1.3-10.1,2.9-13.2,6.7c-3.3,4-2.7,9.6-2.7,14.4c0.1,7.5,0.1,15.1,0.2,22.6
				c0,1.9,3,1.9,3,0c0-5.3-0.1-10.7-0.1-16c0-5-1-11.1,0.3-16c1.6-5.8,9.1-7.7,14.2-9.1c5.6-1.6,11.3-2.4,17-2.7
				C248.9,133.1,248.9,130.1,247,130.2L247,130.2z"/>
		</g>
	</g>
</g>
</svg>
