<?xml version="1.0" encoding="UTF-8" standalone="no"?>
<svg
   xmlns:dc="http://purl.org/dc/elements/1.1/"
   xmlns:cc="http://creativecommons.org/ns#"
   xmlns:rdf="http://www.w3.org/1999/02/22-rdf-syntax-ns#"
   xmlns:svg="http://www.w3.org/2000/svg"
   xmlns="http://www.w3.org/2000/svg"
   version="1.1"
   id="svg2"
   xml:space="preserve"
   width="666.66669"
   height="666.66669"
   viewBox="0 0 666.66669 666.66669"><metadata
     id="metadata8"><rdf:RDF><cc:Work
         rdf:about=""><dc:format>image/svg+xml</dc:format><dc:type
           rdf:resource="http://purl.org/dc/dcmitype/StillImage" /><dc:title></dc:title></cc:Work></rdf:RDF></metadata><defs
     id="defs6"><clipPath
       clipPathUnits="userSpaceOnUse"
       id="clipPath18"><path
         d="M 0,500 H 500 V 0 H 0 Z"
         id="path16" /></clipPath></defs><g
     style="fill-opacity:0.8097561;fill:#e03405"
     id="g10"
     transform="matrix(1.3333333,0,0,-1.3333333,0,666.66667)"><g
       style="fill-opacity:0.8097561;fill:#e03405"
       id="g12"><g
         style="fill-opacity:0.8097561;fill:#e03405"
         id="g14"
         clip-path="url(#clipPath18)"><g
           style="fill-opacity:0.8097561;fill:#e03405"
           id="g20"
           transform="translate(473.8799,254.0801)"><path
             d="m 0,0 c -0.155,23.774 -4.051,47.715 -11.675,70.242 -7.282,21.519 -17.713,42.011 -31.132,60.353 -13.822,18.894 -30.182,35.368 -48.948,49.357 -18.146,13.527 -38.421,24.068 -59.771,31.548 -22.22,7.784 -45.832,11.885 -69.363,12.373 -23.181,0.481 -46.626,-2.634 -68.849,-9.258 -21.7,-6.469 -42.561,-16.244 -61.319,-28.934 -18.569,-12.564 -35.38,-27.748 -49.436,-45.228 -14.651,-18.22 -26.331,-38.233 -34.947,-59.97 -8.569,-21.619 -13.47,-44.609 -14.979,-67.802 -1.534,-23.564 0.752,-47.51 6.598,-70.387 5.619,-21.99 14.713,-43.274 26.705,-62.544 11.83,-19.009 26.509,-36.396 43.417,-51.08 17.082,-14.833 36.245,-27.256 56.987,-36.325 21.95,-9.598 44.891,-15.67 68.727,-18.15 23.285,-2.421 46.959,-1.001 69.858,3.825 22.289,4.698 43.94,13 63.756,24.222 19.467,11.026 37.411,25.088 52.762,41.363 15.389,16.317 28.494,34.962 38.37,55.107 10.117,20.637 17.231,42.704 20.583,65.455 C -0.908,-23.97 0.139,-12 0,0 -0.061,5.229 -4.556,10.244 -10,10 -15.366,9.76 -20.064,5.604 -20,0 c 0.067,-5.838 -0.147,-11.685 -0.574,-17.506 -0.204,-2.778 -0.461,-5.552 -0.772,-8.32 -0.077,-0.689 -0.158,-1.377 -0.242,-2.066 -0.051,-0.414 -0.374,-2.853 -0.122,-1.023 0.239,1.741 -0.047,-0.32 -0.104,-0.724 -0.112,-0.779 -0.228,-1.559 -0.348,-2.338 -1.676,-10.865 -4.188,-21.599 -7.51,-32.079 -1.653,-5.213 -3.507,-10.361 -5.554,-15.431 -0.25,-0.62 -0.506,-1.239 -0.759,-1.858 -0.656,-1.606 0.962,2.223 0.006,0.015 -0.568,-1.313 -1.14,-2.623 -1.73,-3.926 -1.099,-2.426 -2.242,-4.832 -3.431,-7.215 -4.769,-9.567 -10.255,-18.777 -16.39,-27.53 -1.515,-2.161 -3.07,-4.294 -4.662,-6.397 -0.228,-0.3 -0.459,-0.597 -0.685,-0.9 -0.644,-0.866 0.772,0.99 0.702,0.905 -0.418,-0.508 -0.81,-1.04 -1.219,-1.556 -0.876,-1.108 -1.761,-2.207 -2.659,-3.297 -3.346,-4.067 -6.841,-8.013 -10.475,-11.825 -7.349,-7.711 -15.284,-14.754 -23.614,-21.383 -0.986,-0.784 1.689,1.286 0.684,0.527 -0.226,-0.171 -0.449,-0.344 -0.674,-0.515 -0.524,-0.399 -1.052,-0.796 -1.58,-1.191 -1.132,-0.846 -2.272,-1.679 -3.422,-2.503 -2.146,-1.538 -4.321,-3.037 -6.523,-4.496 -4.413,-2.923 -8.934,-5.684 -13.551,-8.274 -4.719,-2.649 -9.538,-5.117 -14.442,-7.402 -1.209,-0.563 -2.423,-1.114 -3.643,-1.655 -0.61,-0.269 -1.222,-0.538 -1.834,-0.803 -0.263,-0.113 -0.528,-0.221 -0.789,-0.338 -1.107,-0.495 2.431,1.004 0.542,0.229 -2.479,-1.017 -4.964,-2.012 -7.475,-2.947 -10.233,-3.814 -20.758,-6.843 -31.455,-9.052 -2.684,-0.554 -5.38,-1.057 -8.084,-1.508 -1.357,-0.226 -2.717,-0.439 -4.08,-0.64 -0.682,-0.101 -1.368,-0.186 -2.05,-0.291 -0.115,-0.019 2.316,0.299 1.191,0.16 -0.491,-0.061 -0.981,-0.126 -1.472,-0.187 -5.538,-0.682 -11.102,-1.15 -16.677,-1.404 -11.038,-0.504 -22.115,-0.171 -33.102,1.002 -1.38,0.147 -2.758,0.308 -4.134,0.482 -2.261,0.285 1.797,-0.26 0.013,-0.007 -0.781,0.112 -1.563,0.222 -2.343,0.339 -2.72,0.408 -5.432,0.869 -8.134,1.382 -5.453,1.034 -10.866,2.281 -16.222,3.736 -5.212,1.416 -10.37,3.03 -15.459,4.836 -2.62,0.93 -5.222,1.911 -7.803,2.942 -0.533,0.213 -1.065,0.428 -1.596,0.645 -0.426,0.174 -2.483,1.035 -0.924,0.376 1.559,-0.66 -0.491,0.213 -0.913,0.397 -0.7,0.303 -1.398,0.611 -2.095,0.923 -9.79,4.374 -19.25,9.484 -28.278,15.269 -4.529,2.902 -8.95,5.975 -13.25,9.207 -0.452,0.34 -0.901,0.684 -1.352,1.025 -1.336,1.009 1.753,-1.379 0.011,-0.007 -1.11,0.875 -2.217,1.753 -3.312,2.645 -2.044,1.665 -4.057,3.368 -6.039,5.108 -7.992,7.013 -15.467,14.617 -22.345,22.728 -1.767,2.083 -3.494,4.199 -5.181,6.348 -0.174,0.222 -0.346,0.447 -0.522,0.669 -0.672,0.845 0.762,-0.996 0.699,-0.906 -0.379,0.537 -0.802,1.049 -1.198,1.575 -0.852,1.13 -1.692,2.267 -2.521,3.413 -3.155,4.361 -6.147,8.842 -8.967,13.427 -5.66,9.2 -10.244,18.802 -14.76,28.59 -0.046,0.101 0.861,-2.084 0.453,-1.067 -0.142,0.354 -0.293,0.706 -0.438,1.06 -0.218,0.531 -0.434,1.062 -0.647,1.594 -0.535,1.334 -1.056,2.672 -1.564,4.016 -0.951,2.516 -1.853,5.049 -2.708,7.599 -1.751,5.222 -3.3,10.513 -4.643,15.856 -1.357,5.398 -2.502,10.85 -3.435,16.337 -0.214,1.261 -0.417,2.523 -0.608,3.788 -0.104,0.683 -0.204,1.365 -0.301,2.049 -0.042,0.293 -0.081,0.587 -0.123,0.88 -0.179,1.27 0.308,-2.404 0.085,-0.602 -0.343,2.76 -0.651,5.521 -0.897,8.29 -1.006,11.326 -1.12,22.735 -0.35,34.08 0.195,2.883 0.448,5.762 0.759,8.634 0.139,1.281 0.289,2.561 0.45,3.838 0.313,2.473 -0.261,-1.788 -0.006,-0.013 0.112,0.782 0.221,1.563 0.339,2.343 0.828,5.52 1.873,11.007 3.129,16.446 2.455,10.619 5.723,21.05 9.766,31.172 0.248,0.622 0.5,1.242 0.754,1.862 0.149,0.364 0.929,2.222 0.267,0.658 -0.696,-1.644 0.236,0.543 0.397,0.913 0.303,0.7 0.611,1.398 0.922,2.095 1.088,2.435 2.221,4.849 3.399,7.241 2.389,4.851 4.961,9.612 7.709,14.27 2.737,4.639 5.648,9.177 8.725,13.599 1.509,2.167 3.057,4.308 4.644,6.418 0.396,0.528 0.801,1.049 1.196,1.577 0.647,0.865 -0.77,-0.989 -0.7,-0.904 0.24,0.288 0.464,0.596 0.695,0.891 0.815,1.037 1.639,2.067 2.472,3.089 6.777,8.317 14.174,16.13 22.108,23.352 3.898,3.55 7.927,6.957 12.074,10.213 0.296,0.232 0.604,0.455 0.892,0.695 0.083,0.07 -1.77,-1.347 -0.905,-0.7 0.528,0.395 1.049,0.8 1.577,1.197 1.055,0.793 2.117,1.576 3.187,2.35 2.217,1.604 4.466,3.166 6.742,4.685 8.911,5.944 18.264,11.222 27.96,15.774 2.418,1.135 4.891,2.146 7.313,3.268 -0.124,-0.058 -2.331,-0.967 -0.803,-0.343 0.266,0.108 0.53,0.219 0.796,0.328 0.619,0.254 1.239,0.506 1.861,0.754 1.245,0.497 2.494,0.983 3.749,1.457 5.131,1.939 10.336,3.68 15.601,5.218 5.314,1.553 10.688,2.899 16.107,4.035 2.683,0.562 5.378,1.074 8.081,1.533 1.358,0.231 2.718,0.448 4.08,0.652 0.585,0.088 1.17,0.174 1.756,0.257 0.39,0.055 0.785,0.1 1.174,0.163 -0.36,-0.059 -2.288,-0.294 -0.895,-0.125 11.067,1.344 22.186,1.966 33.335,1.672 5.628,-0.148 11.25,-0.513 16.85,-1.097 1.385,-0.145 2.771,-0.303 4.155,-0.475 0.591,-0.073 1.182,-0.154 1.773,-0.227 -3.194,0.391 -0.468,0.058 0.288,-0.053 2.832,-0.415 5.655,-0.887 8.468,-1.414 10.813,-2.028 21.469,-4.89 31.841,-8.556 2.542,-0.898 5.067,-1.845 7.573,-2.838 1.247,-0.495 2.478,-1.057 3.736,-1.522 0.101,-0.038 -2.07,0.883 -1.064,0.447 0.352,-0.152 0.705,-0.301 1.057,-0.454 0.616,-0.266 1.23,-0.535 1.844,-0.807 4.976,-2.21 9.868,-4.609 14.662,-7.191 9.446,-5.085 18.51,-10.88 27.094,-17.315 0.531,-0.397 1.057,-0.8 1.585,-1.199 1.735,-1.313 -1.35,1.069 -0.002,0 1.112,-0.881 2.226,-1.76 3.327,-2.657 2.051,-1.673 4.073,-3.383 6.062,-5.13 4.048,-3.555 7.964,-7.259 11.735,-11.105 3.707,-3.779 7.275,-7.693 10.695,-11.733 1.711,-2.022 3.385,-4.075 5.02,-6.157 0.233,-0.296 0.457,-0.607 0.7,-0.895 0.068,-0.082 -1.345,1.765 -0.697,0.9 0.397,-0.531 0.804,-1.054 1.201,-1.583 0.855,-1.136 1.697,-2.28 2.528,-3.431 6.282,-8.707 11.915,-17.883 16.83,-27.429 1.224,-2.377 2.404,-4.777 3.539,-7.199 0.568,-1.214 1.126,-2.432 1.671,-3.656 0.273,-0.612 0.543,-1.227 0.81,-1.841 0.116,-0.264 0.229,-0.529 0.343,-0.792 0.54,-1.244 -0.198,0.47 -0.333,0.799 2.074,-5.086 4.057,-10.193 5.789,-15.408 3.479,-10.465 6.146,-21.199 7.971,-32.075 0.229,-1.364 0.445,-2.73 0.647,-4.099 0.102,-0.687 0.196,-1.374 0.295,-2.06 0.162,-1.122 -0.168,1.296 -0.158,1.183 0.034,-0.393 0.103,-0.791 0.151,-1.182 0.335,-2.671 0.621,-5.348 0.856,-8.031 0.513,-5.839 0.792,-11.7 0.83,-17.562 0.034,-5.229 4.575,-10.243 10,-10 5.389,0.241 10.037,4.395 10,10"
             style="fill:#e03405;fill-opacity:0.8097561;fill-rule:nonzero;stroke:none"
             id="path22" /></g><g
           style="fill-opacity:0.8097561;fill:#e03405"
           id="g24"
           transform="translate(453.8896,254.8398)"><path
             d="m 0,0 c -0.016,-4.791 -0.327,-9.573 -0.949,-14.323 0.119,0.885 0.237,1.771 0.356,2.658 -1.277,-9.507 -3.808,-18.805 -7.533,-27.645 0.336,0.797 0.672,1.593 1.008,2.389 -3.624,-8.523 -8.326,-16.549 -13.982,-23.884 0.522,0.675 1.042,1.35 1.564,2.025 -5.641,-7.27 -12.177,-13.803 -19.449,-19.44 0.674,0.521 1.349,1.042 2.024,1.564 -7.337,-5.652 -15.365,-10.351 -23.891,-13.971 0.796,0.336 1.593,0.672 2.389,1.008 -8.734,-3.676 -17.917,-6.188 -27.306,-7.475 0.886,0.118 1.773,0.238 2.659,0.357 -4.378,-0.586 -8.784,-0.909 -13.2,-0.973 2.358,-5.69 4.714,-11.381 7.072,-17.071 11.288,11.516 21.018,24.762 28.424,39.095 7.567,14.645 13.056,30.432 15.819,46.693 1.48,8.711 2.392,17.534 2.512,26.372 0.119,8.946 -0.633,17.818 -1.903,26.668 -2.346,16.353 -7.459,32.169 -14.652,47.026 -6.987,14.432 -16.321,27.794 -27.233,39.534 -1.316,1.417 -2.661,2.807 -4.028,4.174 -2.356,-5.69 -4.714,-11.381 -7.071,-17.071 4.676,-0.022 9.342,-0.335 13.977,-0.943 -0.885,0.119 -1.772,0.238 -2.658,0.358 9.435,-1.27 18.664,-3.773 27.445,-7.453 -0.796,0.336 -1.592,0.672 -2.389,1.008 8.567,-3.623 16.635,-8.335 24.005,-14.009 -0.675,0.521 -1.35,1.043 -2.024,1.564 7.305,-5.658 13.868,-12.221 19.527,-19.526 -0.522,0.675 -1.043,1.35 -1.564,2.024 5.674,-7.369 10.387,-15.436 14.01,-24.002 -0.336,0.796 -0.672,1.592 -1.008,2.389 3.682,-8.779 6.186,-18.007 7.456,-27.441 -0.119,0.886 -0.238,1.772 -0.356,2.658 C -0.325,9.582 -0.011,4.796 0,0 c 0.012,-5.23 4.592,-10.242 10,-10 5.408,0.242 10.013,4.394 10,10 -0.054,24.109 -7.493,48.309 -21.61,67.917 -3.579,4.97 -7.452,9.751 -11.718,14.148 -4.281,4.414 -8.95,8.345 -13.829,12.077 -9.257,7.081 -19.577,12.496 -30.495,16.541 -12.631,4.679 -26.262,6.963 -39.718,7.027 -3.995,0.019 -7.611,-2.529 -9.139,-6.147 -1.547,-3.666 -0.792,-8.063 2.069,-10.924 4.652,-4.654 9.004,-9.593 13.036,-14.794 -0.521,0.675 -1.042,1.349 -1.564,2.024 8.094,-10.496 14.815,-21.998 19.969,-34.209 -0.336,0.796 -0.672,1.592 -1.008,2.389 5.191,-12.388 8.73,-25.416 10.531,-38.726 -0.119,0.886 -0.238,1.772 -0.357,2.658 1.809,-13.629 1.805,-27.464 -0.01,-41.094 0.119,0.886 0.239,1.772 0.358,2.659 -1.816,-13.358 -5.379,-26.429 -10.607,-38.855 0.337,0.796 0.673,1.592 1.009,2.389 -5.14,-12.131 -11.826,-23.559 -19.868,-33.993 l 1.564,2.024 c -3.729,-4.812 -7.732,-9.402 -11.994,-13.75 -2.833,-2.89 -3.631,-7.218 -2.067,-10.924 1.514,-3.589 5.139,-6.205 9.138,-6.147 23.766,0.343 47.527,7.828 66.812,21.814 4.941,3.583 9.694,7.448 14.065,11.712 4.385,4.278 8.288,8.943 12.003,13.806 7.108,9.306 12.532,19.735 16.547,30.72 C 17.734,-27.029 19.956,-13.431 20,0 20.018,5.231 15.389,10.242 10,10 4.567,9.757 0.019,5.606 0,0"
             style="fill:#e03405;fill-opacity:0.8097561;fill-rule:nonzero;stroke:none"
             id="path26" /></g><g
           style="fill-opacity:0.8097561;fill:#e03405"
           id="g28"
           transform="translate(248.4697,417.2598)"><path
             d="m 0,0 c -16.742,-0.022 -33.646,-2.557 -49.59,-7.692 -15.405,-4.962 -30.187,-12.165 -43.424,-21.49 -7.668,-5.402 -14.951,-11.385 -21.627,-17.977 5.691,-2.357 11.381,-4.714 17.071,-7.07 0.105,3.944 0.416,7.877 0.937,11.789 -0.118,-0.886 -0.238,-1.772 -0.357,-2.658 1.282,9.389 3.786,18.573 7.457,27.31 -0.337,-0.796 -0.673,-1.593 -1.009,-2.389 3.614,8.527 8.308,16.558 13.954,23.899 -0.521,-0.674 -1.042,-1.349 -1.563,-2.024 5.631,7.277 12.159,13.817 19.424,19.463 -0.674,-0.521 -1.349,-1.042 -2.023,-1.564 7.417,5.728 15.543,10.482 24.177,14.129 -0.796,-0.336 -1.593,-0.672 -2.389,-1.008 8.743,3.661 17.932,6.156 27.325,7.426 l -2.658,-0.358 c 9.564,1.262 19.266,1.261 28.83,-0.002 -0.887,0.119 -1.772,0.238 -2.659,0.357 9.405,-1.273 18.604,-3.773 27.357,-7.442 -0.796,0.336 -1.592,0.672 -2.388,1.008 8.541,-3.613 16.585,-8.308 23.936,-13.959 -0.674,0.521 -1.348,1.042 -2.023,1.564 C 66.045,15.675 72.594,9.14 78.246,1.866 77.725,2.541 77.204,3.215 76.683,3.89 c 5.666,-7.339 10.379,-15.371 14.009,-23.903 -0.336,0.796 -0.671,1.593 -1.007,2.389 3.732,-8.848 6.268,-18.155 7.547,-27.672 -0.119,0.886 -0.237,1.773 -0.356,2.659 0.514,-3.92 0.817,-7.861 0.914,-11.813 l 17.071,7.071 C 103.444,-36.056 90.281,-26.28 76.039,-18.802 61.498,-11.168 45.777,-5.594 29.598,-2.721 19.831,-0.987 9.922,-0.013 0,0 c -5.231,0.007 -10.241,-4.604 -10,-10 0.243,-5.424 4.394,-9.992 10,-10 6.869,-0.009 13.726,-0.462 20.535,-1.366 -0.886,0.119 -1.772,0.238 -2.658,0.357 13.325,-1.805 26.367,-5.351 38.768,-10.553 -0.797,0.335 -1.593,0.671 -2.389,1.007 12.223,-5.164 23.734,-11.9 34.235,-20.011 -0.674,0.521 -1.348,1.043 -2.023,1.564 5,-3.882 9.757,-8.061 14.251,-12.519 2.87,-2.846 7.238,-3.623 10.925,-2.067 3.562,1.503 6.244,5.15 6.146,9.138 -0.578,23.658 -8.185,47.229 -22.252,66.333 -3.625,4.925 -7.505,9.656 -11.809,14.004 -4.311,4.353 -9.006,8.249 -13.9,11.927 -9.276,6.974 -19.665,12.31 -30.573,16.236 -22.417,8.067 -47.625,8.79 -70.56,2.454 -22.305,-6.163 -42.924,-19.158 -57.893,-36.833 -7.46,-8.81 -13.793,-18.52 -18.353,-29.141 -2.464,-5.74 -4.646,-11.55 -6.222,-17.6 -1.606,-6.162 -2.619,-12.469 -3.267,-18.8 -0.285,-2.779 -0.457,-5.568 -0.531,-8.359 -0.105,-3.974 2.6,-7.643 6.148,-9.14 3.683,-1.554 8.04,-0.778 10.923,2.068 4.508,4.451 9.279,8.623 14.291,12.497 -0.675,-0.521 -1.35,-1.042 -2.024,-1.564 10.424,8.015 21.836,14.678 33.947,19.799 -0.797,-0.336 -1.592,-0.673 -2.389,-1.009 12.406,5.208 25.455,8.76 38.788,10.567 -0.886,-0.118 -1.772,-0.238 -2.658,-0.357 6.812,0.906 13.672,1.359 20.544,1.368 5.23,0.007 10.242,4.595 10,10 C 9.758,-4.588 5.606,0.008 0,0"
             style="fill:#e03405;fill-opacity:0.8097561;fill-rule:nonzero;stroke:none"
             id="path30" /></g><g
           style="fill-opacity:0.8097561;fill:#e03405"
           id="g32"
           transform="translate(133.3491,369.6211)"><path
             d="m 0,0 c -11.354,-11.357 -21.166,-24.47 -28.699,-38.659 -7.687,-14.478 -13.32,-30.159 -16.271,-46.292 -3.064,-16.746 -3.74,-33.849 -1.513,-50.741 1.147,-8.694 2.771,-17.265 5.257,-25.682 2.429,-8.22 5.579,-16.237 9.225,-23.991 6.856,-14.58 16.095,-28.062 26.939,-39.967 1.307,-1.436 2.643,-2.844 4.002,-4.23 l 7.071,17.071 c -4.3,0.064 -8.589,0.375 -12.852,0.935 l 2.658,-0.357 c -9.503,1.279 -18.797,3.811 -27.633,7.537 l 2.389,-1.008 c -8.521,3.624 -16.544,8.328 -23.876,13.983 0.675,-0.521 1.349,-1.042 2.024,-1.564 -7.268,5.641 -13.799,12.178 -19.434,19.449 0.521,-0.674 1.042,-1.349 1.563,-2.023 -5.65,7.337 -10.348,15.364 -13.967,23.889 0.336,-0.796 0.672,-1.592 1.008,-2.389 -3.676,8.734 -6.187,17.916 -7.475,27.305 0.119,-0.887 0.238,-1.773 0.357,-2.66 -1.297,9.684 -1.298,19.51 -0.003,29.193 -0.12,-0.886 -0.239,-1.772 -0.358,-2.658 1.283,9.369 3.784,18.532 7.446,27.251 l -1.007,-2.389 c 3.605,8.51 8.286,16.526 13.915,23.855 -0.521,-0.675 -1.042,-1.349 -1.563,-2.024 5.682,7.351 12.278,13.952 19.625,19.64 -0.674,-0.522 -1.349,-1.043 -2.024,-1.564 7.325,5.634 15.338,10.321 23.844,13.932 -0.796,-0.336 -1.592,-0.672 -2.388,-1.008 8.821,3.712 18.099,6.235 27.584,7.51 -0.886,-0.119 -1.772,-0.238 -2.658,-0.357 4.606,0.604 9.24,0.916 13.885,0.942 2.573,0.014 5.248,1.106 7.071,2.929 1.734,1.734 3.041,4.58 2.929,7.071 -0.242,5.393 -4.395,10.03 -10,10 -23.848,-0.131 -47.763,-7.501 -67.201,-21.402 -4.953,-3.542 -9.72,-7.386 -14.109,-11.61 -4.486,-4.315 -8.48,-9.03 -12.264,-13.965 -7.12,-9.284 -12.572,-19.618 -16.642,-30.577 -8.405,-22.631 -9.252,-48.197 -2.863,-71.441 6.163,-22.417 19.228,-43.143 37.011,-58.151 4.749,-4.009 9.772,-7.743 15.067,-11.003 5.364,-3.301 10.996,-6.005 16.797,-8.441 11.091,-4.659 22.79,-7.308 34.759,-8.395 2.789,-0.253 5.585,-0.393 8.385,-0.435 3.985,-0.06 7.626,2.562 9.138,6.147 1.559,3.694 0.771,8.028 -2.067,10.924 -4.262,4.348 -8.265,8.938 -11.994,13.75 0.521,-0.675 1.043,-1.35 1.564,-2.024 -8.042,10.434 -14.728,21.862 -19.867,33.993 0.336,-0.797 0.672,-1.593 1.007,-2.389 -5.226,12.426 -8.791,25.497 -10.605,38.855 0.119,-0.887 0.238,-1.773 0.357,-2.66 -1.815,13.63 -1.818,27.465 -0.01,41.095 -0.119,-0.886 -0.238,-1.772 -0.357,-2.658 1.802,13.31 5.341,26.337 10.531,38.726 -0.335,-0.797 -0.671,-1.593 -1.008,-2.389 5.154,12.211 11.875,23.713 19.968,34.208 -0.521,-0.674 -1.042,-1.349 -1.563,-2.024 4.032,5.202 8.385,10.141 13.037,14.795 3.703,3.704 3.98,10.488 0,14.142 C 10.15,3.664 3.952,3.953 0,0"
             style="fill:#e03405;fill-opacity:0.8097561;fill-rule:nonzero;stroke:none"
             id="path34" /></g><g
           style="fill-opacity:0.8097561;fill:#e03405"
           id="g36"
           transform="translate(147.9512,369.6113)"><path
             d="m 0,0 c -0.007,0.006 -0.014,0.013 -0.02,0.02 -2.357,-5.69 -4.714,-11.381 -7.071,-17.071 h 0.03 v 20 c -0.001,0 -2.658,-0.357 -2.661,-0.358 -0.001,0 -2.389,-1.008 -2.391,-1.008 -0.001,-10e-4 -2.024,-1.563 -2.025,-1.565 -0.625,-0.574 -1.167,-1.272 -1.566,-2.026 -10e-4,-0.002 -1.008,-2.39 -1.009,-2.391 0,-0.001 0,-0.001 0,-0.002 -0.089,-0.439 -0.149,-0.882 -0.179,-1.331 -0.068,-0.442 -0.128,-0.886 -0.179,-1.33 v -0.002 c 0,-0.003 0,-0.005 0,-0.007 -0.052,-1.377 0.235,-2.661 0.861,-3.853 0.403,-1.24 1.093,-2.313 2.068,-3.219 0.906,-0.975 1.978,-1.664 3.218,-2.067 1.192,-0.626 2.476,-0.913 3.853,-0.861 l 2.658,0.357 c 1.694,0.475 3.165,1.332 4.413,2.571 0.521,0.675 1.042,1.35 1.563,2.024 0.905,1.56 1.36,3.243 1.366,5.048 0,0.003 0,0.007 0,0.01 -0.119,-0.886 -0.238,-1.772 -0.357,-2.658 0,10e-4 10e-4,0.003 10e-4,0.004 -0.336,-0.796 -0.672,-1.593 -1.008,-2.389 0,10e-4 0.001,10e-4 0.001,0.002 -0.521,-0.675 -1.042,-1.349 -1.564,-2.024 l 0.002,10e-4 c -0.675,-0.521 -1.35,-1.042 -2.024,-1.563 0,0 10e-4,0 10e-4,0.001 -0.796,-0.336 -1.592,-0.672 -2.388,-1.008 0,0 0.001,0 0.002,0.001 -0.887,-0.119 -1.773,-0.239 -2.658,-0.358 0,0.001 10e-4,0.001 0.002,0.001 1.376,-0.052 2.661,0.235 3.853,0.861 1.239,0.403 2.312,1.092 3.218,2.067 0.975,0.906 1.664,1.979 2.068,3.219 0.626,1.192 0.913,2.476 0.861,3.853 C 2.82,-6.165 2.701,-5.279 2.582,-4.393 2.106,-2.699 1.25,-1.228 0.01,0.02 c -0.675,0.521 -1.349,1.042 -2.024,1.563 -1.56,0.905 -3.242,1.36 -5.047,1.366 h -0.03 C -7.978,2.83 -8.863,2.71 -9.75,2.591 c -0.796,-0.336 -1.592,-0.672 -2.388,-1.008 -0.675,-0.521 -1.35,-1.042 -2.024,-1.563 -0.975,-0.906 -1.665,-1.979 -2.068,-3.219 -0.452,-0.78 -0.68,-1.621 -0.683,-2.523 -0.238,-0.886 -0.238,-1.773 0,-2.658 0.003,-0.903 0.231,-1.744 0.683,-2.524 0.403,-1.24 1.093,-2.313 2.068,-3.219 l 0.02,-0.02 c 0.906,-0.975 1.978,-1.664 3.218,-2.067 1.192,-0.626 2.476,-0.913 3.853,-0.861 1.377,-0.052 2.661,0.235 3.853,0.861 1.239,0.403 2.312,1.092 3.218,2.067 0.521,0.675 1.042,1.35 1.563,2.024 0.905,1.56 1.36,3.243 1.366,5.048 C 2.81,-6.185 2.691,-5.299 2.572,-4.413 2.097,-2.719 1.239,-1.248 0,0"
             style="fill:#e03405;fill-opacity:0.8097561;fill-rule:nonzero;stroke:none"
             id="path38" /></g><g
           style="fill-opacity:0.8097561;fill:#e03405"
           id="g40"
           transform="translate(133.8091,140.0488)"><path
             d="m 0,0 c 0.003,-0.003 0.006,-0.007 0.01,-0.01 2.357,5.691 4.714,11.381 7.071,17.072 h -0.03 c 1.682,-6.212 3.365,-12.424 5.047,-18.635 0.007,0.003 0.013,0.007 0.02,0.01 1.166,0.627 2.101,1.487 2.806,2.575 0.884,0.966 1.48,2.099 1.79,3.401 0.416,1.329 0.476,2.658 0.178,3.987 -0.06,1.331 -0.455,2.571 -1.186,3.718 -0.521,0.675 -1.043,1.35 -1.564,2.025 -1.248,1.239 -2.719,2.096 -4.413,2.571 L 7.071,17.071 C 5.266,17.065 3.583,16.61 2.024,15.706 2.017,15.702 2.01,15.699 2.004,15.696 1.329,15.175 0.654,14.653 -0.02,14.132 -0.995,13.227 -1.685,12.153 -2.088,10.914 -2.54,10.134 -2.768,9.293 -2.771,8.391 -3.068,7.062 -3.009,5.732 -2.592,4.402 -2.256,3.606 -1.92,2.811 -1.584,2.014 -1.062,1.339 -0.542,0.665 -0.02,-0.01 0.886,-0.985 1.958,-1.674 3.198,-2.077 4.39,-2.704 5.674,-2.991 7.051,-2.938 h 0.03 c 0.886,0.119 1.772,0.237 2.658,0.356 0.797,0.337 1.593,0.673 2.389,1.009 0.675,0.52 1.35,1.042 2.024,1.563 0.975,0.906 1.664,1.979 2.068,3.218 0.452,0.78 0.679,1.621 0.682,2.524 0.239,0.886 0.239,1.772 0,2.659 -0.003,0.902 -0.23,1.743 -0.682,2.523 -0.404,1.239 -1.093,2.313 -2.068,3.218 -0.004,0.004 -0.006,0.007 -0.01,0.011 -0.906,0.974 -1.978,1.664 -3.218,2.067 C 9.732,16.836 8.448,17.123 7.071,17.071 5.694,17.123 4.41,16.836 3.218,16.21 1.979,15.807 0.906,15.117 0,14.143 -0.521,13.468 -1.042,12.793 -1.564,12.118 -2.468,10.559 -2.923,8.876 -2.929,7.071 -2.81,6.185 -2.691,5.299 -2.572,4.413 -2.097,2.719 -1.24,1.248 0,0"
             style="fill:#e03405;fill-opacity:0.8097561;fill-rule:nonzero;stroke:none"
             id="path42" /></g><g
           style="fill-opacity:0.8097561;fill:#e03405"
           id="g44"
           transform="translate(346.2998,144.8398)"><path
             d="m 0,0 c -0.008,-4.877 -0.332,-9.744 -0.978,-14.578 0.12,0.886 0.239,1.772 0.358,2.658 -1.282,-9.367 -3.781,-18.529 -7.441,-27.247 0.336,0.796 0.672,1.593 1.008,2.389 -3.645,-8.61 -8.391,-16.713 -14.106,-24.112 0.52,0.675 1.042,1.349 1.563,2.024 -5.633,-7.246 -12.157,-13.76 -19.414,-19.381 0.675,0.521 1.35,1.043 2.025,1.563 -7.322,-5.635 -15.329,-10.323 -23.833,-13.937 0.797,0.336 1.592,0.672 2.389,1.008 -8.818,-3.715 -18.092,-6.242 -27.575,-7.523 0.886,0.119 1.773,0.239 2.658,0.358 -9.537,-1.257 -19.209,-1.257 -28.746,0 l 2.658,-0.358 c -9.482,1.281 -18.755,3.808 -27.572,7.523 0.796,-0.336 1.592,-0.672 2.388,-1.008 -8.503,3.614 -16.511,8.302 -23.832,13.937 0.675,-0.52 1.349,-1.042 2.024,-1.563 -7.257,5.621 -13.781,12.135 -19.415,19.381 0.522,-0.675 1.043,-1.349 1.564,-2.024 -5.716,7.399 -10.463,15.502 -14.108,24.112 0.336,-0.796 0.672,-1.593 1.008,-2.389 -3.66,8.718 -6.16,17.88 -7.442,27.247 0.119,-0.886 0.238,-1.772 0.357,-2.658 -0.678,5.073 -1.083,10.237 -0.968,15.358 -5.69,-2.357 -11.381,-4.714 -17.071,-7.071 11.453,-11.313 24.646,-21.074 38.92,-28.53 14.578,-7.615 30.322,-13.162 46.531,-16.002 8.68,-1.521 17.487,-2.464 26.3,-2.629 8.966,-0.168 17.849,0.552 26.724,1.779 16.406,2.268 32.26,7.319 47.186,14.461 14.491,6.935 27.902,16.23 39.706,27.113 1.424,1.313 2.821,2.655 4.196,4.018 C 11.371,-3.724 5.681,-1.367 -0.01,0.99 -0.002,0.66 0.002,0.33 0,0 c 0.014,-5.23 4.59,-10.242 10,-10 5.407,0.242 10.015,4.395 10,10 0.002,0.33 -0.002,0.66 -0.01,0.99 -0.071,4.018 -2.456,7.581 -6.147,9.139 -3.676,1.552 -8.049,0.784 -10.924,-2.067 -4.494,-4.459 -9.253,-8.64 -14.253,-12.524 0.675,0.522 1.35,1.042 2.024,1.564 -10.503,-8.116 -22.019,-14.854 -34.246,-20.021 0.796,0.336 1.593,0.672 2.389,1.008 -12.404,-5.204 -25.451,-8.752 -38.78,-10.559 0.885,0.119 1.771,0.238 2.658,0.357 -13.629,-1.81 -27.463,-1.81 -41.091,0.003 l 2.658,-0.358 c -13.338,1.811 -26.391,5.365 -38.801,10.577 l 2.389,-1.007 c -12.115,5.125 -23.531,11.791 -33.957,19.81 0.675,-0.52 1.349,-1.042 2.024,-1.563 -5.013,3.876 -9.784,8.049 -14.292,12.503 -2.876,2.84 -7.231,3.626 -10.924,2.067 -3.691,-1.558 -6.056,-5.106 -6.147,-9.139 -0.148,-6.592 0.583,-13.209 1.569,-19.716 0.846,-5.581 2.132,-11.094 3.846,-16.473 3.588,-11.254 8.816,-22.102 15.639,-31.753 7.001,-9.905 15.225,-18.596 24.82,-26.009 9.67,-7.472 20.257,-13.256 31.72,-17.508 11.355,-4.213 23.494,-6.456 35.585,-6.957 12.131,-0.503 24.514,0.954 36.208,4.218 11.332,3.162 22.347,8.086 32.2,14.522 9.747,6.367 18.695,14.109 26.135,23.077 3.964,4.777 7.662,9.801 10.875,15.117 3.281,5.428 5.961,11.128 8.377,16.985 4.616,11.19 7.172,23.097 8.12,35.149 C 19.889,-5.718 19.995,-2.859 20,0 20.009,5.231 15.395,10.242 10,10 4.575,9.757 0.009,5.606 0,0"
             style="fill:#e03405;fill-opacity:0.8097561;fill-rule:nonzero;stroke:none"
             id="path46" /></g><g
           style="fill-opacity:0.8097561;fill:#e03405"
           id="g48"
           transform="translate(255.6514,247.8291)"><path
             d="m 0,0 c 3.587,3.59 7.175,7.18 10.762,10.77 8.551,8.558 17.103,17.116 25.654,25.673 l 31.011,31.035 c 8.985,8.991 17.969,17.982 26.954,26.973 4.336,4.339 8.756,8.61 13.015,13.025 0.06,0.062 0.123,0.123 0.184,0.184 -2.357,-0.976 -4.715,-1.953 -7.071,-2.929 h 0.109 c 5.247,0 10.217,4.583 10,10 -0.11,2.767 -0.993,5.288 -2.938,7.321 -0.312,0.326 -0.643,0.636 -0.965,0.951 -0.693,0.677 -1.392,1.347 -2.097,2.01 -1.41,1.326 -2.846,2.626 -4.305,3.899 -3.467,3.022 -7.082,5.873 -10.759,8.633 -6.275,4.708 -12.911,8.935 -19.834,12.626 -14.656,7.815 -30.553,13.517 -46.907,16.468 -8.792,1.586 -17.726,2.565 -26.661,2.757 -9.036,0.192 -17.993,-0.513 -26.94,-1.745 -16.608,-2.287 -32.658,-7.396 -47.75,-14.669 -14.703,-7.086 -28.306,-16.603 -40.214,-27.754 -0.66,-0.618 -1.314,-1.242 -1.963,-1.871 -0.369,-0.358 -0.758,-0.709 -1.107,-1.085 -1.971,-2.121 -2.878,-4.645 -2.939,-7.541 0.455,1.682 0.91,3.365 1.365,5.047 -0.003,-0.007 -0.007,-0.013 -0.01,-0.02 -2.005,-4.009 -1.719,-8.836 1.564,-12.118 3.561,-3.561 7.119,-7.125 10.679,-10.688 8.545,-8.551 17.09,-17.102 25.634,-25.653 10.345,-10.352 20.69,-20.704 31.034,-31.057 8.997,-9.003 17.994,-18.007 26.991,-27.011 4.344,-4.347 8.635,-8.757 13.037,-13.046 0.063,-0.061 0.123,-0.123 0.185,-0.185 3.702,-3.705 10.489,-3.979 14.141,0 3.666,3.993 3.952,10.188 0,14.142 -3.593,3.596 -7.187,7.193 -10.78,10.789 -8.564,8.57 -17.128,17.14 -25.691,25.71 -10.346,10.354 -20.692,20.707 -31.037,31.06 -8.98,8.987 -17.96,17.973 -26.94,26.96 -4.308,4.311 -8.541,8.717 -12.933,12.943 -0.061,0.058 -0.119,0.119 -0.178,0.178 0.521,-4.039 1.042,-8.079 1.563,-12.118 0.955,1.908 1.34,3.393 1.386,5.537 -0.977,-2.357 -1.953,-4.714 -2.929,-7.071 4.508,4.451 9.278,8.623 14.29,12.497 -0.674,-0.522 -1.349,-1.043 -2.024,-1.564 10.424,8.015 21.836,14.677 33.947,19.798 -0.796,-0.336 -1.592,-0.672 -2.388,-1.008 12.406,5.208 25.455,8.759 38.787,10.567 -0.886,-0.119 -1.772,-0.238 -2.658,-0.357 13.624,1.811 27.455,1.811 41.08,0.002 -0.886,0.119 -1.773,0.238 -2.659,0.357 13.326,-1.806 26.368,-5.352 38.768,-10.554 -0.797,0.336 -1.593,0.672 -2.389,1.008 12.223,-5.165 23.735,-11.9 34.236,-20.011 -0.674,0.521 -1.349,1.042 -2.024,1.563 5,-3.882 9.757,-8.061 14.251,-12.518 -0.975,2.357 -1.952,4.714 -2.929,7.071 0.004,-0.084 0.007,-0.167 0.01,-0.25 3.334,3.333 6.667,6.666 10,10 -4.662,0 -6.973,-2.722 -9.799,-5.549 -2.567,-2.57 -5.135,-5.14 -7.703,-7.709 C 74.586,102.936 66.056,94.399 57.524,85.862 47.134,75.464 36.744,65.066 26.354,54.667 17.295,45.603 8.236,36.537 -0.822,27.472 -5.2,23.091 -9.64,18.764 -13.958,14.326 -14.019,14.264 -14.081,14.203 -14.143,14.142 -17.845,10.437 -18.124,3.654 -14.143,0 -10.152,-3.664 -3.951,-3.954 0,0"
             style="fill:#e03405;fill-opacity:0.8097561;fill-rule:nonzero;stroke:none"
             id="path50" /></g><g
           style="fill-opacity:0.8097561;fill:#e03405"
           id="g52"
           transform="translate(140.8599,372.5601)"><path
             d="m 0,0 c -0.146,0 -0.293,0 -0.44,-0.01 2.357,-5.69 4.714,-11.381 7.071,-17.071 0.156,0.164 0.315,0.325 0.48,0.48 -5.69,2.357 -11.381,4.714 -17.071,7.071 -0.009,-0.157 -0.01,-0.313 -0.01,-0.47 2.448,3.214 4.894,6.428 7.342,9.643 -1.8,-0.413 -2.194,-0.855 -3.406,-1.791 -1.199,-0.927 -1.729,-1.202 -2.578,-2.809 -0.006,-0.01 -1.007,-2.385 -1.01,-2.393 -0.147,-0.884 -0.266,-1.771 -0.357,-2.661 -0.001,-0.003 -0.001,-0.006 -0.001,-0.009 5.69,2.357 11.381,4.714 17.071,7.071 -0.007,0.007 -0.013,0.013 -0.02,0.02 C 6.166,-1.954 5.093,-1.265 3.853,-0.861 2.661,-0.235 1.377,0.052 0,0 -1.376,0.052 -2.661,-0.235 -3.853,-0.861 -5.092,-1.265 -6.165,-1.954 -7.071,-2.929 -7.592,-3.604 -8.113,-4.278 -8.635,-4.953 -9.539,-6.513 -9.994,-8.195 -10,-10 l 0.357,-2.659 c 0.476,-1.694 1.332,-3.164 2.572,-4.412 l 0.02,-0.02 c 0.675,-0.521 1.349,-1.042 2.024,-1.564 0.796,-0.336 1.592,-0.672 2.389,-1.008 0.886,-0.119 1.772,-0.238 2.658,-0.357 1.377,-0.052 2.661,0.235 3.853,0.861 0.847,0.238 1.583,0.666 2.206,1.286 0.752,0.445 1.35,1.042 1.794,1.794 0.62,0.624 1.048,1.359 1.286,2.206 0.626,1.192 0.913,2.476 0.861,3.853 0,0.004 0,0.008 0.001,0.011 -0.119,-0.886 -0.238,-1.772 -0.357,-2.658 l 10e-4,0.004 c -0.857,-1.47 -1.714,-2.941 -2.572,-4.412 l 0.003,0.003 c -1.471,-0.858 -2.941,-1.715 -4.412,-2.572 10e-4,0 0.003,10e-4 0.004,10e-4 0.797,0.336 1.593,0.672 2.389,1.008 1.166,0.629 2.101,1.487 2.806,2.576 0.62,0.623 1.048,1.359 1.286,2.206 0.626,1.192 0.913,2.476 0.861,3.853 0,0.157 0.001,0.313 0.01,0.47 -0.119,0.886 -0.238,1.772 -0.357,2.658 -0.336,0.797 -0.672,1.593 -1.008,2.389 -0.521,0.675 -1.043,1.349 -1.564,2.024 -0.905,0.975 -1.978,1.665 -3.218,2.068 -0.78,0.452 -1.621,0.68 -2.524,0.683 -0.886,0.237 -1.772,0.237 -2.658,0 -0.902,-0.003 -1.744,-0.231 -2.524,-0.683 -1.239,-0.403 -2.312,-1.093 -3.218,-2.068 -0.165,-0.155 -0.325,-0.315 -0.48,-0.48 -0.521,-0.675 -1.042,-1.349 -1.564,-2.024 -0.336,-0.796 -0.672,-1.592 -1.008,-2.389 l -0.357,-2.658 c -0.052,-1.377 0.235,-2.661 0.861,-3.853 0.238,-0.847 0.666,-1.582 1.286,-2.206 0.445,-0.751 1.043,-1.349 1.794,-1.794 0.624,-0.619 1.359,-1.048 2.207,-1.286 1.191,-0.626 2.475,-0.913 3.852,-0.861 0.147,0.01 0.294,0.01 0.44,0.01 1.377,-0.052 2.661,0.235 3.853,0.861 1.24,0.404 2.313,1.093 3.218,2.068 0.975,0.905 1.664,1.978 2.068,3.218 C 9.765,-12.661 10.052,-11.377 10,-10 9.881,-9.114 9.762,-8.228 9.643,-7.342 9.168,-5.647 8.311,-4.177 7.071,-2.929 6.396,-2.408 5.722,-1.887 5.047,-1.365 3.488,-0.461 1.805,-0.006 0,0"
             style="fill:#e03405;fill-opacity:0.8097561;fill-rule:nonzero;stroke:none"
             id="path54" /></g><g
           style="fill-opacity:0.8097561;fill:#e03405"
           id="g56"
           transform="translate(391.4199,254.3101)"><path
             d="m 0,0 c -0.009,-6.885 -0.464,-13.758 -1.373,-20.583 0.119,0.886 0.238,1.772 0.357,2.659 -1.815,-13.358 -5.379,-26.429 -10.606,-38.855 0.337,0.796 0.673,1.592 1.009,2.389 -5.14,-12.131 -11.826,-23.559 -19.868,-33.993 l 1.564,2.024 c -3.729,-4.812 -7.732,-9.402 -11.994,-13.75 2.357,0.977 4.714,1.952 7.071,2.929 -0.473,-0.016 -0.946,-0.02 -1.42,-0.02 2.357,-0.976 4.714,-1.953 7.072,-2.929 -3.653,3.655 -7.304,7.309 -10.957,10.963 l -26.124,26.145 -31.18,31.204 c -8.67,8.677 -17.341,17.354 -26.011,26.031 -3.689,3.692 -7.361,7.403 -11.068,11.077 -0.75,0.743 -1.495,1.492 -2.241,2.24 0.976,-2.357 1.953,-4.714 2.929,-7.071 v 0.13 c -0.976,-2.357 -1.953,-4.714 -2.929,-7.071 3.587,3.59 7.175,7.18 10.762,10.77 8.552,8.558 17.104,17.116 25.654,25.673 l 31.011,31.035 c 8.986,8.991 17.97,17.982 26.954,26.973 4.336,4.339 8.756,8.61 13.015,13.025 0.061,0.062 0.123,0.123 0.185,0.184 -2.358,-0.976 -4.715,-1.953 -7.072,-2.929 0.121,0 0.238,-0.005 0.36,-0.01 -2.357,0.976 -4.714,1.952 -7.071,2.929 4.653,-4.654 9.005,-9.593 13.036,-14.794 -0.52,0.674 -1.042,1.349 -1.563,2.023 8.094,-10.495 14.814,-21.997 19.969,-34.208 -0.336,0.796 -0.672,1.592 -1.008,2.389 5.19,-12.389 8.729,-25.416 10.531,-38.726 -0.119,0.886 -0.238,1.772 -0.357,2.658 C -0.461,13.71 -0.009,6.861 0,0 0.007,-5.23 4.595,-10.242 10,-10 15.412,-9.757 20.008,-5.606 20,0 19.978,16.979 17.372,34.122 12.088,50.267 6.981,65.868 -0.407,80.804 -9.987,94.144 c -4.935,6.872 -10.312,13.448 -16.212,19.516 -1.459,1.501 -2.855,2.878 -4.848,3.719 -3.875,1.635 -8.164,0.826 -11.284,-2.058 -0.029,-0.028 -0.057,-0.058 -0.086,-0.086 -0.235,-0.222 -0.459,-0.459 -0.687,-0.688 -2.862,-2.863 -5.722,-5.727 -8.584,-8.589 -5.217,-5.222 -10.434,-10.443 -15.651,-15.664 -6.635,-6.639 -13.268,-13.278 -19.902,-19.917 -7.048,-7.052 -14.095,-14.105 -21.142,-21.157 -6.474,-6.479 -12.949,-12.959 -19.424,-19.438 -4.915,-4.919 -9.831,-9.838 -14.746,-14.758 -2.37,-2.371 -4.765,-4.721 -7.112,-7.116 -1.946,-1.987 -3.184,-4.582 -3.175,-7.415 0.013,-4.15 2.522,-6.725 5.181,-9.356 0.544,-0.538 1.081,-1.083 1.622,-1.624 3.374,-3.377 6.749,-6.754 10.124,-10.131 5.614,-5.619 11.228,-11.237 16.843,-16.855 6.817,-6.823 13.634,-13.646 20.452,-20.469 6.993,-6.998 13.985,-13.995 20.977,-20.993 6.14,-6.144 12.279,-12.288 18.418,-18.432 4.257,-4.26 8.515,-8.52 12.772,-12.781 1.098,-1.1 2.198,-2.199 3.297,-3.299 0.24,-0.241 0.475,-0.49 0.723,-0.724 0.035,-0.033 0.065,-0.068 0.1,-0.1 2.109,-1.948 4.762,-2.954 7.621,-2.929 1.637,0.015 3.217,0.245 4.723,0.881 1.588,0.67 2.851,1.683 4.031,2.902 11.307,11.682 21.008,25.133 28.324,39.658 7.522,14.932 12.903,30.964 15.465,47.498 C 19.181,-17.56 19.988,-8.808 20,0 20.007,5.231 15.396,10.242 10,10 4.576,9.757 0.008,5.606 0,0"
             style="fill:#e03405;fill-opacity:0.8097561;fill-rule:nonzero;stroke:none"
             id="path58" /></g><g
           style="fill-opacity:0.8097561;fill:#e03405"
           id="g60"
           transform="translate(366.2695,362.5601)"><path
             d="m 0,0 c 0,0.083 0.001,0.167 -0.01,0.25 -5.69,-2.357 -11.381,-4.714 -17.071,-7.071 0.092,-0.082 0.179,-0.169 0.261,-0.26 2.356,5.69 4.714,11.381 7.07,17.071 C -9.832,10 -9.916,10 -10,10 -11.376,10.052 -12.66,9.765 -13.853,9.139 -15.092,8.735 -16.165,8.046 -17.07,7.071 -18.046,6.165 -18.735,5.092 -19.139,3.853 -19.765,2.661 -20.052,1.377 -20,0 l 0.357,-2.659 c 0.476,-1.694 1.333,-3.164 2.573,-4.412 0.674,-0.521 1.348,-1.043 2.023,-1.564 1.56,-0.905 3.242,-1.36 5.047,-1.365 0.084,0 0.168,0 0.25,-0.01 0.887,0.119 1.772,0.238 2.659,0.357 0.796,0.336 1.592,0.672 2.389,1.008 0.675,0.521 1.348,1.042 2.023,1.564 0.976,0.906 1.665,1.978 2.069,3.218 0.452,0.78 0.679,1.621 0.682,2.524 0.238,0.886 0.238,1.772 0,2.658 -0.003,0.903 -0.23,1.744 -0.682,2.524 -0.404,1.24 -1.093,2.312 -2.069,3.218 -0.082,0.091 -0.168,0.178 -0.259,0.26 -0.675,0.521 -1.35,1.042 -2.024,1.564 -0.797,0.336 -1.593,0.672 -2.39,1.008 -0.885,0.119 -1.771,0.238 -2.658,0.357 -1.377,0.052 -2.661,-0.235 -3.852,-0.861 C -14.709,9.151 -15.444,8.723 -16.068,8.103 -16.82,7.658 -17.418,7.061 -17.862,6.309 -18.482,5.685 -18.911,4.95 -19.148,4.103 -19.774,2.911 -20.062,1.627 -20.01,0.25 -19.999,0.167 -20,0.083 -20,0 c -0.052,-1.377 0.235,-2.661 0.861,-3.853 0.404,-1.24 1.093,-2.313 2.069,-3.218 0.905,-0.975 1.978,-1.664 3.217,-2.068 1.193,-0.626 2.477,-0.913 3.853,-0.861 0.887,0.119 1.772,0.238 2.659,0.357 1.694,0.475 3.165,1.332 4.412,2.572 0.522,0.675 1.043,1.349 1.564,2.024 C -0.46,-3.487 -0.005,-1.805 0,0"
             style="fill:#e03405;fill-opacity:0.8097561;fill-rule:nonzero;stroke:none"
             id="path62" /></g><g
           style="fill-opacity:0.8097561;fill:#e03405"
           id="g64"
           transform="translate(238.5801,254.8999)"><path
             d="m 0,0 c 0,-4.317 2.582,-6.888 5.324,-9.596 0.48,-0.475 0.954,-0.955 1.431,-1.432 2.266,-2.268 4.532,-4.536 6.798,-6.804 8.336,-8.341 16.672,-16.684 25.009,-25.027 10.454,-10.462 20.908,-20.924 31.362,-31.387 9.134,-9.139 18.266,-18.279 27.399,-27.42 4.356,-4.358 8.644,-8.798 13.073,-13.083 2,-1.934 4.48,-3.041 7.293,-3.041 l -10,10 c 0.015,-0.427 0.02,-0.852 0.021,-1.28 0.977,2.358 1.952,4.714 2.929,7.071 -4.494,-4.459 -9.253,-8.639 -14.253,-12.523 0.675,0.522 1.349,1.042 2.024,1.564 -10.504,-8.116 -22.019,-14.854 -34.246,-20.021 0.796,0.336 1.593,0.672 2.389,1.008 -12.405,-5.204 -25.451,-8.752 -38.781,-10.559 0.886,0.119 1.772,0.238 2.659,0.357 -13.629,-1.81 -27.463,-1.81 -41.092,0.003 l 2.659,-0.358 c -13.338,1.811 -26.391,5.365 -38.801,10.577 l 2.389,-1.007 c -12.115,5.125 -23.531,11.791 -33.957,19.81 0.675,-0.52 1.349,-1.042 2.024,-1.563 -5.013,3.876 -9.784,8.049 -14.292,12.503 0.976,-2.358 1.952,-4.715 2.929,-7.072 0.002,3.207 -0.524,6.176 -2.919,8.572 0.521,-4.041 1.043,-8.08 1.564,-12.119 0.003,0.006 0.006,0.013 0.01,0.02 -0.522,-0.675 -1.043,-1.35 -1.564,-2.024 3.696,3.699 7.392,7.398 11.088,11.097 8.74,8.746 17.479,17.492 26.218,26.238 10.459,10.466 20.917,20.932 31.376,31.399 8.663,8.67 17.327,17.341 25.991,26.011 3.589,3.591 7.164,7.201 10.774,10.772 2.643,2.615 5.032,5.184 5.032,9.314 0,5.231 -4.599,10.242 -10,10 -5.418,-0.243 -10,-4.394 -10,-10 V -0.13 C 0.836,2.227 1.812,4.584 2.789,6.941 -0.852,3.284 -4.508,-0.36 -8.156,-4.011 c -8.302,-8.308 -16.604,-16.616 -24.906,-24.924 -10.38,-10.388 -20.759,-20.775 -31.139,-31.163 -9.076,-9.083 -18.153,-18.166 -27.229,-27.25 -4.39,-4.393 -8.853,-8.725 -13.175,-13.185 -0.659,-0.679 -1.216,-1.172 -1.73,-2.2 -2.005,-4.01 -1.719,-8.835 1.564,-12.118 0.003,-0.003 0.006,-0.007 0.01,-0.01 -0.976,2.357 -1.953,4.714 -2.929,7.071 -0.102,-3.268 0.688,-6.278 3.047,-8.697 0.676,-0.693 1.386,-1.356 2.087,-2.023 1.451,-1.38 2.93,-2.733 4.433,-4.055 3.507,-3.083 7.167,-5.981 10.892,-8.794 6.267,-4.732 12.897,-8.983 19.815,-12.699 14.759,-7.927 30.796,-13.704 47.29,-16.684 8.866,-1.601 17.877,-2.586 26.888,-2.766 9.102,-0.183 18.124,0.545 27.133,1.802 16.713,2.333 32.889,7.55 48.043,14.946 14.769,7.207 28.437,16.873 40.344,28.189 0.656,0.623 1.305,1.251 1.948,1.885 1.376,1.354 2.686,3.042 3.123,4.958 0.293,1.285 0.38,2.624 0.336,3.938 -0.179,5.403 -4.435,10 -10,10 h -0.109 c 2.357,-0.976 4.714,-1.953 7.071,-2.929 -3.652,3.655 -7.303,7.309 -10.956,10.964 l -26.124,26.144 -31.18,31.204 C 47.721,-23.73 39.05,-15.053 30.38,-6.375 26.69,-2.684 23.019,1.027 19.312,4.701 18.562,5.444 17.816,6.193 17.071,6.941 18.047,4.584 19.023,2.227 20,-0.13 V 0 C 20,5.231 15.4,10.242 10,10 4.582,9.757 0,5.606 0,0"
             style="fill:#e03405;fill-opacity:0.8097561;fill-rule:nonzero;stroke:none"
             id="path66" /></g><g
           style="fill-opacity:0.8097561;fill:#e03405"
           id="g68"
           transform="translate(133.8091,140.0488)"><path
             d="m 0,0 c 0.003,-0.003 0.006,-0.007 0.01,-0.01 -0.976,2.357 -1.953,4.714 -2.929,7.072 -0.02,-0.498 -0.02,-0.994 -0.02,-1.491 5.69,2.357 11.38,4.714 17.071,7.072 -0.508,0.498 -1.011,1.001 -1.51,1.509 C 10.265,8.462 7.908,2.771 5.551,-2.919 c 0.275,-0.011 0.55,-0.016 0.825,-0.019 0.135,0 0.27,0 0.405,0 h 0.21 c 2.089,-10e-4 3.296,0.459 5.127,1.375 1.166,0.627 2.101,1.487 2.806,2.575 0.884,0.966 1.48,2.099 1.79,3.401 0.416,1.329 0.476,2.658 0.178,3.987 -0.06,1.331 -0.455,2.571 -1.186,3.718 -0.521,0.675 -1.043,1.35 -1.564,2.025 -1.248,1.239 -2.719,2.096 -4.413,2.571 L 7.071,17.071 C 5.266,17.065 3.583,16.61 2.024,15.706 2.017,15.702 2.01,15.699 2.004,15.696 c 1.682,0.455 3.365,0.91 5.047,1.366 -0.5,0 -1,0 -1.5,0.019 C 4.665,16.962 3.779,16.843 2.893,16.724 2.096,16.388 1.3,16.052 0.504,15.716 -0.171,15.194 -0.846,14.674 -1.52,14.152 -2.495,13.246 -3.185,12.174 -3.588,10.934 -4.04,10.154 -4.268,9.313 -4.271,8.41 -4.509,7.524 -4.509,6.638 -4.271,5.752 -4.268,4.85 -4.04,4.008 -3.588,3.229 -3.185,1.988 -2.495,0.916 -1.52,0.01 -1.022,-0.498 -0.519,-1.002 -0.01,-1.5 0.665,-2.021 1.339,-2.542 2.014,-3.063 2.81,-3.399 3.606,-3.735 4.402,-4.071 l 2.659,-0.358 c 1.377,-0.051 2.661,0.236 3.853,0.862 0.847,0.237 1.582,0.666 2.206,1.286 0.752,0.444 1.349,1.042 1.794,1.793 0.62,0.624 1.048,1.359 1.286,2.207 0.626,1.191 0.913,2.475 0.861,3.852 0,0.275 0,0.549 0.003,0.824 0.002,0.133 0.004,0.267 0.008,0.401 0.002,0.068 0.004,0.138 0.007,0.206 0.034,0.924 0.041,1.279 -0.355,2.718 -0.463,1.679 -1.351,3.191 -2.582,4.423 -0.906,0.974 -1.978,1.664 -3.218,2.067 C 9.732,16.836 8.448,17.123 7.071,17.071 5.694,17.123 4.41,16.836 3.218,16.21 1.979,15.807 0.906,15.117 0,14.143 -0.521,13.468 -1.042,12.793 -1.564,12.118 -2.468,10.559 -2.923,8.876 -2.929,7.071 -2.81,6.185 -2.691,5.299 -2.572,4.413 -2.097,2.719 -1.24,1.248 0,0"
             style="fill:#e03405;fill-opacity:0.8097561;fill-rule:nonzero;stroke:none"
             id="path70" /></g><g
           style="fill-opacity:0.8097561;fill:#e03405"
           id="g72"
           transform="translate(350.5088,154.2012)"><path
             d="m 0,0 c -0.422,-0.441 -0.854,-0.873 -1.29,-1.3 5.69,-2.357 11.381,-4.714 17.071,-7.071 0,0.427 0,0.853 -0.02,1.28 -3.333,-3.334 -6.666,-6.667 -10,-10 0.437,0 0.874,0 1.31,0.02 1.377,-0.052 2.661,0.235 3.853,0.861 1.24,0.403 2.312,1.093 3.219,2.067 0.974,0.907 1.664,1.979 2.067,3.219 0.626,1.192 0.913,2.476 0.861,3.853 -0.119,0.886 -0.238,1.772 -0.357,2.658 C 16.239,-2.719 15.382,-1.248 14.143,0 13.468,0.521 12.793,1.042 12.118,1.563 10.559,2.468 8.876,2.923 7.071,2.929 6.635,2.909 6.198,2.909 5.761,2.909 4.385,2.961 3.101,2.674 1.908,2.048 0.669,1.645 -0.404,0.955 -1.31,-0.021 c -0.521,-0.673 -1.043,-1.348 -1.563,-2.023 -0.905,-1.56 -1.36,-3.242 -1.366,-5.047 0.02,-0.427 0.02,-0.853 0.02,-1.28 0.119,-0.886 0.239,-1.773 0.358,-2.658 0.336,-0.797 0.672,-1.593 1.007,-2.389 0.522,-0.675 1.042,-1.35 1.564,-2.024 0.906,-0.975 1.978,-1.664 3.219,-2.068 0.779,-0.452 1.621,-0.679 2.523,-0.682 0.886,-0.239 1.773,-0.239 2.658,0 0.903,0.003 1.744,0.23 2.524,0.682 1.24,0.404 2.312,1.093 3.219,2.068 0.436,0.426 0.868,0.858 1.29,1.299 0.974,0.907 1.664,1.979 2.067,3.219 0.626,1.192 0.913,2.476 0.861,3.853 0.052,1.377 -0.235,2.661 -0.861,3.852 C 15.807,-1.979 15.117,-0.906 14.143,0 13.468,0.521 12.793,1.042 12.118,1.563 10.559,2.468 8.876,2.923 7.071,2.929 6.186,2.81 5.299,2.69 4.413,2.571 2.719,2.097 1.248,1.239 0,0"
             style="fill:#e03405;fill-opacity:0.8097561;fill-rule:nonzero;stroke:none"
             id="path74" /></g><g
           style="fill-opacity:0.8097561;fill:#e03405"
           id="g76"
           transform="translate(238.4399,254.8999)"><path
             d="M 0,0 V -0.13 C 0.977,2.227 1.953,4.584 2.929,6.941 -0.712,3.284 -4.368,-0.36 -8.016,-4.011 c -8.302,-8.308 -16.604,-16.616 -24.906,-24.924 -10.38,-10.388 -20.759,-20.775 -31.139,-31.163 -9.076,-9.083 -18.153,-18.166 -27.229,-27.25 -4.39,-4.393 -8.853,-8.725 -13.175,-13.185 -0.659,-0.679 -1.216,-1.172 -1.73,-2.2 1.196,1.196 2.392,2.392 3.588,3.588 -0.007,-0.004 -0.014,-0.007 -0.02,-0.01 1.682,0.455 3.365,0.91 5.047,1.365 -0.5,0 -1,0.004 -1.5,0.02 2.357,-0.977 4.714,-1.952 7.071,-2.929 -4.262,4.348 -8.265,8.938 -11.993,13.75 0.521,-0.675 1.042,-1.349 1.563,-2.024 -8.042,10.434 -14.728,21.862 -19.867,33.993 0.336,-0.797 0.672,-1.593 1.008,-2.389 -5.227,12.426 -8.791,25.497 -10.606,38.855 0.119,-0.887 0.238,-1.773 0.357,-2.659 -1.815,13.63 -1.818,27.465 -0.01,41.094 -0.119,-0.886 -0.238,-1.772 -0.357,-2.658 1.802,13.31 5.341,26.338 10.532,38.726 -0.336,-0.797 -0.672,-1.593 -1.009,-2.389 5.155,12.211 11.875,23.713 19.969,34.209 -0.521,-0.675 -1.042,-1.35 -1.564,-2.024 4.032,5.201 8.385,10.14 13.037,14.794 -2.357,-0.976 -4.714,-1.953 -7.071,-2.929 0.146,0.003 0.293,0.007 0.44,0.01 -2.357,0.976 -4.714,1.953 -7.071,2.929 3.536,-3.526 7.06,-7.065 10.589,-10.597 8.554,-8.56 17.107,-17.12 25.661,-25.679 l 31.117,-31.142 c 8.977,-8.983 17.954,-17.966 26.93,-26.95 4.365,-4.367 8.676,-8.798 13.099,-13.107 0.062,-0.061 0.123,-0.123 0.184,-0.185 3.703,-3.705 10.489,-3.979 14.142,0 3.666,3.993 3.951,10.188 0,14.142 -2.617,2.619 -5.235,5.239 -7.852,7.859 -6.555,6.559 -13.111,13.119 -19.665,19.679 -8.488,8.494 -16.975,16.988 -25.463,25.481 -8.597,8.604 -17.195,17.208 -25.792,25.812 l -20.129,20.143 c -2.871,2.874 -5.69,5.815 -8.621,8.628 -4.254,4.082 -10.747,3.813 -14.913,-0.225 -1.757,-1.702 -3.421,-3.514 -5.063,-5.325 -3.78,-4.172 -7.298,-8.566 -10.672,-13.069 -5.831,-7.782 -10.919,-16.119 -15.168,-24.866 -9.487,-19.531 -15.029,-40.572 -16.361,-62.251 -1.294,-21.062 1.611,-42.658 8.565,-62.589 6.981,-20.009 17.678,-38.364 31.585,-54.348 1.573,-1.807 3.186,-3.577 4.841,-5.307 0.402,-0.421 0.8,-0.848 1.214,-1.257 2.088,-2.06 4.569,-3.103 7.53,-3.212 3.845,-0.141 8.121,1.256 9.978,4.969 -0.522,-0.675 -1.043,-1.35 -1.564,-2.024 3.696,3.699 7.392,7.398 11.088,11.097 8.74,8.746 17.479,17.492 26.219,26.238 10.458,10.466 20.916,20.932 31.375,31.399 8.663,8.67 17.327,17.341 25.991,26.011 3.589,3.592 7.164,7.201 10.774,10.772 C 17.611,-6.699 20,-4.13 20,0 20,5.231 15.401,10.242 10,10 4.582,9.757 0,5.606 0,0"
             style="fill:#e03405;fill-opacity:0.8097561;fill-rule:nonzero;stroke:none"
             id="path78" /></g><g
           style="fill-opacity:0.8097561;fill:#e03405"
           id="g80"
           transform="translate(391.4199,254.3101)"><path
             d="m 0,0 c -0.01,-6.826 -0.457,-13.64 -1.35,-20.407 0.12,0.886 0.239,1.773 0.358,2.658 -1.804,-13.385 -5.362,-26.486 -10.591,-38.94 0.336,0.796 0.672,1.592 1.008,2.389 -5.142,-12.157 -11.834,-23.608 -19.888,-34.063 0.522,0.674 1.043,1.349 1.564,2.024 -8.029,-10.367 -17.345,-19.684 -27.711,-27.712 0.673,0.521 1.348,1.043 2.023,1.564 -10.456,-8.054 -21.907,-14.747 -34.062,-19.888 0.795,0.336 1.592,0.672 2.388,1.008 -12.454,-5.228 -25.554,-8.787 -38.94,-10.591 0.886,0.12 1.771,0.239 2.658,0.358 -13.538,-1.786 -27.276,-1.786 -40.814,0 l 2.659,-0.358 c -13.386,1.804 -26.487,5.363 -38.941,10.591 0.796,-0.336 1.593,-0.672 2.389,-1.008 -12.156,5.141 -23.607,11.834 -34.063,19.888 0.675,-0.521 1.349,-1.043 2.024,-1.564 -10.367,8.028 -19.684,17.345 -27.711,27.712 0.521,-0.675 1.042,-1.35 1.563,-2.024 -8.054,10.455 -14.746,21.906 -19.888,34.063 0.336,-0.797 0.672,-1.593 1.008,-2.389 -5.228,12.454 -8.787,25.555 -10.591,38.94 0.119,-0.885 0.239,-1.772 0.358,-2.658 -1.786,13.538 -1.786,27.276 0,40.814 -0.119,-0.886 -0.239,-1.773 -0.358,-2.658 1.804,13.386 5.363,26.486 10.591,38.94 -0.336,-0.796 -0.672,-1.592 -1.008,-2.389 5.142,12.156 11.834,23.607 19.888,34.063 -0.521,-0.675 -1.042,-1.349 -1.563,-2.024 8.027,10.367 17.344,19.683 27.711,27.712 -0.675,-0.522 -1.349,-1.043 -2.024,-1.564 10.456,8.054 21.907,14.746 34.063,19.888 -0.796,-0.336 -1.593,-0.672 -2.389,-1.008 12.454,5.228 25.555,8.787 38.941,10.591 -0.886,-0.12 -1.773,-0.238 -2.659,-0.357 13.538,1.785 27.276,1.785 40.814,0 -0.887,0.119 -1.772,0.237 -2.658,0.357 13.386,-1.804 26.486,-5.363 38.94,-10.591 -0.796,0.336 -1.593,0.672 -2.388,1.008 12.155,-5.142 23.606,-11.834 34.062,-19.888 -0.675,0.521 -1.35,1.042 -2.023,1.564 10.366,-8.029 19.682,-17.345 27.711,-27.712 -0.521,0.675 -1.042,1.349 -1.564,2.024 8.054,-10.456 14.746,-21.907 19.888,-34.063 -0.336,0.797 -0.672,1.593 -1.008,2.389 5.229,-12.454 8.787,-25.554 10.591,-38.94 -0.119,0.885 -0.238,1.772 -0.358,2.658 C -0.457,13.64 -0.01,6.826 0,0 0.007,-5.23 4.595,-10.242 10,-10 15.412,-9.757 20.008,-5.606 20,0 19.977,16.868 17.404,33.899 12.191,49.951 7.153,65.459 -0.147,80.326 -9.605,93.619 c -9.909,13.925 -21.651,25.997 -35.206,36.382 -12.969,9.938 -27.444,17.64 -42.771,23.267 -15.77,5.789 -32.566,8.914 -49.342,9.565 -16.936,0.658 -34.161,-1.397 -50.47,-6.018 -15.702,-4.45 -30.889,-11.323 -44.529,-20.292 -13.549,-8.909 -25.903,-19.754 -36.217,-32.278 -10.896,-13.228 -19.506,-27.709 -26.009,-43.555 -6.365,-15.508 -9.991,-31.999 -11.288,-48.697 -1.319,-16.984 0.186,-34.294 4.202,-50.844 3.859,-15.904 10.271,-31.361 18.752,-45.356 8.392,-13.847 18.902,-26.589 31.02,-37.335 12.136,-10.764 25.786,-19.875 40.579,-26.558 15.992,-7.224 32.613,-11.781 50.037,-13.815 17.007,-1.983 34.305,-1.028 51.075,2.368 16.111,3.261 31.788,9.185 46.146,17.176 14.15,7.877 27.239,18.011 38.42,29.728 11.158,11.694 20.722,25.102 27.923,39.58 7.376,14.828 12.653,30.703 15.16,47.086 C 19.193,-17.367 19.988,-8.713 20,0 20.007,5.231 15.396,10.242 10,10 4.576,9.757 0.008,5.606 0,0"
             style="fill:#e03405;fill-opacity:0.8097561;fill-rule:nonzero;stroke:none"
             id="path82" /></g></g></g></g></svg>