<?xml version="1.0" encoding="utf-8"?>
<!-- Generator: Adobe Illustrator 19.0.0, SVG Export Plug-In . SVG Version: 6.00 Build 0)  -->
<svg version="1.1" xmlns="http://www.w3.org/2000/svg" xmlns:xlink="http://www.w3.org/1999/xlink" x="0px" y="0px"
	 viewBox="0 0 409 406" style="enable-background:new 0 0 409 406;" xml:space="preserve">
<style type="text/css">
	.st0{fill:#1A1A1A;}
	.st1{fill:#CCCCCC;}
	.st2{fill:none;stroke:#000000;stroke-miterlimit:10;}
	.st3{fill:#2E3192;}
	.st4{fill:#39B54A;}
	.st5{fill:#A67C52;}
	.st6{fill:#42210B;}
	.st7{fill:#666666;}
</style>
<g id="Capa_1">
</g>
<g id="Capa_8">
	<g id="XMLID_415_">
		<g id="XMLID_520_">
			<path id="XMLID_524_" class="st0" d="M280.9,43.6c-10.9-0.1-21.7-0.3-32.6-0.4c-8.3-0.1-11.2,9.7-6.4,15.4
				c9.2,10.8,24,16.4,38.1,14.6c4.8-0.6,9-3.7,9-9c0-4.4-4.1-9.6-9-9c-9.9,1.3-18.8-1.7-25.4-9.4c-2.1,5.1-4.2,10.2-6.4,15.4
				c10.9,0.1,21.7,0.3,32.6,0.4C292.4,61.7,292.5,43.7,280.9,43.6L280.9,43.6z"/>
		</g>
	</g>
	<g id="XMLID_377_">
		<g id="XMLID_514_">
			<path id="XMLID_518_" class="st0" d="M269.3,84.1c-2.2,9.6-3.7,19.4-4.4,29.2c6,0,12,0,18,0c0.3-13.2,2.1-28-5.9-39.6
				c-3.7-5.4-9-9.7-15.4-11.4c-3.1-0.8-6.3-0.8-9.4-1.6c-0.9-0.2-1.8-0.7-2.7-0.9c-2.6-0.6,0.3-2.4-1.7,2.1
				c1.9-4.5,1.3-9.7-3.2-12.3c-4-2.3-10.1-1.1-12.3,3.2c-3.4,6.7-4.3,13.4-2.9,20.8c2,10.1,17.6,7.5,17.7-2.4
				c0-5.8,0.1-11.7,0.1-17.5c-3.8,2.9-7.6,5.8-11.4,8.7c15.3,5.9,32.5,6.2,48.1,1.1c11-3.6,6.3-21-4.8-17.4
				c-12.9,4.2-25.8,3.8-38.5-1.1c-5.6-2.2-11.4,3.3-11.4,8.7c0,5.8-0.1,11.7-0.1,17.5c5.9-0.8,11.8-1.6,17.7-2.4
				c-0.5-2.4,0-4.7,1.1-6.9c-5.2-3-10.4-6.1-15.5-9.1c-3.2,7.5-1.9,14.7,4.6,20c5.8,4.8,12.2,5,19.2,6.6c13,3,9,24.4,8.8,33.8
				c-0.2,11.7,17.1,11.4,18,0c0.6-8.3,1.9-16.4,3.8-24.5C289.2,77.7,271.9,72.8,269.3,84.1L269.3,84.1z"/>
		</g>
	</g>
	<g id="XMLID_414_">
		<g id="XMLID_508_">
			<path id="XMLID_512_" class="st0" d="M295.1,153.2c-2.5-9.2-6.2-17.8-10.1-26.5c-3.5-7.8-14-4.2-16.4,2.1
				c-6,15.7-7.3,32.1-4.9,48.7c0.7,4.8,6.8,7.5,11.1,6.3c5.2-1.4,7-6.2,6.3-11.1c-2-14.6-5.9-28.7-11.6-42.3
				c-1.7-4.1-5.1-7.2-9.9-6.4c-4,0.6-8.3,4.3-7.8,8.8c0.6,5.7,1.1,11.3,1.7,17c5.6-1.5,11.2-3,16.8-4.5c-3-7-5.2-15.7-14.8-18
				c-8.1-2-13.5,6.2-10.2,13.2c8.1,17.2,15.9,34.7,27.5,49.9c2.5,3.2,6,5.3,10.2,4.1c3.7-1,6.8-4.8,6.6-8.7
				c-0.1-3.5,0.8-6.9,0.6-10.4c-0.2-4.7-1.8-8.3-4.8-11.9c-2.9-3.5-9.9-3.5-12.7,0c-6.6,8.1-3.9,15.8-0.8,24.7
				c3.3,9.7,17,7.9,17.7-2.4c0.3-4.9,0.9-9.6-0.4-14.5c-1.8-6.9-13.3-9.5-16.4-2.1c-3,6.9-3,14.3,0.1,21.2
				c3.9,8.7,16.4,3.6,16.8-4.5c1.1-23.9,4.7-47.6,6.6-71.4c0.4-4.9-4.4-9-9-9c-5.2,0-8.6,4.1-9,9c-1.9,23.8-5.5,47.5-6.6,71.4
				c5.6-1.5,11.2-3,16.8-4.5c0.5,1,0.4-4.1-0.1-3c-5.5-0.7-11-1.4-16.4-2.1c0.8,3-0.1,6.7-0.3,9.7c5.9-0.8,11.8-1.6,17.7-2.4
				c-0.6-1.8-1.4-3.6-2-5.4c-0.3-0.8-0.4-2-0.8-2.7c-0.8-1.2,1.2-1.7-1,0.9c-4.2,0-8.5,0-12.7,0c-0.9-1.1-0.6,2.7-0.7,3.4
				c-0.2,2.1-0.5,4.1-0.4,6.2c5.6-1.5,11.2-3,16.8-4.5c-11.6-15.3-19.4-32.7-27.5-49.9c-3.4,4.4-6.8,8.8-10.2,13.2
				c2.5,0.6,0.2,0.2-0.2-0.6c0.5,0.9,0.9,1.6,1.2,2.5c1.1,2.6,1.9,5.2,3,7.8c3.5,8.1,17.6,4.1,16.8-4.5c-0.6-5.7-1.1-11.3-1.7-17
				c-5.9,0.8-11.8,1.6-17.7,2.4c5.7,13.6,9.6,27.7,11.6,42.3c5.8-1.6,11.6-3.2,17.4-4.8c-1.9-13.3,0.2-26.7,4.9-39.1
				c-5.5,0.7-11,1.4-16.4,2.1c3.3,7.2,6.2,14.5,8.3,22.2C280.8,169.1,298.1,164.4,295.1,153.2L295.1,153.2z"/>
		</g>
	</g>
	<g id="XMLID_434_">
		<g id="XMLID_497_">
			<path id="XMLID_506_" class="st0" d="M282,250.1c-0.2,0.8-0.7,1.2-1.6,1.2c4.5,2.6,9,5.2,13.5,7.8c0.2-4.4,0.4-8.8,0.5-13.2
				c0.3-7.8-10-11.8-15.4-6.4c-3.5,3.6-7,7.2-10.5,10.8c5,2.9,10,5.8,15,8.8c1.3-3.9,3-7.3,5.2-10.7c2.6-4.1,0.9-9.9-3.2-12.3
				c-4.6-2.7-9.4-0.7-12.3,3.2c-3.4,4.6-6.8,9.3-10.2,13.9c5.5,0.7,11,1.4,16.4,2.1c-0.2-1,0.3-2,0.9-2.7c-5-2.9-10-5.8-15-8.8
				c-1.1,2.7-3.3,5.1-5.6,6.8c4.5,2.6,9,5.2,13.5,7.8c-0.1-6.7,1.3-12.7,4.6-18.5c-5.2-3-10.4-6.1-15.5-9.1c-1,2-2,4.1-3,6.1
				c5.6,1.5,11.2,3,16.8,4.5c-0.5-5.6-0.5-11.2,0.4-16.7c-5.9-0.8-11.8-1.6-17.7-2.4c-0.1,3.3-0.2,6.6-0.3,9.9
				c5.1-2.1,10.2-4.2,15.4-6.4c-0.7-0.9-0.4-2.3-0.2-3.2c-5.9-0.8-11.8-1.6-17.7-2.4c0,4.2-1.3,7.3-3.7,10.6
				c5.6,1.5,11.2,3,16.8,4.5c-0.6-5.7-0.6-11.3,0.4-16.9c-5.8-1.6-11.6-3.2-17.4-4.8c-0.5,3.5-1.1,7-1.6,10.5c5.8,0,11.6,0,17.4,0
				c-1.2-4.2,0.4-7.3,3.6-9.9c-5-1.3-10-2.6-15-4c2,7.7,7.2,14.8,14.8,17.8c9.2,3.7,17.1-0.8,22.7-8.1c2.9-3.9,0.6-10.1-3.2-12.3
				c-4.6-2.7-9.4-0.7-12.3,3.2c-0.7,0.9-0.2,1-1.2,0.2c-1.9-1.6-2.8-3.3-3.4-5.6c-1.8-7.1-10-8.1-15-4c-8,6.5-11,17.6-8.2,27.4
				c2.2,8,15.9,9.2,17.4,0c0.5-3.5,1.1-7,1.6-10.5c0.7-4.8-1.2-9.7-6.3-11.1c-4.3-1.2-10.2,1.5-11.1,6.3c-1.3,7.2-1.8,14.4-1,21.7
				c0.9,9.1,11.4,12,16.8,4.5c4.2-5.8,6.1-12.6,6.1-19.7c0-10.1-15.1-12.3-17.7-2.4c-2,7.8,0,14.6,4.8,20.8
				c5.1,6.5,15.1,0.7,15.4-6.4c0.1-3.3,0.2-6.6,0.3-9.9c0.3-9.9-16-12.6-17.7-2.4c-1.2,7.2-1.7,14.2-1.1,21.5
				c0.7,8.1,12.5,13.3,16.8,4.5c1-2,2-4.1,3-6.1c5-10.3-9.7-19.3-15.5-9.1c-4.8,8.5-7.3,17.8-7.1,27.6c0.1,6.3,7.7,11.9,13.5,7.8
				c6.6-4.6,10.8-10.2,13.9-17.5c3.5-8.4-9.3-15.1-15-8.8c-5.3,5.9-6.9,12.5-5.6,20.2c1.5,8.4,12.4,7.7,16.4,2.1
				c3.4-4.6,6.8-9.3,10.2-13.9c-5.2-3-10.4-6.1-15.5-9.1c-3,4.7-5.2,9.7-7,15c-2.9,8.6,8.9,15,15,8.8c3.5-3.6,7-7.2,10.5-10.8
				c-5.1-2.1-10.2-4.2-15.4-6.4c-0.2,4.4-0.4,8.8-0.5,13.2c-0.3,7.4,7.7,10.4,13.5,7.8c2-0.9,3.8-2.3,5.2-4c3.1-3.7,3.7-9.1,0-12.7
				C291.5,246.9,285.1,246.4,282,250.1L282,250.1z"/>
		</g>
	</g>
	<g id="XMLID_354_">
		<g id="XMLID_408_">
			<path id="XMLID_412_" class="st0" d="M285,262c-14.9,4.4-29.1,10.9-42,19.6c3.6,4.7,7.3,9.4,10.9,14.1
				c13.8-13,27.6-26.1,41.4-39.1c-5-1.3-10-2.6-15-4c0.3,0.7,0.5,1.4,0.5,2.1c0.7,4.8,6.8,7.5,11.1,6.3c5.2-1.4,7-6.2,6.3-11.1
				c0-0.7-0.2-1.4-0.5-2.1c-2.2-6.5-9.9-8.8-15-4c-13.8,13-27.6,26.1-41.4,39.1c-7.3,6.9,2.3,19.9,10.9,14.1
				c11.7-7.8,24.2-13.8,37.7-17.8C300.9,276.1,296.2,258.7,285,262L285,262z"/>
		</g>
	</g>
	<g id="XMLID_349_">
		<g id="XMLID_392_">
			<path id="XMLID_406_" class="st0" d="M288.9,338c-2.5-0.2-5-0.4-7.5-0.5c2.6,4.5,5.2,9,7.8,13.5c2-3.1,4-6.2,6-9.2
				c2.4-3.7,1.1-9.1-2.3-11.6c-3.8-2.9-8.2-2.2-11.8,0.7c-2.6,2.1-6,3.4-9.3,3.7c2.9,3.8,5.8,7.6,8.7,11.4c1.8-4.4,5.1-7.8,8.7-10.7
				c8-6.3-2.4-19.6-10.9-14.1c-5.3,3.4-10.7,5.8-16.7,7.5c2.9,5,5.8,10,8.8,15c7.2-7.5,14.4-15,21.6-22.5
				c7.3-7.6-1.9-18.6-10.9-14.1c-16.8,8.3-33.3,17.1-49.6,26.5c3.6,4.7,7.3,9.4,10.9,14.1c14.6-15.3,30.5-29.2,47.7-41.4
				c-4.4-3.4-8.8-6.8-13.2-10.2c-0.5,2.1-1.1,4.2-1.6,6.2c-2.5,9.7,11.4,16,16.4,6.9c4.4-7.8,4.4-16.5,0.1-24.3
				c-2.3-4.2-8.3-5.7-12.3-3.2c-16.9,10.4-32.8,22.2-47.7,35.2c5,2.9,10,5.8,15,8.8c2.3-10.2,10.5-16.1,18.9-21.4
				c11-7,21.7-13.5,29.5-24.2c2.9-3.9,0.7-10-3.2-12.3c-4.5-2.7-9.5-0.7-12.3,3.2c-7.1,9.7-19,14.7-28.6,21.5
				c-10.1,7.1-18.9,16-21.6,28.5c-2,9,8.2,14.7,15,8.8c13.8-12,28.5-22.8,44.1-32.4c-4.1-1.1-8.2-2.2-12.3-3.2
				c1.2,2.1,1.1,4-0.1,6.1c5.5,2.3,11,4.6,16.4,6.9c0.5-2.1,1.1-4.2,1.6-6.2c1.8-7-6.5-14.9-13.2-10.2
				c-18.5,13.1-35.7,27.9-51.4,44.2c-7,7.3,1.9,19.3,10.9,14.1c16.2-9.4,32.7-18.2,49.6-26.5c-3.6-4.7-7.3-9.4-10.9-14.1
				c-7.2,7.5-14.4,15-21.6,22.5c-6.2,6.4,0,17.4,8.8,15c7.4-2,14.5-5.1,21-9.3c-3.6-4.7-7.3-9.4-10.9-14.1
				c-6.3,4.9-10.4,11.3-13.4,18.6c-2.1,5.2,3.3,11.8,8.7,11.4c8.5-0.7,15.5-3.6,22.1-8.9c-4.7-3.6-9.4-7.3-14.1-10.9
				c-2,3.1-4,6.2-6,9.2c-4,6.1,1.4,13.1,7.8,13.5c2.5,0.2,5,0.4,7.5,0.5C300.5,356.8,300.4,338.8,288.9,338L288.9,338z"/>
		</g>
	</g>
	<g id="XMLID_341_">
		<g id="XMLID_393_">
			<path id="XMLID_386_" class="st0" d="M274.8,138c4.7-4.2,8.2-10.1,9.2-16.4c0.7-3.8-0.4-8.2-4.1-10.2c-3.5-1.8-8.1-1.6-10.9,1.4
				c-2.1,2.2-4.2,4.4-6.5,6.4c-2,1.8-4.5,3.9-6,5c-3.8,2.8-6.1,7.9-3.2,12.3c2.4,3.7,8.3,6.3,12.3,3.2c5.8-4.3,11.2-9,16.1-14.3
				c-5-2.9-10-5.8-15-8.8c-0.2,1.2-0.5,2.4-0.9,3.5c-0.5,1.6,0.4-0.4-0.6,1.2c0,0-1.5,2.3-0.6,1.2c-0.7,1-1.6,1.8-2.5,2.6
				c-3.5,3.1-3.4,9.6,0,12.7C265.9,141.5,271.1,141.3,274.8,138L274.8,138z"/>
		</g>
	</g>
	<g id="XMLID_342_">
		<g id="XMLID_401_">
			<path id="XMLID_287_" class="st0" d="M278,320.1c0.3,2.1,0.6,4.2,0.9,6.3c5.5-2.3,11-4.6,16.4-6.9c-1.6-3.3-3.1-6.6-4.7-9.9
				c-2-4.3-8.5-5.7-12.3-3.2c-4.4,2.8-5.4,7.7-3.2,12.3c1.6,3.3,3.1,6.6,4.7,9.9c1.9,4,7.4,5.3,11.2,3.7c1.7-0.7,3.4-2,4.3-3.7
				c1.2-2.3,1.3-4.4,0.9-6.9c-0.3-2.1-0.6-4.2-0.9-6.3c-0.3-2.1-2.4-4.4-4.1-5.4c-1.9-1.1-4.8-1.6-6.9-0.9c-2.2,0.7-4.3,2.1-5.4,4.1
				C277.7,315.4,277.6,317.5,278,320.1L278,320.1z"/>
		</g>
	</g>
	<g id="XMLID_343_">
		<g id="XMLID_423_">
			<path id="XMLID_261_" class="st0" d="M242,331c0-2.4,0-4.8,0-7.2c-6,0-12,0-18,0c0,1.5,0,2.9,0,4.4c5.1-2.1,10.2-4.2,15.4-6.4
				c-0.7-0.6-0.4-0.2,0.8,1.2c0.6,1.7,0.8,2.2,0.6,1.3c0.1,0.8,0.2,1.6,0.3,2.4c0-0.3,0-0.6,0-0.9c-0.1,0.8-0.2,1.6-0.3,2.4
				c0.4-1.9-1,1.8-0.3,0.7c-0.6,1-1.4,1.8-2.4,2.4c-1.7,0.6-2.2,0.8-1.3,0.6c-0.8,0.1-1.6,0.2-2.4,0.3c0.2,0,0.4,0,0.6,0
				c4.7,0.4,9.2-4.4,9-9c-0.2-5.2-4-8.6-9-9c-5.3-0.5-9.6,3.6-11.3,8.3c-1.4,3.9-0.5,9.4,3,12c1.2,1,2.4,1.9,4,2.3
				c2,0.5,4,0.3,5.9-0.5c3.3-1.4,5.5-4.6,5.5-8.2c0-1.5,0-2.9,0-4.4c0-4.7-4.1-9.2-9-9c-4.9,0.2-9,4-9,9c0,2.4,0,4.8,0,7.2
				c0,4.7,4.1,9.2,9,9C237.9,339.8,242,336,242,331L242,331z"/>
		</g>
	</g>
	<g id="XMLID_348_">
		<g id="XMLID_442_">
			<path id="XMLID_241_" class="st0" d="M276,284c0-4.4,0-8.8,0-13.2c0-11.6-18-11.6-18,0c0,7.7,0,15.3,0,23c0,11.6,17.7,11.6,18,0
				c0.3-11.5,0-23-1-34.5c-1-11.4-17.6-11.7-18,0c-0.2,6.5,0,12.9,0.7,19.3c0.9,8.7,11.6,12.5,16.8,4.5c3.7-5.7,4.4-11.9,3.1-18.4
				c-2.3-11.4-19.6-6.5-17.4,4.8c0.4,1.8-0.3,3.1-1.3,4.6c5.6,1.5,11.2,3,16.8,4.5c-0.7-6.4-0.9-12.8-0.7-19.3c-6,0-12,0-18,0
				c1,11.5,1.3,23,1,34.5c6,0,12,0,18,0c0-7.7,0-15.3,0-23c-6,0-12,0-18,0c0,4.4,0,8.8,0,13.2C258,295.6,276,295.6,276,284L276,284z
				"/>
		</g>
	</g>
	<g id="XMLID_370_">
		<g id="XMLID_437_">
			<path id="XMLID_191_" class="st0" d="M287.5,115c2.3-15.6,4.4-31.2,0.5-46.7c-0.9-3.6-6.4-4.5-8.2-1.1c0.5,0.6,1,1.3,1.5,1.9
				c-0.2,1.2-0.3,2.3-0.5,3.5c0.1-0.3,0.3-0.6,0.4-0.9c-2.7-0.4-5.5-0.7-8.2-1.1c1.6,5,3.3,9.8,5.3,14.6c1.3,3.1,6.4,5,8.2,1.1
				c2.2-4.9,2.8-9.6,1-14.8c-1.3-3.8-7.9-4.7-8.7,0c-0.2,1.4-0.5,2.8-0.7,4.2c-0.9,4.9,5.4,8,8.2,3.5c5.9-9.2,8.5-20,7.1-30.9
				c-0.7-5.6-9.4-5.9-9,0c0.7,11,0.2,22-0.2,33c-0.4,10.6-2,21.3-1.7,31.9c0.2,5.8,9.2,5.8,9,0c-0.4-10.6,1.3-21.3,1.7-31.9
				c0.4-11,0.9-22,0.2-33c-3,0-6,0-9,0c1.2,9.5-0.7,18.3-5.9,26.4c2.7,1.2,5.5,2.3,8.2,3.5c0.2-1.4,0.5-2.8,0.7-4.2
				c-2.9,0-5.8,0-8.7,0c0.9,2.7,1.1,5.2-0.1,7.9c2.7,0.4,5.5,0.7,8.2,1.1c-2-4.8-3.7-9.7-5.3-14.6c-1.1-3.3-6.5-4.8-8.2-1.1
				c-1.7,3.8-0.7,8.1,3.4,9.9c4.5,1.9,8.7-1.4,10.7-5.3c-2.7-0.4-5.5-0.7-8.2-1.1c3.5,13.8,1.5,28-0.5,41.9
				C278,118.3,286.6,120.8,287.5,115L287.5,115z"/>
		</g>
	</g>
	<g id="XMLID_416_">
		<g id="XMLID_431_">
			<path id="XMLID_185_" class="st0" d="M274.8,192.5c2.3,3.7,4.2,7.4,5.6,11.5c0.9,2.6,1,6.1,3.6,7.7c5.1,3.3,9.4-2.6,9.4-7.3
				c0-8.2-1.9-16.8-2.8-25c-0.9-8.3-1.9-16.7-2.8-25c-0.5-4.6-7.7-6.6-8.8-1.2c-1.5,6.9-0.6,13.4,2.9,19.5c1.6,2.7,6.3,3.1,7.8,0
				c1.9-4,2.3-7.6,1.6-11.9c-0.9-5.7-9.6-3.3-8.7,2.4c0.3,1.7,0,3.4-0.7,5c2.6,0,5.2,0,7.8,0c-2.3-4-3-8-2-12.5
				c-2.9-0.4-5.9-0.8-8.8-1.2c1,8.6,1.9,17.3,2.9,25.9c0.5,4.2,0.9,8.3,1.4,12.5c0.2,1.9,0.4,3.8,0.6,5.8c0.1,0.9,0.3,6,1.1,5.6
				c1.2-0.2,2.3-0.3,3.5-0.5c-0.3-0.1-0.5-0.2-0.8-0.3c1,1,2.1,2.1,3.1,3.1c-1.8-6.6-4.4-12.9-8-18.7
				C279.5,183,271.7,187.5,274.8,192.5L274.8,192.5z"/>
		</g>
	</g>
	<g id="XMLID_417_">
		<g id="XMLID_425_">
			<path id="XMLID_179_" class="st0" d="M292.2,190c1.6-13.5,0.2-27.1-4.2-40.1c-1.8-5.5-10.5-3.1-8.7,2.4
				c4.1,12.3,5.4,24.8,3.9,37.7C282.6,195.7,291.6,195.7,292.2,190L292.2,190z"/>
		</g>
	</g>
</g>
<g id="PuertaYperchero">
	<g id="XMLID_957_">
		<path id="XMLID_959_" d="M293.7,255.9c0,0,0.1,0.5,0.2,1.5c0.1,0.9,0.4,2.3,0.6,4.1c0.5,3.5,1,8.6,1.5,14.6
			c0.5,6.1,0.9,13.1,1.2,20.7c0.2,3.8,0.3,7.7,0.3,11.7c0.1,4,0.1,8,0.1,12c0,4,0,8.1-0.1,12c-0.1,4-0.2,7.9-0.3,11.7
			c-0.3,7.6-0.7,14.6-1.2,20.7c-0.3,3-0.5,5.8-0.8,8.3c-0.3,2.5-0.5,4.6-0.8,6.4c-0.2,1.8-0.4,3.2-0.6,4.1c-0.1,0.9-0.2,1.5-0.2,1.5
			s-0.1-0.5-0.2-1.5c-0.1-0.9-0.4-2.3-0.6-4.1c-0.2-1.8-0.5-3.9-0.8-6.4c-0.3-2.5-0.5-5.2-0.8-8.3c-0.5-6.1-0.9-13.1-1.2-20.7
			c-0.1-3.8-0.3-7.7-0.3-11.7c-0.1-4-0.1-8-0.1-12c0-4,0-8.1,0.1-12c0.1-4,0.2-7.9,0.3-11.7c0.3-7.6,0.7-14.6,1.2-20.7
			c0.5-6.1,1.1-11.1,1.5-14.6c0.2-1.8,0.4-3.2,0.6-4.1C293.7,256.4,293.7,255.9,293.7,255.9z"/>
	</g>
	<g id="XMLID_954_">
		<polygon id="XMLID_956_" points="297.7,23.5 293.7,233.8 289.7,23.5 		"/>
	</g>
	<g id="XMLID_951_">
		<polygon id="XMLID_418_" points="292.3,381.3 383,351.3 295.2,388.7 		"/>
	</g>
	<g id="XMLID_948_">
		<polygon id="XMLID_407_" points="294.9,19.7 379.1,49.5 292.6,27.3 		"/>
	</g>
	<g id="XMLID_945_">
		<polygon id="XMLID_397_" points="293.8,47.7 229,44.7 293.7,39.7 		"/>
	</g>
	<g id="XMLID_942_">
		<polygon id="XMLID_944_" points="233,282.2 229,351.3 225,282.2 		"/>
	</g>
	<g id="XMLID_939_">
		<polygon id="XMLID_941_" points="233,44.7 229,90.8 225,44.7 		"/>
	</g>
	<g id="XMLID_936_">
		<polygon id="XMLID_938_" points="266.3,347.3 293.7,351.3 266.3,355.3 		"/>
	</g>
	<g id="XMLID_933_">
		<polygon id="XMLID_935_" points="229,347.3 249.2,351.3 229,355.3 		"/>
	</g>
	<g id="XMLID_930_">
		<path id="XMLID_365_" d="M21,73.7c0,0,8.8-0.4,21.9-0.8c6.6-0.2,14.2-0.5,22.4-0.7c8.2-0.3,17-0.4,25.7-0.6
			c4.4-0.1,8.8-0.3,13.1-0.4c4.3-0.2,8.5-0.3,12.6-0.3c4.1,0,8.1,0.1,11.8,0.2c3.8,0.1,7.3,0.3,10.6,0.5c3.3,0.2,6.3,0.4,9,0.6
			c2.7,0.2,5,0.5,6.9,0.7c3.8,0.4,6,0.8,6,0.8v0.6c0,0-2.2,0.3-6,0.8c-1.9,0.2-4.2,0.4-6.9,0.7c-2.7,0.2-5.7,0.5-9,0.6
			c-3.3,0.2-6.8,0.4-10.6,0.5c-3.8,0.1-7.7,0.2-11.8,0.2c-4.1,0-8.3-0.1-12.6-0.3c-4.3-0.2-8.7-0.3-13.1-0.4
			c-8.8-0.2-17.5-0.4-25.7-0.6c-8.2-0.2-15.9-0.5-22.4-0.7C29.8,74.7,21,74.3,21,74.3V73.7z"/>
	</g>
	<g id="XMLID_927_">
		<path id="XMLID_351_" d="M161.3,74c0,0,0.4,1.7,0.8,4.2c0.2,1.3,0.5,2.7,0.7,4.3c0.3,1.6,0.4,3.3,0.6,5c0.1,0.8,0.3,1.7,0.4,2.5
			c0.2,0.8,0.3,1.6,0.3,2.4c0,1.6-0.3,3.1-0.7,4.3c-0.2,0.6-0.4,1.2-0.7,1.7c-0.2,0.5-0.5,1-0.7,1.3c-0.2,0.4-0.4,0.7-0.5,0.9
			c-0.1,0.2-0.2,0.3-0.2,0.3h-0.6c0,0-0.1-0.1-0.2-0.3c-0.1-0.2-0.3-0.5-0.5-0.9c-0.2-0.4-0.4-0.8-0.7-1.3c-0.2-0.5-0.5-1.1-0.7-1.7
			c-0.4-1.3-0.7-2.7-0.7-4.3c0-0.8,0.2-1.6,0.3-2.4c0.2-0.8,0.3-1.7,0.4-2.5c0.2-1.7,0.4-3.4,0.6-5c0.2-1.6,0.5-3.1,0.7-4.3
			c0.4-2.5,0.8-4.2,0.8-4.2H161.3z"/>
	</g>
	<g id="XMLID_924_">
		<path id="XMLID_926_" d="M120.3,101.3c0,0-6.2,0.4-15.5,0.8c-4.7,0.2-10.1,0.5-15.9,0.7c-5.8,0.3-12,0.4-18.2,0.6
			c-3.1,0.1-6.2,0.3-9.3,0.4c-3.1,0.2-6.1,0.3-9,0.3c-2.9,0-5.7-0.1-8.4-0.2c-2.7-0.1-5.2-0.3-7.5-0.5c-2.3-0.2-4.5-0.4-6.4-0.6
			c-1.9-0.2-3.5-0.5-4.9-0.7c-2.7-0.4-4.3-0.8-4.3-0.8v-0.6c0,0,1.6-0.3,4.3-0.8c1.4-0.2,3-0.4,4.9-0.7c1.9-0.2,4-0.5,6.4-0.6
			c2.3-0.2,4.8-0.4,7.5-0.5c2.7-0.1,5.5-0.2,8.4-0.2c2.9,0,5.9,0.1,9,0.3c3.1,0.2,6.2,0.3,9.3,0.4c6.2,0.2,12.4,0.4,18.2,0.6
			c5.8,0.2,11.2,0.5,15.9,0.7c9.3,0.4,15.5,0.8,15.5,0.8V101.3z"/>
	</g>
	<g id="XMLID_921_">
		<path id="XMLID_923_" d="M161,101.3c0,0-0.2,0.4-0.5,0.8c-0.2,0.2-0.3,0.5-0.5,0.7c-0.2,0.3-0.4,0.4-0.6,0.6
			c-0.2,0.2-0.4,0.7-0.6,0.7c-0.2,0-0.4-0.3-0.5-0.7c-0.1-0.2-0.2-0.4-0.2-0.7c0-0.1-0.1-0.2-0.1-0.3c0-0.1-0.1-0.3-0.1-0.4
			c0-0.2-0.1-0.4-0.1-0.5c0-0.1,0-0.2,0-0.2v-0.6c0,0,0-0.1,0-0.2c0-0.2,0.1-0.3,0.1-0.5c0-0.1,0-0.2,0.1-0.4c0-0.1,0.1-0.2,0.1-0.3
			c0.1-0.2,0.1-0.5,0.2-0.7c0.2-0.4,0.3-0.7,0.5-0.7c0.2,0,0.4,0.6,0.6,0.7c0.2,0.2,0.4,0.4,0.6,0.6c0.2,0.2,0.4,0.5,0.5,0.7
			c0.3,0.4,0.5,0.8,0.5,0.8V101.3z"/>
	</g>
	<g id="XMLID_918_">
		<path id="XMLID_289_" d="M20.7,101c0,0-0.4-1.7-0.8-4.2c-0.2-1.3-0.5-2.7-0.7-4.3c-0.3-1.6-0.4-3.3-0.6-5
			c-0.1-0.8-0.3-1.7-0.4-2.5c-0.2-0.8-0.3-1.6-0.3-2.4c0-1.6,0.3-3.1,0.7-4.3c0.2-0.6,0.4-1.2,0.7-1.7c0.2-0.5,0.5-1,0.7-1.3
			c0.2-0.4,0.4-0.7,0.5-0.9c0.1-0.2,0.2-0.3,0.2-0.3h0.6c0,0,0.1,0.1,0.2,0.3c0.1,0.2,0.3,0.5,0.5,0.9c0.2,0.4,0.4,0.8,0.7,1.3
			c0.2,0.5,0.5,1.1,0.7,1.7c0.4,1.3,0.7,2.7,0.7,4.3c0,0.8-0.2,1.6-0.3,2.4c-0.2,0.8-0.3,1.7-0.4,2.5c-0.2,1.7-0.4,3.4-0.6,5
			c-0.2,1.6-0.5,3.1-0.7,4.3c-0.4,2.5-0.8,4.2-0.8,4.2H20.7z"/>
	</g>
	<g id="XMLID_913_">
		<path id="XMLID_302_" d="M53,87.8c0,0,0.1,0.2,0.1,0.4c0,0.3,0,0.7-0.2,1.3c-0.1,0.5-0.3,1.2-0.6,1.9c-0.3,0.7-0.8,1.5-1.6,2.3
			c-0.8,0.7-1.8,1.4-3,1.7c-0.3,0.1-0.6,0.1-1,0.1c-0.3,0-0.5,0-0.9,0c-0.8,0-1.4-0.2-2.1-0.4c-1.4-0.5-2.7-1.4-3.7-2.7
			c-0.5-0.6-0.9-1.4-1.2-2.1c-0.1-0.4-0.3-0.8-0.3-1.2c0-0.2-0.1-0.4-0.1-0.6l0-0.3l0-0.2l0-0.1l0,0l0,0c0-0.1,0,0.1,0-0.1
			c0-0.3-0.1-0.5,0-1.1c0-0.5,0.1-0.9,0.2-1.3c0.2-0.8,0.5-1.7,0.9-2.4c0.8-1.5,2.1-2.8,3.7-3.5c0.8-0.3,1.6-0.6,2.4-0.6
			c0.4-0.1,0.8,0,1.2,0l0.3,0l0.1,0l0.2,0l0.4,0.1c0.9,0.2,1.6,0.5,2.2,0.9c0.6,0.4,1.1,0.9,1.5,1.3c0.8,1,1.3,2,1.5,2.9
			c0.3,0.9,0.3,1.6,0.4,2.2c0,0.6-0.1,1-0.1,1.3C53.2,87.7,53,87.8,53,87.8L53,87.8z M53,87.8c0,0-0.2-0.1-0.2-0.4
			c0-0.1-0.1-0.3-0.2-0.5c-0.1-0.2-0.2-0.4-0.3-0.6c-0.2-0.4-0.6-0.9-1.2-1.3c-0.6-0.4-1.3-0.6-2-0.6c-0.3,0-0.7,0-1,0
			c-0.3,0-0.7,0.1-0.8,0.1l-0.3,0l-0.2,0l-0.1,0c-0.1,0,0.2,0,0.1,0l0,0l0,0l0,0c-0.1,0-0.3,0.1-0.4,0.1c-0.3,0.1-0.5,0.2-0.8,0.3
			c-0.5,0.2-1.1,0.5-1.6,0.9c-0.2,0.2-0.5,0.5-0.6,0.8c-0.1,0.2-0.2,0.3-0.2,0.4c-0.1,0-0.1,0.5-0.2,0.7c0-0.2,0-0.1,0-0.1v0l0,0
			l0,0l0,0.1l0,0.1c0,0.1,0,0.2,0,0.3c0,0.2,0,0.4,0,0.6c0.1,0.4,0.2,0.8,0.4,1.1c0.4,0.7,0.9,1.3,1.6,1.8c0.3,0.2,0.8,0.4,1.1,0.5
			c0.1,0.1,0.4,0.1,0.7,0.1c0.1,0,0.4,0.1,0.6,0.1c0.8,0,1.6,0,2.4-0.3c0.8-0.3,1.4-0.7,1.9-1.2c0.5-0.5,0.7-1.1,0.9-1.6
			c0.1-0.2,0.1-0.5,0.1-0.7c0-0.2,0.2-0.4,0.2-0.5C52.9,88,53,87.8,53,87.8L53,87.8z"/>
	</g>
	<g id="XMLID_908_">
		<path id="XMLID_293_" d="M96,87.8c0,0,0.1,0.2,0.1,0.4c0,0.3,0,0.7-0.2,1.3c-0.1,0.5-0.3,1.2-0.6,1.9c-0.3,0.7-0.8,1.5-1.6,2.3
			c-0.8,0.7-1.8,1.4-3,1.7c-0.3,0.1-0.6,0.1-1,0.1c-0.3,0-0.5,0-0.9,0c-0.8,0-1.4-0.2-2.1-0.4c-1.4-0.5-2.7-1.4-3.7-2.7
			c-0.5-0.6-0.9-1.4-1.2-2.1c-0.1-0.4-0.3-0.8-0.3-1.2c0-0.2-0.1-0.4-0.1-0.6l0-0.3l0-0.2l0-0.1l0,0l0,0c0-0.1,0,0.1,0-0.1
			c0-0.3-0.1-0.5,0-1.1c0-0.5,0.1-0.9,0.2-1.3c0.2-0.8,0.5-1.7,0.9-2.4c0.8-1.5,2.1-2.8,3.7-3.5c0.8-0.3,1.6-0.6,2.4-0.6
			c0.4-0.1,0.8,0,1.2,0l0.3,0l0.1,0l0.2,0l0.4,0.1c0.9,0.2,1.6,0.5,2.2,0.9c0.6,0.4,1.1,0.9,1.5,1.3c0.8,1,1.3,2,1.5,2.9
			c0.3,0.9,0.3,1.6,0.4,2.2c0,0.6-0.1,1-0.1,1.3C96.2,87.7,96,87.8,96,87.8L96,87.8z M96,87.8c0,0-0.2-0.1-0.2-0.4
			c0-0.1-0.1-0.3-0.2-0.5c-0.1-0.2-0.2-0.4-0.3-0.6c-0.2-0.4-0.6-0.9-1.2-1.3c-0.6-0.4-1.3-0.6-2-0.6c-0.3,0-0.7,0-1,0
			c-0.3,0-0.7,0.1-0.8,0.1l-0.3,0l-0.2,0l-0.1,0c-0.1,0,0.2,0,0.1,0l0,0l0,0l0,0c-0.1,0-0.3,0.1-0.4,0.1c-0.3,0.1-0.5,0.2-0.8,0.3
			c-0.5,0.2-1.1,0.5-1.6,0.9c-0.2,0.2-0.5,0.5-0.6,0.8c-0.1,0.2-0.2,0.3-0.2,0.4c-0.1,0-0.1,0.5-0.2,0.7c0-0.2,0-0.1,0-0.1v0l0,0
			l0,0l0,0.1l0,0.1c0,0.1,0,0.2,0,0.3c0,0.2,0,0.4,0,0.6c0.1,0.4,0.2,0.8,0.4,1.1c0.4,0.7,0.9,1.3,1.6,1.8c0.3,0.2,0.8,0.4,1.1,0.5
			c0.1,0.1,0.4,0.1,0.7,0.1c0.1,0,0.4,0.1,0.6,0.1c0.8,0,1.6,0,2.4-0.3c0.8-0.3,1.4-0.7,1.9-1.2c0.5-0.5,0.7-1.1,0.9-1.6
			c0.1-0.2,0.1-0.5,0.1-0.7c0-0.2,0.2-0.4,0.2-0.5C95.9,88,96,87.8,96,87.8L96,87.8z"/>
	</g>
	<g id="XMLID_905_">
		<path id="XMLID_242_" d="M324.2,234.7l0.1,0.1C324.4,234.8,324.3,234.7,324.2,234.7l-0.2-0.1c-0.1-0.1-0.3-0.2-0.5-0.2
			c-0.3-0.1-0.7-0.2-1-0.2c-0.4,0-0.7,0-1,0.1c-0.3,0-0.6,0.1-0.8,0.2c-0.3,0.1-0.5,0.3-0.8,0.5c-0.2,0.2-0.5,0.4-0.5,0.5
			c-0.2,0.2-0.3,0.4-0.4,0.6c-0.1,0.1-0.1,0.2-0.2,0.3l-0.1,0.2c0,0.1-0.1,0.1-0.1,0.2c0,0.1,0,0.2-0.1,0.2l0,0.1c0,0,0,0.1,0,0.1
			c0,0,0,0,0,0c0-0.1,0-0.2,0-0.3l0-0.4c0-0.6,0-1.3-0.1-2c0-0.7-0.1-1.4-0.2-2l-0.1-0.4l-0.1-0.4c0-0.1,0-0.1,0-0.1
			c0,0,0,0.1,0.1,0.1c0.1,0.1,0.2,0.3,0.3,0.4c0,0,0.2,0.2,0.3,0.3c0.1,0.1,0.3,0.3,0.5,0.4c0.2,0.1,0.3,0.2,0.5,0.3
			c0.4,0.2,0.9,0.3,1.4,0.2c0.5,0,1-0.2,1.4-0.4c0.2-0.1,0.4-0.2,0.5-0.4c0.2-0.1,0.3-0.3,0.5-0.5c0.1-0.2,0.3-0.4,0.3-0.4
			c0.1-0.2,0.2-0.4,0.2-0.5l-3.7-4.4c2.3-0.2,4.6-0.3,6.9-0.4c2.3-0.1,4.6-0.2,6.8-0.3c4.6-0.1,9.1-0.2,13.6-0.2
			c4.5,0,9-0.1,13.6-0.2c2.3-0.1,4.5-0.2,6.8-0.3c2.3-0.1,4.5-0.3,6.8-0.4c-2.2,0.4-4.4,0.9-6.7,1.3c-2.2,0.4-4.5,0.8-6.7,1.1
			c-4.5,0.7-9,1.3-13.5,1.9c-4.5,0.6-9,1.2-13.4,1.9c-2.2,0.3-4.4,0.7-6.6,1.1c-2.2,0.4-4.4,0.8-6.6,1.3l-5.5,1.1l1.7-5.5
			c0.1-0.3,0.2-0.5,0.3-0.8c0,0,0.2-0.3,0.3-0.5c0.2-0.2,0.3-0.4,0.5-0.5c0.2-0.2,0.4-0.3,0.6-0.4c0.4-0.2,0.9-0.4,1.4-0.4
			c0.6,0,1.1,0.1,1.5,0.2c0.2,0.1,0.4,0.2,0.6,0.3c0.2,0.1,0.4,0.3,0.5,0.4c0.2,0.1,0.4,0.4,0.4,0.4c0.2,0.2,0.4,0.5,0.5,0.7
			c0.1,0.2,0.3,0.5,0.3,0.7c0.1,0.2,0.1,0.3,0.2,0.5c0.1,0.3,0.2,0.5,0.2,0.7l0.2,0.7c0.2,0.9,0.4,1.7,0.6,2.5
			c0.2,0.8,0.3,1.7,0.4,2.6l0.1,0.7c0,0.3,0,0.5,0,0.9c0,0.2,0,0.4,0,0.6l-0.1,0.4l0,0.2l-0.1,0.4l-0.1,0.4c0,0.1,0,0.1-0.1,0.2
			c-0.1,0.1-0.1,0.3-0.2,0.4c-0.1,0.2-0.3,0.5-0.5,0.7c0,0.1-0.3,0.3-0.6,0.5c-0.3,0.2-0.5,0.4-0.8,0.5c-0.3,0.1-0.6,0.2-0.9,0.3
			c-0.3,0.1-0.7,0.1-1.1,0c-0.4,0-0.8-0.1-1.1-0.2c-0.2-0.1-0.3-0.1-0.5-0.2l-0.2-0.1l-0.1-0.1l-0.1-0.1L324.2,234.7z"/>
	</g>
	<g id="XMLID_902_">
		<path id="XMLID_233_" d="M324,255.7c0,0,0.8-0.3,2.3-0.9c1.4-0.6,3.6-1.4,6.1-2.3c1.3-0.5,2.6-0.9,4.1-1.4c1.5-0.5,3-1,4.6-1.5
			c3.2-1,6.6-2,10.1-3c3.5-0.9,6.9-1.8,10.2-2.5c1.6-0.4,3.2-0.7,4.7-1c1.5-0.3,2.9-0.6,4.2-0.8c2.6-0.5,4.8-0.9,6.3-1.1
			c1.5-0.2,2.4-0.4,2.4-0.4s-0.8,0.3-2.3,0.7c-1.5,0.5-3.6,1.1-6.1,2c-1.3,0.4-2.6,0.9-4,1.4c-1.4,0.5-2.9,1.1-4.5,1.6
			c-3.1,1.2-6.4,2.5-9.6,3.9c-3.2,1.4-6.4,2.9-9.4,4.3c-1.5,0.7-2.9,1.4-4.2,2.1c-1.3,0.7-2.6,1.3-3.8,1.9c-2.3,1.2-4.2,2.3-5.5,3
			c-1.3,0.8-2.1,1.2-2.1,1.2L324,255.7z"/>
	</g>
</g>
<g id="Capa_7">
	<g id="XMLID_299_">
		<g id="XMLID_263_">
			<path id="XMLID_173_" class="st1" d="M127.8,186c0.7-10.7,2-21.3,3.8-31.9c0.9-5,1.9-10,3-14.9c0.8-3.6,2.4-7.2-0.5-10.2
				c-1.3-1.4-3.8-1.7-5.5-0.7c-1.7,1-2.5,2.5-2.5,4.5c0,1.9,1.4,3.9,3.3,4.3c0.1,0,0.2,0,0.3,0.1c5.6,1.4,8-7.3,2.4-8.7
				c-0.1,0-0.2,0-0.3-0.1c1.1,1.4,2.2,2.9,3.3,4.3c0-0.1,0-0.3,0-0.4c-0.7,1.3-1.5,2.6-2.2,3.9c0.1-0.1,0.2-0.1,0.3-0.2
				c-1.8-0.2-3.6-0.5-5.5-0.7c0.1,0.2,0.3,0.3,0.4,0.5c-0.4-1.1-0.9-2.1-1.3-3.2c0,4-1.9,8.6-2.7,12.6c-0.9,4.7-1.7,9.4-2.4,14.1
				c-1.3,8.9-2.3,17.8-2.9,26.8C118.4,191.8,127.4,191.8,127.8,186L127.8,186z"/>
		</g>
	</g>
	<g id="XMLID_301_">
		<g id="XMLID_243_">
			<path id="XMLID_167_" class="st1" d="M152.7,197.7c-2.3-11.1-3.8-22.4-4.5-33.7c-0.3-5.8-9.4-5.8-9,0c0.7,12.1,2.3,24.2,4.8,36.1
				C145.2,205.8,153.9,203.4,152.7,197.7L152.7,197.7z"/>
		</g>
	</g>
	<g id="XMLID_307_">
		<g id="XMLID_237_">
			<path id="XMLID_161_" class="st1" d="M113.9,265.1c2.2-6.6,4.5-13.2,6.7-19.8c1.9-5.5-6.8-7.9-8.7-2.4
				c-2.2,6.6-4.5,13.2-6.7,19.8C103.4,268.2,112.1,270.5,113.9,265.1L113.9,265.1z"/>
		</g>
	</g>
</g>
<g id="Guardapolvos">
	<g id="XMLID_878_">
		<path id="XMLID_880_" d="M171.6,142.7c0.6,1.4,1.1,2.9,1.5,4.4c0.5,1.5,0.9,3,1.3,4.4c0.4,1.5,0.7,3,1.1,4.5
			c0.3,1.5,0.6,3,0.9,4.5c0.6,3,1,6.1,1.3,9.2c0.3,3.1,0.6,6.1,0.7,9.2c0.1,1.5,0.1,3,0.2,4.6c0,1.5,0.1,3,0.1,4.5l0.1,4.5
			c0,1.5,0.1,3,0.1,4.5c0.1,1.5,0.2,3,0.3,4.5c0.2,1.5,0.4,2.9,0.6,4.4l0.5,2.2c0.2,0.7,0.4,1.4,0.6,2.1l0.7,2.1l0.9,2.1l-1.4-0.4
			c2.1-1.3,4.1-2.7,6.1-4.2l1.7-1.2l-0.2,2.1l-0.1,0.6c0,0.2,0,0.4,0,0.6c0,0.4,0,0.8,0.1,1.2c0.1,0.4,0.2,0.8,0.3,1.2
			c0.1,0.4,0.3,0.8,0.4,1.3c0.1,0.4,0.3,0.9,0.4,1.4c0.1,0.5,0.3,1,0.3,1.6c0,0.3,0.1,0.6,0,0.9l-0.1,0.5c-0.1,0.2-0.1,0.3-0.2,0.5
			c-0.1,0.3-0.3,0.6-0.6,0.9c-0.2,0.3-0.5,0.5-0.7,0.7l0.2-0.2c-2.1,2.3-4.3,4.5-7.1,6.2c-0.4,0.2-0.7,0.4-1.1,0.6
			c-0.4,0.2-0.7,0.4-1.1,0.5c-0.4,0.2-0.8,0.3-1.2,0.4c-0.4,0.1-0.8,0.3-1.2,0.4c-0.4,0.1-0.8,0.2-1.3,0.3c-0.4,0.1-0.9,0.1-1.3,0.1
			c-0.4,0-0.9,0-1.3,0l-1.3-0.1l2.7-2.8c0.4,1.7,0.8,3.3,1.3,4.9c0.2,0.8,0.5,1.6,0.8,2.3c0.1,0.3,0.3,0.7,0.4,0.8l0,0c0,0,0,0,0,0
			c0,0-0.1-0.1-0.1-0.1l-0.1-0.1c-0.1-0.1-0.1-0.1-0.2-0.2c-0.1-0.1-0.3-0.2-0.4-0.3c-0.2-0.1-0.6-0.2-0.9-0.2c-0.3,0-0.8,0-1.2,0.2
			c-0.3,0.1-0.6,0.3-0.8,0.5c-0.1,0.1-0.2,0.2-0.3,0.4c-0.1,0.1-0.1,0.1-0.1,0.2l-0.1,0.2c0,0,0,0.1,0,0.1c-0.1,0.2,0,0.1,0,0
			c0-0.1,0-0.3,0-0.4c0-0.3,0-0.7-0.1-1c-0.1-0.7-0.2-1.4-0.4-2.1c-0.2-0.7-0.4-1.3-0.7-1.7c-0.1-0.2-0.2-0.3-0.1-0.2
			c0.1,0.1,0.2,0.1,0.4,0.2c0.2,0.1,0.5,0.1,0.7,0.1l2.7-3.6c0.6,2.7,1.1,5.4,1.6,8.1l0.7,4.1l0.6,4.1l0.5,4.1l0.3,4.1
			c0.2,2.7,0.3,5.5,0.4,8.2c0,1.4,0.1,2.7,0.1,4.1l0,4.1c0,1.4-0.1,2.7-0.1,4.1l-0.2,4.1c-0.2,2.7-0.4,5.5-0.7,8.2
			c-0.2,1.4-0.3,2.7-0.5,4.1c-0.2,1.4-0.4,2.7-0.6,4l-0.6,0c-0.1-1.4-0.2-2.7-0.3-4.1c-0.1-1.4-0.2-2.7-0.3-4.1l-0.6-8.1l-0.3-4
			c-0.1-1.3-0.3-2.7-0.4-4l-0.8-8l-0.5-4l-0.5-4l-1.1-8l-1.2-7.9c-0.2-1.3-0.4-2.6-0.6-4l-0.7-4l-0.6-3.4l3.3-0.3c0.6,0,1.3,0,2,0.3
			c0.6,0.2,1.1,0.6,1.5,0.9c0.7,0.7,1.1,1.3,1.5,1.9c0.6,1.2,0.9,2.2,1.1,3.2c0.2,1,0.3,2,0.4,3c0,0.5,0,1,0,1.6
			c0,0.3,0,0.6-0.1,0.9c0,0.3-0.1,0.7-0.3,1.2l-0.1,0.3c0,0.1-0.1,0.2-0.1,0.3c-0.1,0.1-0.1,0.2-0.2,0.4c-0.1,0.2-0.3,0.4-0.5,0.5
			c-0.2,0.2-0.6,0.4-0.9,0.6c-0.4,0.2-0.9,0.2-1.3,0.2c-0.3,0-0.8-0.1-1-0.3c-0.2-0.1-0.4-0.2-0.6-0.3c-0.2-0.1-0.2-0.2-0.3-0.3
			c-0.1-0.1-0.2-0.2-0.2-0.2c-0.1-0.1-0.2-0.3-0.3-0.4l-0.2-0.3l-0.1-0.2c-0.3-0.6-0.5-1.1-0.6-1.6c-0.3-1-0.5-1.8-0.7-2.7
			c-0.4-1.8-0.7-3.5-0.9-5.3l-0.5-3.3l3.1,0.5l0.9,0.1c0.3,0,0.6,0,0.9,0.1c0.3,0,0.6,0,0.9,0c0.3,0,0.6,0,0.9-0.1
			c0.3,0,0.6-0.1,1-0.1c0.3,0,0.6-0.1,0.9-0.2c0.3-0.1,0.6-0.2,0.9-0.3c0.3-0.1,0.6-0.2,0.9-0.4c2.5-1.1,4.8-2.8,7-4.8l0.2-0.2
			c0.1-0.1,0.2-0.1,0.3-0.2c0.1-0.1,0.2-0.1,0.2-0.2c0,0,0.1-0.1,0.1-0.1c0-0.1,0-0.1,0-0.2c0.1-0.1,0-0.3,0.1-0.4
			c0-0.3-0.1-0.7-0.2-1.2c-0.1-0.4-0.2-0.8-0.3-1.3c-0.2-0.9-0.5-1.8-0.6-2.8c-0.1-0.5-0.1-1-0.1-1.5c0-0.3,0-0.5,0-0.8l0.1-0.8
			l1.4,0.9c-2,1.4-4.1,2.8-6,4.2l-0.9,0.7l-0.5-1l-1.1-2.1l-1-2.1l-0.9-2.2l-0.8-2.2l-0.7-2.2l-0.6-2.3c-0.4-1.5-0.7-3-1.1-4.6
			c-0.3-1.5-0.5-3.1-0.8-4.6c-0.2-1.5-0.4-3.1-0.5-4.6c-0.2-3.1-0.3-6.1-0.4-9.2c-0.1-6-0.4-12-0.7-18.1l-0.3-4.5l-0.3-4.5l-0.7-9.1
			L171.6,142.7z"/>
	</g>
	<g id="XMLID_875_">
		<path id="XMLID_877_" d="M178.8,290.4c-0.6,1-1.3,2.1-2.3,3c-1,0.9-2,1.6-3.2,2.1c-2.4,1.1-5,1.5-7.7,1.2c-1.3-0.1-2.6-0.5-3.9-1
			c-0.6-0.3-1.2-0.6-1.8-1l-0.4-0.3c-0.1-0.1-0.1-0.1-0.3-0.2l-0.2-0.1l-0.7-0.6c-2.1-1.8-3.6-3.8-5.1-5.7c-1.5-1.9-3-3.6-4.7-4.7
			c-0.9-0.6-1.7-1-2.7-1.2l-0.9-0.2l-0.7-0.1c-0.4-0.1-1-0.1-1.5-0.1c-2,0-4,0.6-5.9,1.5c-2,1-3.9,2.3-5.8,3.7
			c-1.9,1.4-3.9,2.9-6.1,4.3c-2.2,1.4-4.6,2.7-7.5,3.3c-2.9,0.6-6.1,0.2-8.7-1.1c-0.7-0.3-1.3-0.6-1.9-1c-0.6-0.4-1.2-0.7-1.7-1.2
			l-0.8-0.6l-0.1-0.1l-0.1-0.1l-0.2-0.2l-0.3-0.3c-0.5-0.4-1-1-1.5-1.4c-1.8-1.9-3.3-3.8-4.9-5.4c-1.6-1.7-3.2-3-5.1-3.9
			c-0.8-0.4-1.9-0.7-3-0.9c-1.1-0.2-2.2-0.3-3.3-0.3c-2.3,0-4.6,0.3-7,0.6l-3,0.4l1.5-2.6c1.5-2.7,3.1-5.4,4.5-8.2
			c1.5-2.8,2.8-5.6,4.2-8.4c1.3-2.9,2.6-5.7,3.8-8.6c1.2-2.9,2.3-5.8,3.4-8.7c1-3,2.1-5.9,3-8.9c0.9-3,1.8-6,2.6-9
			c0.8-3,1.6-6.1,2.2-9.1c0.7-3,1.3-6.1,1.9-9.2c0.5-3.1,1.1-6.1,1.6-9.2c0.5-3.1,0.9-6.2,1.4-9.2l0.6-4.6l0.3-2.4l0.3-2.3
			c0.4-3.1,0.7-6.1,1-9.2c0.5-6.2,0.9-12.4,1.3-18.7c0.3-6.3,0.9-12.6,1.6-18.9l0-0.1l0-0.2c0.5-2.3,0.9-4.6,1.3-7l1.1-7.3
			c0.4-2.5,0.8-5,1.4-7.5c0.3-1.2,0.7-2.5,1-3.7l0.3-0.9l0.2-0.5l0.1-0.2l0.1-0.2l0-0.1l0.7-1.7c0.4-1.1,0.9-2.2,1.3-3.3l1.3-3.4
			c0.8-2.3,1.7-4.6,2.6-7c0.9-2.3,1.9-4.7,3.1-6.9c0.6-1.1,1.2-2.3,1.9-3.4c0.7-1.1,1.4-2.2,2.1-3.2l0.7-1l1,0.1l2.4,0.2
			c0.8,0.1,1.6,0.3,2.4,0.5c0.8,0.2,1.5,0.5,2.3,0.8c0.7,0.3,1.4,0.7,2.2,1.1c0.7,0.4,1.3,0.9,2,1.3c0.6,0.5,1.2,1,1.8,1.5
			c0.6,0.5,1.1,1.1,1.7,1.6c0.5,0.6,1,1.2,1.5,1.7c0.5,0.6,0.9,1.2,1.4,1.8c0.4,0.6,0.8,1.3,1.2,1.9c0.8,1.3,1.5,2.6,2.2,3.9
			c0.7,1.3,1.3,2.7,1.9,4c0.6,1.4,1.1,2.7,1.6,4.1l-0.5,0.2c-0.7-1.3-1.4-2.6-2.1-3.8c-0.7-1.3-1.5-2.5-2.3-3.7
			c-0.8-1.2-1.6-2.4-2.5-3.5c-0.5-0.6-0.9-1.1-1.4-1.7c-0.5-0.5-1-1.1-1.4-1.6c-0.5-0.5-1-1-1.5-1.4c-0.5-0.4-1.1-0.9-1.6-1.3
			c-0.6-0.4-1.1-0.8-1.7-1.1c-0.6-0.3-1.2-0.7-1.8-0.9c-0.6-0.2-1.2-0.5-1.9-0.7c-0.6-0.2-1.3-0.4-1.9-0.5c-0.7-0.1-1.3-0.2-1.9-0.3
			l-2,0l1.7-0.9c-0.6,1-1.2,2-1.7,3.1c-0.5,1.1-1,2.1-1.5,3.2c-1,2.2-1.8,4.4-2.5,6.7c-0.8,2.3-1.5,4.6-2.2,7l-1.1,3.5
			c-0.4,1.2-0.8,2.4-1.2,3.6l-0.6,1.7l-0.4,1.5c-0.3,1.1-0.6,2.3-0.8,3.4c-0.5,2.3-0.8,4.6-1.2,7l-0.9,7.3c-0.2,1.2-0.3,2.5-0.5,3.7
			c-0.2,1.3-0.5,2.5-0.7,3.8l0.1-0.3c-0.4,3.1-0.7,6.2-0.9,9.3l-0.8,9.3c-0.5,6.2-1,12.5-1.8,18.8c-0.4,3.1-0.8,6.3-1.3,9.5
			l-1.6,9.3l-0.9,4.7c-0.3,1.6-0.7,3.1-1,4.6c-0.6,3.1-1.5,6.2-2.3,9.2c-0.8,3-1.7,6.1-2.6,9.1c-0.9,3-1.9,6-2.9,9c-1,3-2,6-3.1,8.9
			c-1,3-2.2,5.9-3.3,8.9c-1.2,2.9-2.3,5.9-3.5,8.8c-1.2,2.9-2.4,5.8-3.7,8.7c-1.3,2.9-2.5,5.8-3.9,8.6c-1.3,2.9-2.7,5.7-4,8.6
			l-1.6-2.2c2.4-0.5,4.8-1.1,7.4-1.3c2.6-0.2,5.3-0.1,8.1,0.9c0.4,0.1,0.6,0.2,0.9,0.4l0.2,0.1l0.1,0l0.2,0.1l0.5,0.2
			c0.6,0.3,1.2,0.7,1.8,1.1c1.1,0.8,2.2,1.6,3.1,2.5c1.9,1.8,3.5,3.6,5.2,5.2c0.4,0.4,0.8,0.7,1.2,1.1l0.4,0.3l0.2,0.1
			c0,0,0.1,0.1,0,0l0.1,0.1l0.7,0.5c0.2,0.1,0.4,0.3,0.7,0.5l0.7,0.4c0.4,0.3,0.9,0.5,1.3,0.7c1.8,0.8,3.7,1,5.5,0.6
			c1.9-0.4,3.9-1.3,5.8-2.5c1.9-1.2,3.9-2.6,5.9-4c2-1.4,4.2-2.8,6.7-3.9c2.4-1.1,5.3-1.8,8.2-1.7c0.7,0.1,1.4,0.1,2.2,0.3l1.1,0.3
			l0.9,0.3c1.4,0.4,2.7,1.2,3.8,2c2.3,1.7,3.9,3.9,5.3,5.9c0.7,1,1.4,2,2.1,3c0.7,0.9,1.4,1.9,2.1,2.6l0.7,0.6l0.2,0.2
			c0,0,0.1,0.1,0.1,0.1l0.3,0.2c0.4,0.3,0.9,0.6,1.3,0.9c0.9,0.5,2,0.9,3.1,1.1c1.1,0.2,2.2,0.4,3.3,0.3c1.1,0,2.3-0.2,3.4-0.6
			c1.1-0.3,2.1-0.9,3.1-1.5c1-0.7,1.7-1.5,2.5-2.5L178.8,290.4z"/>
	</g>
	<g id="XMLID_872_">
		<path id="XMLID_228_" d="M171.6,230.1c0,0-0.1-0.7-0.3-1.9c-0.1-0.6-0.2-1.3-0.3-2.1c-0.1-0.4-0.1-0.8-0.2-1.3
			c-0.1-0.5-0.2-0.9-0.3-1.4c-0.1-1-0.4-2.1-0.6-3.2c-0.2-1.1-0.5-2.3-0.7-3.5c-0.5-2.4-1.1-5-1.7-7.6c-0.3-1.3-0.6-2.6-0.8-3.9
			c-0.3-1.3-0.5-2.6-0.7-3.9c-0.4-2.5-0.7-4.9-0.7-7c-0.1-2.1,0-3.8,0.1-5.1c0.1-1.2,0.2-1.9,0.2-1.9s0.3,0.7,0.7,1.8
			c0.2,0.6,0.5,1.2,0.8,2c0.3,0.8,0.6,1.7,1,2.6c0.7,1.9,1.5,4.2,2.2,6.6c0.4,1.2,0.8,2.5,1.1,3.8c0.4,1.3,0.7,2.6,1,4
			c0.3,1.4,0.5,2.7,0.7,4.1c0.2,1.4,0.3,2.7,0.4,4c0.1,1.3,0.1,2.6,0.1,3.8c0,1.2-0.1,2.4-0.3,3.4c-0.1,0.5-0.1,1-0.2,1.5
			c-0.1,0.5-0.2,0.9-0.3,1.4c-0.2,0.9-0.4,1.6-0.6,2.1C171.9,229.4,171.6,230.1,171.6,230.1z"/>
	</g>
	<g id="XMLID_869_">
		<path id="XMLID_225_" d="M155.4,235.2c0.3,0.9,0.5,1.7,0.7,2.6c0.2,0.9,0.3,1.8,0.4,2.6c0.1,0.9,0.1,1.8,0.2,2.7
			c0,0.9,0,1.8,0,2.7c-0.1,0.9-0.1,1.8-0.2,2.6c-0.1,0.9-0.2,1.8-0.4,2.6c-0.3,1.7-0.8,3.5-1.3,5.1l-2.5-3.2c2.7-0.1,5.5,0,8.2,0.2
			c1.4,0.1,2.8,0.3,4.1,0.5c1.4,0.2,2.8,0.5,4.2,0.9c-1.3,0.6-2.7,1-4,1.3c-1.3,0.4-2.7,0.7-4.1,0.9c-2.7,0.5-5.4,0.9-8.2,1.1
			l-3.5,0.3l1-3.5l1.3-4.8l1.3-4.8l0.7-2.4c0.2-0.8,0.4-1.6,0.7-2.5c0.2-0.8,0.5-1.7,0.7-2.5C154.8,236.9,155.1,236.1,155.4,235.2z"
			/>
	</g>
	<g id="XMLID_866_">
		<path id="XMLID_223_" d="M97.5,216c1.3,0.6,2.5,1.2,3.8,1.6c1.3,0.4,2.6,0.8,3.9,1.1c2.6,0.6,5.3,1,8,1.4c2.7,0.4,5.5,0.8,8.2,1.3
			l4.1,0.6c1.4,0.2,2.7,0.4,4,0.6c1.3,0.2,2.7,0.3,4,0.5c1.3,0.1,2.7,0.3,4,0.3c1.3,0.1,2.7,0.1,4,0.2c1.3,0,2.7,0,4,0
			c5.4-0.2,10.7-1,16-2.8l1.6-0.6l-1.3,1c-0.4,0.4-0.9,0.7-1.3,1c0.3-0.5,0.6-1,0.9-1.4l0.4,0.5c-1.1,0.8-2.3,1.6-3.6,2.3
			c-1.3,0.7-2.6,1.3-3.9,1.8c-2.7,1-5.5,1.8-8.3,2.2c-1.4,0.2-2.9,0.4-4.3,0.5c-1.5,0.1-2.9,0.1-4.3,0.1c-2.9,0-5.7-0.3-8.5-0.7
			c-2.8-0.4-5.6-0.9-8.3-1.5c-2.7-0.6-5.4-1.3-8.1-2.1c-2.7-0.8-5.4-1.7-8-3c-1.3-0.7-2.6-1.3-3.7-2.2C99.5,218,98.4,217.1,97.5,216
			z"/>
	</g>
	<g id="XMLID_863_">
		<path id="XMLID_205_" d="M104.4,207.1c0,0-0.1,0.2-0.2,0.6c0,0.4,0.1,1,0.5,1.5c0.2,0.3,0.5,0.5,0.9,0.7c0.3,0.2,0.8,0.3,1.2,0.5
			c1,0.2,2.2,0.3,3.6,0.5c1.4,0.2,2.8,0.3,4.3,0.5c1.5,0.1,3.1,0.3,4.8,0.4c1.7,0.1,3.4,0.2,5.1,0.3c0.9,0,1.8,0,2.6,0.1
			c0.9,0,1.8,0,2.7,0c7.1,0.1,14.2-0.5,19.6-1.1c1.3-0.2,2.6-0.3,3.7-0.4c1.1-0.2,2.1-0.2,2.9-0.4c1.6-0.2,2.5-0.3,2.5-0.3
			s-0.8,0.5-2.2,1.2c-0.7,0.4-1.6,0.8-2.7,1.3c-1,0.5-2.2,0.9-3.6,1.4c-1.3,0.4-2.8,0.9-4.3,1.3c-0.8,0.2-1.6,0.4-2.4,0.6
			c-0.8,0.2-1.7,0.3-2.5,0.5c-0.9,0.2-1.8,0.3-2.6,0.4c-0.4,0.1-0.9,0.1-1.4,0.2c-0.5,0-0.9,0.1-1.4,0.1c-1.8,0.2-3.7,0.2-5.6,0.2
			c-0.9,0-1.9-0.1-2.8-0.1c-0.9-0.1-1.9-0.1-2.8-0.2c-0.9-0.1-1.8-0.2-2.7-0.3c-0.9-0.1-1.8-0.3-2.6-0.4c-1.7-0.3-3.4-0.7-4.9-1.1
			c-1.6-0.5-3-0.9-4.3-1.4c-1.3-0.5-2.5-0.9-3.6-1.6c-0.5-0.3-1-0.7-1.4-1.1c-0.4-0.4-0.7-0.9-0.8-1.3c-0.3-0.9-0.1-1.7,0.1-2.1
			C104.2,207.2,104.4,207.1,104.4,207.1z"/>
	</g>
	<g id="XMLID_860_">
		<path id="XMLID_203_" d="M155.8,215.7c0,0,0-0.1,0-0.2c-0.1-0.1-0.2-0.1-0.4-0.1c-0.1,0-0.1,0.1-0.1,0.2l0,0c0,0,0,0,0,0l0,0
			l-0.1,0c0,0,0,0,0,0.1l0,0.1c0,0.2,0,0.4-0.2,0.8c-0.2,0.3-0.3,0.7-0.4,1c-0.1,0.3-0.1,0.5,0,0.6c0.1,0,0.2-0.2,0.2-0.3
			c0-0.1-0.1-0.4-0.6-0.6c-0.2-0.1-0.5-0.3-0.6-0.2c-0.1,0-0.1-0.1-0.1-0.1h0h0h0c0.1,0-0.2,0.3-0.1,0.3l0,0.1l0,0l0.1-0.1l0.1-0.1
			c0,0,0,0,0,0c0,0.1,0.1,0,0.1,0c0.1,0,0.3-0.2,0.4-0.3c0.1-0.2,0.3-0.4,0.4-0.6c0.1-0.2,0.2-0.5,0.2-0.7c0-0.3,0.1-0.5,0-0.7
			c0-0.2-0.1-0.4-0.1-0.5c0-0.1-0.1-0.2-0.1-0.2c0,0,0.3-0.1,0.9,0.1c0.5,0.1,1.3,0.6,1.9,1.5c0.5,0.9,0.8,2.3,0.2,3.8
			c-0.2,0.4-0.3,0.7-0.7,1.1l-0.4,0.4l-0.1,0.1l0,0l-0.2,0.1l-0.1,0.1c-0.4,0.2-0.8,0.5-1.4,0.6c-0.6,0.1-1.3,0.2-2-0.1
			c-1.4-0.5-2.2-1.6-2.5-2.6c-0.3-1-0.2-2.2,0.3-3c0.4-0.8,0.9-1.2,1.4-1.5c0.5-0.3,0.9-0.5,1.3-0.6c0.4-0.1,0.8-0.3,1.4-0.3
			c0.1,0,0.3,0,0.4,0c0.1,0,0.2,0,0.2,0l0,0l0,0c0.1,0,0,0,0.1,0l0.1,0c0.3,0.1,0.5,0.4,0.5,0.5c0.2,0.4,0,0.7-0.1,0.8
			C155.9,215.7,155.8,215.7,155.8,215.7z"/>
	</g>
	<g id="XMLID_857_">
		<path id="XMLID_201_" d="M116.6,216.4c-0.1,0.2-0.2,0.5-0.3,0.7c-0.1,0.2-0.1,0.5-0.2,0.6c-0.1,0.4-0.1,0.8-0.1,1.1
			c0,0.3,0.1,0.6,0.1,0.8c0,0.1,0.1,0.2,0.1,0.3c0,0.1,0.1,0.2,0.1,0.2l-1.1-1.7c0-0.1-0.1-0.1-0.1-0.1c0,0-0.1-0.1-0.1-0.1
			c-0.1,0-0.1,0-0.1-0.1c0,0,0.2-0.1,0.2-0.1l0,0l0,0l0,0c0,0,0-0.1,0,0.1l0,0l0,0l0-0.1l0.1-0.1c0-0.1,0,0,0,0c0,0,0.1-0.1,0.1-0.1
			c0.1-0.1,0.2-0.3,0.3-0.5c0.2-0.4,0.4-1,0.6-1.7l1.3,1.2C117.3,216.8,117,216.6,116.6,216.4l-0.5-0.4c-0.2-0.1-0.3-0.3-0.5-0.4
			c0.2-0.1,0.4-0.3,0.5-0.4l0.5-0.3c0.3-0.2,0.7-0.4,1-0.5l0.4-0.2l0.9,1.3c0.4,0.6,0.7,1.3,0.9,2.1c0.1,0.4,0.1,0.9,0.1,1.4
			c0,0.3-0.1,0.5-0.1,0.8l-0.1,0.4l0,0.1l0,0.1l-0.1,0.2c-0.6,1.2-1.5,2-2.6,2.4c-0.6,0.2-1.2,0.3-1.9,0.3c-0.4,0-0.7-0.1-1.1-0.2
			c-0.4-0.1-0.7-0.3-1-0.5l-1.1-0.8l0-0.9c0-1.4,0.6-2.7,1.5-3.5c0.4-0.4,1-0.7,1.5-0.9c0.3-0.1,0.6-0.1,0.8-0.1
			C116.1,216.3,116.4,216.4,116.6,216.4z"/>
	</g>
	<g id="XMLID_854_">
		<path id="XMLID_198_" d="M159.1,220.2c0-0.2-0.1-0.5-0.1-0.7l0-0.6c0.1-0.4,0.1-0.8,0.2-1.2c0.2-0.8,0.5-1.5,0.9-2.2
			c0.4-0.7,0.8-1.3,1.4-1.8c0.5-0.6,1.1-1.1,1.7-1.5l2.3,4.2c-1.5,0.4-3.1,0.1-4.3-0.6c-0.3-0.2-0.6-0.4-0.8-0.6
			c-0.2-0.2-0.5-0.5-0.6-0.8c-0.2-0.3-0.3-0.6-0.4-0.9c-0.1-0.3-0.1-0.7-0.1-1c0.2,0,0.3,0.1,0.5,0.1c0.2,0,0.3,0,0.4,0.1
			c0.3,0,0.5,0,0.8,0c0.3,0,0.5,0,0.7-0.1c0.2,0,0.4-0.1,0.6-0.1l0.5-0.1l0.5-0.2c0.1-0.1,0.3-0.1,0.4-0.2c0.1-0.1,0.2-0.1,0.3-0.2
			l14.7-7.6L166.2,216c-0.9,0.9-1.9,1.7-3,2.4c-0.3,0.2-0.6,0.3-0.9,0.5c-0.3,0.2-0.6,0.3-1,0.5c-0.3,0.2-0.7,0.3-1.1,0.5
			C159.9,220,159.5,220.1,159.1,220.2z"/>
	</g>
	<g id="XMLID_851_">
		<path id="XMLID_196_" d="M178.6,220.4c0,0,0,0.1,0,0.3c0,0.2,0,0.4,0.1,0.6c0.2,0.4,0.7,0.9,1.1,0.8c0,0,0.1,0,0.1,0
			c0,0,0.1,0.1,0.2,0l0,0c0.1,0,0.2,0,0.4-0.1c0.3-0.1,0.5-0.2,0.8-0.3c0.1-0.1,0.3-0.2,0.4-0.3c0.1-0.1,0.1-0.1,0.2-0.1l0.2-0.1
			c0.2-0.2,0.4-0.4,0.5-0.6c0.1-0.1,0.1-0.1,0.1-0.2c0,0,0,0,0,0c0,0,0,0,0,0l0,0l0,0l0,0c0-0.1,0,0.1,0,0.1l0,0l0.1-0.2
			c0,0,0,0.1,0,0.1c0,0,0.1-0.2,0.1-0.4c0-0.2,0-0.3-0.1-0.5c0,0,0,0,0-0.1l0.1,0l0.1,0v0c0,0-0.2,0,0,0l-0.1,0l-0.1,0l-0.2-0.1
			c0,0,0,0,0,0c0-0.1-0.1-0.1-0.2-0.2c-0.5-0.2-1.2-0.1-1.5,0.1c-0.2,0.1-0.4,0.3-0.4,0.4c-0.1,0.1-0.1,0.2-0.1,0.2
			s-0.1-0.1-0.2-0.2c-0.1-0.2-0.2-0.4-0.2-0.8c0-0.7,0.4-1.9,1.7-2.6c0.3-0.2,0.7-0.3,1.2-0.4c0.1,0,0.3,0,0.4,0l0.2,0l0,0l0,0
			l0.1,0l0,0l0.2,0c0.1,0,0.2,0,0.3,0.1c0.9,0.2,1.8,0.8,2.4,1.6c0.6,0.8,1,1.8,1,2.9c0,0.2,0,0.4,0,0.5l0,0.2l0,0l0,0.2l0,0.1
			l0,0.2c0,0.1-0.1,0.3-0.1,0.4c-0.2,0.5-0.4,1-0.7,1.4c-0.6,0.8-1.3,1.4-2.1,1.9c-0.2,0.1-0.4,0.2-0.6,0.3
			c-0.2,0.1-0.5,0.2-0.7,0.2c-0.3,0.1-0.8,0.2-1.2,0.2c-0.8,0.1-1.7,0-2.4-0.3c-0.4-0.2-0.7-0.3-1.1-0.6l-0.3-0.2
			c-0.1-0.1-0.1-0.1-0.1-0.2c-0.2-0.2-0.3-0.3-0.4-0.5c-0.9-1.3-0.5-2.6-0.1-3.2c0.2-0.3,0.5-0.4,0.6-0.5
			C178.5,220.4,178.6,220.4,178.6,220.4z"/>
	</g>
	<g id="XMLID_848_">
		<path id="XMLID_193_" d="M132.5,127.7c0,0,0.1,1,0.3,2.8c0.1,0.9,0.2,1.9,0.2,3.2c0.1,1.2,0.1,2.6,0.1,4.1c0,1.5,0,3.2,0,4.9
			c0,1.7-0.1,3.6-0.3,5.5c-0.2,1.9-0.3,3.8-0.6,5.8c-0.2,2-0.6,4-0.9,6c-0.4,2-0.8,4-1.2,5.9c-0.4,2-0.9,3.8-1.4,5.7
			c-0.5,1.8-1,3.6-1.6,5.2c-0.5,1.7-1.1,3.2-1.6,4.6c-0.5,1.4-1,2.7-1.5,3.8c-0.5,1.1-0.9,2.1-1.3,2.9c-0.8,1.6-1.2,2.5-1.2,2.5
			s0.2-1,0.7-2.7c0.4-1.7,1-4.1,1.7-7.1c0.3-1.5,0.7-3,1.1-4.7c0.4-1.7,0.7-3.4,1.2-5.3c0.4-1.8,0.8-3.7,1.1-5.6
			c0.4-1.9,0.7-3.9,1.1-5.8c0.3-2,0.7-3.9,1-5.9c0.3-1.9,0.6-3.8,0.8-5.7c0.2-1.9,0.5-3.6,0.7-5.3c0.2-1.7,0.4-3.3,0.6-4.8
			c0.3-3,0.6-5.5,0.8-7.2C132.4,128.7,132.5,127.7,132.5,127.7z"/>
	</g>
	<path id="XMLID_847_" class="st2" d="M147.6,161c-1,13.1-0.7,26.3,1.1,39.3"/>
	<g id="XMLID_844_">
		<path id="XMLID_186_" d="M119.7,239c0,0,0,0.4-0.1,1.2c-0.1,0.8-0.2,1.8-0.4,3.1c-0.4,2.5-1.2,5.9-2.2,9.1c-1,3.2-2.3,6.4-3.5,8.7
			c-0.6,1.2-1.1,2.1-1.5,2.8c-0.4,0.7-0.6,1-0.6,1s0-0.4,0.1-1.2c0.1-0.8,0.2-1.8,0.4-3.1c0.4-2.6,1.2-5.9,2.3-9.1
			c1-3.2,2.3-6.4,3.5-8.7c0.6-1.2,1.1-2.1,1.5-2.8C119.4,239.4,119.7,239,119.7,239z"/>
	</g>
	<g id="XMLID_841_">
		<path id="XMLID_174_" d="M155.6,237.5c0,0,0,0,0.1-0.1c0.1-0.1,0.2-0.2,0.4-0.4c0.3-0.3,0.8-0.6,1.3-1c1.1-0.8,2.5-1.5,4-2.2
			c1.5-0.6,3-1.1,4.3-1.3c0.7-0.1,1.2-0.2,1.7-0.2c0.2,0,0.4,0,0.5,0c0.1,0,0.2,0,0.2,0s0,0.1-0.1,0.2c0,0.1-0.1,0.3-0.2,0.5
			c-0.2,0.4-0.5,1-0.9,1.5c-0.8,1.2-2.3,2.4-4,3.1c-1.7,0.7-3.6,0.9-5,0.7c-0.7-0.1-1.3-0.3-1.7-0.4c-0.2-0.1-0.4-0.2-0.5-0.2
			C155.7,237.5,155.6,237.5,155.6,237.5z"/>
	</g>
</g>
<g id="Capa_6">
	<g id="XMLID_219_">
		<g id="XMLID_381_">
			<path id="XMLID_391_" class="st3" d="M201.2,238.3c4,0.9,7.9,1.3,12,1c-2.9-3.8-5.8-7.6-8.7-11.4c-2.3,6.6-8.1,11.5-12.2,16.9
				c-5.6,7.2-9.1,15.1-8.1,24.4c1,8.9,5.4,16.4,8.3,24.8c3,8.7,3.2,18.1,2.1,27.2c5.9-0.8,11.8-1.6,17.7-2.4
				c-2.1-10.4-5.1-20.9-6.3-31.4c-0.3-2.4-0.3-5.1,0.2-6.9c0.3-1,0.9-1.9,1.2-2.6c-0.4,0.7-0.4,0.2,0.6,0.1
				c-2.9-2.2-5.8-4.4-8.7-6.6c10.8,29.9,2.1,61.6-10.6,89.5c5.5,0.7,11,1.4,16.4,2.1c-2.2-14.6-2-29.7,0.4-44.2
				c-5.8-1.6-11.6-3.2-17.4-4.8c-2.3,16.4-4.5,32.8-6.8,49.2c5.8,0,11.6,0,17.4,0c-0.1-0.4-0.2-0.8-0.3-1.2c0,1.6,0,3.2,0,4.8
				c0.1-0.4,0.2-0.8,0.3-1.2c-0.8,1.3-1.5,2.6-2.3,4c0,0,0,0,0-0.1c4.4-2,5.5-8.4,3.2-12.3c-2.7-4.5-7.9-5.3-12.3-3.2
				c-5.4,2.5-7.4,8.5-5.9,14c2.2,7.9,16.1,9.2,17.4,0c2.3-16.4,4.5-32.8,6.8-49.2c0.7-4.8-1.2-9.7-6.3-11.1
				c-4.3-1.2-10.3,1.5-11.1,6.3c-3,18-3.2,35.7-0.4,53.7c1.1,7.4,13.4,8.9,16.4,2.1c14.6-32.1,24.9-68.9,12.4-103.4
				c-1.3-3.6-4.5-6.8-8.7-6.6c-32,1.6-16.7,45.5-13.1,63.6c0.9,4.3,5.7,7.1,9.9,6.4c4.8-0.7,7.2-4.3,7.8-8.8
				c1.2-9.6,0.7-19.7-1.8-29c-2.1-7.7-6.4-14.6-8.3-22.3c-1.7-6.9,1.8-11.7,6.1-16.7c5.4-6.3,10.5-12.4,13.3-20.4
				c1.8-5.3-3-11.8-8.7-11.4c-2.5,0.2-4.8,0.1-7.2-0.4C194.7,218.4,189.9,235.7,201.2,238.3L201.2,238.3z"/>
		</g>
	</g>
	<g id="XMLID_67_">
		<g id="XMLID_366_">
			<path id="XMLID_374_" class="st3" d="M256.8,278.9c-7.5-2.6-14.9-0.3-22.5-1c2.6,4.5,5.2,9,7.8,13.5c3-4.4,6.9-7.5,11.6-9.9
				c7.4-3.7,4.7-14.1-2.1-16.4c-5.2-1.8-10.4-0.1-15.1,2.2c-1.7,0.9-4.1,1.8-5.6,3c0.5-0.4-0.4-0.1-0.2,0.1c0,0,4.1,2.7,1.9,0.4
				c-0.6,4.7-1.2,9.4-1.8,14.1c3.7-2.4,6.6-5.5,9.7-8.6c1.1-1.1,2.4-2.3,3.5-3.2c2.4-1.9,0.3,0.8-1.4-0.8c4,3.6,11.4,3.6,14.1-1.8
				c1.8-3.7,1.9-6.5,0.3-10.2c-2.3-5.3-10.6-5.7-14.1-1.8c-2.1,2.3-2.8,4.5-3,7.5c-0.4,8.6,13,12.7,16.8,4.5
				c4.5-9.8-1.7-20.7-12.8-21.4c-4.9-0.3-9.4,1.7-13.5,4.1c-1.6,0.9-3.2,1.9-4.8,2.8c-0.5,0.3-1.1,0.5-1.7,0.5
				c1,0.2,1.2,0.1,0.7-0.5c0.6,4.7,1.2,9.4,1.8,14.1c7.8-6.7,15.7-13.3,23.7-19.7c-5.1-2.1-10.2-4.2-15.4-6.4
				c-0.4,3.7,0.6,7.1,2.4,10.4c4.4,7.9,16.8,4.3,16.8-4.5c0-5.4,0-10.7,0-16.1c0-5.8-5.8-10.3-11.4-8.7c-8.4,2.4-14,8.2-19.1,15.1
				c-3.9,5.3-7.4,12.5-14.9,11.9c1.5,5.6,3,11.2,4.5,16.8c10.4-8,18.9-17.8,24.6-29.7c2.2-4.6,0.9-12.3-5.4-13.2
				c-10.6-1.5-18.7,2.4-25.1,10.7c-2.6,3.4-4.8,7-7.2,10.5c-1.9,2.8-3.8,5.3-6.1,6.6c4.4,3.4,8.8,6.8,13.2,10.2
				c0.7-3,2.7-7.1,4.2-9.7c1.6-2.7,4.4-4.7,6.2-7.2c5.3-7.2,4.3-17.3-4.9-20.5c-15.8-5.6-29.6,11.5-29,26.2
				c0.4,9.7,15.5,12.8,17.7,2.4c0.3-1.5,0.7-3,1-4.5c-5.8-1.6-11.6-3.2-17.4-4.8c-0.3,1.5-0.7,3-1,4.5c5.8,1.6,11.6,3.2,17.4,4.8
				c0.8-3.9,1.6-7.7,2.4-11.6c2.3-11.3-15-16.1-17.4-4.8c-0.8,3.9-1.6,7.7-2.4,11.6c-2.3,11.3,14.7,16.1,17.4,4.8
				c0.4-1.5,0.7-3,1-4.5c2.4-11.3-14.6-16.1-17.4-4.8c-0.4,1.5-0.7,3-1,4.5c5.9,0.8,11.8,1.6,17.7,2.4c-0.1-3.3,0.8-5.8,3.2-8.1
				c0.4-0.4,2.4-1.7,0.7-1c0.7-0.1,1.3-0.1,2,0c-2.2,0.3-3.8-1.2-4.6-4.5c0.4-1.5,0.8-3,1.2-4.5c-2,4.1-6.1,6.7-8.4,10.7
				c-1.1,1.9-1.6,4.1-2.7,6.1c-1.4,2.5-2.7,5.1-3.3,7.9c-1.7,7.6,6.2,14.2,13.2,10.2c6.8-3.9,11-10.6,15.2-17c1.9-3,3.1-4.9,5.4-7.1
				c1-1,1.1-1.1,2.1-1.5c0.6-0.2,1.8-0.3,1.9-0.3c-1.8-4.4-3.6-8.8-5.4-13.2c-4.2,9-10.2,17.1-18.1,23.2c-7.1,5.4-4.9,16,4.5,16.8
				c11,0.9,19.1-5.6,25.4-13.9c3.7-4.9,7.1-12,13.4-13.8c-3.8-2.9-7.6-5.8-11.4-8.7c0,5.4,0,10.7,0,16.1c5.6-1.5,11.2-3,16.8-4.5
				c-0.3,0.7-0.3,0.3,0.1-1.3c0.4-3.4-2.6-7-5.5-8.2c-3.6-1.5-6.9-0.5-9.8,1.9c-8,6.4-15.9,13-23.7,19.7c-4.7,4-2.6,11.2,1.8,14.1
				c5.2,3.5,11.3,3.4,16.9,1c2.3-1,4.4-2.2,6.5-3.5c0.8-0.5,2.6-1.1,3.1-1.8c0.3-0.1,0.7-0.2,1-0.3c-1.4-0.1-2.3-0.9-2.5-2.3
				c0.4-1.5,0.8-3,1.2-4.5c-0.2,0.4-0.4,0.8-0.6,1.2c5.6,1.5,11.2,3,16.8,4.5c0-0.3,0-0.6,0-0.8c-0.9,2.1-1.8,4.2-2.6,6.4
				c0.1-0.1,0.2-0.2,0.3-0.3c-4.7-0.6-9.4-1.2-14.1-1.8c0,0.1,0.1,0.2,0.1,0.3c0-3,0-6.1,0-9.1c-0.1,0.3-0.3,0.6-0.4,0.9
				c4.7-0.6,9.4-1.2,14.1-1.8c-6-5.4-13.4-6.3-20.4-2c-5,3-9,9.1-13.2,11.8c-4.9,3.2-6,9.8-1.8,14.1c4.6,4.9,10.9,5.9,17.1,3.6
				c2.7-1,5.2-2.5,7.7-3.8c0.3-0.2,2.2-1.5,1.6-0.8c1.1-0.3,1.2-0.3,0.3-0.2c-0.9-0.2-0.9-0.2,0.2,0.1c-0.7-5.5-1.4-11-2.1-16.4
				c-7.5,3.8-13.4,9.4-18.1,16.4c-4.2,6.2,1.5,12.9,7.8,13.5c5.9,0.6,12.1-1.5,17.8,0.4C263,300,267.7,282.6,256.8,278.9
				L256.8,278.9z"/>
		</g>
	</g>
	<g id="XMLID_64_">
		<g id="XMLID_360_">
			<path id="XMLID_364_" class="st3" d="M255.9,317.8c1,0.1,2.1,0.1,3.1,0.2c1.1,1.1,2.2,2.2,3.2,3.2c-0.1-0.2-0.2-0.5-0.4-0.7
				c0.3,2.3,0.6,4.6,0.9,6.9c0-0.3,0.1-0.5,0.1-0.8c-0.8,1.3-1.5,2.6-2.3,4c0.3-0.3,0.5-0.5,0.8-0.8c6.6-6.3-0.2-17.3-8.8-15
				c-1.7,0.4-3.4,0.9-5.1,1.3c3.4,4.4,6.8,8.8,10.2,13.2c1.5-2.6,3.1-5.1,4.6-7.7c5.2-8.6-7.3-18.7-14.1-10.9
				c-0.8,0.9-0.6,0.8,0.6-0.3c1.6,0,3.2,0,4.8,0c-0.4-0.1-0.8-0.2-1.2-0.3c1.3,0.8,2.6,1.5,4,2.3c-0.3-0.3-0.7-0.7-1-1
				c0.5,3.6,0.9,7.3,1.4,10.9c2-3.9,3.9-7.8,5.9-11.8c2.9-5.9-0.6-13.7-7.8-13.5c-2.7,0.1-5.3,0.1-8,0.2c2.6,4.5,5.2,9,7.8,13.5
				c3.3-4.9,3.6-11.3-0.9-15.6c-5-4.8-13.3-3.2-16.4,2.8c-2.1,4-1.4,8.9,2.3,11.6c3.2,2.4,9,2.9,11.8-0.7c1.5-2,3.1-4,4.6-5.9
				c-4.7-3.6-9.4-7.3-14.1-10.9c-0.6,0.9-1.4,1.2-2.3,1.7c4.1,1.1,8.2,2.2,12.3,3.2c-1.1-2.5-2.1-4.9-3.2-7.4
				c-3.7-8.6-16.7-3.7-16.8,4.5c0,2.8-0.1,5.6-0.1,8.5c5.1-2.1,10.2-4.2,15.4-6.4c-1.2-1.1-1.3-1.3-2.1-2.7
				c-5.8-10.1-21-1.1-15.5,9.1c2.3,4.3,4.5,8.6,6.8,12.8c5.5,10.3,20.7,1.2,15.5-9.1c-1.4-2.8,5-5.5,7-6.5
				c10.3-5.3,1.2-20.8-9.1-15.5c-12.4,6.4-20.3,17.4-13.5,31.1c5.2-3,10.4-6.1,15.5-9.1c-2.3-4.3-4.5-8.6-6.8-12.8
				c-5.2,3-10.4,6.1-15.5,9.1c1.3,2.3,3,4.5,4.9,6.3c5.7,5.3,15.3,1.6,15.4-6.4c0-2.8,0.1-5.6,0.1-8.5c-5.6,1.5-11.2,3-16.8,4.5
				c1.1,2.5,2.1,4.9,3.2,7.4c2,4.6,8.5,5.3,12.3,3.2c3.8-2,6.4-4.7,8.8-8.2c5.8-8.3-7.9-19-14.1-10.9c-1.5,2-3.1,4-4.6,5.9
				c4.7,3.6,9.4,7.3,14.1,10.9c0.2-0.3,0.3-0.6,0.5-0.9c-1.8,1.4-3.6,2.8-5.4,4.1c0.3-0.1,0.6-0.2,0.9-0.3c-1.6,0-3.2,0-4.8,0
				c0.3,0.1,0.6,0.2,0.9,0.3c-1.3-0.8-2.6-1.5-4-2.3c0.2,0.2,0.5,0.5,0.7,0.7c-0.8-1.3-1.5-2.6-2.3-4c0.1,0.3,0.1,0.7,0.2,1
				c0-1.6,0-3.2,0-4.8c0.4-0.2,0.2,0.1-0.5,0.8c-3.8,5.7,1.2,13.7,7.8,13.5c2.7-0.1,5.3-0.1,8-0.2c-2.6-4.5-5.2-9-7.8-13.5
				c-2,3.9-3.9,7.8-5.9,11.8c-1.8,3.6-1.5,8,1.4,10.9c5.3,5.3,13.3,4.9,18.3-0.8c-4.7-3.6-9.4-7.3-14.1-10.9
				c-1.5,2.6-3.1,5.1-4.6,7.7c-4.1,6.8,2.7,15.2,10.2,13.2c1.7-0.4,3.4-0.9,5.1-1.3c-2.9-5-5.8-10-8.8-15c-9.1,8.7,1.3,21,12,18
				C271.8,332.1,267.1,314.7,255.9,317.8L255.9,317.8z"/>
		</g>
	</g>
	<g id="XMLID_61_">
		<g id="XMLID_352_">
			<path id="XMLID_358_" class="st3" d="M256.5,341.2c-1.8,0.6-3.5,1.1-5.4,1.3c2.6,4.5,5.2,9,7.8,13.5c2.4-3.8,4.7-7.7,7.1-11.5
				c3.8-6.1-1.2-13.1-7.8-13.5c-3.1-0.2-6.1,0.2-8.9,1.4c3.7,2.1,7.4,4.2,11.1,6.3c-0.5-3.2,0.1-6.1,1.2-9.1
				c-5.5,0.7-11,1.4-16.4,2.1c4.7,7.5,13.3,7.6,19.7,2.4c3.8-3.1,3.2-9.5,0-12.7c-3.7-3.7-9-3.1-12.7,0c1.9-0.4,3.9-0.7,5.8-1.1
				c1.1,1.1,2.2,2.2,3.2,3.2c-0.2-0.3-0.3-0.6-0.5-0.8c-4.2-6.8-13.9-5.1-16.4,2.1c-2.1,6.2-2.2,12.3-1.2,18.7
				c0.7,4.4,6.9,8,11.1,6.3c1.8-0.7,2.2-0.9,4.1-0.7c-2.6-4.5-5.2-9-7.8-13.5c-2.4,3.8-4.7,7.7-7.1,11.5c-3.4,5.5,0.9,14.1,7.8,13.5
				c3.5-0.3,6.9-0.8,10.2-1.9C272.3,355,267.6,337.6,256.5,341.2L256.5,341.2z"/>
		</g>
	</g>
	<g id="XMLID_45_">
		<g id="XMLID_344_">
			<path id="XMLID_350_" class="st3" d="M260,352.4c-0.9,0.2-1.9,0.4-2.8,0.5c0.8-0.1,1.6-0.2,2.4-0.3c-1.3,0.2-2.6,0.3-4,0.3
				c2.6,4.5,5.2,9,7.8,13.5c1.6-2.5,3.1-5,4.7-7.5c2.5-4,1-10.1-3.2-12.3c-4.4-2.3-9.6-1-12.3,3.2c-1.6,2.5-3.1,5-4.7,7.5
				c-3.6,5.7,1.1,13.7,7.8,13.5c3.1-0.1,6.2-0.5,9.2-1.1c4.6-1,7.7-6.6,6.3-11.1C269.5,353.8,264.9,351.3,260,352.4L260,352.4z"/>
		</g>
	</g>
	<g id="XMLID_26_">
		<g id="XMLID_334_">
			<path id="XMLID_339_" class="st3" d="M260.4,378.6c3.3-2.4,6.4-4.9,9.3-7.8c3.3-3.4,3.6-9.4,0-12.7c-3.6-3.3-9.2-3.6-12.7,0
				c-1.1,1.1-2.2,2.2-3.4,3.2c-0.5,0.5-1.1,0.9-1.7,1.4c-0.2,0.2-1.3,1-0.2,0.1c1.2-0.9-0.2,0.2-0.4,0.3c-2,1.4-3.5,3-4.1,5.4
				c-0.6,2.2-0.3,5,0.9,6.9C250.5,379.1,256.4,381.6,260.4,378.6L260.4,378.6z"/>
		</g>
	</g>
	<g id="XMLID_448_">
		<g id="XMLID_328_">
			<path id="XMLID_332_" class="st4" d="M245.6,201.4c-2,0.7-4,1.5-5.9,2.6c4.5,2.6,9,5.2,13.5,7.8c-0.3,0.4-0.6,0.7-0.9,1.1
				c8-8.7-3.8-19.7-12.7-12.7c-1.6,1.2-3.1,2.5-4.7,3.7c5.1,2.1,10.2,4.2,15.4,6.4c-0.3-3.3-0.3-6.1,1.2-9.1c1.2-2.4,2.7-4.8,4-7.1
				c3.1-5.5,6.1-11.2,8.2-17.2c2-5.7,2.9-11.9,2.3-17.9c-0.7-7.4-5.4-12-12.3-14.3c-8.2-2.7-13.1,6.6-10.2,13.2
				c1.6,3.6,3.3,7.8,6.9,9.9c5.7,3.3,12.6-0.5,13.6-6.8c1-6.7-4.1-14.1-10.3-16.3c-8.3-2.9-13,6.8-10.2,13.2
				c4.2,9.7,8.5,19.4,12.2,29.3c1.8,4.7,4.1,9.7,4.9,14.7c0.8,4.2,0.3,8.6,1.5,12.8c3,10.4,12.4,14.3,20.5,20
				c8.5,5.9,16.4,12.7,25.2,18.2c9.9,6.2,18.9-9.4,9.1-15.5c-8-5-15.2-11.1-22.9-16.6c-3.8-2.7-7.9-4.8-11.6-7.5
				c-3-2.1-3.3-4.4-3.5-8c-0.6-9.7-4.1-18.4-7.6-27.3c-3.9-9.8-8.1-19.5-12.3-29.2c-3.4,4.4-6.8,8.8-10.2,13.2
				c-1.4-0.5-2.3-1.5-3.3-2.3c0.3,0.2,0.9,2,0.5,0.7c-0.4-1.4,0.1,0.3,0.1,0.4c0.1,0.2,0.1,0.3,0.1,0.5c0.3,1.5,0.4,0.3,0.1-3.7
				c2.1-2.1,4.2-4.2,6.3-6.3c0,0-0.1,0-0.1,0c2.3,0.3,4.6,0.6,6.9,0.9c3.9,2.3,2.5,3.2,1.6,0.8c-0.5-1.4-1.3-2.8-2-4.2
				c-3.4,4.4-6.8,8.8-10.2,13.2c0.2,0.1-1.2-2.6,0.2,0.6c-0.4-1.5-0.8-3-1.2-4.5c1,8.9-2.1,16.4-6.4,24.1c-2.1,3.8-4.5,7.5-6.4,11.4
				c-2.6,5.3-3.3,10.9-2.8,16.7c0.6,8.3,9.2,11.2,15.4,6.4c1.6-1.2,3.1-2.5,4.7-3.7c-4.2-4.2-8.5-8.5-12.7-12.7
				c-3,3.3-4.9,7.1-4.4,11.6c0.7,6.6,7.2,11.4,13.5,7.8c0.5-0.4,1-0.6,1.6-0.8C261.3,214.9,256.6,197.5,245.6,201.4L245.6,201.4z"/>
		</g>
	</g>
	<g id="XMLID_427_">
		<g id="XMLID_322_">
			<path id="XMLID_326_" class="st4" d="M243.2,210.9c-4.1,2.9-8.3,4.7-13.4,4.9c1.5,5.6,3,11.2,4.5,16.8
				c6.4-4.2,12.8-8.5,19.3-12.7c4-2.7,5.8-8,3.2-12.3c-2.4-4-8.2-5.9-12.3-3.2c-6.4,4.2-12.8,8.5-19.3,12.7
				c-7.1,4.7-4.9,17.1,4.5,16.8c8.1-0.3,15.9-2.6,22.5-7.4c3.9-2.8,5.8-7.8,3.2-12.3C253.3,210.3,247.2,208.1,243.2,210.9
				L243.2,210.9z"/>
		</g>
	</g>
	<g id="XMLID_44_">
		<g id="XMLID_316_">
			<path id="XMLID_320_" class="st4" d="M206.9,202.9c0.2-0.1,2,0.4,2.9,1.1c1.3,0.9,1.3,2,2.2,1.4c0.1-0.7,0.4-1.3,0.9-1.8
				c-0.2,0.2-0.5,0.4-0.7,0.7c0.3,0-1.3,0.6-1.7,0.8c-0.8,0.3-3.3,0.9-4.6,1.3c2.9,5,5.8,10,8.8,15c4.3-4,8-8.5,11.2-13.4
				c4.8-7.3-4.9-17.6-12.3-12.3c-3.1,2.2-6,3.7-9.7,4.7c3.4,4.4,6.8,8.8,10.2,13.2c3.2-4.4,6.4-8.8,9.6-13.2c4-5.4-1.3-14-7.8-13.5
				c-3.6,0.3-7.1,0.8-10.5,2c2.9,5,5.8,10,8.8,15c3.3-3.8,6.5-7.7,9.8-11.5c5.8-6.8,0.3-17.2-8.8-15c-3.3,0.8-6.6,1.5-9.8,2.3
				c3.4,4.4,6.8,8.8,10.2,13.2c3.3-5.9,6.7-11.9,10-17.8c4-7.2-2.6-14.7-10.2-13.2c-5.3,1.1-9.1,4.2-12.2,8.5c5.2,0,10.4,0,15.5,0
				c0.2,0.2,0.2,0.5,0.2,0.8c-0.2,0.9-0.2,0.9,0.1-0.2c-0.3,0.7-0.3,0.7,0,0.1c0.3-0.5,0.3-0.5,0-0.1c1.4-1.9,3.4-3.5,5.1-5.2
				c3.9-3.7,7.7-7.9,8.9-13.3c1.3-6-4.2-13.8-11.1-11.1c-6.6,2.6-13.3,5.3-19.9,7.9c3.8,2.9,7.6,5.8,11.4,8.7c0-0.6-0.8,0.3-1.1,0.4
				c10.7-4,6.4-21-4.8-17.4c1,0,0.8,0-0.6,0.1c-1.2,0.1-2.3,0.4-3.3,1.1c-1,0.6-2.3,1.5-3.1,2.4c-0.3,0.2-0.7,0.4-1,0.6
				c3.2-0.3,3.7-0.9,1.4-1.9c-0.7-1-2.5-1.7-3.5-2.4c-5.1-3.5-10.2-7.1-15-10.9c-9.7-7.7-18.5-16.4-24.9-27.1
				c-4.7,3.6-9.4,7.3-14.1,10.9c0.8,0.6,1.5,1.3,2.2,2c-0.4-0.6-0.4-0.6-0.1,0c-0.4-1.5-0.8-3-1.2-4.5c0,0.1,0,0.2,0,0.2
				c2.2-2.9,4.4-5.8,6.6-8.7c-0.1,0-0.1,0-0.2,0.1c2.3,0.3,4.6,0.6,6.9,0.9c-0.6-0.3-0.5-0.2,0.5,0.4c0.6,0.2,0.4-0.2-0.6-1.2
				c-4.1,4.1-8.2,8.2-12.3,12.3c10.9,8.1,20.6,18.8,32.8,24.8c8.7,4.3,20,7,24.4,16.5c0.5-3.6,0.9-7.3,1.4-10.9
				c-2,2.3-0.4,0.8-0.5,0.9c-1,0.3-1.5,0-2.4-0.2c-1.6-0.5-3.3-1.4-4.9-2.1c-0.5-0.2-2.9-1.6-2.4-1c-4.1,4.1-8.2,8.2-12.3,12.3
				c0.9,0.5,2.8,2.1,1.2-0.1c3.4-4.4,6.8-8.8,10.2-13.2c0.9,0.3,0.8,0-0.4-0.8c-3.6,4.7-7.3,9.4-10.9,14.1
				c6.1,3.3,11.1,7.5,15.6,12.8c3.1,3.7,9.5,3.2,12.7,0c3.7-3.7,3.1-9,0-12.7c-5.3-6.4-11.9-11.7-19.2-15.6
				c-8.8-4.8-18.4,6.8-10.9,14.1c2.6,2.5,5,4.2,8.4,5.5c7,2.7,14.8-7.1,10.2-13.2c-2.2-2.9-4.4-4.8-7.6-6.4
				c-7.2-3.7-18.2,4.5-12.3,12.3c4.4,5.9,11.4,9.5,18.4,11.5c7.1,2,15.2,0.1,20.1-5.4c2.9-3.3,3.2-7,1.4-10.9
				c-5.4-11.9-17.3-16.6-28.4-21.8c-13.2-6.2-23.6-17.4-35.2-26c-7.7-5.7-16.3,5.1-12.3,12.3c2.6,4.8,7.4,10.1,13.6,8.2
				c3.9-1.2,6.5-4.6,6.6-8.7c0.1-4.4-3-7.8-6.1-10.4c-7.5-6.3-19.6,1.6-14.1,10.9c8,13.4,19,24.1,31.2,33.5
				c6.1,4.7,12.3,9.1,18.6,13.4c3.7,2.6,7.7,4.5,12.4,3.5c3.4-0.7,5.7-2.6,8.5-4.6c-1.5,0.4-3,0.8-4.5,1.2c1.4-0.1,2.8-0.2,4.2-0.6
				c-1.6-5.8-3.2-11.6-4.8-17.4c-7.4,2.7-12.5,8.8-12.2,17c0.2,5.3,5.7,10.9,11.4,8.7c6.6-2.6,13.3-5.3,19.9-7.9
				c-3.7-3.7-7.4-7.4-11.1-11.1c-0.1,0.6-0.4,1.1,0.1,0.3c-0.3,0.5-0.6,1.1-0.9,1.6c0.7-0.9-0.6,0.6-0.8,0.8c-0.5,0.5-1,1-1.5,1.5
				c-2.1,2.1-4.3,4-6.2,6.3c-5.3,6.5-6.7,13.5-3.1,21.2c3.2,6.7,11.9,4.9,15.5,0c-0.4,0.5,0.4,0,1.5-0.2c-3.4-4.4-6.8-8.8-10.2-13.2
				c-3.3,5.9-6.7,11.9-10,17.8c-3.9,7,2.5,15,10.2,13.2c3.3-0.8,6.6-1.5,9.8-2.3c-2.9-5-5.8-10-8.8-15c-3.3,3.8-6.5,7.7-9.8,11.5
				c-5.3,6.2-0.4,18.3,8.8,15c1.9-0.7,3.7-1.2,5.8-1.4c-2.6-4.5-5.2-9-7.8-13.5c-3.2,4.4-6.4,8.8-9.6,13.2
				c-4.8,6.6,3.1,15.1,10.2,13.2c5-1.4,9.8-3.5,14-6.5c-4.1-4.1-8.2-8.2-12.3-12.3c-2.4,3.6-5.2,6.8-8.4,9.7
				c-6.9,6.3,0.4,17.1,8.8,15c9.8-2.4,21-8.4,19-20.2c-1.9-11.7-16.1-21.2-27.6-17.8C191,188.8,195.7,206.2,206.9,202.9L206.9,202.9
				z"/>
		</g>
	</g>
	<g id="XMLID_214_">
		<g id="XMLID_309_">
			<path id="XMLID_314_" class="st4" d="M211.2,209.6c1.2-1.7-2,1.3-0.1,0.1c-0.4,0.3-0.9,0.5-1.4,0.8c0.8-0.3,0.9-0.4,0.3-0.2
				c-0.5,0.1-3.1,0.4-1.1,0.4c-0.5,0-3.7-0.2-1.6,0.1c-4.6-0.8-9.9,1.2-11.1,6.3c-1,4.3,1.3,10.3,6.3,11.1
				c9.6,1.6,18.5-1.3,24.2-9.5c2.7-3.9,0.8-10.2-3.2-12.3C219,204,214.1,205.5,211.2,209.6L211.2,209.6z"/>
		</g>
	</g>
	<g id="XMLID_51_">
		<g id="XMLID_187_">
			<path id="XMLID_155_" class="st3" d="M199.7,239.4c0.4-2.6,0.9-5.3,1.3-7.9c-5.5,0.7-11,1.4-16.4,2.1c0.6,1,1.1,1.9,1.7,2.9
				c2.4,4.1,8.2,5.9,12.3,3.2c4.1-2.6,5.8-8,3.2-12.3c-0.6-1-1.1-1.9-1.7-2.9c-1.8-3.1-5.4-4.8-9-4.3c-3.2,0.4-6.9,3-7.5,6.4
				c-0.4,2.6-0.9,5.3-1.3,7.9c-0.4,2.5-0.4,4.7,0.9,6.9c1.1,1.9,3.2,3.6,5.4,4.1C193,246.7,198.9,244.4,199.7,239.4L199.7,239.4z"/>
		</g>
	</g>
	<g id="XMLID_213_">
		<g id="XMLID_181_">
			<path id="XMLID_139_" class="st5" d="M146.4,97.6c1.2-7.1-1.2-13.4-7.3-17.5c-6.4-4.2-15.7,2.8-13.2,10.2c0.7,2,1.2,4,1.7,6
				c0.1,0.5,0.2,0.9,0.3,1.4c0.2,1,0.2,1.3,0.1,0.7c-0.1-0.6,0-0.3,0.1,0.7c0.1,0.6,0.1,1.3,0.2,1.9c0.3,4.7,3.9,9.2,9,9
				c4.6-0.2,9.4-4,9-9c-0.4-5.3-1.3-10.5-3-15.5c-4.4,3.4-8.8,6.8-13.2,10.2c-0.8-0.7-0.9-0.8-0.2-0.1c-0.4-0.3-0.6-0.6-0.8-1.1
				c-0.2-0.6-0.2-0.6,0,0.3c-0.2-0.7-0.2-1.3,0-2c-0.8,4.6,1.2,9.9,6.3,11.1C139.7,104.9,145.5,102.6,146.4,97.6L146.4,97.6z"/>
		</g>
	</g>
	<g id="XMLID_220_">
		<g id="XMLID_175_">
			<path id="XMLID_132_" class="st5" d="M228,122c0.5-6.5-0.4-13.1-2.7-19.2c-1.7-4.5-6.1-7.7-11.1-6.3c-4.4,1.2-8,6.5-6.3,11.1
				c1.8,4.8,2.5,9.3,2.1,14.4c-0.4,4.9,4.4,9,9,9C224.2,131,227.6,126.9,228,122L228,122z"/>
		</g>
	</g>
	<g id="XMLID_221_">
		<g id="XMLID_169_">
			<path id="XMLID_126_" class="st5" d="M331.6,257.5c0.7-1.2,1.6-2.3,2.2-3.6c1.2-2.5,1.6-5,1-7.8c-0.6-2.9-2.9-5.3-5.5-6.4
				c-4.4-1.9-9.6-0.2-12.1,4c-1.3,2.2-1.7,4.8-1,7.3c0.4,1.6,1.2,2.9,2.4,4.1c1.4,1.4,2.3,1.6,4.2,2.4c2,0.8,5.2,0.1,6.9-0.9
				c1.9-1.1,3.6-3.2,4.1-5.4c0.5-2.3,0.4-4.9-0.9-6.9c-0.5-0.6-0.9-1.2-1.4-1.8c-1.1-1.1-2.4-1.9-4-2.3c0,0-0.1,0-0.1-0.1
				c1.3,0.8,2.6,1.5,4,2.3c0,0-0.1-0.1-0.1-0.1c0.8,1.3,1.5,2.6,2.3,4c0,0,0-0.1,0-0.1c0,1.6,0,3.2,0,4.8c0,0,0-0.1,0-0.1
				c-0.3,0.7-0.6,1.4-0.9,2.1c0-0.1,0.1-0.2,0.1-0.2c-0.5,0.6-0.9,1.2-1.4,1.8c0,0,0.1-0.1,0.1-0.1c-0.6,0.5-1.2,0.9-1.8,1.4
				c0.1-0.1,0.2-0.1,0.3-0.2c-0.7,0.3-1.4,0.6-2.1,0.9c0.1,0,0.1,0,0.2,0c-0.8,0.1-1.6,0.2-2.4,0.3c0,0,0.1,0,0.1,0
				c-0.8-0.1-1.6-0.2-2.4-0.3c0,0,0.1,0,0.1,0.1c-1.3-0.8-2.6-1.5-4-2.3c0,0,0.1,0.1,0.1,0.1c-0.5-0.6-0.9-1.2-1.4-1.8
				c0,0.1,0.1,0.2,0.1,0.2c-0.3-0.7-0.6-1.4-0.9-2.1c0,0.1,0,0.2,0.1,0.3c-0.1-0.8-0.2-1.6-0.3-2.4c0,0.1,0,0.2,0,0.3
				c0.1-0.8,0.2-1.6,0.3-2.4c0,0.2-0.1,0.4-0.1,0.6c0.3-0.7,0.6-1.4,0.9-2.1c-0.5,1.3-1.4,2.4-2.2,3.6c-2.5,4-1,10.1,3.2,12.3
				C323.7,263.1,328.9,261.7,331.6,257.5L331.6,257.5z"/>
		</g>
	</g>
	<g id="XMLID_60_">
		<g id="XMLID_254_">
			<path id="XMLID_258_" class="st6" d="M273,113.1c0-12.8-10.9-22.3-20.6-29c-7.1-4.9-14.5,3.2-13.2,10.2c1,5.4,2.3,10.7,3.9,16
				c5-2.9,10-5.8,15-8.8c-3.2-2.9-4.8-6.8-7-10.5c-2.7-4.4-6-8.2-10.6-10.8c-4.4-2.5-9.6-0.9-12.3,3.2c-2.1,3.1-3.1,6.6-3.4,10.3
				c-0.2,2.5,0.4,5.3-0.2,7.7c5.8,0,11.6,0,17.4,0c-0.5-1.6-0.6-1.7-0.2-0.4c-0.4,1.5-0.8,3-1.2,4.5c0.1-0.1,0.1-0.2,0.2-0.3
				c-2.6,1.5-5.2,3-7.8,4.5c0.1,0,0.2,0,0.3,0c-2.1-0.9-4.2-1.8-6.4-2.6c-0.3-0.4-0.6-0.8-0.9-1.1c-0.4-1.5-0.8-3-1.2-4.5
				c0.1,0.9,0.1,0.9-0.1,0c5.8,0,11.6,0,17.4,0c-0.9-2.2-1.7-4.3-2.5-6.6c-0.4-1.1-1.1-6.1-1.9-6.7c-0.4-1.7-1.3-1-2.7,2
				c-3.1,2-3.6,2.8-1.4,2.6c-0.6,0-0.4,0,0.8,0.3c0.9,0.3,1.8,0.6,2.7,1c8.2,3.4,15.6,8.8,22.8,13.8c0.7-5.5,1.4-11,2.1-16.4
				c-1.1,0.4-2.1,0.8-3.2,1.2c-4.5,1.8-7.7,6-6.3,11.1c1.2,4.3,6.5,8.1,11.1,6.3c1.1-0.4,2.1-0.8,3.2-1.2c7.3-2.9,8.9-11.9,2.1-16.4
				c-6-4.1-12-8.3-18.4-11.7c-5.5-2.9-11.6-5.9-17.9-5.8c-6.7,0.1-12.6,4.9-13,11.8c-0.3,6.6,2.8,13.7,5.2,19.7
				c3.4,8.4,14.1,8.6,17.4,0c2.4-6.3-1.4-14.4-8.8-14.5c-8-0.1-10.8,8-8.6,14.5c2.7,8,15.1,9.1,17.4,0c1-4.2-0.6-10.2,1.7-13.7
				c-4.1,1.1-8.2,2.2-12.3,3.2c3.1,1.7,4.4,4.7,6.1,7.7c2.2,3.9,4.6,7.7,7.9,10.8c6.3,5.9,17.8,0.2,15-8.8c-1.6-5.3-3-10.6-3.9-16
				c-4.4,3.4-8.8,6.8-13.2,10.2c4.1,2.8,11.7,8.2,11.7,13.5C255,124.7,273,124.7,273,113.1L273,113.1z"/>
		</g>
	</g>
	<g id="XMLID_52_">
		<g id="XMLID_245_">
			<path id="XMLID_252_" class="st6" d="M250.8,110.2c-4.9-7.3-8.2-14.9-10.1-23.5c-1.6-7.1-13.3-9.3-16.4-2.1
				c-5.8,13.2,1.7,23.7,6.1,35.4c2.1,5.6,4.8,11.3,11,13.3c6.8,2.2,14.3-0.7,20.4-3.5c4.4-2,5.5-8.4,3.2-12.3
				c-2.7-4.5-7.9-5.3-12.3-3.2c-1.5,0.7-3.2,0.9-4.7,1.6c-0.6,0.2-1.3,0.3-2,0.2c1,0.2,1.9,0.6,2.7,1.2c0.3-0.4-2.7-6.5-2.9-7
				c-1.3-3-3-5.9-4.3-9c-0.7-1.7-2.5-5.6-1.7-7.5c-5.5-0.7-11-1.4-16.4-2.1c2.2,9.9,6.3,19.4,12,27.8
				C241.7,128.8,257.3,119.8,250.8,110.2L250.8,110.2z"/>
		</g>
	</g>
	<g id="XMLID_285_">
		<g id="XMLID_163_">
			<path id="XMLID_120_" class="st6" d="M241.4,171.3c4.6-8.7,5.6-18.9,1.7-28c-1.5-3.5-4.2-5.9-8.2-5.4c-3.6,0.5-6.6,3.6-6.5,7.4
				c0.2,8.3,1.6,16.4,0.3,24.7c-1.3,8.1-3.9,15.9-6.5,23.6c4.9,0.7,9.8,1.3,14.7,2c0-8.6,0.3-17.1,1-25.7c0.7-9.6-14.3-9.6-15,0
				c-0.7,8.5-1,17.1-1,25.7c0,8.7,12.1,9.9,14.7,2c2.8-8.3,5.5-16.7,6.8-25.4c1.4-9.2,0.2-17.8,0-26.9c-4.9,0.7-9.8,1.3-14.7,2
				c2.3,5.5,2.6,11.1-0.2,16.5C224,172.3,236.9,179.9,241.4,171.3L241.4,171.3z"/>
		</g>
	</g>
	<g id="XMLID_286_">
		<g id="XMLID_157_">
			<path id="XMLID_115_" class="st5" d="M236.5,143c0-4.1,0-8.1,0-12.2c0-3.2-2.3-6.5-5.5-7.2c-3.4-0.8-6.5,0.6-8.5,3.4
				c-2.1,3.1-3.6,6.6-4.5,10.2c-1,4.2,1.3,7.8,5.2,9.2c3.8,1.4,7.7,1.4,11.6,0.7c3.3-0.6,5.4-4.2,5.5-7.2c0.1-2.3,0.1-4.6,0.2-6.9
				c0.1-3.9-3.5-7.7-7.5-7.5c-4.1,0.2-7.4,3.3-7.5,7.5c-0.1,2.3-0.1,4.6-0.2,6.9c1.8-2.4,3.7-4.8,5.5-7.2c1.2-0.2-2,0-1.3,0
				c0.4,0.1,0.2,0-0.7-0.2c-0.6-0.1-1.1-0.3-1.6-0.5c1.7,3.1,3.5,6.2,5.2,9.2c0.7-2.8,1.2-4,3-6.6c-4.7-1.3-9.3-2.5-14-3.8
				c0,4.1,0,8.1,0,12.2c0,3.9,3.5,7.7,7.5,7.5C233.1,150.3,236.5,147.2,236.5,143L236.5,143z"/>
		</g>
	</g>
	<g id="XMLID_292_">
		<g id="XMLID_141_">
			<path id="XMLID_109_" class="st6" d="M245.6,164.7c3.2-8.8,2.3-18.3,1.8-27.5c-4.9,0.7-9.8,1.3-14.7,2c0.5,1.2,0.9,2.4,1.4,3.7
				c3.4,9,17.9,5.1,14.5-4c-0.5-1.2-0.9-2.4-1.4-3.7c-2.8-7.4-15.2-7.1-14.7,2c0.4,7.9,1.5,15.9-1.3,23.5
				C227.8,169.8,242.3,173.7,245.6,164.7L245.6,164.7z"/>
		</g>
	</g>
	<g id="XMLID_70_">
		<g id="XMLID_215_">
			<path id="XMLID_222_" class="st6" d="M250.6,87.1c-1,9.4,2.1,19.4,7.9,26.8c2.5,3.2,6.5,4.9,10.3,2.7c3.2-1.8,5.2-7,2.7-10.3
				c-4.4-5.7-6.6-12-5.8-19.3c0.4-4-3.8-7.5-7.5-7.5C253.7,79.6,251,83,250.6,87.1L250.6,87.1z"/>
		</g>
	</g>
	<g id="XMLID_69_">
		<g id="XMLID_207_">
			<path id="XMLID_211_" class="st6" d="M229,118.1c-1.6,6,0.8,12.4,6.5,15.2c7.1,3.5,13.3-3.4,10.3-10.3c-2-4.5-4-9.1-5.9-13.6
				c-0.8-1.8-1.5-4.1-2.8-5.6c-0.6-1.5-0.8-1.6-0.6-0.2c0.1-0.7,0.4-1.3,0.8-1.9c3-6.3,10.7-9.8,16.6-12.7c8.7-4.2,1.1-17.2-7.6-13
				c-9.5,4.7-19.2,10.8-23.3,21c-2.4,5.9-0.9,10.1,1.9,15.5c3,5.8,5.4,12,8,18c3.4-3.4,6.8-6.8,10.3-10.3c0,0.6,0.1,1.2,0.4,1.7
				C246,112.8,231.5,108.8,229,118.1L229,118.1z"/>
		</g>
	</g>
	<g id="XMLID_294_">
		<g id="XMLID_135_">
			<path id="XMLID_100_" class="st3" d="M208.4,251c1-5.8,2.1-11.7,3.1-17.5c-2.4,1.8-4.8,3.7-7.2,5.5c13.2,1.7,26.4,2.8,39.7,3.2
				c9.1,0.3,9.3-11.8,2-14.7c-6.9-2.8-14.9-3.2-22.2-4.7c-7.7-1.6-15.4-3.3-23-5.1c-9.4-2.3-13.4,12.2-4,14.5
				c7.6,1.8,15.3,3.6,23,5.1c7.2,1.5,15.3,1.9,22.2,4.7c0.7-4.9,1.3-9.8,2-14.7c-13.3-0.4-26.5-1.5-39.7-3.2c-3-0.4-6.7,2.6-7.2,5.5
				c-1,5.8-2.1,11.7-3.1,17.5C192.3,256.5,206.7,260.5,208.4,251L208.4,251z"/>
		</g>
	</g>
	<g id="XMLID_107_">
		<g id="XMLID_128_">
			<path id="XMLID_94_" class="st7" d="M267,381c0-0.3,0-0.7,0-1c0-1.5-0.7-3.2-1.8-4.2c-1-1-2.7-1.8-4.2-1.8
				c-1.6,0.1-3.2,0.6-4.2,1.8c-1.1,1.2-1.8,2.6-1.8,4.2c0,0.3,0,0.7,0,1c0,1.5,0.7,3.2,1.8,4.2c1,1,2.7,1.8,4.2,1.8
				c1.6-0.1,3.2-0.6,4.2-1.8C266.3,384.1,267,382.6,267,381L267,381z"/>
		</g>
	</g>
	<g id="XMLID_227_">
		<g id="XMLID_121_">
			<path id="XMLID_88_" class="st7" d="M260.5,385.1c1.5-4.2,0-9.7-5-10.5c-4.6-0.7-7.5,2.8-7.9,7c-0.3,2.6,2,5.2,4.4,5.8
				c0.2,0,0.3,0.1,0.5,0.1c3.5,0.9,7.9-1.8,7.6-5.8c-1.3,1.6-1.4,2-0.1,1.2c1.2-0.4,2.4-0.7,3.5-1.1c1.8-0.5,3.5-1.1,5.3-1.6
				c4.1-1.2,8.3-2.5,12.4-3.7c7.4-2.2,4.3-13.5-3.2-11.6c-6.5,1.6-12.3,5-16.7,10c-3.8,4.2-0.2,11.9,5.8,10
				c6.7-2.1,11-7.7,10.9-14.7c-0.6,1.4-1.2,2.8-1.8,4.2c0.2-0.2,0.4-0.3,0.6-0.5c-1.4,0.6-2.8,1.2-4.2,1.8c-1.1-0.6-2.3-1.3-3.4-1.9
				c3.1,7,13.5,0.9,10.4-6.1c-1.6-3.7-6.5-5-10-3.2c-1.5,0.8-2.8,2.4-3.3,4.1c-0.6,2.1,0.3,4-2.3,4.8c1.9,3.3,3.9,6.7,5.8,10
				c3.2-3.6,6.8-5.8,11.4-7c-1.1-3.9-2.1-7.7-3.2-11.6c-6.8,2-13.6,3.9-20.3,6.1c-4.9,1.6-10.1,4.7-9.6,10.6
				c2.5-1.9,5.1-3.9,7.6-5.8c-0.2,0-0.3-0.1-0.5-0.1c1.5,1.9,2.9,3.9,4.4,5.8c-0.1,0.6-0.2,1.3-0.3,1.9c-1.7,1-3.5,2-5.2,3
				c0.2,0,0.4,0,0.6,0c-1.7-1-3.5-2-5.2-3c-0.2-0.5-0.4-1.1-0.6-1.6C246.3,389.2,257.9,392.3,260.5,385.1L260.5,385.1z"/>
		</g>
	</g>
	<g id="XMLID_262_">
		<g id="XMLID_116_">
			<path id="XMLID_83_" class="st7" d="M185.8,384.1c-0.1-0.6-0.2-1.3-0.4-1.9c0.5-0.9,1-1.8,1.5-2.6c0,0,0.1,0,0.1-0.1
				c3,1.7,6,3.5,9,5.2c0-1.6,0-3.2,0-4.7c-4,0-8,0-12,0c0,5.2,4.2,9.2,9.4,9.4c2.4,0.1,4.8-0.7,6.8-2c0.7-0.5,3.9-3.6,4.8-3.4
				c0.5-3.9,1.1-7.9,1.6-11.8c-6.8,0.2-13.6,1.4-20.1,3.5c-7.3,2.4-4.2,14,3.2,11.6c5.5-1.8,11.1-2.8,16.9-3
				c6.7-0.2,8.3-9.9,1.6-11.8c-3.3-0.9-6.4-0.4-9.4,1.2c-1.3,0.7-2.4,1.7-3.5,2.6c-0.5,0.4-1,0.8-1.5,1.1c0.9,0.7,1.7,1.6,2.3,2.7
				c-0.1-7.7-12-7.7-12,0c0,1.6,0,3.2,0,4.7c0,4.8,5,7.2,9,5.2c4.2-2.1,5.8-7.9,3-11.8c-1.9-2.6-5.2-3.9-8.2-2.2
				C185.3,377.4,183.9,381.4,185.8,384.1L185.8,384.1z"/>
		</g>
	</g>
	<g id="XMLID_312_">
		<g id="XMLID_110_">
			<path id="XMLID_78_" class="st7" d="M210.8,378.1c3.3,1.3,6.6,0.1,8.4-3c0.4-0.6,0.2-1.7-0.5-2.1c-2.9-1.3-5.6-0.9-7.7,1.6
				c-0.9,1-0.2,2.4,1.1,2.6c2.2,0.3,4.5,0.5,6.7,0.8c1.7,0.2,2.1-2.7,0.4-2.9c-3.8-0.5-7.4-0.1-10.8,2c-5,3.1-9.1,12.9-14.9,4.2
				c-1.9-2.8-2.7-5.9-6.2-7c-2.5-0.8-4.7-0.2-6.2,2c-0.7,1,0.3,2.2,1.3,2.3c0.9,0.1,1.8,0.1,2.7,0.2c1.9,0.1,1.9-2.9,0-3
				c-0.9-0.1-1.8-0.1-2.7-0.2c0.4,0.8,0.9,1.5,1.3,2.3c3.1-4.3,7.9,6.8,9.7,8.2c1.7,1.4,3.9,2.1,6.1,1.9c2.5-0.2,4.1-1.4,5.7-3.1
				c4-4.2,6.6-7.7,13.2-6.8c0.1-1,0.3-2,0.4-2.9c-2.2-0.3-4.5-0.5-6.7-0.8c0.4,0.9,0.7,1.7,1.1,2.6c1.4-0.4,2.7-0.7,4.1-1.1
				c-0.2-0.7-0.4-1.4-0.5-2.1c-1.4,2.1-3.1,2.7-5,1.6C209.8,374.5,209,377.4,210.8,378.1L210.8,378.1z"/>
		</g>
	</g>
	<g id="XMLID_338_">
		<g id="XMLID_102_">
			<path id="XMLID_6_" class="st7" d="M284,371c2.4,0,4.2-2.4,3.5-4.8c-0.9,0.4-1.8,0.8-2.7,1.2c0.8,1.1,1.3,2.2,1.3,3.6
				c1,0,2,0,3,0c0.1,0.7-0.9,0.4-1,0.1c0.3-0.7,0.6-1.5,0.9-2.2c-1.4,0.2-2.6,1.1-3.4,2.3c-1.1,1.6,1.5,3.1,2.6,1.5
				c0.4-0.6,0.9-0.8,1.6-0.9c0.9-0.2,1.4-1.5,0.9-2.2c-1.3-1.9-4.7-1.2-4.6,1.4c0.1,1.9,3.1,1.9,3,0c-0.1-1.9-0.6-3.6-1.7-5.1
				c-0.9-1.3-3.3-0.6-2.7,1.2c0.1,0.4-0.1,1-0.6,1C282.1,368,282.1,371,284,371L284,371z"/>
		</g>
	</g>
	<g id="XMLID_369_">
		<g id="XMLID_96_">
			<path id="XMLID_5_" class="st4" d="M147.2,112.3c-1.5-2.1-2.1-4.4-1.8-7c0.1-1.2-1.4-1.8-2.3-1.3c-0.9,0.5-1.9,1.1-2.8,1.6
				c0.7,0.6,1.5,1.1,2.2,1.7c0.7-1.9,1.9-3.4,3.3-4.7c-0.8-0.6-1.6-1.2-2.4-1.8c-0.9,1.4-1.8,2.7-2.7,4.1c0.9,0.4,1.8,0.8,2.7,1.2
				c0.6-1.8,1.6-3.2,3.2-4.4c-0.6-0.8-1.2-1.6-1.8-2.4c-2.3,2.7-4.4,5.5-6.2,8.6c0.9,0.3,1.9,0.5,2.8,0.8c0-4.1,1.9-7.7,5.3-10
				c-0.5,0-1,0-1.5,0c1.9,1,2.7,2.9,2.1,4.9c-0.5,1.9,2.4,2.7,2.9,0.8c0.9-3.4-0.5-6.6-3.5-8.3c-0.4-0.3-1.1-0.3-1.5,0
				c-4.3,2.9-6.8,7.4-6.8,12.6c0,1.5,2,2,2.8,0.8c1.7-2.8,3.6-5.5,5.7-8c1-1.2-0.4-3.4-1.8-2.4c-2.2,1.7-3.6,3.6-4.5,6.2
				c-0.6,1.7,1.8,2.5,2.7,1.2c0.9-1.4,1.8-2.7,2.7-4.1c1-1.5-1.1-2.9-2.4-1.8c-1.9,1.7-3.2,3.6-4.1,6c-0.5,1.3,1.2,2.3,2.2,1.7
				c0.9-0.5,1.9-1.1,2.8-1.6c-0.8-0.4-1.5-0.9-2.3-1.3c-0.3,3.1,0.4,5.9,2.2,8.5C145.7,115.4,148.3,113.9,147.2,112.3L147.2,112.3z"
				/>
		</g>
	</g>
	<g id="XMLID_235_">
		<g id="XMLID_150_">
			<path id="XMLID_154_" class="st4" d="M247.8,197.3c-7.5,2.6-12.6,8.2-15.5,15.5c0.9-0.1,1.8-0.2,2.7-0.4
				c-1.5-2.2-1.4-5.2,0.2-7.3c-0.9-0.5-1.7-1-2.6-1.5c-1.9,3.4-3.1,6.9-3.8,10.7c1,0,1.9,0,2.9,0c-0.7-2.1-0.2-4,1.3-5.5
				c-0.8-0.5-1.7-1-2.5-1.5c-0.5,1.5-0.9,3.1-1.5,4.6c-0.9,2.5-3.2,3.8-2.4,0.2c-1,0-1.9,0-2.9,0c0.3,1.4-9.8,0.8-10.8,0.7
				c-6-0.8-11.3-2.6-17.5-1.6c0.6,0.6,1.2,1.2,1.8,1.8c4.9-16.9,6.9-34.4,5.9-52c-0.1-1.9-3.1-1.9-3,0c1,17.3-0.9,34.5-5.8,51.2
				c-0.3,1.2,0.8,2,1.8,1.8c7.7-1.2,15.2,2.3,23,2c3-0.1,8.3-0.6,7.3-4.8c-0.3-1.4-2.6-1.4-2.9,0c-0.5,2.5-0.3,7.2,3.2,7.2
				c4.5,0,5.5-7.5,6.5-10.5c0.5-1.4-1.5-2.6-2.5-1.5c-2.2,2.5-2.9,5.2-2.1,8.5c0.3,1.4,2.6,1.5,2.9,0c0.7-3.6,1.8-6.8,3.5-10
				c0.9-1.7-1.5-3-2.6-1.5c-2.4,3.2-2.5,7-0.2,10.3c0.8,1.1,2.3,0.8,2.7-0.4c2.5-6.2,7-11.1,13.4-13.4
				C250.4,199.6,249.6,196.7,247.8,197.3L247.8,197.3z"/>
		</g>
	</g>
	<g id="XMLID_373_">
		<g id="XMLID_144_">
			<path id="XMLID_148_" class="st4" d="M274.8,207.7c1,1.6,1.9,3.2,2.9,4.8c0.6,1,2.5,1,2.7-0.4c0.4-3,0.1-5.6-1.4-8.3
				c-0.8-1.5-3.3-0.5-2.7,1.2c0.7,2.1,1.4,4.1,2.1,6.2c0.5,1.5,3.2,1.4,2.9-0.4c-1.2-9.2-8.5-16.2-17.7-17c-1.9-0.2-1.9,2.8,0,3
				c7.4,0.6,13.8,6.5,14.7,14c1-0.1,2-0.3,2.9-0.4c-0.7-2.1-1.4-4.1-2.1-6.2c-0.9,0.4-1.8,0.8-2.7,1.2c1.1,1.9,1.5,3.8,1.1,6
				c0.9-0.1,1.8-0.2,2.7-0.4c-1-1.6-1.9-3.2-2.9-4.8C276.4,204.5,273.8,206,274.8,207.7L274.8,207.7z"/>
		</g>
	</g>
	<g id="XMLID_390_">
		<g id="XMLID_90_">
			<path id="XMLID_4_" class="st4" d="M311,250.8c2.6-0.2,5,1.3,5.8,3.8c0.6-0.6,1.2-1.2,1.8-1.8c-2.5-0.7-4.8-1.6-7-2.9
				c-1.5-0.9-2.9,1.1-1.8,2.4c1.3,1.6,2.6,3.1,3.9,4.7c0.2-0.8,0.4-1.7,0.7-2.5c-0.7,0.3-1.5,0.1-1.8-0.8c-0.6-1.8-3.4-1.1-2.9,0.8
				c0.7,2.3,3.2,3.7,5.5,2.9c1.1-0.4,1.4-1.6,0.7-2.5c-1.3-1.6-2.6-3.1-3.9-4.7c-0.6,0.8-1.2,1.6-1.8,2.4c2.4,1.4,5,2.5,7.8,3.2
				c1.1,0.3,2.2-0.7,1.8-1.8c-1.1-3.7-4.7-6.3-8.7-6C309.1,247.9,309.1,250.9,311,250.8L311,250.8z"/>
		</g>
	</g>
	<g id="XMLID_420_">
		<g id="XMLID_84_">
			<path id="XMLID_3_" class="st4" d="M204.6,162.6c5.9-5.8,12.5-10.6,19.9-14.3c-0.7-0.3-1.5-0.6-2.2-0.9c0.2,1,0.4,2,0.6,3
				c0.1,0.6,0.8,1.1,1.4,1.1c3,0,4.8-3.3,3.3-5.9c-2.1-3.7-6.7-1.7-9.2,0.3c-0.9,0.7-0.4,2.3,0.7,2.5c4.1,0.9,7.8-0.2,10.8-3.3
				c0.9-0.9,0.3-2.5-1.1-2.6c-3.4-0.1-6.3,0.6-9.3,2.2c-1.3,0.7-0.7,2.8,0.8,2.8c3.1-0.1,5.9-0.6,8.9-1.7c-0.6-0.3-1.2-0.7-1.8-1
				c0.3,1.2,0.6,2.4,0.9,3.6c0.2,0.7,0.8,1.1,1.4,1.1c5.2,0.2,4.4-7.7-1-6.9c-3.3,0.5-4.1,3.5-5.4,6c-2.4,4.9-3.6,3.7-7.6,4.6
				c-1.5,0.4-2.4,0.8-3.5,2c-1.3,1.5,0.9,3.6,2.1,2.1c2.1-2.4,6.5-0.9,9-3.1c2.2-1.9,2.8-7.9,6.3-7.8c0.5,0.4,1,0.7,1.4,1.1
				c-0.3-1.2-0.6-2.4-0.9-3.6c-0.2-0.7-1.1-1.3-1.8-1c-2.7,1-5.2,1.5-8.1,1.6c0.3,0.9,0.5,1.9,0.8,2.8c2.6-1.3,4.9-1.8,7.8-1.8
				c-0.4-0.9-0.7-1.7-1.1-2.6c-2.2,2.3-4.7,3.2-7.8,2.5c0.2,0.8,0.4,1.7,0.7,2.5c1.3,0.2,2.5,0.4,3.8,0.6c0.5,0.4,1,0.7,1.4,1.1
				c-0.2-1-0.4-2-0.6-3c-0.2-1-1.4-1.3-2.2-0.9c-7.6,3.9-14.4,8.8-20.5,14.8C201.1,161.8,203.2,164,204.6,162.6L204.6,162.6z"/>
		</g>
	</g>
	<g id="XMLID_383_">
		<g id="XMLID_79_">
			<path id="XMLID_2_" class="st4" d="M251.4,202.1c4.4-0.6,7.6-4.8,7-9.2c-0.2-1.5-1.9-2.1-2.8-0.8c-1.7,2.6-2.7,5.3-3,8.4
				c1-0.1,2-0.3,2.9-0.4c-0.3-1.1,0.1-2,1-2.6c-0.8-0.4-1.5-0.9-2.3-1.3c0.1,1.5,0.2,3,0.4,4.4c0.1,1.3,1.5,1.9,2.6,1.1
				c2-1.6,2.6-3.9,2.2-6.3c-0.2-1.5-2.6-1.4-2.9,0c-0.5,2.3,0.6,4.4,2.9,5c1,0.3,1.9-0.5,1.9-1.4c0.1-1.9,0.1-3.9,0.2-5.8
				c0-1.7-2.7-2.1-2.9-0.4c-0.4,2.2-0.2,4.2,0.6,6.3c0.2-0.6,0.5-1.1,0.7-1.7c-3.8,2.6-7.7,5.1-11.7,7.2c0.7,0.6,1.5,1.1,2.2,1.7
				c0.3-1.7,1.6-2.7,3.3-2.5c0.7,0.1,1.2-0.5,1.4-1.1c1-2.9,1.3-5.8,1.1-8.8c-0.2-1.9-3.2-1.9-3,0c0.2,2.8-0.1,5.3-0.9,8
				c0.5-0.4,1-0.7,1.4-1.1c-3-0.3-5.7,1.7-6.2,4.7c-0.2,1.3,1,2.3,2.2,1.7c4.1-2.2,8-4.6,11.7-7.2c0.5-0.3,1-1.1,0.7-1.7
				c-0.7-1.5-0.9-3-0.6-4.7c-1-0.1-2-0.3-2.9-0.4c-0.1,1.9-0.1,3.9-0.2,5.8c0.6-0.5,1.3-1,1.9-1.4c-0.3-0.4-0.6-0.9-0.8-1.3
				c-1,0-1.9,0-2.9,0c0.2,1.5-0.3,2.5-1.4,3.4c0.9,0.4,1.7,0.7,2.6,1.1c-0.1-1.5-0.2-3-0.4-4.4c-0.1-1.1-1.2-2-2.3-1.3
				c-2.1,1.3-3,3.5-2.4,5.9c0.4,1.8,2.8,1.2,2.9-0.4c0.3-2.5,1.2-4.8,2.6-6.9c-0.9-0.3-1.9-0.5-2.8-0.8c0.4,3.2-1.7,5.8-4.8,6.3
				C248.7,199.4,249.5,202.3,251.4,202.1L251.4,202.1z"/>
		</g>
	</g>
	<g id="XMLID_419_">
		<g id="XMLID_74_">
			<path id="XMLID_1_" class="st6" d="M231,166.5c-1.9-0.1-3.8-0.1-5.8-0.2c0.5,0.4,1,0.7,1.4,1.1c-0.6-2.1,1.6-3.9,3.6-3.1
				c0.1-1,0.3-2,0.4-2.9c0.3,0,0.3-0.4,0.9-0.4c0.8-0.1,1.6,0.4,2.3,0.8c1.7,0.9,3.2-1.7,1.5-2.6c-2.2-1.1-5.9-2.2-7.2,0.7
				c-0.9,1.9,0.1,4.6,2.5,4.5c1.8,0,1.9-2.3,0.4-2.9c-4.1-1.6-8.5,2.7-7.2,6.8c0.2,0.7,0.8,1.1,1.4,1.1c1.9,0.1,3.8,0.1,5.8,0.2
				C232.9,169.6,232.9,166.6,231,166.5L231,166.5z"/>
		</g>
	</g>
</g>
<g id="Capa_5">
	<g id="XMLID_600_">
		<path id="XMLID_65_" d="M201,156.3c0,0-0.1,3.5-0.1,9.5c-0.1,6.1-0.3,14.7-0.7,25.1c-0.2,5.2,0,10.9-1.7,17
			c-0.8,3-2.1,5.9-3.5,8.7c-0.7,1.4-1.4,2.8-2.1,4.3l-0.5,1.1l-0.5,1.1c-0.3,0.7-0.6,1.5-1,2.2c-2.4,5.8-4,12.3-5,18.8
			c-1.1,6.6-1.3,13.4-1,20.2c0.3,6.8,1.2,13.6,2.5,20.2c1.4,6.6,3.2,13.1,3.8,19.8c0.3,3.3,0.3,6.7-0.2,9.9
			c-0.5,3.2-1.2,6.2-1.9,9.1c-1.4,5.8-2.4,11.2-3.3,16.3c-1.6,10.2-2.2,18.8-2.4,24.9c-0.1,3-0.2,5.4-0.2,7c0,1.6,0,2.5,0,2.5
			s-0.1-0.9-0.2-2.5c-0.1-1.6-0.3-4-0.4-7c-0.2-6.1-0.2-14.8,1-25.2c0.6-5.2,1.4-10.8,2.6-16.7c0.6-2.9,1.2-5.9,1.5-8.9
			c0.3-3,0.3-6,0-9.2c-0.7-6.3-2.6-12.6-4.1-19.4c-1.4-6.8-2.4-13.7-2.7-20.8c-0.3-7,0-14.1,1.2-21c0.3-1.7,0.6-3.4,1-5.1
			c0.2-0.8,0.4-1.7,0.6-2.5c0.2-0.8,0.5-1.7,0.7-2.5c0.4-1.7,1-3.2,1.5-4.9c0.6-1.6,1.2-3.2,1.8-4.7c0.3-0.7,0.7-1.5,1-2.2l0.5-1.1
			l0.5-1.1c0.7-1.5,1.5-2.8,2.2-4.2c1.4-2.8,2.7-5.4,3.6-8.1c0.8-2.7,1.2-5.5,1.5-8.2c0.3-2.7,0.5-5.5,0.7-8c0.8-10.4,1.6-19,2.2-25
			C200.6,159.8,201,156.3,201,156.3z"/>
	</g>
	<g id="XMLID_597_">
		<path id="XMLID_62_" d="M212.9,272.8C212.9,272.8,212.8,272.8,212.9,272.8c-0.1,0-0.1,0-0.2,0c-0.1,0,0-0.1,0-0.2
			c0.2-0.1,0.5-0.4,1-0.2c0.3,0.1,0.4,0.3,0.6,0.5c0.2,0.2,0.4,0.3,0.6,0.5c0.4,0.4,0.9,0.8,1.4,1.4c0.5,0.5,1.1,1.1,1.7,1.8
			c0.6,0.7,1.2,1.4,1.9,2.2c0.7,0.8,1.4,1.7,2.1,2.6c0.7,1,1.4,2,2.1,3c1.5,2.1,2.9,4.6,4.3,7.2c1.4,2.6,2.8,5.4,4,8.4
			c1.3,3,2.5,6,3.6,9.2c1.2,3.2,2.2,6.4,3.3,9.6c1,3.3,2,6.5,2.9,9.7c0.9,3.2,1.7,6.4,2.5,9.5c1.5,6.2,2.6,12.1,3.4,17.1
			c0.4,2.5,0.7,4.8,1,6.9c0.3,2.1,0.4,3.9,0.6,5.3c0.2,1.5,0.2,2.7,0.3,3.5c0,0.8,0.1,1.2,0.1,1.2s-0.6-1.6-1.5-4.4
			c-0.5-1.4-1.1-3.1-1.7-5.1c-0.6-2-1.3-4.2-2.1-6.6c-3-9.6-7.1-22.5-11.1-35.3c-1-3.2-2-6.4-3.1-9.6c-1-3.1-2-6.2-3.1-9.1
			c-1.1-2.9-2.1-5.8-3.2-8.4c-1.1-2.6-2.1-5.1-3.2-7.4c-1.1-2.3-2.1-4.3-3.1-6.1c-0.5-0.9-1-1.7-1.4-2.5c-0.5-0.8-0.9-1.4-1.3-2.1
			c-0.4-0.6-0.8-1.2-1.1-1.7c-0.2-0.2-0.3-0.5-0.4-0.7c-0.1-0.2-0.3-0.4-0.3-0.5c-0.2-0.2-0.6-0.1-0.7,0
			C212.7,272.8,212.7,272.8,212.9,272.8C212.8,272.8,212.9,272.8,212.9,272.8z"/>
	</g>
	<g id="XMLID_594_">
		<path id="XMLID_58_" d="M253.8,223.1c0,0,0.4,2.1,1,5.9c0.3,1.9,0.7,4.1,1.1,6.8c0.4,2.6,0.9,5.6,1.3,8.8
			c0.5,3.2,0.9,6.7,1.4,10.4c0.5,3.7,1,7.6,1.4,11.6c0.5,4,0.9,8.2,1.4,12.4c0.5,4.2,0.8,8.6,1.2,12.9c0.3,4.3,0.7,8.6,1,12.9
			c0.3,4.2,0.6,8.4,0.8,12.5c0.2,4.1,0.4,8,0.6,11.7c0.2,3.7,0.3,7.2,0.4,10.5c0.1,3.2,0.2,6.2,0.2,8.8c0.1,2.6,0.1,4.9,0.1,6.8
			c0,3.8,0.1,5.9,0.1,5.9s-0.1-2.2-0.3-5.9c-0.1-1.9-0.2-4.2-0.4-6.8c-0.1-2.6-0.3-5.6-0.5-8.8c-0.2-3.2-0.5-6.7-0.8-10.4
			c-0.3-3.7-0.6-7.6-1-11.6c-0.4-4-0.8-8.2-1.3-12.4c-0.4-4.2-1-8.5-1.5-12.8c-0.6-4.3-1.1-8.6-1.7-12.8c-0.6-4.2-1.2-8.3-1.8-12.3
			c-0.6-4-1.2-7.9-1.9-11.5c-0.6-3.7-1.2-7.1-1.8-10.3c-0.6-3.2-1.1-6.1-1.6-8.7c-0.5-2.6-0.9-4.8-1.3-6.7c-0.7-3.7-1.2-5.8-1.2-5.8
			L253.8,223.1z"/>
	</g>
	<g id="XMLID_591_">
		<path id="XMLID_53_" d="M220.9,290.3c0,0,0,0.4,0,1.2c0,0.8,0.1,1.9,0.1,3.4c0.1,2.9,0.2,7,0.2,11.9c0,2.5,0,5.1-0.1,8
			c-0.1,2.8-0.2,5.9-0.5,9c-0.4,3.1-0.8,6.4-1.6,9.6c-0.7,3.2-1.7,6.4-2.7,9.6c-1,3.2-2.2,6.3-3.3,9.3c-0.6,1.5-1.2,3-1.8,4.5
			c-0.6,1.5-1.2,2.9-1.8,4.4c-1.2,2.9-2.8,5.8-4.9,8c-0.5,0.6-1.1,1-1.7,1.6c-0.6,0.4-1.1,0.8-1.8,1.2c-0.7,0.4-1.3,0.7-1.9,1
			c-0.7,0.2-1.3,0.5-1.9,0.6c-2.5,0.7-4.9,0.8-6.9,0.8c-2.1,0-3.8-0.3-5.2-0.5c-1.4-0.2-2.6-0.4-3.3-0.6c-0.8-0.2-1.2-0.2-1.2-0.2
			s0.4,0,1.2,0c0.8,0,1.9,0,3.3,0c1.4,0,3.2-0.1,5.1-0.3c1.9-0.2,4.1-0.6,6.3-1.4c0.6-0.2,1.1-0.5,1.6-0.7c0.5-0.3,1.1-0.6,1.5-0.9
			c0.4-0.3,1-0.7,1.5-1.2c0.4-0.3,0.9-0.9,1.2-1.3c1.6-2,2.8-4.6,3.9-7.4c1-2.9,2.1-5.9,3.2-8.9c1.1-3,2.2-6.1,3.2-9.2
			c1-3.1,2-6.2,2.7-9.3c0.8-3.1,1.4-6.1,1.9-9.1c0.4-3,0.8-5.9,1-8.7c0.2-2.8,0.5-5.5,0.7-7.9c0.5-4.9,1-9,1.3-11.9
			c0.2-1.4,0.3-2.6,0.5-3.3C220.9,290.7,220.9,290.3,220.9,290.3z"/>
	</g>
	<g id="XMLID_588_">
		<path id="XMLID_49_" d="M251.2,227.6c0,0,0-0.3,0.1-0.8c0.1-0.5,0.2-1.3,0.4-2.2c0.4-1.8,1.1-4.1,1.9-6.3c0.9-2.2,1.9-4.3,2.8-5.8
			c0.9-1.5,1.5-2.4,1.5-2.4s-0.4,1.1-0.8,2.7c-0.4,1.6-0.9,3.9-1.1,6.1c-0.2,2.2-0.2,4.4-0.1,6c0,0.8,0.1,1.4,0.2,1.9
			c0.1,0.5,0.1,0.8,0.1,0.8L251.2,227.6z"/>
	</g>
	<g id="XMLID_585_">
		<path id="XMLID_47_" d="M270.2,224.4l8.8,6.7l4.4,3.3c1.5,1.1,3,2.3,4.4,3.4c5.8,4.6,11.6,9,17.7,13.1c3,2,6.2,3.9,9.4,5.5
			c1.6,0.8,3.3,1.5,5,2c1.7,0.5,3.4,0.9,5,0.6c1.5-0.2,2.9-1.3,4-2.7c1.1-1.4,2-3,2.8-4.6c0.8-1.6,1.4-3.3,1.6-5.1
			c0.2-1.8,0-3.6-0.8-5.2l0.2,0.1l-7.6-1.3l-0.1,0l0-0.1c0-1.1-0.8-2.3-2-2.5c1.2,0.2,2.2,1.3,2.2,2.5l-0.1-0.1l7.7,0.9l0.1,0
			l0.1,0.1c0.9,1.7,1.3,3.6,1.1,5.5c-0.1,1.9-0.7,3.7-1.4,5.5c-0.7,1.7-1.6,3.4-2.7,5c-1.1,1.6-2.7,3.1-4.8,3.5
			c-2,0.4-4,0.1-5.9-0.3c-1.9-0.5-3.6-1.1-5.4-1.8c-3.5-1.5-6.7-3.3-10-5.1c-6.4-3.8-12.5-8-18.5-12.3c-1.5-1.1-3-2.1-4.5-3.1
			l-4.6-3.1l-9.1-6.2L270.2,224.4z"/>
	</g>
	<g id="XMLID_582_">
		<path id="XMLID_43_" d="M253,186.7c0,0,0.3,0.6,0.8,1.7c0.5,1.1,1.2,2.7,2,4.6c1.6,3.8,3.6,8.9,5.5,14c1.9,5.1,3.5,10.3,4.7,14.2
			c1.2,3.9,1.9,6.5,1.9,6.5s-1-2.5-2.6-6.2c-1.6-3.7-3.9-8.7-6.3-13.5c-2.4-4.8-5-9.6-7-13.1c-1-1.8-1.8-3.2-2.4-4.2
			c-0.6-1-0.9-1.6-0.9-1.6L253,186.7z"/>
	</g>
	<g id="XMLID_579_">
		<path id="XMLID_41_" d="M279.7,208.4c0.7,0.1,1.4,0.2,2.1,0.3l-0.4,0.4c-0.6-1.4-1.2-2.8-1.8-4.3c-0.6-1.4-1.2-2.8-1.7-4.3
			l-1.7-4.3l-1.6-4.3c-2.1-5.7-4.1-11.5-6.1-17.3c-2-5.8-3.9-11.6-5.7-17.4c-0.4-1.5-0.9-2.9-1.4-4.2c-0.5-1.4-1.1-2.6-1.9-3.8
			c-0.8-1.2-1.7-2.2-2.9-3c-1.2-0.8-2.6-1.4-4.1-1.5c1.5-0.4,3.2-0.3,4.8,0.3c1.6,0.6,3,1.5,4.2,2.7c1.2,1.2,2.1,2.6,2.9,4
			c0.8,1.4,1.5,2.9,2.1,4.3c1.2,2.8,2.4,5.7,3.6,8.5c1.1,2.9,2.2,5.8,3.2,8.7c2,5.8,3.8,11.7,5.3,17.7c0.8,3,1.4,6,2,9
			c0.3,1.5,0.6,3,0.8,4.6c0.3,1.5,0.5,3.1,0.7,4.6l0.1,0.6l-0.5-0.2C280.9,209,280.3,208.7,279.7,208.4z"/>
	</g>
	<g id="XMLID_576_">
		<path id="XMLID_39_" d="M279.5,208c1.7,1.2,3.3,2.5,4.9,3.7c1.6,1.3,3.2,2.5,4.8,3.8l4.7,3.9l4.7,3.9l9.3,7.8
			c0.8,0.7,1.5,1.3,2.3,1.9c0.7,0.6,1.5,1.2,2.3,1.7c1.5,1,3.1,1.8,4.7,2l1.4,0.2l0.3,1c0.2,0.6,0.3,1.3,0.5,1.9
			c0.1,0.7,0.2,1.3,0.3,2c0.1,0.7,0.1,1.3,0.1,2c0,0.7,0,1.3,0,2c-0.1,0.6-0.1,1.3-0.2,1.9c-0.1,0.6-0.2,1.3-0.4,1.9
			c-0.2,0.6-0.3,1.2-0.5,1.8c-0.2,0.6-0.5,1.2-0.7,1.8c0-0.6,0-1.3,0-1.9c0-0.6,0-1.2,0-1.8l-0.2-1.8c-0.1-0.6-0.2-1.2-0.3-1.8
			c-0.1-0.6-0.2-1.2-0.4-1.7c-0.1-0.6-0.3-1.1-0.5-1.7c-0.2-0.6-0.4-1.1-0.6-1.6c-0.2-0.5-0.4-1.1-0.7-1.6l1.7,1.2
			c-2.5,0-4.8-0.8-6.8-1.9c-1-0.5-1.9-1.1-2.8-1.8c-0.9-0.6-1.7-1.3-2.5-1.9c-1.6-1.3-3.2-2.6-4.8-3.9c-0.8-0.7-1.6-1.3-2.3-2
			l-2.3-2.1c-1.5-1.4-2.9-2.9-4.4-4.4c-1.4-1.5-2.8-3-4.1-4.6c-1.3-1.6-2.6-3.2-3.9-4.8c-0.6-0.8-1.2-1.7-1.8-2.5
			C280.6,209.7,280.1,208.8,279.5,208z"/>
	</g>
	<g id="XMLID_573_">
		<path id="XMLID_37_" d="M201.1,169c0,0-0.3-0.1-0.9-0.4c-0.6-0.3-1.5-0.6-2.6-1.2c-1.1-0.5-2.4-1.2-3.9-2.1
			c-1.5-0.9-3.1-1.9-4.8-3.1c-1.7-1.2-3.5-2.6-5.4-4.2c-1.8-1.5-3.8-3.2-5.7-5c-1.9-1.8-3.9-3.6-5.8-5.6c-1.9-1.9-3.9-3.9-5.8-5.9
			c-1.9-2-3.8-4-5.7-6c-1.9-2-3.7-3.9-5.5-5.9c-1.8-1.9-3.4-3.8-5-5.6c-1.6-1.8-3-3.5-4.4-5.1c-2.7-3.2-4.9-5.9-6.4-7.8
			c-1.5-1.9-2.3-3-2.3-3s1.1,0.9,2.9,2.5c1.8,1.6,4.4,3.9,7.5,6.7c1.5,1.4,3.2,2.9,4.9,4.6c1.7,1.7,3.5,3.4,5.4,5.2
			c1.8,1.8,3.8,3.6,5.7,5.6c1.9,1.9,3.9,3.9,5.8,5.9c1.9,2,3.8,4,5.7,6c1.9,2,3.7,3.9,5.5,5.8c1.8,1.8,3.5,3.6,5.2,5.3
			c1.7,1.6,3.3,3.2,4.8,4.6c1.5,1.4,2.9,2.6,4.2,3.7c0.6,0.5,1.3,1,1.8,1.5c0.6,0.5,1.1,0.9,1.6,1.2c1,0.7,1.7,1.3,2.3,1.7
			C200.8,168.8,201.1,169,201.1,169z"/>
	</g>
	<g id="XMLID_570_">
		<path id="XMLID_35_" d="M212.8,139.4c0,0-1.1-0.4-3-1.1c-1.9-0.7-4.6-1.8-7.8-3.1c-1.6-0.7-3.3-1.4-5.2-2.2
			c-1.8-0.8-3.8-1.6-5.7-2.6c-2-0.9-4-1.9-6-3c-2-1.1-4.1-2.3-6-3.6c-1-0.6-1.9-1.3-3-2l-1.4-1c-0.5-0.4-0.9-0.8-1.4-1.2
			c-1.8-1.6-3.4-3.2-4.9-4.8c-1.5-1.6-2.8-3.2-4.1-4.7c-1.3-1.5-2.5-2.9-3.6-4.2c-1.1-1.3-2.2-2.4-3.2-3.4c-1-1-1.9-1.8-2.6-2.5
			c-0.8-0.7-1.4-1.2-1.8-1.5c-0.4-0.3-0.6-0.5-0.6-0.5s0.3,0.1,0.8,0.3c0.5,0.2,1.2,0.5,2.1,1c0.9,0.5,2,1.1,3.2,1.9
			c1.2,0.8,2.5,1.8,3.8,2.9c2.7,2.2,5.6,5.1,8.7,8.1c1.5,1.5,3.2,2.9,4.8,4.3l1.3,1l1.4,1c0.9,0.6,1.8,1.3,2.8,1.8
			c1.9,1.2,3.8,2.4,5.8,3.5c1.9,1.1,3.9,2.2,5.7,3.3c1.9,1.1,3.7,2.1,5.4,3c1.7,1,3.4,1.9,4.9,2.8c3,1.7,5.5,3.3,7.1,4.4
			c0.9,0.6,1.5,1,1.9,1.3C212.6,139.2,212.8,139.4,212.8,139.4z"/>
	</g>
	<g id="XMLID_567_">
		<path id="XMLID_33_" d="M137,111l-0.3-1.1l-0.2-1.1l-0.1-1.1l0-1.1l0.1-1.1l0.2-1.1l0.3-1.1l0.4-1.1l0.5-1.1l0.6-1l0.7-1l0.7-0.9
			l0.8-0.9l0.9-0.8l1-0.7l1-0.6l-0.8,1c0.1-0.6,0.2-1.2,0.3-1.7c0.1-0.6,0.3-1.1,0.5-1.6c0.4-1.1,0.8-2,1.2-2.9
			c0.2-0.5,0.4-0.9,0.5-1.3c0.1-0.4,0.3-0.9,0.3-1.3c0.1-0.4,0.1-0.8,0.1-1.2c0-0.1,0-0.5,0-0.7l0-0.7c-0.1-0.9-0.3-1.7-0.6-2.3
			c-0.2-0.3-0.3-0.4-0.5-0.6c-0.1-0.1-0.1-0.1-0.2-0.1l-0.1,0l0,0c0.1,0-0.1,0,0.1,0l0,0l0,0l0,0l-0.1,0c-0.1,0-0.3-0.1-0.2,0
			c0,0-0.1,0-0.2,0c-0.1,0-0.2,0-0.4,0.1c-0.3,0.1-0.6,0.3-0.9,0.5c-0.6,0.5-1.3,1.1-1.9,1.8l-1.7,2.1l-1.5-2.3c-1-1.6-1.9-3-3-3.7
			l-0.1-0.1l-0.1,0l0,0l0,0c-0.1,0,0.1,0,0.1,0l0,0l-0.3-0.2c-0.1,0-0.1,0-0.1-0.1l-0.2-0.1c-0.3-0.1-0.6-0.1-0.8-0.2
			c-0.6,0-1,0.1-1.3,0.3c-0.1,0.1-0.2,0.2-0.4,0.5c-0.1,0.1-0.1,0.3-0.2,0.5l-0.1,0.1c0,0-0.1,0.2,0,0.1l-0.1,0.3l-0.4,1.3
			c-0.1,0.4-0.2,0.8-0.3,1.3c-0.2,0.8-0.3,1.7-0.5,2.6c-0.1,0.9-0.2,1.8-0.3,2.6c-0.1,0.9-0.1,1.8-0.1,2.7c0.1,0.9,0.1,1.8,0.2,2.7
			c0.1,0.9,0.2,1.8,0.4,2.7c0.2,0.9,0.4,1.8,0.6,2.6l0.4,1.3l0.4,1.3c0.3,0.9,0.7,1.7,1,2.6c0.4,0.8,0.8,1.7,1.3,2.5
			c0.4,0.8,1,1.6,1.5,2.4c-0.7-0.7-1.4-1.3-2-2.1c-0.6-0.7-1.2-1.5-1.8-2.3c-0.3-0.4-0.5-0.8-0.8-1.2c-0.3-0.4-0.5-0.8-0.7-1.3
			l-0.7-1.3l-0.6-1.3c-0.4-0.9-0.7-1.8-1-2.7c-0.3-0.9-0.6-1.9-0.7-2.8c-0.2-1-0.3-1.9-0.5-2.9c-0.1-1-0.2-2-0.2-2.9c0-1,0-2,0.1-3
			c0.1-1,0.2-2,0.4-3c0.1-0.5,0.2-1,0.3-1.5l0.4-1.4l0.1-0.3l0.1-0.4c0.1-0.3,0.2-0.5,0.3-0.8c0.2-0.6,0.7-1.3,1.3-1.8
			c1.2-1,2.6-1.4,3.9-1.3c0.7,0,1.3,0.1,1.9,0.3l0.5,0.2l0.5,0.2l0.3,0.2l0.5,0.3c1,0.7,1.8,1.5,2.5,2.4c0.7,0.8,1.2,1.7,1.7,2.5
			l-3.2-0.3c0.8-0.8,1.6-1.7,2.6-2.4c0.5-0.4,1.2-0.7,1.9-1c0.4-0.1,0.8-0.2,1.2-0.3c0.4,0,0.8-0.1,1.4,0c0.3,0,0.4,0.1,0.5,0.1
			l0.3,0.1l0.3,0.1c0.4,0.2,0.8,0.4,1.1,0.7c0.7,0.5,1.2,1.2,1.5,1.9c0.6,1.3,0.8,2.6,0.8,3.8c0,0.3,0,0.6,0,0.9c0,0.3,0,0.5,0,0.9
			c0,0.6-0.1,1.3-0.3,1.8c-0.1,0.6-0.3,1.2-0.6,1.7c-0.2,0.5-0.5,1-0.7,1.5c-0.5,1-1,1.8-1.4,2.7c-0.2,0.4-0.4,0.9-0.5,1.3
			c-0.2,0.4-0.3,0.9-0.4,1.3l-0.2,0.8l-0.6,0.3l-0.9,0.4l-0.9,0.5l-0.8,0.6l-0.8,0.6l-0.7,0.7l-0.7,0.8l-0.6,0.8l-0.6,0.9l-0.5,0.9
			l-0.4,1l-0.4,1l-0.3,1l-0.2,1l-0.1,1.1l-0.1,1.1L137,111z"/>
	</g>
	<g id="XMLID_564_">
		<path id="XMLID_25_" d="M234.8,148.8c-2.1,1.9-3.6,4.2-4.7,6.7c-1.1,2.5-1.8,5.2-2.3,7.9c-0.2,1.3-0.5,2.8-0.7,4.1
			c-0.2,1.4-0.4,2.7-0.5,4.1c-0.2,1.4-0.2,2.7-0.3,4.1c-0.1,1.4-0.1,2.7-0.2,4.1c0,1.4,0,2.7,0,4.1c0,1.4,0.1,2.7,0.2,4.1
			c0.1,1.4,0.2,2.7,0.4,4.1c0.2,1.4,0.3,2.7,0.6,4.1c0.2,1.4,0.5,2.7,0.8,4c0.3,1.3,0.6,2.7,1,4l0.5,2l0.6,2
			c0.4,1.3,0.9,2.6,1.3,3.9l-4.7,1.4c-0.5-2-0.6-4-0.4-6c0.2-1.9,0.6-3.8,1.1-5.6c0.3-0.9,0.6-1.8,0.9-2.6l0.5-1.2l0.5-1.3
			c0.7-1.7,1.5-3.3,2.3-4.8c1.6-3.2,3.3-6.2,5-9.2c0.8-1.5,1.7-3,2.4-4.5c0.8-1.5,1.5-3,2.2-4.6c1.4-3,2.6-6.2,3.3-9.4
			c0.4-1.6,0.6-3.2,0.8-4.9c0.1-0.8,0.1-1.6,0.1-2.5l0-1.3c0-0.4-0.1-0.8-0.1-1.2c-0.2-1.6-0.5-3.2-1-4.8c-0.5-1.6-1.1-3.1-2-4.6
			c-0.8-1.4-1.8-2.8-3-4c-1.2-1.2-2.5-2.3-4-3.1l-0.9-0.5l1,0.3l1.5,0.4l-1.5-0.2l0.1-0.2c1.6,0.6,3.2,1.5,4.6,2.6
			c1.4,1.1,2.7,2.4,3.7,3.9c2.1,2.9,3.6,6.3,4.2,9.9c0.1,0.5,0.2,0.9,0.2,1.4l0.1,1.3c0.1,0.9,0.1,1.8,0.1,2.7
			c0,1.8-0.2,3.6-0.5,5.4c-0.6,3.6-1.7,7-3,10.3c-0.7,1.6-1.4,3.3-2.1,4.9c-0.8,1.6-1.5,3.2-2.3,4.7c-1.6,3.1-3.2,6.1-4.7,9.2
			c-0.7,1.5-1.4,3.1-2.1,4.6l-0.5,1.1L233,201c-0.3,0.8-0.5,1.5-0.8,2.3c-0.4,1.5-0.8,3.1-1,4.6c-0.2,1.5-0.1,3,0.2,4.4l-4.7,1.4
			c-0.4-1.4-0.9-2.7-1.3-4.1l-0.6-2.1l-0.5-2.1c-0.4-1.4-0.6-2.8-0.9-4.2c-0.2-1.4-0.5-2.8-0.6-4.3c-0.2-1.4-0.3-2.9-0.4-4.3
			c-0.1-1.4-0.2-2.9-0.2-4.3c0-1.4,0-2.9,0-4.3c0-1.4,0.1-2.9,0.2-4.3c0.1-1.4,0.3-2.8,0.5-4.3c0.2-1.4,0.4-2.8,0.7-4.2
			c0.2-1.4,0.6-2.8,0.9-4.2c0.3-1.4,0.7-2.7,1.1-4.1c0.9-2.7,1.9-5.4,3.4-7.9C230.5,152.5,232.5,150.3,234.8,148.8z"/>
	</g>
	<g id="XMLID_561_">
		<path id="XMLID_22_" d="M244.3,136.8c0,0-0.2,0-0.4-0.3c-0.2-0.4,0.1-0.9,0.6-1.4c0.3-0.2,0.6-0.5,1-0.6c0.4-0.1,0.9-0.2,1.3-0.3
			c1-0.2,2.1-0.5,3.3-0.7c2.5-0.5,5.5-1.1,8.8-2.1c3.2-1,6.9-2.6,9.6-5.6c2.7-3,3.9-7.4,3.9-12.1c0.1-4.7-0.9-9.7-3-14.4
			c-1-2.3-2.3-4.6-3.9-6.7c-1.6-2.1-3.4-4.1-5.4-5.8c-4.1-3.5-9-6.2-14.2-7.8c-2.6-0.8-5.3-1.4-8-1.7c-2.7-0.2-5.3-0.1-7.8,0.6
			c-2.4,0.7-4.6,1.9-6.2,3.7c-1.6,1.7-2.4,4.1-2.8,6.5c-0.1,0.6-0.2,1.2-0.2,1.9c0,0.6-0.1,1.3-0.1,1.9c0,1.3,0,2.4,0.1,3.7
			c0.2,2.5,0.6,4.9,1.3,7.2c0.6,2.3,1.4,4.5,2.3,6.6c0.9,2.1,1.8,4.1,2.8,6c2,3.8,4.1,7.1,5.9,10.1c1.8,3,3.1,5.9,3.7,8.4
			c0.3,1.2,0.4,2.4,0.4,3.4c0,1-0.1,1.8-0.2,2.5c0,0.3,0,0.6,0.2,0.8c0.2,0.2,0.4,0,0.5-0.1c0.1-0.1,0.1-0.3,0.1-0.3
			c-0.1-0.1-0.1-0.1-0.1-0.1c0,0,0,0,0.1,0.1c0.1,0.1,0.1,0.2,0,0.4c-0.1,0.1-0.1,0.2-0.2,0.2c-0.1,0.1-0.3,0-0.4-0.1
			c-0.2-0.2-0.3-0.5-0.3-0.9c0-0.7,0-1.5-0.1-2.5c-0.1-1-0.3-2-0.7-3.2c-0.8-2.3-2.3-5-4.2-7.8c-2-2.8-4.4-6.1-6.6-9.8
			c-2.2-3.7-4.4-8-6-12.9c-0.8-2.4-1.4-5-1.7-7.7c-0.2-1.3-0.2-2.8-0.2-4.2c0-0.7,0-1.4,0.1-2.1c0-0.7,0.1-1.4,0.2-2.1
			c0.4-2.8,1.4-5.9,3.5-8.4c1-1.2,2.3-2.3,3.6-3.1c1.4-0.8,2.8-1.4,4.3-1.8c6-1.7,12.3-0.8,18,1c5.7,1.8,11.1,4.8,15.6,8.7
			c4.5,3.9,7.9,8.9,10,14.1c2.2,5.2,3,10.7,2.7,15.9c-0.1,2.5-0.6,5.1-1.4,7.4c-0.8,2.3-2.2,4.5-3.8,6.1c-1.6,1.7-3.5,2.9-5.4,3.7
			c-1.9,0.8-3.7,1.4-5.5,1.8c-3.5,0.8-6.5,1.1-9,1.4c-1.2,0.1-2.4,0.3-3.3,0.4c-0.5,0.1-1,0.1-1.3,0.2c-0.4,0.1-0.7,0.3-0.9,0.5
			c-0.5,0.4-0.8,0.9-0.7,1.2C244.1,136.8,244.3,136.8,244.3,136.8z"/>
	</g>
	<g id="XMLID_558_">
		<path id="XMLID_20_" d="M214.5,96.9c0,0,0,0.2,0,0.5c0,0.3,0,0.7,0,1.3c0,0.6-0.1,1.3-0.2,2c-0.1,0.8-0.3,1.7-0.5,2.6
			c-0.2,0.9-0.5,2-0.8,3c-0.3,1-0.6,2.1-0.9,3.3c-0.3,1.1-0.6,2.3-0.8,3.4c-0.2,1.2-0.4,2.3-0.4,3.5c-0.1,1.1,0,2.3,0.3,3.4
			c0.2,1,0.5,2.2,1,3.2c0.5,1,0.9,2,1.5,2.8c0.6,0.8,1.2,1.6,1.8,2.2c0.6,0.7,1.3,1.2,1.9,1.7c0.6,0.5,1.1,0.8,1.6,1.1
			c0.5,0.3,0.9,0.5,1.1,0.6c0.3,0.1,0.4,0.2,0.4,0.2s-0.2,0-0.5-0.1c-0.3,0-0.8-0.1-1.3-0.3c-0.6-0.1-1.2-0.4-2-0.7
			c-0.7-0.3-1.6-0.8-2.4-1.4c-1.7-1.1-3.4-2.9-4.6-5.2c-0.6-1.1-1.1-2.4-1.5-3.8c-0.3-1.3-0.4-2.7-0.4-4.1c0-1.4,0.2-2.7,0.5-4
			c0.3-1.3,0.7-2.5,1.1-3.7c0.9-2.3,1.8-4.3,2.6-6c0.4-0.9,0.7-1.7,1-2.4c0.3-0.7,0.6-1.3,0.8-1.8C214.3,97.5,214.5,96.9,214.5,96.9
			z"/>
	</g>
	<path id="XMLID_557_" class="st2" d="M217.7,141.1c2.7,0.3,5.4,0.6,8,0.9"/>
	<g id="XMLID_554_">
		<path id="XMLID_18_" d="M221.7,124.4c0,0,0.1-0.1,0.4-0.1c0.1,0,0.3-0.1,0.4-0.1c0.1-0.1,0.2-0.1,0.4-0.2c0.5-0.2,0.9-0.5,1.4-0.6
			c0.4-0.1,0.9-0.1,1.5-0.2c0.3,0,0.6-0.1,0.8-0.1c0.2-0.1,0.4-0.1,0.4-0.1s0.1,0.1,0.1,0.4c0,0.1,0.1,0.3,0.1,0.4
			c0,0.2,0,0.4-0.1,0.6c-0.1,0.4-0.3,0.8-0.7,1.2c-0.2,0.2-0.4,0.3-0.6,0.5c-0.2,0.1-0.5,0.2-0.7,0.3c-0.5,0.1-1,0.1-1.5,0
			c-0.5-0.1-0.9-0.4-1.2-0.6c-0.1-0.1-0.3-0.3-0.4-0.4c-0.1-0.1-0.1-0.3-0.2-0.4C221.7,124.5,221.7,124.4,221.7,124.4z"/>
	</g>
	<g id="XMLID_551_">
		<path id="XMLID_16_" d="M211,107c-0.1-0.1-0.2-0.3-0.3-0.4c-0.1-0.1-0.2-0.2-0.2-0.3c-0.2-0.2-0.3-0.4-0.4-0.6
			c-0.3-0.3-0.5-0.6-0.7-0.9c-0.4-0.6-0.7-1-1-1.7l-0.5-1l0-0.1c0.2-0.7,0.6-1.1,1.1-1.3c0.3-0.1,0.5-0.1,0.7-0.1
			c0.2,0,0.5,0.1,0.6,0.3c-0.2,0.2-0.3,0.3-0.3,0.5c-0.1,0.1-0.1,0.3-0.1,0.4c0,0.2,0.2,0.4,0.3,0.3l-0.5-1c1.1,0.4,2,1.4,2.2,2.6
			c0.1,0.6,0.1,1.2,0,1.7c-0.1,0.3-0.2,0.6-0.4,0.8C211.5,106.6,211.2,106.8,211,107z"/>
	</g>
	<path id="XMLID_550_" class="st2" d="M226.6,124.6c1.5-0.5,2.5-2,2.4-3.6"/>
	<path id="XMLID_549_" class="st2" d="M208.1,101.3c1.8-1.4,3.6-2.7,5.5-4.1"/>
	<g id="XMLID_546_">
		<path id="XMLID_14_" d="M214.2,99.4c0.4,0,0.8,0.1,1.2,0.2c0.4,0.1,0.8,0.2,1.2,0.4c0.8,0.3,1.5,0.8,2.2,1.3
			c0.7,0.5,1.3,1.2,1.8,1.9c0.5,0.7,1,1.5,1.4,2.3l4.6,10l-7.7-8.2c-0.4-0.4-0.9-0.9-1.5-1.4c-0.5-0.5-1-1-1.6-1.6
			c-0.5-0.6-1-1.2-1.5-1.8c-0.5-0.7-0.9-1.4-1.3-2.3c-0.2-0.5-0.3-1-0.3-1.6c0-0.1,0-0.6,0.1-0.8c0-0.3,0.1-0.5,0.2-0.7
			c0.3-0.9,0.6-1.6,1-2.3c0.7-1.4,1.7-2.5,2.4-3.7l0.2,0.4c0,0,0.1,0,0.1-0.1c0,0-0.1,0-0.2,0c-0.1,0.1-0.2,0.3,0,0.4
			c-0.1,0-0.3,0-0.3-0.2c-0.1-0.1-0.1-0.3,0-0.4c0-0.1,0.1-0.3,0.2-0.4c0.1-0.1,0.2-0.1,0.3-0.1c0.1,0,0.3,0,0.4,0.1l0.1,0.1l0,0.3
			c0,0.4,0,0.8,0,1.2c0,0.4-0.1,0.8-0.2,1.1c-0.1,0.7-0.3,1.5-0.4,2.2c-0.1,0.7-0.3,1.4-0.3,1.9l0,0.4c0,0.1,0,0,0,0.3
			c0,0.2,0.1,0.3,0.2,0.5c0.2,0.4,0.6,0.9,1,1.4c0.4,0.5,0.8,1,1.3,1.5c0.9,1.1,1.9,2.1,2.9,3.4l-3.1,1.8c-0.1-0.3-0.2-0.6-0.3-1
			c-0.1-0.3-0.2-0.6-0.4-1c-0.1-0.3-0.3-0.6-0.4-0.9c-0.2-0.3-0.3-0.6-0.5-0.9c-0.2-0.3-0.4-0.6-0.6-0.9c-0.2-0.3-0.4-0.6-0.7-0.9
			c-0.2-0.3-0.5-0.6-0.7-0.9C214.8,100,214.5,99.7,214.2,99.4z"/>
	</g>
	<g id="XMLID_540_">
		<path id="XMLID_12_" d="M192.5,214.2c0,0,0,0,0.1,0c0.1,0,0.4-0.2,0.6-0.2c0.2,0,0.4-0.1,0.7-0.1c1-0.1,1.9,0.4,2.6,0.8
			c0.1,0.1,0.2,0.1,0.2,0.2l0.2,0.1c0.1,0.1,0.3,0.2,0.4,0.3c0.3,0.2,0.6,0.4,0.9,0.6c0.6,0.4,1.3,0.8,2.1,1.2
			c1.6,0.9,3.5,1.7,5.7,2.5c2.2,0.8,4.6,1.4,7,1.9c2.5,0.5,4.9,0.8,7.3,1c2.4,0.2,4.6,0.3,6.5,0.4c3.8,0.1,6.4,0.2,6.4,0.2
			s-2.5,0.3-6.3,0.6c-1.9,0.2-4.1,0.3-6.5,0.4c-2.4,0.1-5,0.1-7.6-0.1c-2.6-0.2-5.2-0.5-7.6-1c-2.4-0.5-4.7-1.2-6.5-2
			c-0.9-0.4-1.8-0.7-2.6-1.1c-0.4-0.2-0.7-0.4-1-0.5c-0.1-0.1-0.3-0.2-0.4-0.2c-0.1,0-0.1-0.1-0.2-0.1l-0.1-0.1
			c-0.3-0.2-0.3,0,0.1,0c0.1,0,0.2,0,0.3,0c0.1,0,0.3-0.1,0.3-0.1c-0.1,0-0.1,0.1-0.1,0.1L192.5,214.2z"/>
	</g>
	<g id="XMLID_446_">
		<path id="XMLID_10_" d="M263.2,366.2c-0.9,0.7-1.8,1.4-2.8,2c-1,0.6-2,1.1-3.1,1.5c-2.1,0.8-4.4,1.3-6.8,1.5l0.7-0.5
			c-0.8,2.5-1.6,5-2.2,7.5c-0.3,1.3-0.5,2.5-0.6,3.8c-0.1,0.6-0.1,1.2-0.1,1.9c0,0.6,0.1,1.2,0.2,1.8l-0.6-0.9
			c2.5,1.6,5.5,2.4,8.4,2.6c3,0.2,5.9-0.4,8.6-1.7c1.3-0.6,2.6-1.5,3.9-2.3c1.3-0.9,2.6-1.8,3.9-2.7c2.6-1.8,5.3-3.6,7.9-5.4
			l7.9-5.3c0.1-0.1,0.2-0.1,0.2-0.1c0,0,0,0.1,0,0.1c0.1,0.2,0-0.1-0.2-0.4c-0.3-0.4-0.4-0.5-0.7-0.8c-0.2-0.3-0.5-0.5-0.8-0.7
			c-1.1-0.9-2.4-1.6-3.8-2.1c-1.4-0.5-2.9-0.7-4.5-0.8c-1.5-0.1-3.1-0.1-4.7,0c-3.2,0.2-6.4,0.4-9.6,0.5c3.2-0.6,6.3-1.1,9.5-1.6
			c1.6-0.2,3.2-0.4,4.9-0.5c1.6,0,3.3,0.1,5,0.5c1.6,0.4,3.3,1.1,4.7,2.2c0.4,0.3,0.7,0.6,1,0.9c0.3,0.3,0.7,0.7,0.9,1l0.2,0.3
			c0.1,0.1,0.2,0.2,0.2,0.3c0.1,0.3,0.3,0.6,0.3,1.1c0,0.4-0.2,1-0.4,1.3c-0.2,0.3-0.5,0.5-0.7,0.7l-1,0.7l-1,0.7l-1.9,1.4l-3.9,2.8
			c-2.6,1.9-5.2,3.7-7.8,5.5c-1.3,0.9-2.6,1.8-4,2.7c-1.4,0.9-2.8,1.8-4.3,2.5c-3.1,1.5-6.6,2.1-10,1.8c-3.4-0.3-6.8-1.4-9.6-3.3
			l-0.5-0.3L246,386c-0.1-0.7-0.1-1.5-0.1-2.2c0-0.7,0.1-1.4,0.2-2.1c0.2-1.4,0.5-2.7,0.9-4c0.8-2.6,1.8-5.1,2.8-7.5l0.2-0.5l0.5,0
			c1.1,0,2.2,0,3.3-0.1c1.1-0.1,2.2-0.4,3.3-0.6c1.1-0.3,2.1-0.7,3.2-1.1C261.2,367.4,262.2,366.8,263.2,366.2z"/>
	</g>
	<g id="XMLID_265_">
		<path id="XMLID_8_" d="M183.6,374.7c-0.2,0.5-0.4,1.1-0.5,1.6c-0.1,0.5-0.2,1.1-0.3,1.6c-0.1,0.5-0.1,1.1-0.2,1.6
			c0,0.5,0,1.1,0,1.6c0,0.5,0.1,1.1,0.2,1.6c0.1,0.5,0.2,1,0.3,1.5c0.1,0.5,0.3,1,0.5,1.5c0.2,0.5,0.4,0.9,0.6,1.4l-0.6-0.6
			c2.9,1,5.7,2.1,8.4,2.5c0.7,0.1,1.4,0.2,2.1,0.2c0.7,0,1.3,0,2,0c1.3-0.1,2.6-0.4,3.8-1c1.2-0.6,2.1-1.2,3-2.2
			c0.9-1,1.8-2.4,3.2-3.6c0.2-0.1,0.3-0.2,0.4-0.4l0.6-0.4c0.4-0.3,0.8-0.5,1.2-0.7c0.8-0.4,1.6-0.7,2.4-1c1.6-0.6,3.1-0.9,4.6-1.2
			c1.5-0.3,2.9-0.7,4.3-1c0.7-0.2,1.3-0.4,1.8-0.6c0.5-0.2,0.9-0.6,0.9-0.7c0-0.1,0.1,0.1,0,0c-0.1-0.1-0.6-0.4-1.2-0.5
			c-0.1,0-0.3-0.1-0.5-0.1l-0.6-0.1l-1.1-0.1l-2.3-0.3c-1.5-0.2-3-0.4-4.5-0.6c-1.5-0.2-3-0.4-4.5-0.7c-3-0.5-6-1-9-1.6
			c3.1-0.1,6.1-0.2,9.1-0.1c1.5,0,3,0,4.6,0c1.5,0,3,0,4.6,0.1l2.3,0.1l1.1,0l0.6,0c0.2,0,0.4,0,0.7,0c0.9,0.1,1.9,0.2,3,1.1
			c0.3,0.2,0.5,0.5,0.7,0.8c0.1,0.2,0.2,0.4,0.3,0.6l0,0.1l0,0.1l0,0l0,0.1l0,0.1c0.2,0.7,0,1.6-0.3,2.2c-0.6,1.2-1.5,1.8-2.4,2.4
			c-0.1,0.1-0.2,0.1-0.4,0.2l-0.3,0.1l-0.6,0.3c-0.4,0.2-0.8,0.3-1.2,0.4c-1.5,0.6-3.1,0.9-4.5,1.2c-1.5,0.4-2.9,0.7-4.1,1.2
			c-0.6,0.2-1.2,0.5-1.8,0.8c-0.3,0.2-0.6,0.3-0.8,0.5l-0.3,0.2c-0.1,0.1-0.3,0.2-0.4,0.3c-0.9,0.7-1.8,1.9-2.9,3.1
			c-0.6,0.6-1.3,1.3-2,1.8c-0.7,0.5-1.5,0.9-2.4,1.3c-1.6,0.7-3.4,1-5,1c-0.8,0-1.7,0-2.5-0.1c-0.8-0.1-1.6-0.3-2.4-0.5
			c-3.2-0.8-6-2.2-8.7-3.5l-0.5-0.2l-0.1-0.3c-0.2-0.6-0.4-1.1-0.5-1.7c-0.1-0.6-0.2-1.2-0.3-1.8c-0.1-0.6-0.1-1.2-0.1-1.8
			c0-0.6,0-1.2,0.1-1.8c0.1-0.6,0.2-1.2,0.3-1.7c0.1-0.6,0.3-1.1,0.5-1.7c0.2-0.5,0.4-1.1,0.7-1.6
			C183,375.6,183.3,375.1,183.6,374.7z"/>
	</g>
</g>
</svg>
